<svg width="35" height="30" viewBox="0 0 35 30" fill="none" xmlns="http://www.w3.org/2000/svg">
<path d="M15.9809 13.1586L17.203 12.9672V6.72412H14.8301V13.7689C15.1148 13.4492 15.5244 13.232 15.9809 13.1586Z" fill="black"/>
<path d="M29.501 0.253448C29.3931 0.0972708 29.1999 0.00126056 28.9908 0H27.9586C27.7495 0.00126056 27.5563 0.0972708 27.4484 0.253448L26.5586 1.55172H30.3908L29.501 0.253448Z" fill="black"/>
<path d="M21.7891 0.253448C21.6812 0.0972708 21.488 0.00126056 21.2789 0H20.2467C20.0376 0.00126056 19.8443 0.0972708 19.7365 0.253448L18.8467 1.55172H22.6789L21.7891 0.253448Z" fill="black"/>
<path d="M34.4064 3.6214C34.4044 3.05078 33.8744 2.58862 33.2199 2.58691H16.0165C15.3621 2.58862 14.832 3.05078 14.8301 3.6214V5.69036H34.4064V3.6214ZM29.0674 4.65588H27.8809C27.5533 4.65588 27.2877 4.4243 27.2877 4.13864C27.2877 3.85297 27.5533 3.6214 27.8809 3.6214H29.0674C29.395 3.6214 29.6606 3.85297 29.6606 4.13864C29.6606 4.4243 29.395 4.65588 29.0674 4.65588ZM32.6267 4.65588H31.4403C31.1126 4.65588 30.847 4.4243 30.847 4.13864C30.847 3.85297 31.1126 3.6214 31.4403 3.6214H32.6267C32.9543 3.6214 33.2199 3.85297 33.2199 4.13864C33.2199 4.4243 32.9543 4.65588 32.6267 4.65588Z" fill="black"/>
<path d="M3.55904 13.9656H11.8641C12.1918 13.9656 12.4573 13.7341 12.4573 13.4484C12.4573 13.1627 12.1918 12.9312 11.8641 12.9312H3.55904C3.23141 12.9312 2.96582 13.1627 2.96582 13.4484C2.96582 13.7341 3.23141 13.9656 3.55904 13.9656Z" fill="black"/>
<path d="M2.37252 16.5523H10.6776C11.0052 16.5523 11.2708 16.3207 11.2708 16.0351C11.2708 15.7494 11.0052 15.5178 10.6776 15.5178H2.37252C2.04489 15.5178 1.7793 15.7494 1.7793 16.0351C1.7793 16.3207 2.04489 16.5523 2.37252 16.5523Z" fill="black"/>
<path d="M0.59322 19.1382H8.8983C9.22593 19.1382 9.49153 18.9067 9.49153 18.621C9.49153 18.3353 9.22593 18.1038 8.8983 18.1038H0.59322C0.265594 18.1038 0 18.3353 0 18.621C0 18.9067 0.265594 19.1382 0.59322 19.1382Z" fill="black"/>
<path d="M4.15279 28.9655C3.82516 28.9655 3.55957 29.1971 3.55957 29.4827C3.55957 29.7684 3.82516 30 4.15279 30H34.407C34.7347 30 35.0002 29.7684 35.0002 29.4827C35.0002 29.1971 34.7347 28.9655 34.407 28.9655V6.72412H32.0341V28.9655H4.15279Z" fill="black"/>
<path d="M1.77966 28.9653H0.59322C0.265594 28.9653 0 29.1969 0 29.4826C0 29.7682 0.265594 29.9998 0.59322 29.9998H1.77966C2.10729 29.9998 2.37288 29.7682 2.37288 29.4826C2.37288 29.1969 2.10729 28.9653 1.77966 28.9653Z" fill="black"/>
<path d="M22.839 12.9275C22.9968 12.9282 23.1541 12.9126 23.3076 12.8809C24.2457 12.6964 24.9175 11.9765 24.934 11.1381C24.9505 10.2997 24.3074 9.56014 23.3771 9.34764C22.4468 9.13513 21.4705 9.50477 21.0134 10.2425C20.5563 10.9803 20.737 11.8949 21.4508 12.4568C21.8289 12.7607 22.3247 12.9288 22.839 12.9275Z" fill="black"/>
<path d="M10.649 26.1018C9.74312 26.1032 9.01008 26.7447 9.01172 27.5346C9.01336 28.3244 9.74905 28.9636 10.6549 28.9621C11.5608 28.9607 12.2939 28.3193 12.2922 27.5294C12.2903 26.7396 11.5548 26.1007 10.649 26.1018Z" fill="black"/>
<path d="M28.4746 17.0637C28.476 17.2034 28.4091 17.337 28.2907 17.431C28.1844 17.5289 28.0359 17.5833 27.8813 17.581H25.7695C25.5634 17.5937 25.3609 17.5298 25.2118 17.4051L23.2661 15.6724C23.1178 15.5379 22.8973 15.4844 22.6907 15.5327C22.4859 15.5819 22.3259 15.7214 22.2695 15.8999L21.0356 19.9706C20.9747 20.1674 21.054 20.3769 21.2373 20.5034L24.4644 22.8051C24.6054 22.9056 24.7002 23.047 24.7313 23.2034L25.6093 28.2206C25.6438 28.3858 25.5988 28.5561 25.4847 28.6913C25.3698 28.8293 25.1971 28.9222 25.0042 28.9499C24.9669 28.9554 24.9293 28.9589 24.8915 28.9603C24.5288 28.9639 24.2181 28.7348 24.1618 28.4224L23.3491 23.8396C23.3266 23.7131 23.2504 23.5987 23.1356 23.5189L20.0686 21.331C19.9175 21.2198 19.7121 21.1828 19.5229 21.2327C19.3331 21.2843 19.1846 21.4138 19.1254 21.5793L16.7347 28.4999C16.6865 28.6668 16.56 28.8083 16.3863 28.8899C16.2126 28.9716 16.0075 28.9858 15.8212 28.9293C15.6354 28.8798 15.4797 28.7682 15.3881 28.6189C15.297 28.4713 15.2777 28.298 15.3347 28.1379L19.6178 15.692C19.6773 15.5193 19.6293 15.3321 19.4913 15.1978C19.3532 15.0636 19.1449 15.0017 18.9415 15.0346L17.0669 15.3362C16.8956 15.3631 16.7462 15.4537 16.6576 15.5844L15.1923 17.8189C15.1154 17.9416 14.9916 18.0368 14.8423 18.0879C14.6311 18.1693 14.3875 18.1558 14.1898 18.0517C14.0299 17.9702 13.9113 17.839 13.8576 17.6844C13.8576 17.6741 13.8517 17.6637 13.8517 17.6534C13.8024 17.4945 13.828 17.325 13.9229 17.1827L15.6907 14.4775C15.7996 14.3155 15.9834 14.2024 16.1949 14.1672L20.3712 13.5155L20.9525 13.4224C21.5019 13.7683 22.1613 13.9563 22.839 13.9603C23.0303 13.9592 23.221 13.9419 23.4084 13.9086L25.9118 16.3706C26.0234 16.4833 26.186 16.5476 26.3568 16.5465H27.8813C28.0387 16.5465 28.1895 16.601 28.3008 16.698C28.4121 16.795 28.4746 16.9266 28.4746 17.0637Z" fill="black"/>
<path d="M13.5197 18.9014L12.7212 21.2853C12.5452 21.2092 12.3618 21.1471 12.1731 21.0996C10.4134 20.6447 8.56101 21.5064 8.01458 23.0341L6.5434 27.0893C6.47684 27.2707 6.59084 27.4648 6.79848 27.5238L7.86035 27.8341C7.83938 27.7334 7.82748 27.6313 7.82475 27.529C7.82243 26.6302 8.38326 25.8021 9.28701 25.3698C10.1908 24.9375 11.2931 24.9701 12.1612 25.4548L13.2207 22.2805L14.2648 19.144C14.0319 19.1156 13.8068 19.0508 13.6003 18.9526C13.5731 18.9376 13.5493 18.9169 13.5197 18.9014Z" fill="black"/>
</svg>
