<svg width="35" height="35" viewBox="0 0 35 35" fill="none" xmlns="http://www.w3.org/2000/svg">
<g clip-path="url(#clip0_761_1579)">
<path d="M17.5002 3.15005C17.6626 3.15005 17.8184 3.08552 17.9333 2.97065C18.0482 2.85579 18.1127 2.69999 18.1127 2.53755C18.1127 2.3751 18.0482 2.21931 17.9333 2.10445C17.8184 1.98958 17.6626 1.92505 17.5002 1.92505C17.3378 1.92505 17.182 1.98958 17.0671 2.10445C16.9522 2.21931 16.8877 2.3751 16.8877 2.53755C16.8877 2.69999 16.9522 2.85579 17.0671 2.97065C17.182 3.08552 17.3378 3.15005 17.5002 3.15005Z" fill="black"/>
<path d="M28.8149 3.85555H24.4781C24.3532 3.50571 24.1233 3.20295 23.8199 2.9886C23.5165 2.77426 23.1543 2.65877 22.7828 2.6579H20.4149C20.3516 1.92842 20.0171 1.24918 19.4775 0.754295C18.9378 0.259412 18.2322 -0.0151367 17.5 -0.0151367C16.7678 -0.0151367 16.0622 0.259412 15.5225 0.754295C14.9829 1.24918 14.6484 1.92842 14.5852 2.6579H12.3539C11.9824 2.65877 11.6203 2.77426 11.3168 2.9886C11.0134 3.20295 10.7836 3.50571 10.6586 3.85555H6.18517C6.01907 3.85483 5.85447 3.88701 5.70088 3.95024C5.54728 4.01347 5.40773 4.10649 5.29028 4.22394C5.17283 4.3414 5.0798 4.48095 5.01657 4.63454C4.95334 4.78814 4.92116 4.95273 4.92189 5.11883V33.7368C4.92116 33.9029 4.95334 34.0675 5.01657 34.2211C5.0798 34.3747 5.17283 34.5142 5.29028 34.6317C5.40773 34.7491 5.54728 34.8422 5.70088 34.9054C5.85447 34.9686 6.01907 35.0008 6.18517 35.0001H28.8149C28.9805 35.0008 29.1446 34.9688 29.2979 34.9059C29.4511 34.843 29.5904 34.7505 29.7078 34.6336C29.8252 34.5167 29.9183 34.3778 29.9819 34.2249C30.0454 34.0719 30.0781 33.9079 30.0781 33.7423V5.11883C30.0789 4.95273 30.0467 4.78814 29.9834 4.63454C29.9202 4.48095 29.8272 4.3414 29.7097 4.22394C29.5923 4.10649 29.4527 4.01347 29.2991 3.95024C29.1456 3.88701 28.981 3.85483 28.8149 3.85555ZM17.5 1.38915C17.7267 1.39023 17.948 1.45836 18.136 1.58497C18.324 1.71158 18.4704 1.89099 18.5566 2.10062C18.6428 2.31024 18.6651 2.5407 18.6206 2.76296C18.5761 2.98523 18.4669 3.18936 18.3066 3.34964C18.1463 3.50992 17.9422 3.61919 17.7199 3.66367C17.4977 3.70816 17.2672 3.68588 17.0576 3.59963C16.8479 3.51339 16.6685 3.36704 16.5419 3.17902C16.4153 2.991 16.3472 2.76972 16.3461 2.54305C16.3461 2.23702 16.4677 1.94352 16.6841 1.72712C16.9005 1.51072 17.194 1.38915 17.5 1.38915ZM27.8524 32.4516C27.8568 32.6146 27.7966 32.7728 27.685 32.8916C27.5733 33.0104 27.4192 33.0803 27.2563 33.086H7.73829C7.65713 33.0839 7.57721 33.0656 7.50325 33.0321C7.4293 32.9986 7.36282 32.9506 7.30775 32.8909C7.25268 32.8313 7.21014 32.7612 7.18264 32.6848C7.15515 32.6084 7.14325 32.5272 7.14767 32.4462V6.40946C7.14174 6.24645 7.2005 6.0877 7.31114 5.96784C7.42178 5.84798 7.57533 5.77672 7.73829 5.76961H10.5492V6.49149C10.5492 6.70615 10.6345 6.91202 10.7863 7.0638C10.9381 7.21559 11.1439 7.30086 11.3586 7.30086H23.7727C23.881 7.30378 23.9889 7.28503 24.09 7.24573C24.191 7.20643 24.2832 7.14736 24.3611 7.07199C24.439 6.99661 24.5011 6.90644 24.5437 6.80676C24.5864 6.70709 24.6087 6.5999 24.6094 6.49149V5.77508H27.2781C27.3591 5.7772 27.4388 5.79533 27.5126 5.82844C27.5865 5.86154 27.6531 5.90896 27.7085 5.96795C27.7639 6.02694 27.8071 6.09633 27.8356 6.17211C27.864 6.2479 27.8771 6.32857 27.8742 6.40946L27.8524 32.4516Z" fill="black"/>
<path d="M26.5834 10.1938H16.0615C15.989 10.1938 15.9195 10.2227 15.8682 10.2739C15.8169 10.3252 15.7881 10.3948 15.7881 10.4673C15.7881 10.5398 15.8169 10.6094 15.8682 10.6606C15.9195 10.7119 15.989 10.7407 16.0615 10.7407H26.5834C26.6559 10.7407 26.7255 10.7119 26.7767 10.6606C26.828 10.6094 26.8568 10.5398 26.8568 10.4673C26.8568 10.3948 26.828 10.3252 26.7767 10.2739C26.7255 10.2227 26.6559 10.1938 26.5834 10.1938Z" fill="black"/>
<path d="M16.0615 13.2397H22.0771C22.1497 13.2397 22.2192 13.2109 22.2705 13.1597C22.3218 13.1084 22.3506 13.0388 22.3506 12.9663C22.3506 12.8938 22.3218 12.8242 22.2705 12.773C22.2192 12.7217 22.1497 12.6929 22.0771 12.6929H16.0615C15.989 12.6929 15.9195 12.7217 15.8682 12.773C15.8169 12.8242 15.7881 12.8938 15.7881 12.9663C15.7881 13.0388 15.8169 13.1084 15.8682 13.1597C15.9195 13.2109 15.989 13.2397 16.0615 13.2397Z" fill="black"/>
<path d="M16.0615 16.625H21.1967C21.2692 16.625 21.3387 16.5962 21.39 16.5449C21.4413 16.4936 21.4701 16.4241 21.4701 16.3516C21.4701 16.279 21.4413 16.2095 21.39 16.1582C21.3387 16.1069 21.2692 16.0781 21.1967 16.0781H16.0615C15.989 16.0781 15.9195 16.1069 15.8682 16.1582C15.8169 16.2095 15.7881 16.279 15.7881 16.3516C15.7881 16.4241 15.8169 16.4936 15.8682 16.5449C15.9195 16.5962 15.989 16.625 16.0615 16.625Z" fill="black"/>
<path d="M16.0615 19.1406H24.4779C24.5504 19.1406 24.62 19.1118 24.6713 19.0605C24.7226 19.0093 24.7514 18.9397 24.7514 18.8672C24.7514 18.7947 24.7226 18.7251 24.6713 18.6738C24.62 18.6226 24.5504 18.5938 24.4779 18.5938H16.0615C15.989 18.5938 15.9195 18.6226 15.8682 18.6738C15.8169 18.7251 15.7881 18.7947 15.7881 18.8672C15.7881 18.9397 15.8169 19.0093 15.8682 19.0605C15.9195 19.1118 15.989 19.1406 16.0615 19.1406Z" fill="black"/>
<path d="M26.5832 16.0891H22.6074C22.5349 16.0891 22.4654 16.1179 22.4141 16.1692C22.3628 16.2205 22.334 16.29 22.334 16.3625C22.334 16.4351 22.3628 16.5046 22.4141 16.5559C22.4654 16.6072 22.5349 16.636 22.6074 16.636H26.5832C26.6557 16.636 26.7253 16.6072 26.7766 16.5559C26.8278 16.5046 26.8566 16.4351 26.8566 16.3625C26.8566 16.29 26.8278 16.2205 26.7766 16.1692C26.7253 16.1179 26.6557 16.0891 26.5832 16.0891Z" fill="black"/>
<path d="M16.0615 22.2798H21.1967C21.2692 22.2798 21.3387 22.251 21.39 22.1997C21.4413 22.1484 21.4701 22.0789 21.4701 22.0063C21.4701 21.9338 21.4413 21.8643 21.39 21.813C21.3387 21.7617 21.2692 21.7329 21.1967 21.7329H16.0615C15.989 21.7329 15.9195 21.7617 15.8682 21.813C15.8169 21.8643 15.7881 21.9338 15.7881 22.0063C15.7881 22.0789 15.8169 22.1484 15.8682 22.1997C15.9195 22.251 15.989 22.2798 16.0615 22.2798Z" fill="black"/>
<path d="M16.0615 24.7844H24.4779C24.5504 24.7844 24.62 24.7556 24.6713 24.7043C24.7226 24.6531 24.7514 24.5835 24.7514 24.511C24.7514 24.4385 24.7226 24.3689 24.6713 24.3176C24.62 24.2664 24.5504 24.2375 24.4779 24.2375H16.0615C15.989 24.2375 15.9195 24.2664 15.8682 24.3176C15.8169 24.3689 15.7881 24.4385 15.7881 24.511C15.7881 24.5835 15.8169 24.6531 15.8682 24.7043C15.9195 24.7556 15.989 24.7844 16.0615 24.7844Z" fill="black"/>
<path d="M26.5832 21.7437H22.6074C22.5349 21.7437 22.4654 21.7725 22.4141 21.8237C22.3628 21.875 22.334 21.9446 22.334 22.0171C22.334 22.0896 22.3628 22.1592 22.4141 22.2104C22.4654 22.2617 22.5349 22.2905 22.6074 22.2905H26.5832C26.6557 22.2905 26.7253 22.2617 26.7766 22.2104C26.8278 22.1592 26.8566 22.0896 26.8566 22.0171C26.8566 21.9446 26.8278 21.875 26.7766 21.8237C26.7253 21.7725 26.6557 21.7437 26.5832 21.7437Z" fill="black"/>
<path d="M16.0615 27.9343H21.1967C21.2692 27.9343 21.3387 27.9055 21.39 27.8542C21.4413 27.803 21.4701 27.7334 21.4701 27.6609C21.4701 27.5884 21.4413 27.5188 21.39 27.4675C21.3387 27.4163 21.2692 27.3875 21.1967 27.3875H16.0615C15.989 27.3875 15.9195 27.4163 15.8682 27.4675C15.8169 27.5188 15.7881 27.5884 15.7881 27.6609C15.7881 27.7334 15.8169 27.803 15.8682 27.8542C15.9195 27.9055 15.989 27.9343 16.0615 27.9343Z" fill="black"/>
<path d="M24.4779 29.9031H16.0615C15.989 29.9031 15.9195 29.9319 15.8682 29.9832C15.8169 30.0344 15.7881 30.104 15.7881 30.1765C15.7881 30.249 15.8169 30.3186 15.8682 30.3699C15.9195 30.4211 15.989 30.45 16.0615 30.45H24.4779C24.5504 30.45 24.62 30.4211 24.6713 30.3699C24.7226 30.3186 24.7514 30.249 24.7514 30.1765C24.7514 30.104 24.7226 30.0344 24.6713 29.9832C24.62 29.9319 24.5504 29.9031 24.4779 29.9031Z" fill="black"/>
<path d="M26.5832 27.3984H22.6074C22.5349 27.3984 22.4654 27.4272 22.4141 27.4785C22.3628 27.5298 22.334 27.5994 22.334 27.6719C22.334 27.7444 22.3628 27.8139 22.4141 27.8652C22.4654 27.9165 22.5349 27.9453 22.6074 27.9453H26.5832C26.6557 27.9453 26.7253 27.9165 26.7766 27.8652C26.8278 27.8139 26.8566 27.7444 26.8566 27.6719C26.8566 27.5994 26.8278 27.5298 26.7766 27.4785C26.7253 27.4272 26.6557 27.3984 26.5832 27.3984Z" fill="black"/>
<path d="M11.375 12.272C10.6828 12.272 10.0061 12.4772 9.43051 12.8618C8.85493 13.2464 8.40633 13.793 8.14142 14.4326C7.87652 15.0721 7.8072 15.7759 7.94225 16.4548C8.0773 17.1337 8.41064 17.7574 8.90013 18.2468C9.38961 18.7363 10.0133 19.0697 10.6922 19.2047C11.3711 19.3398 12.0749 19.2705 12.7144 19.0056C13.3539 18.7406 13.9006 18.292 14.2851 17.7165C14.6697 17.1409 14.875 16.4642 14.875 15.772C14.875 14.8437 14.5063 13.9535 13.8499 13.2971C13.1935 12.6407 12.3033 12.272 11.375 12.272ZM9.14375 15.4056C9.14382 15.2724 9.1831 15.1422 9.25669 15.0312C9.33028 14.9202 9.43493 14.8333 9.55757 14.7814C9.68021 14.7295 9.81542 14.7149 9.94633 14.7393C10.0772 14.7638 10.1981 14.8262 10.2937 14.9189C10.3894 15.0115 10.4556 15.1303 10.4842 15.2604C10.5128 15.3904 10.5024 15.526 10.4544 15.6503C10.4065 15.7745 10.323 15.8818 10.2144 15.9589C10.1057 16.036 9.97686 16.0794 9.84375 16.0837C9.75268 16.0874 9.66181 16.0726 9.57665 16.0401C9.49148 16.0076 9.41381 15.9581 9.34835 15.8947C9.28288 15.8313 9.23099 15.7552 9.19582 15.6712C9.16065 15.5871 9.14293 15.4967 9.14375 15.4056ZM12.425 16.7509C12.3752 16.9897 12.2469 17.2051 12.0606 17.3626C11.8743 17.5202 11.6407 17.6109 11.3969 17.6204H11.3586C11.1045 17.6146 10.8585 17.5299 10.6547 17.378C10.4508 17.2261 10.2993 17.0146 10.2211 16.7728C10.2055 16.7378 10.1976 16.7 10.1978 16.6617C10.1981 16.6235 10.2065 16.5857 10.2226 16.551C10.2387 16.5163 10.262 16.4855 10.2909 16.4605C10.3199 16.4355 10.3539 16.4171 10.3906 16.4063C10.4239 16.3935 10.4595 16.3875 10.4952 16.3888C10.5309 16.3902 10.566 16.3988 10.5982 16.4141C10.6305 16.4295 10.6593 16.4513 10.6828 16.4782C10.7064 16.505 10.7242 16.5364 10.7352 16.5704C10.7819 16.7088 10.8698 16.8295 10.9871 16.9165C11.1044 17.0035 11.2455 17.0526 11.3914 17.0571C11.5226 17.053 11.6484 17.0041 11.7479 16.9186C11.8474 16.833 11.9146 16.7159 11.9383 16.5868C11.9471 16.5528 11.9627 16.5208 11.9841 16.4929C12.0055 16.465 12.0324 16.4417 12.063 16.4243C12.0936 16.407 12.1274 16.396 12.1623 16.392C12.1973 16.3879 12.2327 16.391 12.2664 16.4009C12.3336 16.4266 12.3879 16.4778 12.4175 16.5433C12.4472 16.6088 12.4499 16.6834 12.425 16.7509ZM12.9336 16.0837C12.7995 16.0837 12.6684 16.0439 12.5568 15.9694C12.4453 15.8949 12.3584 15.789 12.3071 15.6651C12.2558 15.5412 12.2423 15.4048 12.2685 15.2733C12.2947 15.1417 12.3593 15.0209 12.4541 14.9261C12.5489 14.8312 12.6698 14.7666 12.8013 14.7405C12.9328 14.7143 13.0692 14.7277 13.1931 14.7791C13.317 14.8304 13.4229 14.9173 13.4974 15.0288C13.5719 15.1403 13.6117 15.2714 13.6117 15.4056C13.6124 15.4948 13.5954 15.5833 13.5616 15.6659C13.5278 15.7485 13.4778 15.8236 13.4147 15.8867C13.3516 15.9498 13.2766 15.9997 13.194 16.0336C13.1114 16.0674 13.0229 16.0844 12.9336 16.0837Z" fill="black"/>
<path d="M11.375 23.1929C10.6828 23.1929 10.0061 23.3981 9.43051 23.7827C8.85493 24.1673 8.40633 24.7139 8.14142 25.3535C7.87652 25.993 7.8072 26.6968 7.94225 27.3757C8.0773 28.0546 8.41064 28.6783 8.90013 29.1677C9.38961 29.6572 10.0133 29.9906 10.6922 30.1256C11.3711 30.2607 12.0749 30.1914 12.7144 29.9264C13.3539 29.6615 13.9006 29.2129 14.2851 28.6374C14.6697 28.0618 14.875 27.3851 14.875 26.6929C14.8736 25.7651 14.5043 24.8757 13.8483 24.2196C13.1922 23.5635 12.3028 23.1943 11.375 23.1929ZM9.14375 26.3319C9.14382 26.1988 9.1831 26.0686 9.25669 25.9576C9.33028 25.8466 9.43493 25.7597 9.55757 25.7078C9.68021 25.6559 9.81542 25.6412 9.94633 25.6657C10.0772 25.6901 10.1981 25.7526 10.2937 25.8452C10.3894 25.9379 10.4556 26.0567 10.4842 26.1867C10.5128 26.3168 10.5024 26.4524 10.4544 26.5766C10.4065 26.7009 10.323 26.8082 10.2144 26.8853C10.1057 26.9624 9.97686 27.0058 9.84375 27.0101C9.75288 27.013 9.66234 26.9976 9.57752 26.9649C9.49271 26.9321 9.41535 26.8826 9.35004 26.8193C9.28474 26.7561 9.23282 26.6803 9.19738 26.5966C9.16194 26.5129 9.1437 26.4229 9.14375 26.3319ZM12.2336 28.3991C12.1995 28.4082 12.1639 28.4104 12.1289 28.4057C12.094 28.401 12.0602 28.3894 12.0298 28.3716C11.9993 28.3538 11.9726 28.3302 11.9513 28.3021C11.9299 28.2739 11.9144 28.2419 11.9055 28.2077C11.8857 28.0773 11.8195 27.9584 11.719 27.873C11.6185 27.7876 11.4905 27.7414 11.3586 27.7429C11.2118 27.7442 11.0692 27.7921 10.9513 27.8795C10.8334 27.967 10.7463 28.0895 10.7023 28.2296C10.684 28.2814 10.6499 28.3262 10.6048 28.3576C10.5596 28.389 10.5058 28.4054 10.4508 28.4046C10.42 28.4098 10.3886 28.4098 10.3578 28.4046C10.292 28.3788 10.2386 28.3285 10.2091 28.2643C10.1795 28.2 10.176 28.1268 10.1992 28.0601C10.2826 27.8144 10.4409 27.6011 10.6518 27.4501C10.8627 27.299 11.1156 27.2178 11.375 27.2179C11.6181 27.2271 11.8511 27.317 12.0373 27.4735C12.2235 27.63 12.3522 27.8441 12.4031 28.0819C12.4168 28.1463 12.4073 28.2135 12.3763 28.2715C12.3453 28.3295 12.2947 28.3748 12.2336 28.3991ZM12.9336 27.0101C12.7995 27.0101 12.6684 26.9703 12.5568 26.8958C12.4453 26.8213 12.3584 26.7154 12.3071 26.5914C12.2558 26.4675 12.2423 26.3312 12.2685 26.1996C12.2947 26.0681 12.3593 25.9473 12.4541 25.8524C12.5489 25.7576 12.6698 25.693 12.8013 25.6668C12.9328 25.6407 13.0692 25.6541 13.1931 25.7054C13.317 25.7568 13.4229 25.8437 13.4974 25.9552C13.5719 26.0667 13.6117 26.1978 13.6117 26.3319C13.6117 26.5118 13.5403 26.6843 13.4131 26.8114C13.2859 26.9386 13.1134 27.0101 12.9336 27.0101Z" fill="black"/>
</g>
<defs>
<clipPath id="clip0_761_1579">
<rect width="35" height="35" fill="white"/>
</clipPath>
</defs>
</svg>
