<svg width="35" height="30" viewBox="0 0 35 30" fill="none" xmlns="http://www.w3.org/2000/svg">
<path d="M4.33292 4.60891C5.3636 4.53079 6.13969 3.57737 6.06637 2.47938C5.99304 1.38139 5.09807 0.554619 4.06739 0.632733C3.0367 0.710846 2.26061 1.66427 2.33394 2.76226C2.40726 3.86025 3.30224 4.68702 4.33292 4.60891Z" fill="black"/>
<path d="M12.8168 4.58522C13.9163 4.39535 14.6631 3.29194 14.4849 2.12068C14.3067 0.949415 13.2709 0.153839 12.1714 0.34371C11.072 0.53358 10.3251 1.637 10.5034 2.80826C10.6816 3.97952 11.7174 4.77509 12.8168 4.58522Z" fill="black"/>
<path d="M24.46 9.15951H35.0003V5.21997H24.6231C22.6599 5.21997 21.0684 7.16286 21.0684 9.55963V24.4101C21.0684 26.8068 22.6598 28.7497 24.6231 28.7497H27.9543V27.4644C27.9543 26.9721 28.2811 26.5731 28.6844 26.5731H32.9665C33.3697 26.5731 33.6966 26.9721 33.6966 27.4644V28.7497H35.0004V18.6436H24.46C23.841 18.6436 23.3392 18.031 23.3392 17.2753V10.5279C23.3392 9.77212 23.841 9.15951 24.46 9.15951ZM24.9948 22.3452C25.9092 22.3452 26.6505 23.2501 26.6505 24.3664C26.6505 25.4827 25.9092 26.3876 24.9948 26.3876C24.0805 26.3876 23.3392 25.4826 23.3392 24.3664C23.3392 23.2501 24.0805 22.3452 24.9948 22.3452Z" fill="black"/>
<path d="M19.2127 24.5286H18.6145H18.3001H16.5648H16.2504H13.8911C14.2151 24.369 14.5223 24.0483 14.5233 23.6549C14.5341 19.255 14.5233 12.1191 14.5233 12.1191L16.0522 13.1279V14.8752C15.6852 14.9702 15.4123 15.3217 15.4123 15.742V22.762C15.4123 23.1959 15.7028 23.5572 16.0879 23.6379C16.0389 23.7259 16.0104 23.8283 16.0104 23.938C16.0104 24.2642 16.2586 24.5287 16.5649 24.5287C16.8712 24.5287 17.1193 24.2643 17.1193 23.938C17.1193 23.8354 17.0947 23.739 17.0515 23.655H17.8135C17.7703 23.7391 17.7457 23.8355 17.7457 23.938C17.7457 24.2642 17.9939 24.5287 18.3002 24.5287C18.6065 24.5287 18.8547 24.2643 18.8547 23.938C18.8547 23.8283 18.8261 23.7259 18.7772 23.6379C19.1623 23.5572 19.4528 23.1959 19.4528 22.762V15.742C19.4528 15.2488 19.0775 14.8491 18.6146 14.8491H17.0775C17.0775 14.638 17.0775 13.3752 17.0775 13.2083C17.2091 13.13 17.3249 13.0168 17.4103 12.871C17.6803 12.41 17.5484 11.803 17.1156 11.5154L14.5346 9.79967V6.62957C14.5346 5.88361 13.9669 5.27883 13.2667 5.27883H10.9449C10.2447 5.27883 9.67696 5.88354 9.67696 6.62957V6.80935L10.2432 6.48664L8.32591 8.30105C8.20849 8.41216 8.11957 8.55342 8.06769 8.71135L6.91512 12.2159C6.74651 12.7288 7.00001 13.2901 7.48139 13.4698C7.96018 13.6486 8.48886 13.3821 8.65843 12.8666L9.73185 9.60279L11.47 7.95789L10.373 9.6322L9.70936 11.7485C9.72993 24.3232 9.68927 23.5112 9.70936 23.655C9.7637 24.0443 10.0003 24.3691 10.3241 24.5287H6.07067C6.55493 24.3843 6.88136 23.8996 6.86017 23.3699L6.66558 18.5045C6.66223 18.4213 6.65048 18.3387 6.63045 18.2583L6.20546 16.5492H6.93734C7.22946 16.5492 7.44859 16.2413 7.39186 15.911L7.06125 13.9862C7.06125 13.9862 4.53884 11.4146 4.29278 11.1561C4.18746 11.0251 4.01686 10.931 3.97558 10.6701L3.52318 7.82777L4.60439 10.3662C4.6469 10.466 4.70616 10.5567 4.77922 10.634L6.27907 12.2194L6.88792 10.3196L6.08339 9.46911L5.06649 7.08174L6.1095 8.44464L5.72558 6.20937C5.62456 5.6212 5.17688 5.19604 4.65654 5.19604C3.98645 5.19604 3.51511 5.19604 2.77141 5.19604C2.24997 5.19604 1.80359 5.62003 1.70236 6.20937L0.0359515 15.911C-0.0211881 16.2435 0.201356 16.5492 0.490471 16.5492H1.38823V18.7638L0.412827 23.1533C0.282281 23.7408 0.605571 24.3595 1.17594 24.5286H0V30.0001H18.8414V26.2705H19.2127C19.6642 26.2705 20.0302 25.8806 20.0302 25.3996C20.0302 24.9186 19.6642 24.5286 19.2127 24.5286ZM1.75985 24.5286C2.12565 24.4185 2.42631 24.1067 2.52009 23.6847L2.52672 23.6549L3.52461 19.1641C3.54396 19.077 3.55373 18.9879 3.55373 18.8984V16.5492H3.96546L4.50726 18.7279L4.69679 23.4681C4.71634 23.9571 5.03013 24.3922 5.48492 24.5287H1.75985V24.5286ZM11.2293 24.5286C11.5533 24.3689 11.7896 24.0438 11.8438 23.6549C11.8663 23.4938 11.831 14.2401 11.8254 14.1776H12.3574C12.3637 24.0814 12.3459 23.474 12.3712 23.6549C12.4255 24.044 12.662 24.369 12.9859 24.5286H11.2293Z" fill="black"/>
</svg>
