<svg width="16" height="15" viewBox="0 0 16 15" fill="none" xmlns="http://www.w3.org/2000/svg">
<path d="M15.0059 7.32687C14.9134 3.27062 11.5859 0 7.50773 0C3.4296 0 0.102101 3.27062 0.00960095 7.32687C0.00522595 7.34062 -0.00852405 7.47812 0.00772595 7.5275C0.022726 11.6506 3.38148 15 7.5071 15C11.6327 15 14.9915 11.6506 15.0065 7.5275C15.0227 7.47812 15.0096 7.34 15.0046 7.32687H15.0059ZM7.50773 0.625C10.2227 0.625 12.5746 2.20688 13.6915 4.49688L8.62835 5.50937C7.85585 5.66312 7.07148 5.66312 6.2996 5.50937L1.31648 4.51312C2.4296 2.21438 4.78648 0.625 7.50773 0.625ZM0.640226 7.81563L3.48398 8.38437C4.12273 8.51188 4.66773 8.91438 4.97835 9.48812L5.36835 10.2087C5.54085 10.5281 5.6321 10.8881 5.6321 11.25V14.115C2.84648 13.3244 0.776476 10.8175 0.640226 7.81563ZM6.25773 14.2606V11.25C6.25773 10.7844 6.14023 10.3212 5.91835 9.91063L5.52773 9.19C5.12835 8.4525 4.42773 7.935 3.60648 7.77125L0.640226 7.17812C0.673976 6.45062 0.821476 5.75187 1.06523 5.1L6.17648 6.12187C6.60335 6.2075 7.03335 6.25 7.46335 6.25C7.89335 6.25 8.32335 6.2075 8.75085 6.12187L13.944 5.08313C14.1915 5.74 14.3409 6.44375 14.3752 7.1775L11.4096 7.77062C10.5877 7.93437 9.8871 8.45187 9.48773 9.18937L9.0971 9.91C8.87523 10.32 8.75835 10.7831 8.75835 11.2494V14.26C8.35273 14.335 7.93523 14.3744 7.50835 14.3744C7.08148 14.3744 6.66398 14.335 6.25835 14.26L6.25773 14.2606ZM9.38273 14.115V11.25C9.38273 10.8881 9.47398 10.5281 9.64648 10.2087L10.0371 9.48812C10.3484 8.91438 10.8927 8.51188 11.5321 8.38437L14.3759 7.81563C14.2396 10.8181 12.169 13.3244 9.38335 14.115H9.38273Z" fill="black"/>
</svg>
