<svg width="50" height="50" viewBox="0 0 50 50" fill="none" xmlns="http://www.w3.org/2000/svg">
<path d="M49.9983 15.8499L34.2852 31.563L48.9263 46.2042C49.603 45.0596 49.9984 43.7303 49.9984 42.3076V15.8499H49.9983Z" fill="black"/>
<path d="M44.9122 47.6258L31.569 34.2825L15.8516 50H42.3093C43.7318 50 45.0609 49.6046 46.2053 48.9283L45.0268 47.7506C44.9863 47.7102 44.9479 47.6689 44.9122 47.6258Z" fill="black"/>
<path d="M42.3077 0H7.69225C3.44224 0 0 3.45192 0 7.69225V42.3076C0 46.5479 3.44234 49.9998 7.69225 49.9998H10.4134L49.9999 10.4133V7.69225C49.9999 3.45192 46.548 0 42.3077 0ZM21.548 30.673C21.1827 31.1442 20.625 31.423 20.0288 31.423C19.4326 31.423 18.8654 31.1441 18.4999 30.673C17.2307 29.0191 10.8845 20.5481 10.8845 16.1249C10.8845 11.0865 14.9806 6.99027 20.0287 6.99027C25.0671 6.99027 29.1728 11.0864 29.1728 16.1249C29.173 20.5481 22.8268 29.0191 21.548 30.673Z" fill="black"/>
<path d="M25.3265 16.1248C25.3265 18.0287 22.5766 22.6345 20.0286 26.2499C17.4708 22.6345 14.7305 18.0288 14.7305 16.1248C14.7305 13.2114 17.1055 10.8364 20.0286 10.8364C22.9515 10.8364 25.3265 13.2114 25.3265 16.1248Z" fill="black"/>
</svg>
