<svg width="44" height="50" viewBox="0 0 44 50" fill="none" xmlns="http://www.w3.org/2000/svg">
<path d="M36.6211 0H7.32422C3.28584 0 0 3.28584 0 7.32422V42.6758C0 46.7142 3.28584 50 7.32422 50H36.6211C40.6595 50 43.9453 46.7142 43.9453 42.6758V7.32422C43.9453 3.28584 40.6595 0 36.6211 0ZM31.7974 40.7817L28.8677 43.7114C28.2955 44.2836 27.3685 44.2836 26.7963 43.7114C26.2241 43.1393 26.2241 42.2122 26.7963 41.64L27.2255 41.2108H13.1836C12.3739 41.2108 11.7188 40.5557 11.7188 39.746C11.7188 38.9363 12.3739 38.2812 13.1836 38.2812H27.2255L26.7963 37.852C26.2241 37.2798 26.2241 36.3527 26.7963 35.7806C27.3685 35.2084 28.2955 35.2084 28.8677 35.7806L31.7974 38.7103C32.3066 39.2196 32.3045 40.2747 31.7974 40.7817ZM23.4375 23.4375H17.5781V33.8867C17.5781 34.6957 16.9223 35.3516 16.1133 35.3516H13.1836C12.3746 35.3516 11.7188 34.6957 11.7188 33.8867V23.4375V8.78906V7.32422C11.7188 6.51523 12.3746 5.85938 13.1836 5.85938H23.4375C28.2841 5.85938 32.2266 9.80186 32.2266 14.6484C32.2266 19.495 28.2841 23.4375 23.4375 23.4375Z" fill="black"/>
<path d="M23.4375 11.7188H17.5781V17.5781H23.4375C25.0525 17.5781 26.3672 16.2635 26.3672 14.6484C26.3672 13.0334 25.0525 11.7188 23.4375 11.7188Z" fill="black"/>
</svg>
