<svg width="25" height="25" viewBox="0 0 25 25" fill="none" xmlns="http://www.w3.org/2000/svg">
<path d="M21.3379 0H3.66211C1.64292 0 0 1.64292 0 3.66211V21.3379C0 23.3571 1.64292 25 3.66211 25H21.3379C23.3571 25 25 23.3571 25 21.3379V3.66211C25 1.64292 23.3571 0 21.3379 0ZM12.5 7.04243C12.5 7.0523 12.5 7.05615 12.5 7.05664C12.5 7.13149 12.5 7.55757 12.5 9.57026C12.5 10.7838 11.5163 11.7675 10.3027 11.7675V19.873C10.3027 20.682 9.64692 21.3378 8.83789 21.3378C8.02886 21.3378 7.37305 20.682 7.37305 19.873V11.7676C6.15952 11.7676 5.17578 10.7838 5.17578 9.57031C5.17578 6.98809 5.17578 6.09771 5.17578 5.82788C5.17578 5.75049 5.17578 5.72397 5.17578 5.72344C5.17578 5.56533 5.17578 5.19429 5.17578 4.39448C5.17578 3.98965 5.50337 3.66206 5.9082 3.66206C6.31304 3.66206 6.64062 3.98965 6.64062 4.39448V8.10542H8.10547V4.39453C8.10547 3.9897 8.43306 3.66211 8.83789 3.66211C9.24272 3.66211 9.57031 3.9897 9.57031 4.39453V8.10547H11.0352V4.39453C11.0352 3.9897 11.3627 3.66211 11.7676 3.66211C12.1724 3.66211 12.5 3.9897 12.5 4.39453C12.5 6.52261 12.5 6.96592 12.5 7.04243ZM19.8242 19.873C19.8242 20.6787 19.165 21.3379 18.3594 21.3379C17.5537 21.3379 16.8945 20.6787 16.8945 19.873V12.5H16.1621C15.7519 12.5 15.4297 12.1778 15.4297 11.7676V8.10547C15.4297 5.98145 16.9385 4.16021 18.9454 3.75C19.3995 3.66211 19.8242 4.01367 19.8242 4.48242V19.873Z" fill="black"/>
</svg>
