<svg width="30" height="30" viewBox="0 0 30 30" fill="none" xmlns="http://www.w3.org/2000/svg">
<path d="M25.6055 4.39453C22.7754 1.55859 19.0078 0 15 0C10.9922 0 7.22461 1.55859 4.39453 4.39453C1.56445 7.23047 0 10.9922 0 15C0 19.0078 1.55859 22.7754 4.39453 25.6055C7.23047 28.4355 10.9922 30 15 30C19.0078 30 22.7754 28.4414 25.6055 25.6055C28.4355 22.7695 30 19.0078 30 15C30 10.9922 28.4414 7.22461 25.6055 4.39453ZM15 29.1445C7.20117 29.1445 0.855469 22.7988 0.855469 15C0.855469 7.20117 7.20117 0.855469 15 0.855469C22.7988 0.855469 29.1445 7.20117 29.1445 15C29.1445 22.7988 22.7988 29.1445 15 29.1445Z" fill="black"/>
<path d="M15 3.28125C8.53711 3.28125 3.28125 8.53711 3.28125 15C3.28125 21.4629 8.53711 26.7188 15 26.7188C21.4629 26.7188 26.7188 21.4629 26.7188 15C26.7188 8.53711 21.4629 3.28125 15 3.28125ZM15 25.8633C9.00586 25.8633 4.13086 20.9883 4.13086 15C4.13086 9.01172 9.00586 4.13672 15 4.13672C20.9941 4.13672 25.8633 9.01172 25.8633 15C25.8633 20.9883 20.9941 25.8633 15 25.8633Z" fill="black"/>
<path d="M15.8847 14.6426C16.1015 14.5547 16.2128 14.3086 16.1249 14.0859L14.8124 10.7578C14.7479 10.5938 14.5897 10.4883 14.414 10.4883C14.2382 10.4883 14.08 10.5938 14.0155 10.7578L12.6796 14.1387C12.5917 14.3555 12.703 14.6074 12.9198 14.6953C12.9726 14.7129 13.0253 14.7246 13.078 14.7246C13.2479 14.7246 13.4062 14.625 13.4765 14.4551L13.8456 13.5234H14.9823L15.3339 14.4082C15.4159 14.6191 15.662 14.7305 15.8847 14.6426ZM14.1796 12.6621L14.4081 12.0762L14.6366 12.6621H14.1796Z" fill="black"/>
<path d="M11.8242 14.291V11.3379H12.4043C12.6387 11.3379 12.832 11.1445 12.832 10.9102C12.832 10.6758 12.6387 10.4824 12.4043 10.4824H10.3828C10.1484 10.4824 9.95508 10.6758 9.95508 10.9102C9.95508 11.1445 10.1484 11.3379 10.3828 11.3379H10.9629V14.291C10.9629 14.5254 11.1563 14.7188 11.3906 14.7188C11.6309 14.7188 11.8242 14.5312 11.8242 14.291Z" fill="black"/>
<path d="M19.6112 14.7188C19.6932 14.7188 19.7752 14.6953 19.8514 14.6484C20.0448 14.5195 20.0975 14.25 19.9686 14.0566L18.9901 12.6035L19.9686 11.1504C20.0975 10.957 20.0506 10.6875 19.8514 10.5586C19.658 10.4297 19.3885 10.4766 19.2596 10.6758L18.4744 11.8359L17.6951 10.6758C17.5662 10.4824 17.2967 10.4297 17.1033 10.5586C16.91 10.6875 16.8573 10.957 16.9862 11.1504L17.9647 12.6035L16.9862 14.0566C16.8573 14.25 16.9041 14.5195 17.1033 14.6484C17.1737 14.6953 17.2616 14.7188 17.3436 14.7188C17.4783 14.7188 17.6131 14.6543 17.701 14.5313L18.4803 13.3711L19.2596 14.5313C19.3416 14.6543 19.4764 14.7188 19.6112 14.7188Z" fill="black"/>
<path d="M17.9824 16.1777C18.2168 16.1777 18.4102 15.9844 18.4102 15.75C18.4102 15.5156 18.2168 15.3223 17.9824 15.3223H16.0723C15.8379 15.3223 15.6445 15.5156 15.6445 15.75V19.084C15.6445 19.3184 15.8379 19.5117 16.0723 19.5117H17.9824C18.2168 19.5117 18.4102 19.3184 18.4102 19.084C18.4102 18.8496 18.2168 18.6562 17.9824 18.6562H16.5V17.8418H17.2852C17.5195 17.8418 17.7129 17.6484 17.7129 17.4141C17.7129 17.1797 17.5195 16.9863 17.2852 16.9863H16.5059V16.1719H17.9824V16.1777Z" fill="black"/>
<path d="M21.6035 16.1777C21.8379 16.1777 22.0313 15.9844 22.0313 15.75C22.0313 15.5156 21.8379 15.3223 21.6035 15.3223H19.6934C19.459 15.3223 19.2656 15.5156 19.2656 15.75V19.084C19.2656 19.3184 19.459 19.5117 19.6934 19.5117H21.6035C21.8379 19.5117 22.0313 19.3184 22.0313 19.084C22.0313 18.8496 21.8379 18.6562 21.6035 18.6562H20.1211V17.8418H20.9004C21.1348 17.8418 21.3281 17.6484 21.3281 17.4141C21.3281 17.1797 21.1348 16.9863 20.9004 16.9863H20.1211V16.1719H21.6035V16.1777Z" fill="black"/>
<path d="M10.3477 15.3281H8.39648C8.16211 15.3281 7.96875 15.5215 7.96875 15.7559V19.0898C7.96875 19.3242 8.16211 19.5176 8.39648 19.5176C8.63086 19.5176 8.82422 19.3242 8.82422 19.0898V17.8477H9.63281C9.86719 17.8477 10.0605 17.6543 10.0605 17.4199C10.0605 17.1855 9.86719 16.9922 9.63281 16.9922H8.82422V16.1777H10.3477C10.582 16.1777 10.7754 15.9844 10.7754 15.75C10.7695 15.5156 10.582 15.3281 10.3477 15.3281Z" fill="black"/>
<path d="M14.7891 16.5879C14.7891 15.8906 14.2207 15.3281 13.5293 15.3281H12.0586C11.8242 15.3281 11.6309 15.5215 11.6309 15.7559V17.4258V19.0957C11.6309 19.3301 11.8242 19.5234 12.0586 19.5234C12.293 19.5234 12.4863 19.3301 12.4863 19.0957V17.9004L13.8633 19.3711C13.9453 19.459 14.0625 19.5059 14.1738 19.5059C14.2793 19.5059 14.3848 19.4648 14.4668 19.3887C14.6367 19.2246 14.6484 18.9551 14.4844 18.7852L13.6113 17.8535C14.2676 17.8008 14.7891 17.2559 14.7891 16.5879ZM13.5293 16.9922H12.4863V16.1777H13.5293C13.752 16.1777 13.9336 16.3594 13.9336 16.582C13.9336 16.8105 13.752 16.9922 13.5293 16.9922Z" fill="black"/>
</svg>
