<svg width="25" height="25" viewBox="0 0 25 25" fill="none" xmlns="http://www.w3.org/2000/svg">
<path d="M7.38281 10.2881H9.07715L8.43262 19.043H6.73828L7.38281 10.2881ZM25 4.45312V20.5469C25 23.0029 23.0029 25 20.5469 25H4.45312C1.99707 25 0 23.0029 0 20.5469V4.45312C0 1.99707 1.99707 0 4.45312 0H20.5469C23.0029 0 25 1.99707 25 4.45312ZM19.0771 19.4043L18.3691 9.86328C18.3545 9.6582 18.1836 9.50195 17.9785 9.50195H16.6895V8.125C16.6895 6.49902 15.3662 5.17578 13.7402 5.17578C12.1143 5.17578 10.7861 6.49902 10.7861 8.125V9.50195H9.50195H9.0918V8.125C9.0918 6.92871 10.0635 5.95703 11.2646 5.95703H11.3184C11.5332 5.95703 11.709 5.78125 11.709 5.56641C11.709 5.35156 11.5332 5.17578 11.3184 5.17578H11.2646C9.63867 5.17578 8.31055 6.49902 8.31055 8.125V9.50195H7.02637C6.82129 9.50195 6.65039 9.6582 6.63574 9.86328L5.92773 19.4043C5.91797 19.5117 5.95703 19.6191 6.03027 19.6973C6.10352 19.7754 6.20605 19.8242 6.31836 19.8242H8.79883H18.6914C18.7988 19.8242 18.9062 19.7803 18.9795 19.6973C19.0479 19.6191 19.082 19.5117 19.0771 19.4043ZM13.4326 8.12988C13.4326 7.66113 13.2813 7.21191 12.998 6.83105C12.8662 6.66016 12.9053 6.41113 13.0762 6.28418C13.2471 6.15234 13.4961 6.19141 13.623 6.3623C14.0088 6.87988 14.2139 7.49023 14.2139 8.12988V9.50684H15.9131V8.12988C15.9131 6.93359 14.9414 5.96191 13.7451 5.96191C12.5488 5.96191 11.5723 6.93359 11.5723 8.12988V9.50684H13.4326V8.12988ZM16.6895 10.2881V11.8213C16.6895 12.0361 16.5137 12.2119 16.2988 12.2119C16.084 12.2119 15.9082 12.0361 15.9082 11.8213V10.2881H11.5674V11.8213C11.5674 12.0361 11.3916 12.2119 11.1768 12.2119C10.9619 12.2119 10.7861 12.0361 10.7861 11.8213V10.2881H9.86328L9.21387 19.043H18.2617L17.6123 10.2881H16.6895Z" fill="black"/>
</svg>
