<svg width="50" height="50" viewBox="0 0 50 50" fill="none" xmlns="http://www.w3.org/2000/svg">
<path d="M18.75 5.20833V4.16667C18.75 3.59167 18.2833 3.125 17.7083 3.125H7.29167C6.71667 3.125 6.25 3.59167 6.25 4.16667V5.20833H18.75Z" fill="black"/>
<path d="M6.25 7.29166V8.39166C6.25 9.03853 6.40104 9.67603 6.68958 10.2552L8.04479 12.9667C8.22083 13.3198 8.58229 13.5427 8.97604 13.5427H16.0219C16.4167 13.5427 16.7771 13.3198 16.9531 12.9667L18.3083 10.2552C18.5979 9.67707 18.7479 9.03853 18.7479 8.39166V7.29166H6.25Z" fill="black"/>
<path d="M9.375 15.625H15.625V20.8333H9.375V15.625Z" fill="black"/>
<path d="M5.20801 29.1667V44.7917C5.20801 45.9427 6.1403 46.875 7.29134 46.875H42.708C43.859 46.875 44.7913 45.9427 44.7913 44.7917V29.1667H5.20801ZM14.583 41.6667C14.583 42.2417 14.1163 42.7083 13.5413 42.7083H11.458C10.883 42.7083 10.4163 42.2417 10.4163 41.6667V39.5833C10.4163 39.0083 10.883 38.5417 11.458 38.5417H13.5413C14.1163 38.5417 14.583 39.0083 14.583 39.5833V41.6667ZM14.583 35.4167C14.583 35.9917 14.1163 36.4583 13.5413 36.4583H11.458C10.883 36.4583 10.4163 35.9917 10.4163 35.4167V33.3333C10.4163 32.7583 10.883 32.2917 11.458 32.2917H13.5413C14.1163 32.2917 14.583 32.7583 14.583 33.3333V35.4167ZM20.833 41.6667C20.833 42.2417 20.3663 42.7083 19.7913 42.7083H17.708C17.133 42.7083 16.6663 42.2417 16.6663 41.6667V39.5833C16.6663 39.0083 17.133 38.5417 17.708 38.5417H19.7913C20.3663 38.5417 20.833 39.0083 20.833 39.5833V41.6667ZM20.833 35.4167C20.833 35.9917 20.3663 36.4583 19.7913 36.4583H17.708C17.133 36.4583 16.6663 35.9917 16.6663 35.4167V33.3333C16.6663 32.7583 17.133 32.2917 17.708 32.2917H19.7913C20.3663 32.2917 20.833 32.7583 20.833 33.3333V35.4167ZM27.083 41.6667C27.083 42.2417 26.6163 42.7083 26.0413 42.7083H23.958C23.383 42.7083 22.9163 42.2417 22.9163 41.6667V39.5833C22.9163 39.0083 23.383 38.5417 23.958 38.5417H26.0413C26.6163 38.5417 27.083 39.0083 27.083 39.5833V41.6667ZM27.083 35.4167C27.083 35.9917 26.6163 36.4583 26.0413 36.4583H23.958C23.383 36.4583 22.9163 35.9917 22.9163 35.4167V33.3333C22.9163 32.7583 23.383 32.2917 23.958 32.2917H26.0413C26.6163 32.2917 27.083 32.7583 27.083 33.3333V35.4167ZM33.333 41.6667C33.333 42.2417 32.8663 42.7083 32.2913 42.7083H30.208C29.633 42.7083 29.1663 42.2417 29.1663 41.6667V39.5833C29.1663 39.0083 29.633 38.5417 30.208 38.5417H32.2913C32.8663 38.5417 33.333 39.0083 33.333 39.5833V41.6667ZM33.333 35.4167C33.333 35.9917 32.8663 36.4583 32.2913 36.4583H30.208C29.633 36.4583 29.1663 35.9917 29.1663 35.4167V33.3333C29.1663 32.7583 29.633 32.2917 30.208 32.2917H32.2913C32.8663 32.2917 33.333 32.7583 33.333 33.3333V35.4167ZM39.583 41.6667C39.583 42.2417 39.1163 42.7083 38.5413 42.7083H36.458C35.883 42.7083 35.4163 42.2417 35.4163 41.6667V39.5833C35.4163 39.0083 35.883 38.5417 36.458 38.5417H38.5413C39.1163 38.5417 39.583 39.0083 39.583 39.5833V41.6667ZM39.583 35.4167C39.583 35.9917 39.1163 36.4583 38.5413 36.4583H36.458C35.883 36.4583 35.4163 35.9917 35.4163 35.4167V33.3333C35.4163 32.7583 35.883 32.2917 36.458 32.2917H38.5413C39.1163 32.2917 39.583 32.7583 39.583 33.3333V35.4167Z" fill="black"/>
<path d="M44.792 22.9167H5.20866C4.63336 22.9167 4.16699 23.383 4.16699 23.9583V26.0417C4.16699 26.617 4.63336 27.0833 5.20866 27.0833H44.792C45.3673 27.0833 45.8337 26.617 45.8337 26.0417V23.9583C45.8337 23.383 45.3673 22.9167 44.792 22.9167Z" fill="black"/>
<path d="M45.5382 10.3177C44.7736 9.24687 43.3861 8.81354 42.1434 9.26562L36.7548 11.2271L30.433 7.30104C30.1611 7.13229 29.8278 7.09791 29.5267 7.20729L28.3476 7.63646C27.984 7.76875 27.8861 8.2375 28.1673 8.50416L32.6298 12.7292L27.8736 14.4604C27.4319 14.6208 26.9496 14.6281 26.5038 14.4792L24.3538 13.7635C24.1309 13.6896 23.8892 13.6927 23.6684 13.7729L22.7309 14.1146C22.3965 14.2365 22.2798 14.649 22.5007 14.9281L23.8132 16.5823C25.2069 18.3385 27.5673 19.0052 29.6746 18.2385L44.7809 12.7406C45.7684 12.3812 46.1486 11.174 45.5382 10.3187V10.3177Z" fill="black"/>
</svg>
