<svg width="50" height="50" viewBox="0 0 50 50" fill="none" xmlns="http://www.w3.org/2000/svg">
<path d="M47.9167 0H20.8333H12.5H2.0833C0.93125 0 0 0.933301 0 2.0833V14.5833V22.9166V47.9166C0 47.9478 0.0166992 47.9749 0.01875 48.0062C0.025 48.1562 0.0666992 48.2957 0.10625 48.4416C0.1375 48.5624 0.15625 48.6833 0.208301 48.7937C0.260352 48.9062 0.34375 48.9999 0.416602 49.1041C0.504102 49.2249 0.581152 49.3437 0.689551 49.4437C0.714551 49.4666 0.722852 49.4957 0.747852 49.5166C0.847852 49.5999 0.964551 49.6396 1.0708 49.7021C1.1583 49.75 1.2333 49.8103 1.3291 49.8479C1.57285 49.9436 1.8249 49.9999 2.08115 49.9999H2.0832H16.6665C17.8186 49.9999 18.7498 49.0666 18.7498 47.9166C18.7498 46.7666 17.8186 45.8333 16.6665 45.8333H6.53125L14.1021 36.75C14.4125 36.375 14.5833 35.9042 14.5833 35.4167V22.9167C14.5833 21.7667 13.6521 20.8334 12.5 20.8334H4.1667V16.6667H12.5C13.6521 16.6667 14.5833 15.7334 14.5833 14.5834V4.1667H18.75V20.8334C18.75 21.6479 19.225 22.3854 19.9625 22.7271C20.7021 23.0667 21.5708 22.9438 22.1875 22.4146L43.4792 4.1667H45.8334V16.6667C45.8334 17.8167 46.7646 18.75 47.9167 18.75C49.0687 18.75 50 17.8167 50 16.6667V2.0833C50 0.933301 49.0687 0 47.9167 0Z" fill="black"/>
<path d="M35.4163 20.833C27.3768 20.833 20.833 27.3747 20.833 35.4163C20.833 43.4579 27.3768 49.9996 35.4163 49.9996C43.4559 49.9996 49.9996 43.458 49.9996 35.4164C49.9996 27.3748 43.4559 20.833 35.4163 20.833ZM43.5892 36.2122C43.4829 36.4685 43.3309 36.6977 43.1371 36.8914L38.9726 41.056C38.5663 41.4622 38.033 41.6664 37.4996 41.6664C36.9663 41.6664 36.4329 41.4622 36.0267 41.056C35.2121 40.2435 35.2121 38.9247 36.0267 38.1102L36.6371 37.4997H29.1663C28.0143 37.4997 27.083 36.5664 27.083 35.4164C27.083 34.2664 28.0143 33.3331 29.1663 33.3331H36.6371L36.0267 32.7227C35.2121 31.9102 35.2121 30.5914 36.0267 29.7769C36.8412 28.9623 38.1579 28.9623 38.9725 29.7769L43.137 33.9414C43.3308 34.1352 43.4828 34.3644 43.5891 34.6206C43.7996 35.1289 43.7996 35.7039 43.5892 36.2122Z" fill="black"/>
</svg>
