<svg width="239" height="188" viewBox="0 0 239 188" fill="none" xmlns="http://www.w3.org/2000/svg">
<path d="M27.9478 98.4841C27.6973 97.2956 27.3722 96.1172 27.4266 94.8915C27.5561 91.9717 28.9996 89.3035 31.1891 87.4054C31.3408 87.2728 31.496 87.1443 31.6538 87.0198C31.812 86.8953 31.9733 86.7743 32.1371 86.6579C32.3009 86.5415 32.4677 86.4286 32.6376 86.3202C32.8074 86.2119 32.9798 86.1075 33.1547 86.0077C33.3296 85.9079 33.5065 85.8122 33.6859 85.721C33.8654 85.6297 34.0473 85.5436 34.2313 85.4614C34.4152 85.3792 34.6007 85.3016 34.7882 85.2285C34.9762 85.1555 35.1652 85.0874 35.3562 85.0239C35.5473 84.9599 35.7398 84.9009 35.9338 84.847C36.1279 84.7931 36.3229 84.7437 36.5195 84.6993C36.7156 84.655 36.9131 84.6157 37.1112 84.5809C37.3098 84.5461 37.5089 84.5164 37.7085 84.4917C37.9086 84.467 38.1087 84.4468 38.3098 84.4322C38.5103 84.4176 38.7115 84.4075 38.9126 84.4025C39.1137 84.3974 39.3153 84.3974 39.5164 84.4025C39.7175 84.4075 39.9186 84.4176 40.1197 84.4327C47.6002 84.9962 48.6677 89.3861 52.908 94.1793L53.167 94.4696L53.477 94.899C53.5561 94.839 53.6337 94.7776 53.7134 94.7191C55.6861 93.2716 58.38 91.5242 60.947 91.9107C64.5572 92.4546 68.1397 94.6082 70.1704 97.6257C71.3982 99.4503 72.1582 101.498 72.9248 103.545C74.2554 103.183 75.529 102.925 76.9166 102.922C76.9478 103.082 76.9816 103.242 77.0098 103.402C77.3551 105.34 76.5275 107.835 77.1071 109.633C78.0214 110.128 79.358 109.736 80.0561 110.336C74.0205 110.506 67.9573 110.396 61.9182 110.384C56.1876 110.373 50.4176 110.484 44.6951 110.158C39.5027 109.678 34.2086 109.869 28.9971 109.869L4.62207 109.878C7.54786 107.1 10.1067 106.544 14.0179 106.316C14.3243 105.611 14.6892 104.969 15.2058 104.393C17.0676 102.318 19.7606 102.273 22.3331 102.074C22.7106 101.438 23.1027 100.8 23.5835 100.236C24.7795 98.8318 26.2135 98.6554 27.9478 98.4841Z" fill="#407BFF"/>
<path d="M206.112 40.8159C206.273 39.2239 206.701 37.9081 208.013 36.8638C209.212 35.9097 210.833 35.6312 212.328 35.861C214.109 36.1347 215.601 37.2222 216.614 38.6709C217.36 39.7359 217.699 40.8617 218.03 42.101C219.401 41.7091 220.794 41.8805 222.038 42.5926C223.85 43.6296 224.883 45.6378 225.551 47.535C227.78 46.8634 229.615 46.8976 231.691 47.9854C232.444 48.3805 233.163 48.8578 233.862 49.3414C224.602 49.4145 215.33 49.1975 206.074 49.3416C203.78 49.3364 201.485 49.4373 199.191 49.3701C198.022 49.234 194.838 49.5482 194.048 48.9257C194.01 48.7587 194.398 43.6945 194.485 42.977C195.17 42.1637 196.019 41.6529 197.102 41.5825C198.184 41.5121 198.986 41.8567 199.79 42.5441C200.108 41.6811 200.489 41.0505 201.074 40.3494C202.152 39.7754 203.21 39.6657 204.385 40.0204C204.989 40.203 205.556 40.5235 206.112 40.8159Z" fill="#1865D9"/>
<path d="M104.333 26.0009C106.235 24.1996 108.368 22.539 110.351 20.8212C118.889 13.4282 127.848 6.03804 138.682 2.38025C149.186 -1.16575 161.109 -0.876593 171.119 4.10489C173.688 5.10651 176.188 6.85752 177.706 9.19036C179.155 7.38734 180.863 6.29328 183.185 6.03075C185.322 5.78908 187.389 6.45381 189.046 7.81091C190.865 9.2999 191.868 11.2273 192.213 13.5332C194.238 13.3129 195.939 13.2371 197.611 14.6215C198.223 15.1285 198.744 15.7568 199.202 16.4032C200.581 15.7988 202.129 15.5885 203.567 16.1377C204.892 16.6436 205.716 17.6777 206.32 18.9184C199.836 18.9928 193.34 18.7888 186.861 18.9021C191.12 23.7477 195.203 29.0525 198.332 34.718C199.395 36.6441 200.191 38.6763 201.197 40.6197C200.613 41.3249 200.233 41.9592 199.915 42.8272C199.112 42.1359 198.311 41.7892 197.23 41.86C196.149 41.9309 195.301 42.4446 194.617 43.2626C194.53 43.9843 194.142 49.0779 194.18 49.2459C194.969 49.872 198.149 49.5559 199.316 49.6929C201.607 49.7604 203.899 49.6589 206.19 49.6642C206.529 51.6554 206.769 53.6755 207.193 55.6498C208.205 56.6128 209.348 57.5817 210.176 58.708C209.237 59.2534 208.093 59.6299 207.069 59.9975C202.345 61.6945 197.56 62.4617 192.55 62.4959C177.437 62.5986 167.475 57.8897 156.236 48.0333C153.22 45.3882 150.33 42.6097 147.209 40.0826C143.176 36.8172 138.579 33.9825 133.878 31.7946C127.207 28.6895 119.981 26.5372 112.598 26.2363C111.117 26.173 109.634 26.1642 108.152 26.2099C106.938 26.2446 105.68 26.3677 104.473 26.2225L104.333 26.0009Z" fill="url(#paint0_linear_761_8082)"/>
<path d="M66.3934 144.799C67.6812 145.205 69.0806 145.407 70.4057 145.666C79.8285 147.511 87.3521 146.131 96.666 144.752C100.278 144.217 103.837 143.537 107.508 143.658C113.046 143.839 118.462 145.098 123.86 146.26C131.091 147.816 138.64 149.548 145.987 150.306C146.397 149.515 146.788 148.726 147.139 147.907C147.341 147.538 147.558 147.205 147.811 146.87L201.284 146.878C210.016 146.797 218.742 146.967 227.464 147.388C231.097 147.574 234.795 147.686 238.398 148.209C232.194 148.641 226.018 149.003 219.869 149.99C216.254 150.57 212.704 151.429 209.107 152.099C202.668 153.3 196.068 154.151 189.512 154.25C183.619 154.34 177.972 153.541 172.162 152.679C174.51 153.695 177.324 154.182 179.8 154.83C194.551 158.691 211.863 160.711 227.085 161.822C230.582 162.078 234.084 162.185 237.582 162.405C234.779 162.883 231.937 163.129 229.106 163.378C225.758 163.696 222.403 163.907 219.041 164.01C215.679 164.113 212.318 164.108 208.956 163.995C201.925 163.814 194.935 163.363 187.895 163.526C182.202 163.657 176.526 164.04 170.867 164.676C164.383 165.362 157.903 166.238 151.391 166.611C146.549 166.889 141.651 167.044 136.804 166.845C133.951 166.728 130.991 166.269 128.149 166.31C129.029 166.814 132.236 167.173 133.463 167.38C141.86 168.8 150.147 169.554 158.659 169.655C165.065 169.731 171.46 169.406 177.865 169.424C183.682 169.431 189.479 169.772 195.257 170.446C204.89 171.558 214.617 173.663 223.713 177.07C226.732 178.201 229.624 179.553 232.579 180.821L232.434 180.871L232.728 180.942C231.573 180.856 228.683 179.693 227.417 179.3C226.03 178.869 224.597 178.523 223.18 178.205C214.103 176.168 204.739 175.673 195.47 176.145C184.484 176.704 173.604 178.486 162.837 180.679C151.458 182.997 140.166 185.696 128.592 186.884C125.251 187.214 121.903 187.409 118.546 187.471C115.19 187.533 111.836 187.461 108.486 187.255C90.8614 186.175 74.2205 180.799 57.5005 175.521C48.6157 172.717 39.6611 169.817 30.4619 168.242C23.9033 167.119 17.4385 166.527 10.7824 166.626C10.0905 166.636 3.48921 167.002 3.43411 166.95L3.54881 166.817C3.59965 166.815 3.65024 166.813 3.70108 166.809C6.02722 166.655 8.49662 165.659 10.7784 165.13C14.87 164.178 19.0043 163.486 23.1815 163.054C35.7241 161.845 48.2526 163.185 60.8032 162.698C65.1026 162.531 69.5292 162.17 73.777 161.453C75.8119 161.11 78.2642 160.263 80.2648 160.172L80.4677 160.008C78.2978 159.965 76.0087 160.474 73.8261 160.617C71.5242 160.769 69.2199 160.829 66.913 160.799C64.6062 160.769 62.3043 160.648 60.007 160.437C48.5414 159.467 37.3983 156.398 25.973 155.23C23.631 154.995 21.2839 154.847 18.9312 154.788C16.5785 154.729 14.2268 154.758 11.8761 154.875C9.40674 154.986 6.93634 155.235 4.46945 155.323C12.9032 152.298 23.5587 151.065 32.3996 152.755C30.8281 151.933 28.8278 151.578 27.1092 151.167C20.8796 149.677 14.493 148.974 8.13497 148.295C5.47148 148.011 2.60864 147.968 0 147.43C5.89273 147.049 11.7081 146.693 17.6056 147.246C23.2078 148.016 29.1549 147.998 34.7245 147.008C40.6075 145.962 46.3672 144.276 52.3529 143.813C57.1707 143.44 61.6564 143.932 66.3934 144.799Z" fill="url(#paint1_linear_761_8082)"/>
<path d="M26.3906 46.8612C26.3911 46.3195 26.3893 45.7815 26.4558 45.2433C26.4879 44.9831 26.5263 44.724 26.5712 44.4658C26.6161 44.2076 26.667 43.9504 26.7245 43.6948C26.7819 43.4389 26.8457 43.1847 26.9156 42.9321C26.9856 42.6794 27.0617 42.4288 27.1437 42.1799C27.2257 41.9311 27.314 41.6844 27.4084 41.4398C27.5027 41.1952 27.6028 40.9532 27.7089 40.7136C27.815 40.474 27.9272 40.237 28.0448 40.0029C28.1625 39.7689 28.2859 39.5379 28.4151 39.3099C28.5443 39.0818 28.6788 38.8574 28.819 38.6359C28.959 38.4144 29.1045 38.1967 29.2553 37.9825C29.4061 37.7681 29.5621 37.5577 29.7232 37.3513C29.8842 37.1447 30.0503 36.9423 30.2214 36.744C30.3923 36.5456 30.5681 36.3515 30.7488 36.1617C30.9291 35.9719 31.1143 35.7869 31.3039 35.6062C31.4933 35.4257 31.6873 35.25 31.8857 35.0788C32.0839 34.9076 32.2861 34.7417 32.4926 34.5805C43.9552 25.6654 61.1456 36.4086 73.5087 37.9013C86.7844 39.5044 94.5251 33.3794 104.239 25.7046L104.379 25.9263C105.587 26.0716 106.846 25.9484 108.06 25.9137C109.543 25.868 111.026 25.8768 112.508 25.9401C119.894 26.2413 127.123 28.3949 133.798 31.5021C138.501 33.6914 143.099 36.528 147.134 39.7955C150.256 42.3242 153.147 45.1046 156.165 47.7514C167.409 57.6143 177.376 62.3263 192.495 62.2234C197.507 62.1893 202.294 61.4215 207.021 59.7234C208.044 59.3556 209.189 58.9788 210.128 58.433C214.809 63.9625 218.086 70.0662 220.758 76.7787C220.353 76.9461 216.686 74.5811 215.935 74.2058C209.781 71.127 203.183 69.8691 196.362 69.4991C195.333 71.171 194.228 72.9217 193.348 74.6768C195.322 74.3958 197.398 73.9888 199.397 74.0094C199.416 74.4876 199.43 74.9624 199.483 75.438C199.516 75.7299 199.456 75.9295 199.369 76.2075C199.112 76.4871 198.941 76.521 198.587 76.613C195.632 77.3262 192.561 77.6837 189.56 78.1618C184.024 79.0437 178.415 79.9102 172.926 81.0374C167.44 82.0304 161.923 82.9469 156.463 84.0671C140.099 87.544 123.818 91.3724 107.62 95.5524C102.627 96.8242 97.6553 98.1759 92.7053 99.6073C91.2643 100.023 88.888 100.523 87.6364 101.15C78.1599 103.853 68.7754 106.846 59.4833 110.13C50.1912 113.413 41.0087 116.98 31.9364 120.832C31.0312 121.221 22.6741 124.976 22.487 124.995C22.4614 124.608 22.4907 124.242 22.5266 123.856C22.7883 123.288 22.933 122.633 23.1749 122.046C24.8883 117.894 27.6429 116.586 31.6409 114.93C33.5899 113.923 35.8164 113.271 37.8515 112.434C38.0582 111.785 38.9009 111.443 39.2268 110.837C40.0471 109.312 39.9515 107.048 40.2677 105.344C40.1116 105.296 40.0128 105.216 39.8801 105.124C37.8826 104.715 35.3611 104.809 33.265 104.622C32.9193 104.835 32.0287 104.749 31.618 104.687C31.3147 104.641 31.0774 104.527 30.9103 104.258C30.5109 103.614 30.7588 102.59 30.9254 101.9C31.3749 100.039 32.1815 98.4293 33.4938 97.0248C36.7211 93.5715 44.5445 90.5463 48.8716 87.9098C47.6436 86.9007 46.5071 85.7856 45.2721 84.7843C44.8571 84.45 44.4349 84.1252 44.0057 83.8099C43.5762 83.4945 43.1397 83.189 42.6964 82.8937C42.2531 82.598 41.8035 82.3127 41.3477 82.0374C40.8916 81.7622 40.4295 81.4972 39.9616 81.2428C39.4935 80.9884 39.0201 80.7448 38.5411 80.5118C38.0622 80.2787 37.5783 80.0568 37.0893 79.8456C36.6004 79.6344 36.1069 79.4343 35.6089 79.2455C35.1109 79.0567 34.6092 78.8793 34.1032 78.7131C33.6574 78.5655 33.2088 78.4265 32.7575 78.2958C32.3064 78.1651 31.8531 78.0429 31.3973 77.9293C30.9414 77.8156 30.4838 77.7106 30.0242 77.614C29.5644 77.5175 29.103 77.4298 28.6402 77.3506C28.1773 77.2714 27.7132 77.201 27.2476 77.1392C26.7819 77.0776 26.3153 77.0245 25.8479 76.9803C25.3803 76.9363 24.9122 76.9009 24.4433 76.8742C23.9744 76.8476 23.505 76.8297 23.0356 76.8207C22.566 76.8119 22.0964 76.8116 21.627 76.8202C21.1573 76.829 20.6882 76.8463 20.2193 76.8727C19.7504 76.8988 19.2821 76.9338 18.8144 76.9778C18.3471 77.0215 17.8804 77.0741 17.4148 77.1357C16.9492 77.197 16.4848 77.2671 16.0217 77.3458C15.5588 77.4245 15.0975 77.512 14.6376 77.6083C14.178 77.7043 13.7202 77.8089 13.2644 77.9222C12.8085 78.0356 12.3549 78.1573 11.9039 78.2878C10.2308 78.7709 8.4235 79.3702 6.87486 80.1777C6.83095 80.2006 6.78755 80.2244 6.7439 80.2478L6.60542 80.1925L6.55273 79.1244C6.59037 78.5706 6.63678 78.0175 6.69197 77.4652C6.94033 75.0763 7.61017 72.7472 8.51933 70.5305C11.3693 63.5819 16.54 59.2729 22.1739 54.6864C25.0223 54.8488 27.8943 54.7935 30.7467 54.799C33.7527 54.805 36.7707 54.8598 39.7749 54.7751C39.4275 54.4757 38.7622 54.671 38.3071 54.4244C38.0186 53.5272 38.4305 52.2831 38.2587 51.3166C38.2446 51.2366 38.2278 51.1569 38.2122 51.0772C37.5216 51.0787 36.8876 51.2075 36.2253 51.3877C35.8437 50.3666 35.4654 49.3454 34.8543 48.4354C33.8435 46.9304 32.0603 45.8562 30.2633 45.585C28.9856 45.3921 27.6447 46.2637 26.6628 46.9857C26.6231 47.0148 26.5845 47.0455 26.5451 47.0754L26.3906 46.8612Z" fill="#67A1FF"/>
<path d="M69.578 55.4412C69.508 52.7787 69.6161 50.1147 69.6348 47.4522C69.6513 45.0913 69.5449 42.6665 69.81 40.3208C70.112 41.4856 69.9565 43.5657 69.9857 44.8384L70.2396 55.0519C73.0721 54.0372 76.1582 53.2077 79.1237 52.6945L79.1309 52.8648L78.9034 52.9096C75.7528 53.543 72.6537 54.5181 69.578 55.4412Z" fill="#511E48"/>
<path d="M195.504 66.5295C196.144 66.5467 196.784 66.5729 197.423 66.6079L197.572 66.7739C197.244 67.7132 196.602 68.6362 196.062 69.474C195.06 71.1023 193.984 72.8072 193.128 74.5165C192.57 74.6169 191.992 74.765 191.423 74.7344C190.846 74.9856 190.136 75.0823 189.508 75.0978C190.76 73.2775 192.112 71.5305 193.354 69.6992C194.084 68.6521 194.801 67.5955 195.504 66.5295Z" fill="#FEFEFE"/>
<path d="M197.425 66.5295L197.572 66.7045C197.249 67.6944 196.618 68.667 196.087 69.5499C195.101 71.2658 194.042 73.0625 193.2 74.8638C192.651 74.9696 192.083 75.1257 191.523 75.0934C192.671 73.031 195.693 67.858 197.425 66.5295Z" fill="#5D4681"/>
<path d="M73.082 48.0167C76.5575 47.711 81.4639 46.2731 84.7319 46.3742C86.2193 46.4202 87.7264 46.7886 89.1816 47.089C90.5246 47.3661 91.9554 47.5886 93.2425 48.0735C91.6492 48.4194 84.4564 49.5036 83.6128 50.0012C82.9366 50.3665 81.7293 49.9231 80.9394 49.9332C80.9389 50.4828 81.0981 52.0074 80.8104 52.4004C80.805 52.4079 80.7956 52.4117 80.7882 52.4173L80.7793 49.8791C78.111 49.7056 75.4964 49.2118 73.082 48.0167Z" fill="#7A0D17"/>
<path d="M179.934 76.6099C180.631 75.6943 181.342 74.7725 182.132 73.9355C184.985 70.9152 189.502 69.6432 193.542 69.5537C192.263 71.4509 190.869 73.2609 189.579 75.1467C186.354 75.5043 183.176 76.4321 179.934 76.6099Z" fill="#F8D9BD"/>
<path d="M81.1575 49.8974C81.9587 49.8872 83.1834 50.3325 83.8693 49.9657L83.8806 52.088C88.4417 52.4858 93.0185 52.5914 97.5693 53.1522C101.69 53.4658 110.618 54.9644 113.968 57.1362C114.15 57.7034 114.302 58.2469 114.409 58.8349C108.639 58.0875 102.859 57.4393 97.0671 56.8907C92.1425 56.4343 87.1653 56.1218 82.2603 55.5018L81.7722 55.2675C80.895 56.1441 79.2589 56.7247 78.1237 57.2408C75.929 58.434 72.3018 60.613 70.1165 61.4416L69.1357 61.9935C69.0996 61.3533 69.135 60.7008 69.1445 60.0593C67.4194 60.6198 65.7121 61.2743 64.0078 61.8986C64.609 60.6117 65.2914 59.2835 66.0172 58.0662C66.8521 56.6666 67.9739 55.9933 69.5037 55.6051C72.5982 54.6635 75.7162 53.6689 78.8861 53.0228L79.115 52.9771L79.1077 52.8034C79.7124 52.594 80.376 52.5102 81.004 52.3917C81.0115 52.3861 81.0211 52.3823 81.0266 52.3746C81.3184 51.9801 81.157 50.4493 81.1575 49.8974Z" fill="url(#paint2_linear_761_8082)"/>
<path d="M70.0576 59.6277C71.8013 58.9527 76.4752 56.8622 78.1218 56.9565C75.9191 58.244 72.2787 60.5953 70.0853 61.4895L70.0576 59.6277Z" fill="#E98153"/>
<path d="M97.3867 52.9211C101.552 53.2548 110.577 54.8498 113.963 57.1614C114.147 57.765 114.3 58.3435 114.408 58.9693C108.576 58.1738 102.733 57.484 96.8791 56.9001C91.9014 56.4143 86.8704 56.0817 81.9124 55.4218L81.419 55.1724L81.1436 55.2216L81.3217 55.1114C82.1126 55.1319 82.9311 54.9436 83.7139 54.8188C84.033 54.531 84.3082 54.3224 84.6878 54.1341C85.1525 54.1192 85.5679 54.3556 85.9873 54.545C86.1968 54.374 86.4097 54.2084 86.6264 54.0476C89.7456 51.7552 89.7398 54.0227 91.8048 54.4248C92.6892 53.8912 92.6155 54.4451 93.3319 54.264C93.362 54.01 93.393 53.8258 93.5012 53.5961L93.7399 53.5639L94.0422 53.9846L94.3227 54.0184L94.5437 53.6785L94.8331 53.7374C95.2887 54.5718 96.7694 54.6434 97.6201 54.9355C98.2944 55.167 98.7541 54.8741 99.4206 54.9195C100.886 55.0195 102.406 55.6075 103.852 55.6118C104.271 55.6129 104.585 55.3246 104.997 55.3451C105.256 55.3581 105.497 55.3867 105.76 55.3708C106.183 55.3448 106.403 55.2187 106.673 54.8817C106.039 54.2014 98.6616 53.2875 97.4871 53.1433L97.3867 52.9211Z" fill="#7A0D17"/>
<path d="M81.6358 55.4414L82.1229 55.6722C87.0176 56.2828 91.9844 56.5905 96.8986 57.0401C102.678 57.5804 108.446 58.2187 114.204 58.9548C118.598 59.3084 122.965 59.9692 127.333 60.549C131.514 61.1041 135.729 61.5794 139.891 62.2629C140.633 62.9535 142.361 64.2262 142.635 65.1778C142.426 65.2758 142.374 65.2695 142.152 65.2573C139.931 66.4519 133.921 68.1331 132.386 69.4455C132.167 69.4053 132.265 69.4358 132.058 69.347C128.565 67.8443 124.196 67.527 120.43 67.0615C114.687 66.3514 108.911 65.6023 103.129 65.325C97.6269 65.0613 92.1475 65.2335 86.6446 65.324C86.8057 66.1519 87.0559 66.9252 87.3281 67.7223C85.6511 66.949 83.8874 66.3069 82.1554 65.6678C81.21 65.319 80.0992 65.049 79.2483 64.5209C79.4462 64.9512 79.6506 65.3775 79.81 65.8241L80.6653 67.9398C82.0431 71.9213 86.0642 79.0761 88.8967 82.0602C86.3186 82.6768 83.763 83.5596 81.2272 84.339C78.5433 85.1466 75.8787 86.0132 73.2333 86.939C70.5877 87.8646 67.9641 88.8485 65.3625 89.8904C62.7606 90.9322 60.183 92.0314 57.63 93.1875C55.0769 94.3436 52.5509 95.5558 50.0516 96.8236C47.409 98.149 43.213 99.7675 41.6389 102.307C41.0534 103.251 40.6737 104.301 40.2901 105.339C40.1345 105.291 40.036 105.211 39.9036 105.119C37.9117 104.712 35.3972 104.806 33.3069 104.621C32.9622 104.832 32.0741 104.746 31.6645 104.684C31.3621 104.639 31.1254 104.526 30.9588 104.258C30.5605 103.617 30.8077 102.599 30.9738 101.913C31.4221 100.062 32.2264 98.4608 33.5351 97.0639C36.7534 93.6293 44.5552 90.6204 48.8702 87.9981C49.1612 87.8539 49.3814 87.7226 49.6328 87.5111C49.7927 86.4067 49.7199 85.2113 49.7276 84.0944C49.7474 82.0555 49.7496 80.0162 49.7349 77.977C47.4662 77.5112 42.0917 78.2723 40.6169 77.685L40.6211 77.5087C41.2133 77.1081 42.0399 77.3182 42.7026 76.9206C49.4387 72.9367 56.2195 69.0307 63.0456 65.203C64.9189 64.1434 67.0209 63.3153 68.8332 62.1874L69.0258 62.0657L70.0045 61.5221C72.1853 60.706 75.8049 58.56 77.995 57.3849C79.1278 56.8766 80.7604 56.3048 81.6358 55.4414Z" fill="#FEFEFE"/>
<path d="M57.8376 76.6099C58.0919 78.6113 57.8649 80.946 57.9488 83.0137C55.5313 84.4069 53.0947 85.7381 50.7076 87.1941C50.6528 85.1684 50.516 83.1427 50.4023 81.1196C52.8026 79.4727 55.362 78.1196 57.8376 76.6099Z" fill="#5D4681"/>
<path d="M58.4639 76.3704C60.0009 75.5241 66.3616 71.7207 67.5318 71.5698C67.4916 73.8219 67.4548 76.1026 67.5361 78.3542C66.5369 78.9849 65.2816 79.4403 64.2071 79.9378C62.2971 80.8116 60.4024 81.7182 58.5224 82.6581C58.5809 80.5712 58.4889 78.4593 58.4639 76.3704Z" fill="#5D4681"/>
<path d="M68.5449 71.3914C72.0679 69.6088 75.6489 67.8884 79.1292 66.0256C78.6696 68.765 78.3535 71.5261 77.9131 74.2686C74.8032 75.5594 71.6756 76.791 68.5808 78.1219C68.5971 75.8783 68.5852 73.6347 68.5449 71.3914Z" fill="#5D4681"/>
<path d="M83.8567 59.9775C91.4007 60.1994 98.9347 60.5966 106.458 61.1691C113.982 61.7416 121.487 62.4888 128.972 63.4106L137.576 64.4406C139.072 64.6224 140.669 64.72 142.132 65.0537C139.915 66.1935 133.911 67.7976 132.378 69.0498C132.159 69.0114 132.256 69.0405 132.051 68.9558C128.561 67.5221 124.197 67.2193 120.435 66.7751C114.699 66.0977 108.929 65.3829 103.154 65.1184C97.6585 64.8667 92.1854 65.0311 86.6888 65.1174C86.8497 65.9073 87.0996 66.6451 87.3715 67.4056C85.6964 66.6678 83.9347 66.0552 82.2047 65.4454C81.2604 65.1127 80.1508 64.855 79.301 64.3512C78.8864 64.2353 78.2959 64.3467 77.8528 64.3774C75.7148 64.5265 73.8051 65.1394 71.8524 65.9593C71.1108 66.2708 70.3421 66.7188 69.5547 66.8994C70.0015 66.3512 82.5338 60.3595 83.8567 59.9775Z" fill="url(#paint3_linear_761_8082)"/>
<path d="M78.9994 64.5137C79.8521 65.0428 80.9653 65.3133 81.9128 65.6628C83.6485 66.3032 85.4161 66.9465 87.0967 67.7214C86.824 66.9227 86.5732 66.1478 86.4118 65.3184C91.9267 65.2277 97.418 65.0551 102.932 65.3194C108.726 65.5972 114.515 66.3478 120.271 67.0592C124.045 67.5257 128.423 67.8436 131.924 69.3493C132.131 69.4382 132.033 69.4076 132.253 69.448C132.601 69.9305 132.762 70.425 132.953 70.9809C134.441 71.128 142.151 71.1337 142.774 71.953C143.193 72.5041 143.291 73.3884 143.293 74.0578C144.116 74.0626 144.861 74.0596 145.651 74.3254C147.822 75.0559 153.589 79.4105 155.643 80.9783L173.123 77.958C174.355 77.7533 178.708 77.2741 179.62 76.8898C182.85 76.7141 186.016 75.7977 189.229 75.4445C189.874 75.4287 190.602 75.3297 191.194 75.0727C191.778 75.104 192.372 74.9525 192.945 74.8497C194.917 74.5697 196.992 74.1641 198.989 74.1846C199.009 74.6611 199.023 75.1343 199.076 75.6083C199.109 75.8992 199.049 76.0981 198.962 76.3752C198.705 76.6538 198.535 76.6876 198.181 76.7793C195.228 77.49 192.158 77.8463 189.159 78.3228C183.626 79.2016 178.021 80.0651 172.534 81.1885C167.052 82.178 161.539 83.0914 156.081 84.2078C139.728 87.6728 123.457 91.488 107.268 95.6537C102.278 96.9211 97.3094 98.2681 92.3624 99.6946C90.9223 100.109 88.5474 100.607 87.2966 101.232C77.8258 103.926 68.447 106.909 59.1605 110.181C49.874 113.453 40.697 117.008 31.6301 120.846C30.7255 121.234 22.3735 124.976 22.1864 124.995C22.1608 124.609 22.1902 124.245 22.226 123.86C22.4875 123.294 22.6322 122.641 22.8739 122.056C24.5863 117.918 27.3393 116.615 31.3348 114.965C33.2826 113.961 35.5078 113.311 37.5417 112.477C37.7483 111.831 38.5904 111.489 38.9161 110.885C39.736 109.366 39.6405 107.11 39.9564 105.412C40.3407 104.373 40.7213 103.32 41.308 102.374C42.8856 99.8299 47.0907 98.2082 49.7391 96.8802C52.2438 95.6098 54.7753 94.3953 57.334 93.2369C59.8926 92.0785 62.4758 90.9772 65.0833 89.9332C67.6906 88.8893 70.3199 87.9035 72.9713 86.9761C75.6224 86.0484 78.2929 85.1801 80.9826 84.3709C83.5239 83.59 86.0851 82.7054 88.6688 82.0876C85.8301 79.0976 81.8002 71.9287 80.4195 67.9393L79.5623 65.8194C79.4026 65.372 79.1977 64.9448 78.9994 64.5137Z" fill="url(#paint4_linear_761_8082)"/>
<path d="M79.1279 64.5137C79.9695 65.0175 81.0681 65.2752 82.0031 65.608C83.7161 66.2178 85.4606 66.8304 87.1191 67.5683C87.4014 68.5934 87.8723 69.5527 88.2002 70.5618C87.9841 70.4103 87.8003 70.2419 87.6061 70.0661C87.3517 70.1486 87.2102 70.2233 86.9424 70.1102C86.62 69.974 86.329 69.6796 86.0071 69.5155C85.3898 69.2008 80.9018 67.2608 80.519 67.204L80.4916 67.3879C80.5853 67.4853 80.5341 67.6463 80.5294 67.7758L79.6834 65.7571C79.5258 65.331 79.3237 64.9242 79.1279 64.5137Z" fill="#DCB6B1"/>
<path d="M86.6904 65.1603C92.2123 65.0676 97.7106 64.8913 103.231 65.1613C109.033 65.4452 114.829 66.2121 120.592 66.939C124.371 67.4156 128.755 67.7405 132.261 69.2788C132.468 69.3697 132.37 69.3385 132.589 69.3797C132.938 69.8727 133.099 70.378 133.29 70.946C134.781 71.0962 142.5 71.1021 143.124 71.9391C143.544 72.5023 143.641 73.4058 143.644 74.0898C133.144 73.2272 122.63 72.6172 112.102 72.2601C104.474 71.9788 96.6276 71.623 89.0148 72.2926L88.4731 70.8275C88.1404 69.7447 87.6627 68.7155 87.3763 67.6155C87.1031 66.7995 86.8521 66.0078 86.6904 65.1603Z" fill="#511E48"/>
<path d="M88.8799 82.1541C90.1288 83.5454 91.2706 85.0382 92.5651 86.3871C94.8892 88.809 97.4009 91.0033 99.7933 93.3484C84.4099 96.4893 69.5316 101.188 54.7118 106.303C50.8943 107.63 47.0893 108.992 43.2971 110.389C41.4793 111.052 39.6457 111.83 37.7998 112.395C38.0062 111.752 38.8476 111.412 39.173 110.811C39.9921 109.299 39.8967 107.054 40.2123 105.364C40.5963 104.33 40.9765 103.283 41.5627 102.341C43.1388 99.8094 47.34 98.1957 49.986 96.8742C52.4884 95.61 55.0176 94.4014 57.5739 93.2487C60.1302 92.0959 62.711 91 65.3161 89.9612C67.921 88.9224 70.5479 87.9414 73.1968 87.0185C75.8455 86.0954 78.5135 85.2314 81.2008 84.4261C83.7398 83.6491 86.2986 82.7688 88.8799 82.1541Z" fill="#E98153"/>
<path d="M196.208 69.5537C203.034 69.9222 209.637 71.1748 215.797 74.2406C216.548 74.6143 220.218 76.9693 220.624 76.8026C221.211 77.9977 221.595 79.3327 221.99 80.6026C224.071 87.3035 225.287 95.3955 224.593 102.401C223.825 116.106 218.207 128.424 209.162 138.672C207.709 140.317 206.21 141.944 204.64 143.478C203.563 144.53 202.14 145.564 201.281 146.788L147.672 146.779C147.418 147.113 147.201 147.444 146.998 147.81C146.646 148.625 146.254 149.409 145.843 150.196C138.478 149.442 130.91 147.72 123.66 146.173C118.248 145.018 112.819 143.766 107.267 143.586C103.586 143.466 100.018 144.142 96.3969 144.674C87.0594 146.045 79.5167 147.417 70.07 145.583C68.7415 145.325 67.3384 145.124 66.0474 144.72C61.2984 143.858 56.8013 143.37 51.9714 143.741C45.9706 144.201 40.1962 145.877 34.2982 146.917C28.7144 147.901 22.7522 147.919 17.1357 147.154C17.5387 144.51 18.3706 141.95 18.8597 139.323C20.1023 134.542 21.1119 129.638 22.1875 124.815C22.3748 124.796 30.7389 121.057 31.6448 120.67C40.7247 116.835 49.9148 113.282 59.2147 110.013C68.5145 106.743 77.9067 103.763 87.3911 101.071C88.6438 100.446 91.022 99.9487 92.4643 99.5349C97.4184 98.1095 102.394 96.7635 107.391 95.4972C123.603 91.3347 139.898 87.5225 156.275 84.0603C161.74 82.9448 167.261 82.0322 172.751 81.0434C178.246 79.9209 183.859 79.0581 189.4 78.1799C192.403 77.7038 195.477 77.3478 198.434 76.6377C198.789 76.546 198.959 76.5122 199.217 76.2339C199.304 75.957 199.364 75.7583 199.331 75.4676C199.278 74.994 199.264 74.5212 199.244 74.045C197.244 74.0245 195.167 74.4298 193.191 74.7097C194.071 72.9619 195.177 71.2186 196.208 69.5537Z" fill="#BA341B"/>
<path d="M83.6209 109.875C83.6482 109.879 83.6767 109.877 83.7025 109.886C84.0101 109.998 84.0324 110.062 84.171 110.349C84.1545 110.665 84.1066 110.864 83.9307 111.119C83.7634 111.362 83.5637 111.543 83.2949 111.658C82.5417 111.979 81.6409 112.05 80.8429 112.236C79.0154 112.664 77.2346 113.087 75.3833 113.403C75.0428 113.239 74.8666 113.135 74.6153 112.831C74.602 112.622 74.5507 112.547 74.6863 112.369C75.5651 111.221 82.0128 110.184 83.6209 109.875Z" fill="#D3CED2"/>
<path d="M123.576 99.8661C124.154 99.7586 124.699 99.7305 125.201 100.083C125.609 100.372 125.87 100.953 125.956 101.438C126.078 102.123 125.962 102.878 125.57 103.455C125.273 103.893 124.852 104.203 124.377 104.411C122.918 105.052 118.638 105.534 116.86 105.837C116.119 105.87 115.666 105.778 115.098 105.264C114.638 104.848 114.43 104.276 114.411 103.656C114.385 102.774 114.806 102.22 115.375 101.613C117.921 100.696 120.924 100.378 123.576 99.8661Z" fill="url(#paint5_linear_761_8082)"/>
<path d="M144.199 95.8191C144.231 95.8122 144.263 95.8027 144.296 95.7978C144.815 95.7229 145.261 95.7459 145.697 96.0762C146.196 96.4538 146.593 97.0303 146.656 97.6793C146.732 98.4517 146.403 99.4176 145.929 100.009C144.943 101.242 137.898 101.563 136.057 101.781C135.369 101.816 134.754 101.889 134.143 101.504C133.655 101.197 133.222 100.794 133.095 100.192C132.964 99.5685 133.199 98.8468 133.558 98.3458C133.834 97.9598 134.306 97.7397 134.735 97.5977C135.735 97.2664 136.84 97.2293 137.872 97.0331C139.982 96.6314 142.081 96.1931 144.199 95.8191Z" fill="#D3CED2"/>
<path d="M18.8711 139.331C22.2396 138.319 24.6435 134.393 27.8087 133.789C31.5416 133.076 35.5827 138.482 39.515 138.602C41.2645 138.656 43.3776 137.505 44.9651 136.849C48.1533 135.532 51.9487 133.754 55.4359 133.58C56.3349 133.535 58.6951 133.542 59.3493 134.134L59.1539 134.133C57.6601 134.105 56.1866 133.684 54.6627 133.828C52.2001 134.062 44.3959 137.049 42.154 138.341L41.949 138.665C42.2326 138.938 42.6317 138.988 42.8362 139.323C42.7424 139.584 42.753 139.585 42.5106 139.721C42.0961 139.63 41.5254 139.357 41.1505 139.524C41.0874 139.903 41.2557 140.251 41.3778 140.604C41.1091 140.784 40.7944 140.78 40.4787 140.723C38.9741 140.449 36.7885 139.148 35.3355 140.119C34.6323 140.588 34.1998 141.642 33.7894 142.362C33.8073 142.401 33.8258 142.44 33.8435 142.479C33.9304 142.672 33.8998 142.602 33.9772 142.84C33.6205 143.369 32.0568 143.046 32.2274 144.004C32.284 144.321 32.4526 144.563 32.6191 144.833C32.0643 145.531 30.6214 145.175 30.7869 146.402C30.8132 146.597 30.8787 146.699 31.0035 146.848C31.4112 146.952 31.6427 146.865 32.0022 146.653C32.1857 146.545 32.3641 146.428 32.5425 146.312L33.6435 146.481C33.8225 146.257 33.9567 146.024 34.0998 145.777C34.5949 145.774 34.9141 146.286 35.3863 146.313C35.9074 146.343 41.9958 145.216 42.6256 145.019C42.8068 144.963 42.8877 144.852 43.0325 144.741C43.2004 144.612 43.2529 144.569 43.4589 144.566C45.6488 144.542 47.9632 143.962 50.146 143.684C54.3928 143.143 59.0179 143.224 63.2353 143.921C64.1834 144.077 65.7025 144.142 66.529 144.603L66.3728 144.711C61.5922 143.852 57.0651 143.365 52.2032 143.734C46.1624 144.193 40.3496 145.864 34.4124 146.9C28.7914 147.881 22.7896 147.899 17.1357 147.136C17.5414 144.501 18.3788 141.95 18.8711 139.331Z" fill="#E94508"/>
<path d="M198.545 76.6099L198.58 76.7873C196.774 78.6472 194.993 80.5291 193.235 82.4334C191.477 84.3375 189.743 86.2634 188.035 88.211C186.326 90.1583 184.642 92.127 182.983 94.1165C181.325 96.1059 179.692 98.116 178.085 100.146C176.477 102.177 174.896 104.226 173.341 106.296C171.786 108.366 170.257 110.455 168.756 112.563C167.254 114.671 165.779 116.797 164.331 118.942C162.884 121.087 161.464 123.249 160.071 125.429C157.154 129.765 154.403 134.2 151.818 138.737C150.332 141.346 149.026 144.08 147.473 146.646C147.218 146.979 146.999 147.31 146.795 147.676C146.746 147.516 146.723 147.451 146.69 147.276C146.465 146.087 147.979 141.535 148.448 140.216C149.608 136.947 150.98 133.755 152.275 130.538L158.098 116.104C160.764 109.611 163.254 103.05 165.95 96.5655C167.542 92.7393 169.08 88.9011 170.752 85.1076C171.343 83.7659 171.862 82.212 172.705 81.009C178.233 79.8882 183.881 79.0266 189.455 78.1498C192.477 77.6744 195.57 77.319 198.545 76.6099Z" fill="#7A0D17"/>
<path d="M22.4796 125.084C22.667 125.065 31.0321 121.321 31.9381 120.932C41.0192 117.092 50.2105 113.535 59.5116 110.261C68.8126 106.987 78.2061 104.002 87.6917 101.306C87.6553 101.344 87.6229 101.385 87.583 101.419C86.8367 102.038 84.941 102.378 83.981 102.674L74.5253 105.6C72.8767 106.115 71.0689 106.546 69.5007 107.261C69.1235 107.433 68.668 107.625 68.4633 108.004C68.5108 108.32 68.4402 108.194 68.6318 108.384C68.9005 108.652 69.1539 108.858 69.2649 109.232C69.1948 109.534 69.0979 109.757 68.9598 110.03L69.2079 110.479C68.8192 111.748 67.7188 111.845 67.5952 113.692C67.5448 113.707 67.4938 113.721 67.4438 113.738C67.2143 113.814 67.2997 113.778 67.0842 113.932C68.0103 113.98 70.9064 112.678 71.5885 113.218C71.7482 113.59 71.8634 113.956 71.6902 114.357C71.3486 115.148 67.6465 115.895 66.7726 116.125C65.0984 116.565 63.05 116.722 61.5102 117.479C61.0497 118.626 60.6401 119.805 60.1607 120.942C59.4669 122.587 58.0712 124.92 58.0815 126.697C58.0853 127.344 58.038 127.814 57.8419 128.433C57.7591 128.694 57.8929 129.082 57.9439 129.345C57.9534 129.394 57.9612 129.444 57.9705 129.493C58.0777 130.062 58.4396 130.537 58.4742 131.113L58.6093 131.202C59.4071 130.238 58.3826 128.307 59.3561 127.272C59.5618 127.458 59.5073 127.561 59.5154 127.823C59.543 128.724 59.4064 129.549 59.664 130.436C59.998 131.587 60.9432 132.515 61.2907 133.591C61.3698 133.837 61.2001 134.202 61.1162 134.432L61.2297 134.671C61.4889 134.754 61.6059 134.712 61.86 134.628C62.314 134.883 62.8245 135.224 63.3233 135.372C64.2981 135.661 67.3529 136.057 68.2715 135.775C69.6715 135.344 71.0398 134.302 72.2647 133.511L80.1455 128.414C81.441 127.573 82.8113 126.476 84.2218 125.877C86.2132 125.032 89.8172 122.072 91.7291 121.951C91.3341 122.473 86.9037 124.728 86.061 125.191C82.4371 127.179 70.239 135.891 67.9611 136.234C65.7709 136.564 61.2752 135.37 59.3672 134.389C58.7173 133.795 56.3724 133.787 55.4792 133.832C52.0145 134.008 48.2438 135.794 45.0762 137.117C43.499 137.776 41.3997 138.933 39.6614 138.879C35.7546 138.758 31.7398 133.326 28.031 134.043C24.8863 134.65 22.498 138.595 19.1514 139.611C20.3941 134.824 21.4039 129.914 22.4796 125.084Z" fill="url(#paint6_linear_761_8082)"/>
<path d="M70.9302 112.899C71.1835 112.944 71.3136 113.009 71.4514 113.256C71.5311 113.399 71.6209 113.661 71.5288 113.815C70.8819 114.902 62.7713 116.608 61.2228 116.931C61.1658 116.912 61.107 116.899 61.0518 116.875C60.7653 116.753 60.6088 116.621 60.4795 116.337L60.5953 116.021C61.6333 114.967 69.1368 113.277 70.9302 112.899Z" fill="#D3CED2"/>
<path d="M56.8258 116.956C56.8872 116.95 56.9486 116.941 57.0103 116.937C57.4127 116.912 57.6637 116.952 57.9613 117.219L57.9332 117.542C57.5732 118.044 57.0582 118.246 56.478 118.448C55.4074 118.819 54.2746 119.049 53.1832 119.359L45.9758 121.446C38.9354 123.491 31.8616 125.667 24.9776 128.165C24.6138 128.313 24.2741 128.439 23.8892 128.523L23.7036 128.377C23.6726 128.081 23.6836 127.919 23.7904 127.64C25.5791 126.002 52.5381 118.004 56.8258 116.956Z" fill="url(#paint7_linear_761_8082)"/>
<path d="M196.21 69.5537C203.037 69.9216 209.639 71.1723 215.799 74.2333C216.55 74.6064 220.22 76.9578 220.626 76.7914C221.213 77.9846 221.597 79.3175 221.992 80.5854C224.073 87.276 225.289 95.3554 224.595 102.35C223.827 116.033 218.209 128.333 209.164 138.564C207.712 140.207 206.213 141.832 204.642 143.363C203.566 144.413 202.142 145.446 201.284 146.668L147.677 146.659C149.22 144.093 150.518 141.359 151.996 138.751C154.565 134.214 157.299 129.779 160.198 125.444C161.582 123.263 162.993 121.101 164.432 118.956C165.871 116.812 167.337 114.685 168.83 112.578C170.322 110.47 171.841 108.381 173.387 106.312C174.932 104.242 176.504 102.192 178.102 100.162C179.699 98.1317 181.322 96.1217 182.971 94.1325C184.619 92.143 186.293 90.1745 187.991 88.2272C189.689 86.2797 191.412 84.3539 193.159 82.4497C194.907 80.5457 196.677 78.6639 198.472 76.8041L198.437 76.6267C198.792 76.5352 198.962 76.5014 199.22 76.2235C199.307 75.9471 199.366 75.7486 199.334 75.4585C199.281 74.9856 199.267 74.5135 199.247 74.0381C197.247 74.0176 195.169 74.4222 193.194 74.7016C194.074 72.9566 195.18 71.216 196.21 69.5537Z" fill="white"/>
<defs>
<linearGradient id="paint0_linear_761_8082" x1="148.498" y1="-0.453938" x2="169.852" y2="70.9446" gradientUnits="userSpaceOnUse">
<stop stop-color="#5567EB"/>
<stop offset="1" stop-color="#C2E8FF"/>
</linearGradient>
<linearGradient id="paint1_linear_761_8082" x1="136.952" y1="208.709" x2="107.029" y2="114.319" gradientUnits="userSpaceOnUse">
<stop stop-color="#250C4D"/>
<stop offset="1" stop-color="#254D85"/>
</linearGradient>
<linearGradient id="paint2_linear_761_8082" x1="92.6278" y1="50.0563" x2="86.2888" y2="68.6966" gradientUnits="userSpaceOnUse">
<stop stop-color="#8B0C15"/>
<stop offset="1" stop-color="#48367F"/>
</linearGradient>
<linearGradient id="paint3_linear_761_8082" x1="107.571" y1="58.2228" x2="104.966" y2="71.0542" gradientUnits="userSpaceOnUse">
<stop stop-color="#A74848"/>
<stop offset="1" stop-color="#D46858"/>
</linearGradient>
<linearGradient id="paint4_linear_761_8082" x1="102.616" y1="62.535" x2="111.821" y2="105.388" gradientUnits="userSpaceOnUse">
<stop stop-color="#E0CBC6"/>
<stop offset="1" stop-color="#F3F3F1"/>
</linearGradient>
<linearGradient id="paint5_linear_761_8082" x1="114.534" y1="103.694" x2="125.74" y2="102.115" gradientUnits="userSpaceOnUse">
<stop stop-color="#C1B8C7"/>
<stop offset="1" stop-color="#D7D3D7"/>
</linearGradient>
<linearGradient id="paint6_linear_761_8082" x1="65.4658" y1="123.732" x2="25.9594" y2="112.957" gradientUnits="userSpaceOnUse">
<stop stop-color="#DC4C15"/>
<stop offset="1" stop-color="#F57F23"/>
</linearGradient>
<linearGradient id="paint7_linear_761_8082" x1="40.3593" y1="119.188" x2="41.2079" y2="126.031" gradientUnits="userSpaceOnUse">
<stop stop-color="#E7D6D1"/>
<stop offset="1" stop-color="#F6F9F8"/>
</linearGradient>
</defs>
</svg>
