<svg width="50" height="50" viewBox="0 0 50 50" fill="none" xmlns="http://www.w3.org/2000/svg">
<path d="M43.6212 41.4419L37.4292 35.2499C39.5182 32.7517 40.7888 29.718 41.1021 26.4795H45.0617C45.8709 26.4795 46.5269 25.8235 46.5269 25.0143C46.5269 24.2051 45.8709 23.5491 45.0617 23.5491H41.123C40.8512 20.219 39.5706 17.0951 37.4291 14.5342L43.4913 8.47199C44.1078 8.78322 44.7926 8.94904 45.5032 8.94904C46.6978 8.94904 47.8208 8.4839 48.6654 7.63917C49.5101 6.79454 49.9753 5.6715 49.9753 4.47686C49.9753 3.28223 49.5102 2.15928 48.6655 1.31465C47.8209 0.469923 46.6978 0.00468751 45.5032 0.00468751C44.3087 0.00468751 43.1856 0.469825 42.3409 1.31455C41.4963 2.15918 41.0309 3.28223 41.0309 4.47686C41.0309 5.142 41.1756 5.78478 41.4492 6.36974L35.3563 12.4626C32.7636 10.2988 29.6481 9.07336 26.4626 8.78644V4.8294C26.4626 4.02022 25.8066 3.36417 24.9974 3.36417C24.1882 3.36417 23.5322 4.02022 23.5322 4.8294V8.78674C20.3479 9.07414 17.2337 10.2996 14.6418 12.4625L8.53176 6.35236C8.80158 5.77062 8.94435 5.13253 8.94435 4.47218C8.94435 3.27764 8.47922 2.15459 7.63449 1.30987C6.78976 0.465138 5.66661 0 4.47208 0C3.27755 0 2.1545 0.465138 1.30996 1.30987C0.465235 2.1545 0 3.27755 0 4.47208C0 5.66661 0.465235 6.78966 1.30996 7.63439C2.1545 8.47902 3.27764 8.94426 4.47218 8.94426C5.18751 8.94426 5.87657 8.77629 6.4963 8.46115L12.5699 14.5348C10.3789 17.1602 9.15012 20.3217 8.88381 23.5491H4.78966C3.98048 23.5491 3.32442 24.2051 3.32442 25.0143C3.32442 25.8235 3.98048 26.4795 4.78966 26.4795H8.9048C9.21193 29.6218 10.4341 32.6901 12.5698 35.2492L6.35167 41.4673C5.77062 41.1981 5.13331 41.0557 4.47393 41.0557C3.2794 41.0557 2.15635 41.5209 1.31172 42.3656C0.467091 43.2102 0.00185547 44.3333 0.00185547 45.5279C0.00185547 46.7225 0.466993 47.8455 1.31172 48.6902C2.15625 49.5349 3.2794 50.0001 4.47393 50.0001C5.66847 50.0001 6.79152 49.535 7.63625 48.6902C8.48097 47.8455 8.94621 46.7226 8.94621 45.5279C8.94621 44.8117 8.77785 44.1218 8.46183 43.5015L14.6419 37.3214C17.2338 39.4846 20.3477 40.7101 23.5323 40.9972V45.0037C23.5323 45.8129 24.1883 46.4689 24.9975 46.4689C25.8067 46.4689 26.4627 45.8129 26.4627 45.0037V40.9972C29.6479 40.7101 32.7638 39.4846 35.3564 37.3213L41.5138 43.4786C40.6654 45.1566 40.9401 47.2612 42.3402 48.6614C43.2122 49.5334 44.3571 49.9692 45.5025 49.9692C46.6476 49.9692 47.7931 49.5332 48.6648 48.6614C49.5095 47.8168 49.9748 46.6937 49.9748 45.4991C49.9748 44.3045 49.5097 43.1817 48.6648 42.3369C47.3033 40.9756 45.275 40.6771 43.6212 41.4419ZM24.9992 11.649C27.932 11.649 30.8643 12.615 33.2741 14.545L27.9721 19.8469C26.1447 18.7704 23.8538 18.7704 22.0263 19.8469L16.7243 14.545C19.1339 12.615 22.0663 11.649 24.9992 11.649ZM14.6521 16.6171L19.954 21.9191C18.8776 23.7465 18.8776 26.0375 19.954 27.865L14.6521 33.167C10.792 28.3475 10.792 21.4366 14.6521 16.6171ZM16.7242 35.239L22.0253 29.9379C22.9167 30.4652 23.9361 30.7473 24.9991 30.7473C26.062 30.7473 27.0813 30.4653 27.9727 29.938L33.2739 35.2391C28.4545 39.099 21.5437 39.0991 16.7242 35.239ZM35.3467 33.1675L30.0441 27.8649C31.1206 26.0375 31.1207 23.7465 30.0441 21.919L35.3467 16.6163C37.2265 18.9577 38.2482 21.846 38.2482 24.8918C38.2482 27.9378 37.2266 30.8262 35.3467 33.1675Z" fill="black"/>
</svg>
