<svg width="34" height="34" viewBox="0 0 34 34" fill="none" xmlns="http://www.w3.org/2000/svg">
<path d="M8.50033 7.08325C6.93552 7.08325 5.66699 8.35178 5.66699 9.91659V26.9166C5.66699 28.4814 6.93552 29.7499 8.50033 29.7499H22.667C19.5374 29.7499 17.0003 27.2129 17.0003 24.0833C17.0003 20.9536 19.5374 18.4166 22.667 18.4166C25.7966 18.4166 28.3337 20.9536 28.3337 24.0833V9.91659C28.3337 8.35178 27.0651 7.08325 25.5003 7.08325H8.50033Z" fill="white"/>
<path d="M22.667 21.5334V23.924L23.942 25.3584M28.3337 12.75V9.91667C28.3337 8.35186 27.0651 7.08333 25.5003 7.08333H21.2503M12.7503 29.75H8.50033C6.93552 29.75 5.66699 28.4815 5.66699 26.9167V15.5833M21.2503 4.25V7.08333M21.2503 9.91667V7.08333M12.7503 4.25V7.08333M12.7503 9.91667V7.08333M21.2503 7.08333H12.7503M12.7503 7.08333H8.50033C6.93552 7.08333 5.66699 8.35186 5.66699 9.91667V15.5833M12.7503 15.5833H5.66699M29.042 24.0833C29.042 27.6042 26.1878 30.4583 22.667 30.4583C19.1462 30.4583 16.292 27.6042 16.292 24.0833C16.292 20.5625 19.1462 17.7083 22.667 17.7083C26.1878 17.7083 29.042 20.5625 29.042 24.0833Z" stroke="black" stroke-width="2" stroke-linecap="round" stroke-linejoin="round"/>
</svg>
