<svg width="15" height="13" viewBox="0 0 15 13" fill="none" xmlns="http://www.w3.org/2000/svg">
<path d="M12.3383 11.1881C12.1378 11.3161 11.9078 11.3891 11.6703 11.4011C10.8333 11.4466 9.40825 11.5011 7.37525 11.5011C5.34225 11.5011 3.91725 11.4466 3.08025 11.4011C2.83875 11.3891 2.60375 11.3131 2.40125 11.1811C1.98775 10.9236 1.58725 11.5561 2.00475 11.8176C2.31475 12.0166 2.67125 12.1311 3.03925 12.1501C4.25325 12.2151 5.75275 12.2501 7.37525 12.2501C8.99775 12.2501 10.4973 12.2151 11.7113 12.1501C12.0833 12.1311 12.4443 12.0136 12.7568 11.8106C13.1598 11.5356 12.7483 10.9156 12.3383 11.1881Z" fill="black"/>
<path d="M14.6149 1.935C14.5084 0.9325 13.6824 0.1605 12.6749 0.122C11.6579 0.0665 9.91288 0 7.37488 0C4.83687 0 3.09188 0.0665001 2.07438 0.121C1.58638 0.152 1.62238 0.894 2.11538 0.871C3.72837 0.7215 11.0209 0.7215 12.6344 0.8715C13.2739 0.8845 13.8039 1.3725 13.8689 2.009C13.9559 2.892 13.9999 3.909 13.9999 5.042C13.9999 6.175 13.9559 7.1945 13.8689 8.075C13.8034 8.7115 13.2739 9.199 12.6344 9.2125C11.0224 9.362 3.72688 9.3615 2.11538 9.2125C1.47538 9.1995 0.945875 8.711 0.880875 8.0745C0.706375 6.371 0.706375 3.712 0.880875 2.0085C0.929875 1.523 0.182375 1.446 0.134375 1.935C-0.044625 3.6885 -0.045125 6.395 0.134875 8.1485C0.241875 9.1505 1.06788 9.9225 2.07488 9.9615C3.70238 10.1125 11.0474 10.1115 12.6749 9.9615C13.6819 9.923 14.5084 9.151 14.6149 8.1485C14.7939 6.393 14.7939 3.6895 14.6149 1.935Z" fill="black"/>
<path d="M7.00027 5.34449V6.53149C6.56977 6.53999 6.12577 5.91149 5.75777 6.30799C5.37127 6.95499 6.56127 7.20449 7.00027 7.29299C6.99927 7.60299 6.93127 8.06699 7.37527 8.08249C7.82477 8.06599 7.74927 7.59399 7.75027 7.28149C9.55177 6.92249 9.49827 4.97899 7.75027 4.73899V3.55199C8.18627 3.54399 8.64677 4.18999 9.00827 3.77349C9.37077 3.12549 8.19077 2.87999 7.75027 2.79049C7.75127 2.47899 7.81927 2.01649 7.37527 2.00049C6.92527 2.01749 7.00127 2.48899 7.00027 2.80199C5.19827 3.16099 5.25227 5.10399 7.00027 5.34449ZM7.75027 5.51299C8.59577 5.68049 8.45527 6.31049 7.75027 6.51499V5.51299ZM7.00027 3.56849V4.57049C6.15427 4.40299 6.29527 3.77349 7.00027 3.56849Z" fill="black"/>
<path d="M4.07875 12.0415C4.06475 11.23 2.85725 11.23 2.84375 12.0415C2.85725 12.853 4.06475 12.853 4.07875 12.0415Z" fill="black"/>
<path d="M11.9039 5.04149C11.8899 4.22999 10.6824 4.22999 10.6689 5.04149C10.6824 5.85299 11.8899 5.85299 11.9039 5.04149Z" fill="black"/>
</svg>
