<svg width="145" height="108" viewBox="0 0 145 108" fill="none" xmlns="http://www.w3.org/2000/svg">
<path d="M83.9156 12.9639C83.8287 12.9954 83.7426 13.027 83.6557 13.0576C82.8734 13.338 82.0802 13.5919 81.3082 13.9012C79.7974 14.5071 78.2636 15.0507 76.7579 15.6685C75.3366 16.2726 73.9162 16.875 72.5085 17.5099C70.8998 18.2358 69.3046 18.9831 67.632 19.5557C67.0764 19.7458 66.3879 19.618 65.8911 19.3282C65.8596 19.3095 65.8281 19.2907 65.7974 19.2703C65.3279 19.468 64.8584 19.6648 64.388 19.8599C63.0255 20.4385 61.669 21.029 60.315 21.6272C60.0014 21.7652 59.6768 21.9144 59.3487 22.0149C59.2158 22.0601 59.082 22.0975 58.9457 22.1274C58.7651 22.1521 58.5844 22.1768 58.4038 22.1998C58.2751 22.1862 58.1481 22.1691 58.0203 22.1495C57.9215 22.1112 57.8226 22.0694 57.7255 22.0251C57.7008 22.014 57.6761 22.0021 57.6522 21.9885C57.5355 21.9212 57.4179 21.8206 57.325 21.7064C55.568 22.3464 53.8084 22.9778 52.0446 23.5972C49.1415 24.6172 46.2512 25.6585 43.3634 26.7227C40.6997 27.7052 38.0574 28.7473 35.4116 29.7792C33.7407 30.2913 32.0731 30.8145 30.3979 31.3096C27.6201 32.1284 24.8473 32.9686 22.0695 33.7858C19.5413 34.5288 16.9936 35.2037 14.4552 35.9143C14.1373 36.0029 13.822 36.0949 13.5068 36.1887C13.4701 36.21 13.4343 36.2296 13.3977 36.25C12.4791 36.7715 11.4941 37.1609 10.4852 37.4685C9.55219 37.7523 8.63617 38.0607 7.72783 38.4161C6.97884 38.7092 6.23071 39.0066 5.48512 39.3074C5.37861 39.3568 5.27125 39.4053 5.16304 39.4548C5.07101 39.4974 4.97897 39.5408 4.8861 39.5809C4.70119 39.661 4.51544 39.7411 4.32883 39.8169C4.11581 39.8757 3.90021 39.9123 3.68037 39.9277C3.63095 39.9226 3.58238 39.9175 3.53295 39.9123C3.48609 39.9115 3.44008 39.9106 3.39407 39.9089C3.38896 39.9089 3.38384 39.9089 3.37873 39.9089C2.97142 39.9959 2.57009 40.0938 2.17898 40.2336C1.91994 40.3674 1.67709 40.5173 1.44021 40.686C1.4172 40.7056 1.39334 40.7244 1.37034 40.7448C0.953661 41.7248 0.895737 41.7921 0.803711 42.5683C1.27577 43.5781 1.75123 44.5861 2.22756 45.5933C2.34941 45.6725 2.46443 45.7637 2.57094 45.8651C2.99699 46.2758 3.28587 46.7947 3.62756 47.2711C3.53979 47.1569 3.45201 47.0444 3.36424 46.9302C3.69826 47.3631 4.01951 47.8028 4.33052 48.2493C4.40977 48.3047 4.48391 48.3677 4.55548 48.4359C5.70496 49.8521 6.65504 51.402 7.59576 52.958C7.72528 53.1582 7.85396 53.3601 7.98348 53.5595C8.73162 54.7209 9.4951 55.873 10.2236 57.0463C10.5645 57.0702 10.8883 57.2176 11.1439 57.4604C11.4285 57.7314 11.7267 57.987 11.9841 58.2827C12.1954 58.5238 12.3965 58.7718 12.5933 59.0257C13.0603 59.6299 13.4923 60.2579 13.9311 60.8833C14.2123 61.2846 14.485 61.6911 14.761 62.0967C14.7883 62.1376 14.8156 62.1768 14.8429 62.2177C14.9681 62.2543 15.0908 62.3063 15.2076 62.3736C15.5757 62.6497 15.9387 62.9224 16.2471 63.2649C16.5206 63.5691 16.7771 63.8852 17.031 64.2073C17.5721 64.895 18.1055 65.5886 18.61 66.3035C19.0062 66.8659 19.3896 67.4334 19.7722 68.0043C20.3857 68.9237 21.0035 69.8414 21.606 70.7668C22.8219 72.6405 24.0225 74.5271 25.3569 76.319C25.3952 76.3668 25.4344 76.4162 25.4728 76.4639C25.7182 76.7102 25.8877 77.0024 25.9815 77.3373C25.9857 77.3714 25.99 77.4063 25.9951 77.4404C26.2337 77.6986 26.4476 77.9764 26.6538 78.2704C26.8753 78.5882 27.0901 78.9086 27.3056 79.2307C27.4522 79.4514 27.5996 79.6712 27.7462 79.891C28.0742 79.9507 28.3784 80.1143 28.6511 80.3469C28.9323 80.5872 29.2356 80.8096 29.4836 81.0857C29.6907 81.3132 29.8849 81.5475 30.0741 81.7887C30.4933 82.3255 30.8793 82.8819 31.2628 83.4426C31.5295 83.8337 31.7902 84.2274 32.051 84.621C32.5742 85.4143 33.1084 86.2017 33.6197 87.0027C34.1292 87.8011 34.6345 88.6012 35.15 89.3953C35.7448 90.3122 36.3549 91.2163 36.9497 92.1331C37.0826 92.3393 37.1618 92.5677 37.1951 92.8037C37.4916 92.7756 37.8 92.837 38.0761 92.9869C38.9214 93.4471 39.4702 94.1918 40.0394 94.9408C40.9869 96.1618 41.9523 97.3701 42.8837 98.6031C43.7988 99.8165 44.7157 101.029 45.6394 102.236C46.1992 102.95 46.782 103.647 47.3947 104.316C48.0414 105.026 48.7342 105.693 49.3886 106.396C49.6672 106.364 49.9459 106.331 50.2236 106.299C50.7161 106.244 51.207 106.188 51.6978 106.133C52.3854 106.056 53.0705 105.953 53.7564 105.862C53.5553 105.889 53.3542 105.916 53.1531 105.942C54.1288 105.776 55.0959 105.601 56.0639 105.404C56.4073 105.053 56.8104 104.762 57.2143 104.485C57.55 104.255 57.8831 104.019 58.2291 103.804C58.9142 103.378 59.6231 102.983 60.3593 102.651C60.8961 102.41 61.4381 102.189 61.9834 101.976C62.0337 101.94 62.084 101.903 62.1326 101.867C62.3737 101.691 62.6182 101.528 62.8696 101.365C63.1849 101.161 63.4942 100.939 63.8197 100.75C64.4145 100.406 65.005 100.059 65.6091 99.7372C66.2661 99.3853 66.929 99.0462 67.5945 98.7105C68.9706 98.016 70.409 97.4434 71.8388 96.8717C73.1672 96.3416 74.4888 95.8005 75.807 95.2458C77.391 94.5752 78.9708 93.9012 80.5609 93.2443C81.5714 92.8063 82.5667 92.3359 83.5781 91.8962C84.7021 91.4097 85.8277 90.9555 86.9882 90.5627C88.1539 90.169 89.3162 89.772 90.4563 89.3067C91.4464 88.9028 92.4374 88.4981 93.4258 88.0865C94.7363 87.5216 96.0452 86.9558 97.3583 86.4011C97.3131 86.4198 97.2688 86.4386 97.2236 86.4573C98.2342 86.0142 99.2244 85.5328 100.227 85.0735C101.187 84.6338 102.175 84.2495 103.152 83.8448C103.471 83.7076 103.79 83.5721 104.111 83.4366C105.436 82.818 106.762 82.1994 108.084 81.5748C110.756 80.3154 113.442 79.0722 116.075 77.7327C118.094 76.7059 120.111 75.6732 122.123 74.6302C123.812 73.7559 125.518 72.9388 127.244 72.1412C129.566 71.1758 131.898 70.2342 134.238 69.3131C135.842 68.6809 137.466 68.0759 139.047 67.3865C139.62 67.044 140.191 66.698 140.767 66.3615C140.883 66.2933 141.001 66.226 141.118 66.1569C141.547 65.7616 141.922 65.3057 142.253 64.8226C142.708 64.1588 142.963 63.4047 143.098 62.625C143.098 62.625 143.097 62.6242 143.095 62.6225C142.549 62.1189 142.083 61.5249 141.665 60.914C141.037 59.9963 140.58 58.9772 139.969 58.0501C139.356 57.3352 138.658 56.6884 137.979 56.0366C137.193 55.2791 136.599 54.3631 135.955 53.4871C135.539 52.981 135.091 52.5225 134.593 52.0982C133.895 51.6048 133.153 51.1788 132.457 50.6803C131.915 50.2926 131.391 49.8879 130.911 49.4252C130.588 49.1124 130.259 48.8074 129.937 48.4947C129.578 48.1445 129.244 47.7704 128.888 47.4185C128.527 47.0631 128.145 46.7342 127.77 46.3951C127.123 45.8114 126.509 45.2081 125.829 44.6628C125.538 44.4421 125.242 44.2257 124.935 44.0254C124.532 43.7621 124.114 43.5218 123.698 43.279C123.257 43.0217 122.821 42.7584 122.381 42.5002C121.984 42.2675 121.573 42.0528 121.186 41.8023C119.506 40.7159 118.206 39.1821 116.668 37.9176C115.458 37.022 114.192 36.1946 113.033 35.2284C112 34.3652 111.042 33.4185 109.998 32.5673C109.315 32.0534 108.618 31.5516 107.974 30.9909C107.333 30.4328 106.707 29.8593 106.061 29.3089C105.385 28.732 104.786 28.0895 104.152 27.47C103.634 26.9639 103.066 26.508 102.5 26.0581C101.639 25.4037 100.772 24.7586 99.9605 24.0412C99.2184 23.3851 98.4796 22.6974 97.8047 21.9714C96.4431 20.5084 95.0525 19.082 93.5051 17.8132C92.555 17.1009 91.5759 16.4081 90.7306 15.573C90.0115 14.865 89.3502 14.1134 88.5825 13.459C88.113 13.1275 87.6316 12.8267 87.1177 12.5728C87.0436 12.5481 86.9695 12.5251 86.8953 12.5029C85.8992 12.6094 84.9032 12.7747 83.9156 12.9639ZM135.531 58.4156C135.484 58.4582 135.433 58.4974 135.381 58.5315L135.377 58.5332C135.427 58.494 135.479 58.454 135.531 58.4156ZM131.423 59.952C131.445 59.975 131.466 59.9971 131.489 60.0201H131.488C131.467 59.9971 131.445 59.975 131.423 59.952Z" fill="#FFE2A7"/>
<path d="M3.10352 39.9389C3.16913 39.9295 3.2339 39.921 3.30037 39.9116C3.2339 39.9184 3.16828 39.9295 3.10352 39.9389Z" fill="#FFE2A7"/>
<path d="M24.2595 41.4687C23.2379 41.5846 22.2912 41.9203 21.3317 42.2731C20.3646 42.6293 19.4256 43.0783 18.4925 43.5163C17.6328 43.9193 16.779 44.3351 15.9235 44.7484C15.1813 45.1071 14.417 45.4267 13.6611 45.759C10.8237 46.9034 7.99725 48.0784 5.15039 49.1998C6.04339 50.4004 6.82478 51.6777 7.59934 52.9584C7.728 53.1595 7.85665 53.3597 7.98617 53.56C8.73431 54.7205 9.4995 55.8726 10.2263 57.0467C10.5672 57.0698 10.891 57.218 11.1466 57.4609C11.4304 57.7318 11.7294 57.9875 11.9868 58.2831C12.1981 58.5243 12.3992 58.7722 12.596 59.0262C13.063 59.6303 13.495 60.2583 13.933 60.8837C14.2142 61.2851 14.4868 61.6915 14.7629 62.0971C14.7902 62.138 14.8175 62.1772 14.8456 62.2181C14.9708 62.2539 15.0918 62.3059 15.2094 62.374C15.258 62.4107 15.3057 62.4465 15.3543 62.4831C19.9692 60.081 24.389 57.3126 28.935 54.7844C30.214 54.0738 31.5134 53.3998 32.8026 52.707C33.5355 52.3142 34.2205 51.8745 34.8596 51.3411C35.0752 51.1613 35.2303 50.9116 35.3862 50.6824C35.5294 50.4737 35.7074 49.9351 35.6785 49.6812C35.6384 49.3123 35.6265 48.968 35.4322 48.6374C35.284 48.3843 35.1059 48.1534 34.9099 47.937C34.3697 47.3405 33.7689 46.8003 33.1239 46.3171C31.9727 45.4574 30.7559 44.7186 29.5255 43.979C28.8941 43.5998 28.2644 43.2223 27.6398 42.8346C27.3339 42.6446 27.0357 42.4418 26.7357 42.2432C26.3642 41.9953 25.9867 41.7771 25.5667 41.6187C25.2608 41.5028 24.9327 41.4482 24.6046 41.4482C24.4896 41.4491 24.3746 41.4551 24.2595 41.4687ZM31.2101 48.5939C31.3618 48.7286 31.5117 48.8658 31.6583 49.0072C31.7333 49.0779 31.8057 49.1529 31.8756 49.227C31.5186 49.4222 31.1522 49.6045 30.7849 49.7818C30.9868 49.4077 31.1479 49.0149 31.2101 48.5939Z" fill="#F6C77F"/>
<path d="M36.6859 55.5901C36.1005 55.9582 35.4742 56.2709 34.865 56.5999C33.6916 57.2321 32.4825 57.8013 31.2896 58.3952C28.6677 59.7024 26.067 61.0478 23.4656 62.395C21.8628 63.2232 20.26 64.0532 18.6564 64.8831C18.3939 65.0186 18.1306 65.1549 17.8682 65.2904C18.1204 65.6244 18.3692 65.9627 18.6103 66.3044C18.8319 66.6188 19.0492 66.935 19.2656 67.2528C19.6107 67.0756 19.9558 66.8983 20.3009 66.7211C20.8497 66.439 21.3993 66.1587 21.9489 65.8801C21.1394 66.4723 20.364 67.1079 19.6218 67.7802C19.6721 67.8552 19.7223 67.9302 19.7726 68.0052C20.3861 68.9246 21.0039 69.8423 21.6063 70.7677C22.5922 72.2844 23.567 73.8105 24.6108 75.2881C27.2472 74.0798 29.8742 72.857 32.4808 71.5857C35.2484 70.236 38.0203 68.8931 40.7282 67.4241C41.657 66.9196 42.5815 66.4203 43.4754 65.8528C43.9526 65.5486 44.3991 65.1975 44.8413 64.8456C45.2631 64.5099 45.5818 64.1358 45.8988 63.6961C46.0683 63.4618 46.151 63.1568 46.2413 62.8866C46.3478 62.5722 46.3512 62.0201 46.2635 61.7048C46.1817 61.4168 46.0683 61.1492 45.9184 60.8893C45.7343 60.5715 45.4582 60.3397 45.1881 60.1037C43.8725 58.9542 42.2731 58.1967 40.8842 57.1478C40.7146 57.0199 40.5459 56.8921 40.3755 56.7635C40.1224 56.5419 39.8702 56.3204 39.6171 56.0997C39.249 55.7793 38.9056 55.4606 38.4327 55.3055C38.2495 55.2459 38.0646 55.2178 37.8822 55.2178C37.4604 55.2178 37.0472 55.3609 36.6859 55.5901ZM37.5175 58.3399L37.5184 58.3407C37.5005 58.3484 37.4826 58.3552 37.4647 58.3628C37.4835 58.3552 37.5013 58.3484 37.5175 58.3399ZM37.5218 58.3441C37.5354 58.3578 37.5499 58.3722 37.5644 58.3859C37.6488 58.4677 37.7348 58.5486 37.8209 58.6304C37.5499 58.6066 37.2892 58.6381 37.0319 58.7105C37.031 58.7063 37.0301 58.702 37.0284 58.6977C36.6825 58.7633 36.3757 58.921 36.0553 59.0641C35.8466 59.1579 35.6404 59.2618 35.4333 59.3658C35.0729 59.5055 34.7116 59.6436 34.3486 59.7816C35.4043 59.2968 36.4626 58.817 37.5218 58.3441ZM35.4333 65.4711C35.7963 65.1294 35.9982 64.6769 36.0528 64.2057C36.8733 63.7302 37.6914 63.2471 38.5366 62.8244C38.5971 62.7844 38.6576 62.7452 38.7181 62.7051C39.2038 62.3873 39.5685 61.9655 39.7253 61.3946C39.8276 61.0214 39.8276 60.6269 39.7313 60.2545C39.9639 60.43 40.1991 60.6022 40.4292 60.7794C40.6822 60.9728 40.9379 61.1637 41.1918 61.3554C41.3631 61.4935 41.5335 61.6315 41.7039 61.7678C41.8573 61.8922 42.0038 62.0218 42.1461 62.1555C41.2625 62.7801 40.3158 63.3008 39.3606 63.812C38.6807 64.1759 38.0075 64.561 37.3156 64.9053C36.3791 65.3688 35.4461 65.8434 34.5079 66.3053C34.8224 66.0317 35.1325 65.7548 35.4333 65.4711ZM42.7409 62.775C42.769 62.8295 42.792 62.8849 42.8116 62.9429C42.7878 62.8866 42.7647 62.8313 42.7409 62.775Z" fill="#F6C77F"/>
<path d="M30.8685 47.5004C30.7125 47.5217 30.5557 47.5422 30.399 47.5635C30.1016 47.647 29.8417 47.7986 29.6219 48.0168C29.2929 48.3457 29.1055 48.7973 29.1055 49.2634C29.1055 49.7295 29.2921 50.1811 29.6219 50.51C29.9192 50.8082 30.4305 51.0775 30.8685 51.0264C31.0474 51.0059 31.2306 50.9761 31.413 50.9591C31.4939 51.0025 31.5749 51.046 31.6558 51.0894C32.3221 51.4465 33.1368 51.3749 33.6838 50.8278C34.3084 50.2024 34.3535 49.0802 33.6838 48.4616C33.5696 48.3568 33.4537 48.2554 33.337 48.1565C32.8615 47.7509 32.3349 47.4365 31.6916 47.4237C31.6762 47.4237 31.6609 47.4229 31.6456 47.4229C31.3874 47.422 31.1241 47.4706 30.8685 47.5004Z" fill="#F6C77F"/>
<path d="M37.5578 57.087C37.1028 57.2149 36.6487 57.4228 36.2507 57.6784C36.1723 57.7287 36.0939 57.7789 36.0156 57.8292C34.9615 57.8019 33.8896 57.9647 32.8628 58.1632C31.1441 58.4947 29.5882 59.2914 27.9428 59.8495C27.1699 60.1111 26.3954 60.3633 25.6191 60.6122C24.1476 61.0842 22.7126 61.7122 21.3569 62.4552C20.0294 63.1821 18.7146 63.9277 17.4023 64.6818C17.8156 65.2143 18.2212 65.7528 18.6106 66.3033C19.0068 66.8657 19.3903 67.4332 19.772 68.0041C20.1009 68.4975 20.4316 68.99 20.7596 69.4842C20.7656 69.4808 20.7715 69.4774 20.7766 69.4748C22.4919 68.5298 24.1868 67.5082 25.9727 66.6978C27.3029 66.1764 28.6833 65.8048 30.027 65.3166C30.7402 65.0584 31.4492 64.7908 32.1641 64.5463C32.1581 64.8505 32.1982 65.1564 32.2825 65.4529C32.4674 66.1167 32.9063 66.6893 33.501 67.0378C34.1486 67.417 34.826 67.4477 35.5435 67.3045C36.7526 67.0642 37.8595 66.4269 38.9391 65.8466C39.464 65.5663 39.9889 65.2927 40.5283 65.0431C40.6518 65.0013 40.7745 64.9664 40.91 64.9451C41.4946 64.8513 42.2393 64.2745 42.483 63.7359C42.7173 63.2153 42.875 62.9094 42.875 62.324C42.875 61.0229 41.9683 59.9646 40.9339 59.242C40.9236 59.1943 40.9126 59.1466 40.9015 59.0988C40.7754 58.5859 40.4499 58.1385 40.0962 57.7653C39.625 57.2711 38.9152 56.9976 38.2225 56.9976C37.9958 56.9976 37.7709 57.0274 37.5578 57.087Z" fill="#F6C77F"/>
<path d="M62.3457 60.1403C62.0074 60.1804 61.8872 60.188 61.6086 60.3022C61.5259 60.3363 61.4433 60.3704 61.3623 60.4045C60.9141 60.5886 60.4719 60.7845 60.0305 60.9822C59.3667 61.2779 58.7106 61.5906 58.0536 61.8999C56.7422 62.5143 55.4385 63.1431 54.1323 63.766C51.4201 65.0595 48.7385 66.4118 46.0621 67.776C44.5232 68.5616 42.9843 69.349 41.4386 70.121C40.7816 70.449 40.5345 71.2781 40.7365 71.9504C40.5635 72.1447 40.4101 72.3526 40.2746 72.5716C39.9883 73.0189 39.9798 73.491 39.915 73.9954C39.8852 74.2357 39.9977 74.7538 40.0948 75.0341C40.1843 75.2915 40.3258 75.582 40.4408 75.8436C40.5746 76.1512 40.7143 76.4529 40.8617 76.7545C41.2034 77.4575 41.6567 78.1025 42.2004 78.6666C42.9613 79.4574 44.1926 79.9201 45.2841 79.8127C45.74 79.7675 46.1379 79.6943 46.558 79.5247C47.0241 79.3355 47.4851 79.1319 47.9375 78.912C48.2554 78.7578 48.5715 78.6027 48.8893 78.4493C50.1027 77.8588 51.3144 77.2726 52.5329 76.694C53.5503 76.2109 54.5881 75.7678 55.6183 75.3111C56.807 74.8254 57.9906 74.3269 59.1972 73.8906C60.7113 73.3436 62.2272 72.8034 63.7457 72.2657C64.5074 71.9964 65.2615 71.6888 65.996 71.3514C67.0245 70.8776 68.1518 70.1857 68.4731 69.0192C68.7406 68.0452 68.2141 67.1573 67.7011 66.3768C67.4804 66.0411 67.2572 65.7079 67.033 65.3748C66.6317 64.7783 66.2483 64.1699 65.8674 63.5598C65.2845 62.6267 64.7528 61.6307 64.0175 60.8067C63.6536 60.3994 63.0827 60.1284 62.534 60.1284C62.4701 60.1301 62.4079 60.1335 62.3457 60.1403Z" fill="#F6C77F"/>
<path d="M31.7101 74.393C31.4315 74.5771 31.152 74.7586 30.8716 74.9392C29.3643 75.9132 27.8493 76.8769 26.3359 77.8415C26.445 77.9804 26.5506 78.1235 26.6529 78.2709C26.8744 78.5888 27.09 78.9091 27.3048 79.2312C27.4522 79.4502 27.5996 79.6709 27.7453 79.8916C28.0742 79.9504 28.3784 80.1149 28.6502 80.3475C28.9314 80.5878 29.2339 80.8102 29.4827 81.0862C29.6898 81.3138 29.8841 81.5481 30.0732 81.7892C30.4925 82.3261 30.8784 82.8825 31.2619 83.4432C31.5286 83.8343 31.7894 84.2279 32.0501 84.6216C32.3935 85.1414 32.7411 85.6595 33.0837 86.1801C33.7031 85.9023 34.3192 85.6169 34.9345 85.334C35.5633 85.0443 36.1828 84.7324 36.8056 84.429C37.6168 84.0337 38.3769 83.5548 39.0449 82.9421C39.4863 82.5365 39.8059 81.9213 39.9235 81.3385C40.0061 80.9269 40.0266 80.4429 39.9047 80.0314C39.7897 79.6428 39.6278 79.2662 39.4335 78.9109C39.1361 78.3672 38.7493 77.8679 38.3258 77.4163C38.0446 77.1163 37.7199 76.8581 37.4047 76.5957C37.011 76.2676 36.6293 75.9277 36.2458 75.5877C36.0285 75.3934 35.8308 75.1719 35.6255 74.9656C35.542 74.8821 35.4585 74.7995 35.3758 74.716C35.2906 74.6222 35.1986 74.5328 35.1006 74.4501C34.8134 74.1894 34.5612 74.0488 34.2008 73.9107C33.9469 73.8136 33.6946 73.771 33.4484 73.771C32.834 73.7736 32.2469 74.0386 31.7101 74.393ZM35.144 79.2406C35.2991 79.3948 35.45 79.5542 35.5931 79.7195C35.6212 79.7647 35.6493 79.8081 35.6775 79.8541C35.5386 79.9078 35.3997 79.9615 35.2608 80.0152C35.2617 79.7553 35.2241 79.4937 35.144 79.2406ZM35.9126 80.4949C35.9092 80.5222 35.9067 80.5486 35.9016 80.5741C35.905 80.5477 35.9084 80.5222 35.9126 80.4949Z" fill="#F6C77F"/>
<path d="M33.5259 76.7141C32.9124 77.0669 32.4591 77.5594 31.9896 78.0707C31.4919 78.6126 31.1895 79.2542 31.1895 80.0024C31.1895 80.7241 31.4792 81.4254 31.9896 81.9358C33.2379 83.185 35.3886 82.9012 36.2816 81.3828C36.4 81.1817 36.5193 80.9806 36.6437 80.7829C37.5291 80.0569 37.8315 78.795 37.2266 77.7614C37.051 77.4606 36.8073 77.2092 36.5236 77.0183C36.0464 76.5923 35.4312 76.3716 34.8117 76.3716C34.3695 76.3707 33.9247 76.4832 33.5259 76.7141Z" fill="#F6C77F"/>
<path d="M47.0604 68.3026C46.2756 68.6076 45.496 68.9212 44.718 69.2416C44.1215 69.4878 43.5174 69.7205 42.9294 69.9855C41.8618 70.4669 40.7966 70.9534 39.7298 71.4383C39.5816 71.4928 39.4273 71.5474 39.2927 71.6198C39.1155 71.7161 38.9621 71.8371 38.8206 71.9811C38.6715 72.1328 38.5667 72.31 38.5096 72.5162C38.4304 72.8059 38.4517 73.1953 38.6315 73.4501C38.8743 73.7918 39.1666 74.0849 39.4375 74.4019C39.8968 75.0588 40.1934 75.8223 40.5155 76.5543C40.6254 76.74 40.7736 76.8875 40.9594 76.9982C41.2457 77.1653 41.5942 77.2113 41.9146 77.1226C42.5528 76.9471 42.9754 76.2458 42.7795 75.5991C42.6193 75.0708 42.4139 74.5672 42.1924 74.061C42.0628 73.7645 41.8737 73.4936 41.6717 73.2354C41.9316 73.122 42.1915 73.007 42.4514 72.8945C42.9985 72.6585 43.5438 72.4174 44.0891 72.1779C45.2991 71.6837 46.5065 71.1886 47.7267 70.7183C48.0429 70.5947 48.2985 70.4447 48.4749 70.1423C48.6445 69.8525 48.6905 69.4998 48.601 69.1768C48.5158 68.8633 48.3053 68.5914 48.025 68.4278C47.8443 68.3222 47.6015 68.248 47.3697 68.248C47.2615 68.2489 47.1558 68.2659 47.0604 68.3026Z" fill="#F6C77F"/>
<path d="M76.9346 68.5895C76.408 68.6295 75.9802 68.8093 75.5039 69.0317C75.1435 69.1996 74.7882 69.3734 74.4337 69.5506C73.1632 70.1871 71.9413 70.9216 70.6819 71.5795C69.4344 72.2322 68.1427 72.7997 66.8483 73.3527C65.5719 73.8972 64.3022 74.4561 63.0445 75.0449C60.3826 76.2933 57.7437 77.5927 55.1064 78.8947C52.5629 80.1516 50.0075 81.388 47.475 82.6678C46.2795 83.2719 45.084 83.8701 43.9047 84.5041C42.67 85.1679 41.4516 85.8453 40.2365 86.5474C39.0734 87.2189 37.9264 87.9159 36.7761 88.6112C36.2657 88.9196 35.7561 89.2307 35.25 89.5476C35.8132 90.4117 36.3884 91.2672 36.9508 92.1329C37.0837 92.3374 37.1638 92.5675 37.1962 92.8035C37.4944 92.7745 37.8012 92.8359 38.0773 92.9867C38.9225 93.446 39.4713 94.1916 40.0405 94.9397C40.8994 96.0483 41.7728 97.1432 42.6224 98.2578C42.9206 98.1478 43.218 98.0388 43.5162 97.9289C45.0363 97.369 46.5548 96.8067 48.0741 96.2434C49.4468 95.7347 50.8229 95.2056 52.165 94.6202C53.4849 94.0459 54.8252 93.5031 56.1264 92.887C57.7087 92.1354 59.2902 91.3848 60.8726 90.6332C62.2197 89.995 63.5413 89.3022 64.8731 88.6342C66.1487 87.996 67.4192 87.3484 68.6914 86.7016C69.8682 86.1026 71.0457 85.5053 72.2165 84.8969C73.4393 84.2612 74.6765 83.6511 75.8823 82.9856C76.7003 82.5332 77.5174 82.0807 78.3354 81.6282C78.8842 81.3249 79.4176 80.99 79.9468 80.6526C80.3396 80.4029 80.7128 80.1294 81.0826 79.8482C81.5487 79.4955 82.0156 79.1512 82.3897 78.6987C82.6164 78.4226 82.7646 78.2224 82.8976 77.9088C83.0467 77.5544 83.2572 77.107 83.2171 76.704C83.1873 76.3998 83.1626 76.0998 83.0697 75.8084C82.9777 75.5212 82.8473 75.2699 82.6786 75.0262C82.4323 74.6666 82.1707 74.3164 81.9168 73.9611C81.4729 73.3416 81.0596 72.7093 80.6651 72.0575C80.0098 70.9762 79.4534 69.7432 78.3772 69.0095C77.9972 68.7514 77.5396 68.5835 77.0777 68.5835C77.0283 68.5835 76.9814 68.5852 76.9346 68.5895ZM79.5071 75.7283L79.5079 75.7275C79.5037 75.7377 79.4986 75.7496 79.4943 75.7599C79.4986 75.7488 79.5028 75.7385 79.5071 75.7283Z" fill="#F6C77F"/>
<path d="M94.8151 79.1556C94.343 79.3014 93.8957 79.5289 93.45 79.741C92.8093 80.0469 92.171 80.3571 91.5303 80.6647C89.193 81.7869 86.8505 82.8938 84.474 83.9325C83.3561 84.3892 82.2296 84.834 81.121 85.3146C80.0304 85.7875 78.9422 86.2707 77.8498 86.741C76.4686 87.3153 75.0865 87.8854 73.7086 88.4682C72.3385 89.0485 70.9922 89.6739 69.6527 90.3232C68.3498 90.9546 67.047 91.5792 65.7288 92.18C64.4498 92.7636 63.1529 93.3056 61.8585 93.8526C60.5557 94.3758 59.2503 94.8947 57.9602 95.4511C56.6437 96.0221 55.3213 96.57 54.0354 97.209C52.6746 97.8848 51.3019 98.5383 49.9564 99.2404C48.3809 100.063 46.8071 100.888 45.2256 101.696C45.3636 101.877 45.5017 102.057 45.6406 102.238C46.2004 102.95 46.7841 103.648 47.395 104.318C48.0426 105.028 48.7345 105.694 49.3889 106.398C49.6676 106.366 49.9462 106.332 50.224 106.302C50.7165 106.246 51.2073 106.191 51.6981 106.136C52.3858 106.059 53.0709 105.956 53.7568 105.865C53.5566 105.891 53.3546 105.918 53.1544 105.945C54.1292 105.778 55.0971 105.604 56.0651 105.406C56.4077 105.055 56.8099 104.765 57.2155 104.488C57.5512 104.258 57.8844 104.022 58.2303 103.807C58.9154 103.381 59.6243 102.985 60.3606 102.655C60.8974 102.414 61.4393 102.19 61.9838 101.979C62.0341 101.942 62.0843 101.907 62.1329 101.871C62.3741 101.695 62.6186 101.533 62.87 101.369C63.1852 101.165 63.4946 100.943 63.8201 100.755C64.4148 100.41 65.0053 100.064 65.6103 99.7406C66.2673 99.3887 66.9302 99.0504 67.5957 98.7138C68.9719 98.0194 70.4102 97.4468 71.84 96.875C73.1684 96.345 74.49 95.8039 75.8082 95.2492C77.3914 94.5786 78.972 93.9046 80.5621 93.2459C81.5726 92.8088 82.5679 92.3376 83.5785 91.8988C84.7024 91.4122 85.828 90.9581 86.9886 90.5652C88.1543 90.1716 89.3165 89.7745 90.4566 89.3092C91.4485 88.9045 92.4386 88.4998 93.427 88.089C94.6984 87.5411 95.9671 86.9924 97.2419 86.4522C97.2359 86.4547 97.2299 86.4573 97.224 86.4598C97.7591 86.2255 98.2891 85.9793 98.8183 85.7321C98.941 85.6325 99.0602 85.5293 99.1736 85.4254C99.4232 85.1945 99.8246 84.5861 99.8808 84.2427C99.8885 84.2001 99.8953 84.1583 99.9021 84.1149C100.013 83.7041 100.013 83.2926 99.9021 82.8819C99.8203 82.334 99.4164 81.8832 99.1046 81.4401C98.9665 81.2424 98.8276 81.0465 98.6845 80.853C98.5004 80.6051 98.3112 80.3648 98.111 80.1321C97.9125 79.9012 97.662 79.7283 97.4208 79.5459C96.9539 79.194 96.3455 78.9844 95.7567 78.9844C95.4456 78.9835 95.1168 79.0636 94.8151 79.1556ZM84.8899 86.7189C84.8515 86.7359 84.8123 86.7521 84.774 86.7683C84.8132 86.7512 84.8515 86.7359 84.8899 86.7189ZM84.6803 86.8083C84.6232 86.8322 84.5652 86.8578 84.509 86.8808C84.5661 86.8561 84.6232 86.8322 84.6803 86.8083Z" fill="#F6C77F"/>
<path d="M75.5381 95.361C75.5722 95.3465 75.6062 95.3328 75.6403 95.3184C75.6062 95.332 75.5722 95.3465 75.5381 95.361Z" fill="#F6C77F"/>
<path d="M85.7817 12.3969C85.0524 12.5528 84.3621 12.8042 83.6566 13.0573C82.8744 13.3376 82.0811 13.5916 81.3091 13.9009C79.7975 14.5067 78.2645 15.0503 76.7589 15.6681C75.3376 16.2723 73.9154 16.8747 72.5095 17.5095C71.6523 17.8963 70.7985 18.2892 69.9353 18.659C69.9123 18.6888 69.8893 18.7186 69.8671 18.7493C69.8552 18.734 69.8424 18.7195 69.8296 18.7041C69.107 19.0109 68.3776 19.3006 67.6329 19.5562C67.3798 19.6423 67.0995 19.6636 66.8226 19.6329C66.1963 21.0832 65.5512 22.5377 65.1312 24.0587C64.6429 25.8243 64.4256 27.6767 64.4052 29.5053C64.3856 31.3033 64.6898 33.1489 65.691 34.6818C66.7263 36.2667 68.2669 37.3037 70.041 37.9061C71.389 38.3663 72.8716 38.5171 74.2861 38.6074C74.8919 38.6458 75.4969 38.6952 76.1045 38.7182C77.5471 38.7727 79.0025 38.8043 80.4408 38.9576C80.8626 39.0275 81.2733 39.1153 81.6772 39.2542C81.7837 39.3096 81.886 39.3692 81.9865 39.4331C82.064 39.5064 82.1373 39.5805 82.2072 39.6581C82.2915 39.7961 82.3682 39.9358 82.439 40.0815C82.7551 40.9549 82.888 41.8871 83.0244 42.8023C83.1232 43.4738 83.2178 44.1461 83.3379 44.8141C83.5944 46.2362 84.294 47.5672 85.3404 48.5642C85.8567 49.055 86.4822 49.4274 87.1264 49.7222C87.8592 50.0579 88.6048 50.328 89.3895 50.5061C90.8892 50.8444 92.4588 50.9552 93.99 50.8759C95.534 50.7958 97.0703 50.5206 98.5845 50.2215C99.6658 50.0085 100.756 49.8279 101.842 49.6472C102.731 49.5424 103.613 49.4853 104.509 49.5603C105.45 49.723 106.379 49.9838 107.303 50.2113C108.131 50.4149 108.99 50.5521 109.837 50.6535C111.162 50.812 112.456 50.9228 113.793 50.8001C114.934 50.6953 116.103 50.5308 117.181 50.1244C118.302 49.7009 119.385 49.1598 120.427 48.5718C121.163 48.156 121.873 47.6891 122.561 47.1991C123.222 46.7279 123.887 46.2559 124.486 45.7063C124.849 45.3731 125.307 44.8601 125.545 44.4537C125.347 44.3088 125.146 44.1674 124.942 44.0327C124.539 43.7694 124.121 43.5291 123.705 43.2871C123.265 43.0298 122.828 42.7665 122.388 42.5083C121.991 42.2757 121.58 42.061 121.193 41.8105C119.512 40.724 118.211 39.1903 116.675 37.9257C115.463 37.0302 114.198 36.2028 113.04 35.2365C112.029 34.393 111.091 33.4693 110.075 32.6325C109.927 32.5899 109.778 32.5456 109.631 32.5013C109.628 32.4911 109.626 32.4817 109.623 32.4715C109.6 32.3914 109.577 32.313 109.55 32.2354C109.015 31.8367 108.481 31.4353 107.98 30.9982C107.339 30.4401 106.714 29.8666 106.067 29.3162C105.933 29.202 105.802 29.0852 105.673 28.9659C105.239 28.8961 104.794 28.8867 104.348 28.9455C104.464 28.6064 104.542 28.2561 104.58 27.8957C104.44 27.756 104.3 27.6162 104.158 27.4773C103.64 26.9712 103.072 26.5153 102.506 26.0645C101.644 25.4118 100.778 24.7651 99.9666 24.0493C99.2244 23.3932 98.4857 22.7056 97.8108 21.9796C96.4483 20.5157 95.0577 19.0901 93.5111 17.8214C92.5602 17.109 91.5811 16.4163 90.7367 15.5812C90.0167 14.8714 89.3554 14.1216 88.5886 13.4671C88.1182 13.1348 87.6376 12.8349 87.1238 12.581C86.8929 12.5043 86.6628 12.4412 86.4276 12.3901C86.362 12.3875 86.2973 12.3867 86.2325 12.3867C86.0808 12.3799 85.9317 12.3858 85.7817 12.3969Z" fill="#5FB3F6"/>
<path d="M85.783 12.3972C85.0536 12.5531 84.3626 12.8045 83.6579 13.0575C82.8757 13.3379 82.0824 13.5918 81.3104 13.9011C79.7996 14.507 78.2658 15.0506 76.7601 15.6684C76.0665 15.9632 75.373 16.258 74.6811 16.5554C74.4493 16.9099 74.2235 17.2677 74.0036 17.6299C73.5963 18.1514 73.2086 18.6882 72.8354 19.2293C72.5815 19.5957 72.3676 19.9945 72.1554 20.3856C71.7013 21.2232 71.3246 22.1997 71.3246 23.1719C71.3246 23.3475 71.3374 23.5307 71.3613 23.713C71.2258 24.2132 71.1091 24.7185 71.0145 25.2204C70.919 25.7257 70.8858 26.2284 70.908 26.7414C70.9327 27.3447 71.0971 27.8551 71.3297 28.4038C71.4132 28.6007 71.6254 28.8665 71.7601 29.0088C71.9407 29.1997 72.1341 29.3624 72.3506 29.515C72.8806 29.8873 73.454 30.0569 74.0905 30.1378C75.1718 30.2733 76.2506 30.0484 77.2723 29.7024C78.3348 29.3428 79.3454 28.8725 80.3705 28.4226C80.6415 28.3143 80.9116 28.2044 81.1834 28.0954C81.2754 28.2709 81.3777 28.4404 81.4927 28.5989C81.5583 28.6884 81.6214 28.7753 81.6827 28.8588C81.6921 29.5345 81.7432 30.1813 81.8344 30.8553C81.9503 31.7185 82.1633 32.5655 82.6899 33.2812C83.2855 34.0899 83.9749 34.7928 84.8875 35.2487C85.3118 35.46 85.7898 35.6449 86.25 35.7855C86.809 35.9577 87.4131 36.0071 87.9908 36.0608C88.7543 36.1306 89.5161 36.0471 90.2778 35.9628C90.8803 35.8963 91.4835 35.829 92.0877 35.8384C92.7838 36.906 93.2414 38.116 93.9546 39.1786C94.9482 40.657 96.2169 41.8695 97.6851 42.869C98.383 43.3445 99.2018 43.6538 99.9985 43.9188C100.934 44.229 101.942 44.3491 102.918 44.4318C103.655 44.4948 104.395 44.4769 105.134 44.4582C105.795 44.4428 106.452 44.4258 107.111 44.4667C107.352 44.5212 107.59 44.586 107.823 44.6627C108.326 44.9013 108.825 45.1484 109.334 45.3699C109.914 45.6204 110.489 45.859 111.085 46.0644C111.782 46.3047 112.511 46.3975 113.241 46.4768C114.275 46.5876 115.312 46.4453 116.323 46.2152C116.953 46.0721 117.535 45.7994 118.129 45.5472C118.561 45.364 118.97 45.1509 119.365 44.8953C120.384 44.2307 121.37 43.3436 121.909 42.2334C121.909 42.2316 121.91 42.2299 121.911 42.2274C121.669 42.0902 121.427 41.953 121.194 41.8013C119.513 40.7149 118.213 39.1811 116.676 37.9166C115.464 37.0211 114.2 36.1937 113.041 35.2274C112.007 34.3642 111.049 33.4176 110.006 32.5663C109.322 32.0525 108.625 31.5506 107.981 30.9899C107.34 30.4318 106.715 29.8583 106.068 29.3079C105.392 28.731 104.793 28.0885 104.159 27.4691C103.641 26.9629 103.074 26.507 102.507 26.0563C101.647 25.4036 100.779 24.7568 99.9679 24.0411C99.6356 23.7471 99.3041 23.4472 98.9786 23.1404C98.3301 22.78 97.6681 22.4298 97.0426 22.0267C96.9336 21.6407 96.8458 21.2487 96.758 20.8568C95.7279 19.7883 94.6627 18.7572 93.5116 17.8131C92.5615 17.1007 91.5824 16.408 90.7371 15.5729C90.0179 14.8631 89.3567 14.1133 88.589 13.4589C88.1195 13.1266 87.638 12.8266 87.1242 12.5727C86.8942 12.496 86.6632 12.433 86.4281 12.3818C86.3624 12.3793 86.2977 12.3784 86.2329 12.3784C86.0821 12.3801 85.933 12.3861 85.783 12.3972Z" fill="#3B88E9"/>
<path opacity="0.58" d="M28.5677 30.7395C28.255 30.8784 27.9397 31.0215 27.6159 31.1349C27.1856 31.2857 26.7561 31.4382 26.3301 31.5984C26.3616 31.7654 26.4213 31.9248 26.515 32.0526C28.0939 34.2101 29.6873 36.3531 31.3055 38.4816C32.6501 40.2506 34.0526 41.9787 35.4237 43.728C37.1619 46.0253 38.8542 48.3609 40.6121 50.6453C41.1003 51.2784 41.6065 51.9022 42.145 52.4935C42.6273 53.0252 43.1249 53.5425 43.6055 54.0759C44.0929 54.6161 44.576 55.1555 45.0404 55.7144C45.2756 55.9982 45.5108 56.2828 45.7511 56.5623C46.2146 57.1034 46.7353 57.5746 47.3206 57.9887C48.7624 59.007 50.6472 59.3009 52.3685 59.0751C53.3441 58.9465 54.284 58.7462 55.229 58.4735C55.7215 58.3329 56.208 58.1694 56.6946 58.0083C57.7972 57.6419 58.9015 57.2815 59.9973 56.898C61.0684 56.5231 62.1344 56.138 63.1807 55.7025C63.7678 55.4588 64.3541 55.2151 64.9403 54.9714C65.5956 54.6979 66.2602 54.4048 66.9504 54.2361C66.9717 54.2352 66.9922 54.2352 67.0118 54.2352C67.0484 54.2446 67.0842 54.254 67.1191 54.2642C67.2853 54.3537 67.4438 54.4534 67.5997 54.5607C68.1672 55.0353 68.6844 55.5713 69.2102 56.0902C69.5953 56.4703 69.9779 56.8648 70.3426 57.2661C71.1274 58.1302 71.9028 59.0036 72.6842 59.8719C73.4468 60.7197 74.258 61.5028 75.1195 62.2492C75.3546 62.4537 75.5873 62.6599 75.831 62.855C76.015 63.0084 76.2059 63.1541 76.4053 63.2879C76.6618 63.4651 76.977 63.5521 77.2685 63.6586C77.7158 63.8205 78.2552 63.8102 78.7247 63.7787C79.6245 63.7191 80.503 63.4958 81.3892 63.3407C81.5647 63.3262 81.7394 63.3177 81.9149 63.3194C81.9806 63.3578 82.0453 63.3978 82.1084 63.4396C82.3853 63.6875 82.6384 63.956 82.8761 64.2389C83.7861 65.54 84.4048 67.015 85.1197 68.4286C85.7076 69.5934 86.4558 70.6901 87.33 71.6606C87.866 72.2571 88.5392 72.7709 89.2473 73.1441C90.1462 73.6162 91.1329 73.8036 92.141 73.8181C92.5943 73.8241 93.0519 73.7286 93.4992 73.6639C93.8912 73.6085 94.272 73.496 94.6504 73.3836C94.9674 73.2898 95.2818 73.191 95.5962 73.0938C96.1254 72.9311 96.6588 72.7896 97.193 72.6456C97.6583 72.5204 98.1406 72.4343 98.6143 72.3465C99.0992 72.2579 99.584 72.171 100.071 72.0969C100.342 72.0696 100.609 72.0568 100.879 72.0679C101.034 72.1046 101.185 72.1472 101.337 72.1966C101.56 72.3108 101.774 72.4377 101.979 72.58C102.729 73.2259 103.359 73.974 103.977 74.7409C104.521 75.5112 105.052 76.2883 105.576 77.0723C106.186 77.9857 106.881 78.8464 107.561 79.7087C107.849 80.087 108.136 80.4662 108.419 80.8479C108.581 81.0678 108.731 81.2987 108.882 81.5296C109.168 81.4154 109.454 81.2995 109.739 81.1845C109.965 81.0371 110.191 80.8897 110.412 80.7406C110.983 80.3563 111.582 80.0018 112.192 79.6823C112.757 79.3849 113.33 79.1088 113.915 78.8583C113.795 78.7117 113.666 78.5745 113.518 78.4552C113.342 78.3155 113.166 78.1775 112.989 78.0411C111.947 77.1975 110.914 76.3131 110.007 75.3263C109.476 74.7486 108.955 74.1683 108.449 73.5702C108.021 73.0657 107.601 72.5408 107.139 72.0705C106.854 71.7808 106.572 71.4902 106.288 71.2005C105.688 70.5861 105.052 70.0237 104.37 69.5022C103.58 68.8981 102.666 68.4456 101.696 68.2147C100.882 68.0205 100.034 68.0315 99.2031 68.0724C98.4934 68.1065 97.7895 68.1823 97.0857 68.2769C96.2634 68.3877 95.4454 68.507 94.6367 68.6944C94.0658 68.8282 93.4958 68.9731 92.9189 69.0762C92.6548 69.0949 92.3949 69.1001 92.1299 69.0864C91.9816 69.0558 91.8359 69.0174 91.691 68.9722C91.415 68.8317 91.1525 68.6715 90.8978 68.4951C90.3976 68.075 89.9459 67.6191 89.5267 67.1147C88.3951 65.534 87.6376 63.7276 86.5001 62.1503C85.9914 61.4448 85.4333 60.7538 84.7652 60.1922C84.4235 59.9051 84.0716 59.6273 83.6737 59.4245C83.4197 59.2958 83.1189 59.1808 82.842 59.0888C82.5088 58.9789 82.1416 58.9737 81.7948 58.9311C81.3193 58.8723 80.7944 58.9814 80.3292 59.0453C80.1162 59.0743 79.9049 59.1143 79.6935 59.1518C79.3425 59.2157 78.9931 59.289 78.6438 59.3521C78.5833 59.3563 78.5236 59.3606 78.4639 59.3623C78.0268 59.0155 77.5939 58.6661 77.179 58.2938C76.6353 57.8055 76.1258 57.2908 75.6282 56.7557C74.6585 55.7153 73.7229 54.6434 72.7455 53.6089C72.2002 53.0321 71.6497 52.4594 71.0959 51.8911C70.4091 51.1864 69.626 50.4834 68.7168 50.0906C68.416 49.9611 68.1467 49.8427 67.8391 49.754C67.5034 49.6578 67.1464 49.6433 66.8004 49.6032C66.4826 49.5666 66.06 49.6484 65.772 49.6961C65.4933 49.7421 65.2275 49.8094 64.9574 49.8921C64.2603 50.1085 63.5863 50.4084 62.9115 50.6803C62.217 50.9606 61.5217 51.2392 60.8196 51.5008C59.6829 51.9243 58.5317 52.301 57.3745 52.6682C55.6806 53.2067 53.9755 53.7938 52.2219 54.1031C51.8802 54.1355 51.5394 54.15 51.1977 54.1338C50.9668 54.0801 50.741 54.0171 50.5186 53.9395C50.2876 53.8177 50.0678 53.6822 49.8548 53.5348C48.8161 52.6375 47.9248 51.5784 46.9048 50.6573C45.8584 49.7106 44.8087 48.7682 43.8517 47.732C42.796 46.5894 41.7624 45.4288 40.7263 44.2682C39.8554 43.2909 38.942 42.3527 38.0609 41.3847C37.5224 40.7934 36.9694 40.2131 36.4462 39.6073C35.7935 38.8498 35.1399 38.0922 34.4863 37.3347C33.5311 36.227 32.6399 35.063 31.7298 33.9178C30.876 32.7803 30.0214 31.6419 29.1752 30.4983C29.1573 30.4753 29.1411 30.4523 29.1241 30.4302C28.9452 30.5452 28.762 30.6534 28.5677 30.7395Z" fill="#A07332"/>
<path opacity="0.58" d="M48.2957 23.2785C47.839 23.4813 47.3729 23.5895 46.8932 23.7173C46.3589 23.8605 45.7974 23.9653 45.2452 23.9696C45.1711 23.9704 45.0987 23.9696 45.0254 23.9679C45.0748 24.2482 45.172 24.5158 45.3194 24.7697C45.3347 24.8012 45.3509 24.831 45.3671 24.8626C45.3918 24.8949 45.4174 24.9282 45.4438 24.9614C45.5741 25.1489 45.7156 25.3278 45.8656 25.5008C45.9312 25.5783 46.0002 25.6542 46.0675 25.7317C46.2584 25.9498 46.4424 26.1756 46.6231 26.4032C48.2736 28.6339 49.4222 31.1774 50.6049 33.6766C51.8183 36.2432 53.0326 38.808 54.2297 41.3805C54.4308 41.8125 54.6311 42.2411 54.8535 42.6612C55.3025 43.509 55.9757 44.2631 56.8014 44.7539C57.1848 44.9831 57.6373 45.1246 58.0701 45.2243C58.5098 45.3248 58.9768 45.3777 59.4267 45.4083C59.7207 45.4279 60.0129 45.4509 60.3069 45.4637C61.6498 45.5234 62.9901 45.589 64.3313 45.6537C65.5396 45.7108 66.7505 45.7168 67.9579 45.6597C68.654 45.6273 69.3502 45.5915 70.0464 45.554C70.8584 45.5089 71.6722 45.4705 72.4817 45.5481C72.7134 45.5932 72.9375 45.6503 73.1591 45.7253C73.2469 45.773 73.3321 45.825 73.4164 45.8778C73.5707 46.0193 73.7129 46.1684 73.8493 46.3269C74.3077 46.9796 74.6707 47.6885 75.0218 48.4043C75.2944 48.9582 75.5535 49.5154 75.81 50.0761C75.9361 50.3914 76.0673 50.7084 76.1687 51.033C76.3255 51.5349 76.472 52.0274 76.5922 52.5387C76.7447 53.188 76.8427 53.8509 77.1384 54.455C77.2628 54.7081 77.4298 54.9365 77.6377 55.1299C77.9411 55.4128 78.4131 55.6224 78.8375 55.6114C79.2303 55.6011 79.618 55.5347 80.0074 55.4776C80.8331 55.3711 81.6622 55.279 82.4836 55.1418C83.5692 54.9603 84.6471 54.7235 85.7343 54.5479C85.9849 54.5232 86.2303 54.5113 86.4833 54.5232C86.5805 54.5437 86.6733 54.5692 86.7688 54.599C86.8097 54.6212 86.848 54.6442 86.8872 54.6689C86.9886 54.7584 87.0815 54.8521 87.1727 54.9544C87.3235 55.1682 87.4505 55.3898 87.5646 55.6275C87.8177 56.3135 87.9668 57.0301 88.1867 57.7271C88.2736 57.9998 88.3707 58.2895 88.5786 58.4974C88.836 58.7547 89.1947 58.8212 89.5441 58.7846C89.8824 58.7505 90.2215 58.7113 90.5598 58.6729C91.3386 58.586 92.1157 58.4974 92.8919 58.3917C93.6128 58.2938 94.3269 58.1455 95.0452 58.033C95.1969 58.0194 95.3485 58.0091 95.4994 58.004C95.5556 58.125 95.611 58.2477 95.6723 58.3662C95.7703 58.5553 95.8905 58.736 96.0064 58.9149C96.3472 59.4381 96.7349 59.9315 97.1456 60.401C97.6961 61.0298 98.3744 61.5428 99.0271 62.0592C99.8417 62.7025 100.644 63.3816 101.525 63.938C101.983 64.2277 102.47 64.5064 102.996 64.653C103.506 64.7953 103.85 64.7467 104.359 64.6708C104.573 64.6385 104.761 64.5422 104.936 64.422C105 64.405 105.064 64.3888 105.126 64.3666C105.586 64.2005 106.03 63.9781 106.456 63.7378C107.093 63.3774 107.735 63.0297 108.386 62.6906C109.683 62.0149 111.02 61.4167 112.353 60.8151C113.873 60.1283 115.383 59.4202 116.896 58.7189C116.986 58.6848 117.073 58.6439 117.156 58.5979C118.094 58.1642 119.032 57.7339 119.975 57.3138C121.237 56.7514 122.5 56.1908 123.762 55.6309C124.912 55.1188 126.068 54.611 127.204 54.0665C127.93 53.7197 128.655 53.372 129.38 53.0244C129.932 52.7602 130.499 52.5165 131.04 52.2294C131.733 51.8621 132.431 51.5 133.124 51.1302C132.9 50.9845 132.679 50.837 132.462 50.682C131.921 50.2943 131.397 49.8904 130.917 49.4268C130.594 49.1141 130.265 48.809 129.943 48.4955C129.933 48.487 129.925 48.4776 129.916 48.4691C129.824 48.5168 129.732 48.5645 129.64 48.6114C129.455 48.7085 129.271 48.815 129.081 48.9019C127.779 49.4958 126.477 50.0855 125.175 50.6785C124.04 51.1549 122.91 51.644 121.761 52.0845C120.419 52.5992 119.062 53.0857 117.729 53.6217C117.01 53.9114 116.286 54.1892 115.572 54.49C115.346 54.5854 115.183 54.6417 115.031 54.7175C113.703 55.2773 112.375 55.8372 111.046 56.397C109.423 57.0804 107.799 57.7561 106.21 58.5221C105.909 58.6678 105.606 58.8186 105.314 58.9831C104.969 59.1765 104.609 59.3623 104.285 59.5898C104.089 59.7278 103.888 59.8659 103.694 60.0133C103.539 59.8872 103.386 59.7602 103.233 59.6315C102.493 59.0087 101.751 58.39 101.012 57.7688C100.674 57.4834 100.343 57.1664 100.046 56.8392C99.7087 56.466 99.3841 56.0689 99.0151 55.7264C98.8907 55.6096 98.7706 55.5057 98.6359 55.3992C98.4553 55.2228 98.2508 55.0805 98.0233 54.974C97.8333 54.8785 97.6381 54.801 97.4353 54.7379C97.1397 54.6408 96.7886 54.6229 96.4759 54.6237C96.0873 54.6237 95.7005 54.7081 95.3213 54.7848C95.0503 54.8394 94.7862 54.9476 94.5271 55.0396C94.1948 55.1563 93.8659 55.3037 93.5438 55.4452C93.364 55.5236 93.1834 55.602 93.0036 55.6812C92.3722 55.936 91.7408 56.1678 91.0932 56.3799C90.76 56.4898 90.4243 56.593 90.0903 56.702C89.9624 56.7429 89.8346 56.7906 89.7068 56.8367C89.625 56.5768 89.5517 56.3143 89.4793 56.051C89.4086 55.7971 89.3276 55.5466 89.2407 55.2978C89.0277 54.6877 88.7005 54.1525 88.2847 53.6626C87.9438 53.2621 87.4803 53.0048 86.9878 52.8437C86.71 52.7526 86.3879 52.7432 86.0982 52.7312C85.6968 52.7142 85.2912 52.7892 84.8967 52.8454C84.3599 52.9221 83.8222 53.0022 83.2863 53.0781C82.6949 53.1317 82.1095 53.1829 81.5164 53.2016C81.0171 53.2169 80.5255 53.2008 80.0321 53.1505C79.952 53.1326 79.8736 53.1138 79.7952 53.0942C79.6214 52.4194 79.5771 51.7104 79.3802 51.0433C79.1434 50.2397 78.8954 49.4447 78.558 48.6753C78.258 47.9902 77.9496 47.3128 77.6292 46.6371C77.1128 45.5498 76.5385 44.4932 75.6941 43.6198C75.4981 43.417 75.2561 43.2602 75.0337 43.0898C74.8565 42.9526 74.6545 42.8606 74.4517 42.7702C73.9839 42.5589 73.5187 42.4183 73.0125 42.3357C72.2652 42.2138 71.5265 42.1883 70.7741 42.1968C70.1103 42.2053 69.4482 42.2309 68.7844 42.247C67.3384 42.2794 65.895 42.2879 64.4524 42.1772C62.8828 42.0562 61.3073 41.9514 59.742 41.7724C59.4557 41.7205 59.1753 41.6574 58.9001 41.5688C58.8643 41.5492 58.8294 41.5279 58.7944 41.5074C58.7527 41.4665 58.7118 41.4248 58.6726 41.3822C58.4186 40.9996 58.2244 40.5872 58.0395 40.1637C57.4771 38.8242 56.907 37.4881 56.3157 36.1597C55.7167 34.8185 55.1006 33.4824 54.4948 32.1429C53.3265 29.561 52.1208 26.9971 50.6399 24.5763C50.3621 24.1221 50.0834 23.6739 49.8508 23.1959C49.827 23.1311 49.8031 23.0663 49.7784 23.0016C49.7009 22.7928 49.6199 22.5849 49.5168 22.3906C49.1581 22.7485 48.7644 23.0715 48.2957 23.2785ZM79.9 55.492C79.8591 55.4972 79.8182 55.5031 79.7782 55.5091C79.8191 55.5031 79.86 55.4972 79.9 55.492ZM95.3605 57.7348C95.3639 57.7365 95.3681 57.739 95.3707 57.7424C95.3673 57.7399 95.363 57.7365 95.3605 57.7348Z" fill="#A07332"/>
<path opacity="0.58" d="M22.2259 33.1988C21.8502 33.2652 21.4735 33.3291 21.0961 33.3896C20.3922 33.5021 19.6918 33.6316 18.9931 33.7705C18.9113 33.7876 18.8303 33.8046 18.7494 33.8251C18.7997 34.1395 18.8789 34.4454 18.9769 34.7589C19.0664 35.0453 19.1567 35.3316 19.2436 35.6187C19.5009 36.4734 19.7821 37.3306 19.9449 38.2091C19.95 38.2781 19.9542 38.3471 19.9559 38.4162C19.8418 38.4502 19.7293 38.4852 19.6177 38.5218C19.2385 38.6479 18.8619 38.7817 18.4861 38.918C17.8155 39.1592 17.15 39.4182 16.4828 39.6713C15.1953 40.1604 13.9061 40.6461 12.6313 41.171C9.91911 42.2872 7.20856 43.4094 4.44862 44.4072C3.65702 44.6927 2.86459 44.9748 2.07129 45.2551C2.12412 45.3676 2.17779 45.4792 2.23062 45.5917C2.35161 45.6709 2.46665 45.7629 2.57317 45.8643C2.99921 46.275 3.28807 46.794 3.62976 47.2712C3.54199 47.157 3.45423 47.0445 3.36647 46.9303C3.57779 47.203 3.78315 47.4791 3.98424 47.7577C5.88101 47.1297 7.77948 46.5102 9.66943 45.8626C11.0464 45.3897 12.4158 44.8921 13.7842 44.3945C15.1152 43.9105 16.4504 43.4418 17.7712 42.9331C18.9121 42.4943 20.0633 42.0452 21.1506 41.482C21.5886 41.2562 21.9857 41.0116 22.3563 40.6785C22.6622 40.4032 22.8198 39.9763 22.957 39.6065C22.986 39.4992 23.0107 39.3901 23.0278 39.2802C23.0797 39.0032 23.1113 38.7221 23.1428 38.4434C23.2297 37.6731 23.0806 36.8807 22.9758 36.1206C22.9511 35.9417 22.9264 35.7619 22.9025 35.5838C22.8642 35.2728 22.8241 34.96 22.796 34.6473C22.7517 34.1625 22.6912 33.6776 22.7397 33.1919C22.7432 33.1544 22.7449 33.117 22.7449 33.0786C22.5744 33.1272 22.4015 33.1681 22.2259 33.1988Z" fill="#A07332"/>
<path d="M129.085 56.7012C127.679 57.3445 126.3 58.0501 124.909 58.7241C123.64 59.3393 122.384 59.9818 121.126 60.6226C120.161 61.1125 119.217 61.6383 118.266 62.1521C117.241 62.7059 116.192 63.2257 115.19 63.8188C114.778 64.0625 114.383 64.3334 114.003 64.6266C113.769 64.7885 113.547 64.9649 113.337 65.1566C113.053 65.4071 112.851 65.7386 112.625 66.0419C112.556 66.1851 112.491 66.3291 112.427 66.4756C111.577 67.5092 111.269 69.0421 111.617 70.3032C111.946 71.4936 112.781 72.3781 113.804 73.018C113.937 73.1007 114.087 73.1637 114.233 73.2251C114.39 73.4287 114.55 73.6298 114.708 73.8275C115.161 74.395 115.715 74.8892 116.268 75.3562C116.587 75.6246 116.915 75.8836 117.204 76.1844C117.448 76.4341 117.718 76.6522 118.018 76.8371C118.101 76.8874 118.18 76.9326 118.259 76.9726C118.27 76.9675 118.283 76.9615 118.294 76.9556C118.957 76.6616 119.597 76.3233 120.258 76.0234C121.652 75.3911 123.086 74.8688 124.508 74.3081C125.256 73.98 125.996 73.6383 126.739 73.3C127.057 73.156 127.378 73.018 127.702 72.8834C128.071 72.615 128.441 72.3466 128.81 72.0781C129.27 71.7441 129.72 71.3931 130.201 71.0897C131.405 70.3313 132.603 69.567 133.821 68.8342C134.272 68.6024 134.722 68.3664 135.162 68.1108C136.007 67.6208 136.841 67.1079 137.629 66.5302C137.867 66.3555 138.103 66.1791 138.337 65.9984C139.106 65.4812 139.824 64.8907 140.558 64.3224C141.164 63.852 141.724 63.3382 142.299 62.8303C142.474 62.6753 142.64 62.504 142.789 62.3191C142.374 61.8879 142.007 61.4082 141.67 60.9165C141.042 59.9988 140.585 58.9797 139.974 58.0526C139.362 57.3377 138.663 56.691 137.985 56.0391C137.227 55.3097 136.649 54.4312 136.03 53.5859C133.694 54.5769 131.393 55.6446 129.085 56.7012Z" fill="#F6C87F"/>
<path opacity="0.21" d="M5.48776 39.3063C5.3804 39.3557 5.27389 39.406 5.16568 39.4546C5.07365 39.4972 4.98164 39.5406 4.88876 39.5807C4.70386 39.6608 4.51808 39.7409 4.33147 39.8167C4.11845 39.8755 3.90287 39.9121 3.68218 39.9275C3.63276 39.9224 3.58418 39.9173 3.53476 39.9122C3.4879 39.9113 3.44189 39.9105 3.39588 39.9087C3.39332 39.9087 3.39162 39.9087 3.38992 39.9087C3.35328 39.9369 3.31662 39.9658 3.28083 39.9965C3.26379 39.9778 3.2476 39.9599 3.22971 39.9411C2.87439 40.0195 2.52333 40.109 2.17993 40.2325C1.92175 40.3663 1.67805 40.5163 1.44202 40.685C1.13271 40.9398 0.842984 41.2124 0.570312 41.5013C0.612917 41.7927 0.662344 42.0824 0.714322 42.3713C0.726252 42.396 0.737336 42.4216 0.748414 42.4463C1.02535 42.7547 1.29887 43.0666 1.57068 43.381C1.56472 43.4773 1.5613 43.5753 1.5613 43.6725C1.5613 43.8684 1.57238 44.061 1.59539 44.251C1.80671 44.6984 2.01633 45.144 2.22851 45.5905C2.35036 45.6698 2.46538 45.7609 2.57189 45.8623C2.99794 46.2731 3.28682 46.792 3.62851 47.2692C3.54074 47.155 3.45296 47.0425 3.36519 46.9283C3.69921 47.3612 4.02046 47.8009 4.33147 48.2474C4.41072 48.3028 4.48486 48.3658 4.55643 48.434C5.70591 49.8502 6.65599 51.4001 7.59671 52.9561C7.72623 53.1563 7.85491 53.3582 7.98443 53.5576C8.73257 54.719 9.49605 55.8711 10.2246 57.0444C10.5654 57.0683 10.8892 57.2157 11.1448 57.4585C11.4286 57.7295 11.7277 57.9851 11.985 58.2808C12.1963 58.522 12.3974 58.7699 12.5943 59.0238C13.0612 59.628 13.4932 60.256 13.9312 60.8814C14.2124 61.2828 14.4851 61.6892 14.7612 62.0948C14.7884 62.1357 14.8157 62.1749 14.8429 62.2158C14.9682 62.2524 15.0909 62.3044 15.2076 62.3717C15.5758 62.6478 15.9387 62.9205 16.2472 63.263C16.5207 63.5672 16.7772 63.8834 17.0311 64.2055C17.5722 64.8931 18.1056 65.5867 18.6101 66.3016C19.0063 66.864 19.3897 67.4315 19.7723 68.0024C20.3858 68.9218 21.0036 69.8395 21.606 70.7649C22.8228 72.6387 24.0226 74.5252 25.3578 76.3172C25.3953 76.3657 25.4345 76.4143 25.4729 76.4629C25.6927 76.6835 25.8504 76.9392 25.9483 77.2306C26.1 77.4607 26.2491 77.6899 26.3982 77.9216C26.4852 78.0341 26.5695 78.1509 26.653 78.2693C26.8746 78.5871 27.0901 78.9075 27.3049 79.2296C27.4514 79.4503 27.5988 79.6702 27.7454 79.89C28.0735 79.9496 28.3777 80.1132 28.6503 80.3459C28.9315 80.5862 29.234 80.8086 29.4828 81.0846C29.6899 81.3122 29.8842 81.5465 30.0733 81.7876C30.4926 82.3244 30.8786 82.8809 31.262 83.4415C31.5287 83.8326 31.7895 84.2263 32.0502 84.62C32.5734 85.4133 33.1077 86.2006 33.6189 87.0016C34.1285 87.8 34.6338 88.6001 35.1493 89.3943C35.7441 90.3103 36.3542 91.2152 36.9489 92.1321C37.0818 92.3374 37.1611 92.5666 37.1943 92.8027C37.4909 92.7746 37.7993 92.8359 38.0754 92.9859C38.9207 93.4452 39.4694 94.1908 40.0386 94.9398C40.9861 96.1608 41.9516 97.3691 42.8829 98.602C43.7981 99.8154 44.7149 101.028 45.6377 102.235C46.1976 102.949 46.7813 103.646 47.3931 104.315C47.9469 104.922 48.534 105.499 49.1015 106.093C49.2387 106.193 49.3776 106.289 49.5199 106.38C49.7542 106.353 49.9877 106.325 50.2212 106.299C50.7137 106.244 51.2045 106.188 51.6953 106.133C52.383 106.056 53.068 105.953 53.754 105.862C53.5537 105.888 53.3518 105.916 53.1507 105.942C54.1255 105.776 55.0935 105.601 56.0615 105.404C56.404 105.052 56.8062 104.762 57.2118 104.485C57.5475 104.255 57.8807 104.019 58.2266 103.804C58.9117 103.378 59.6207 102.983 60.3569 102.651C60.8928 102.41 61.4356 102.189 61.981 101.976C62.0312 101.94 62.0798 101.903 62.1301 101.866C62.3712 101.691 62.6158 101.528 62.8672 101.365C63.1824 101.161 63.4917 100.939 63.8172 100.75C64.412 100.406 65.0025 100.059 65.6075 99.7362C66.2645 99.3843 66.9274 99.046 67.5929 98.7094C68.969 98.015 70.4074 97.4424 71.8372 96.8706C73.1656 96.3406 74.4872 95.7995 75.8054 95.2448C77.3886 94.5742 78.9692 93.9002 80.5584 93.2432C81.5698 92.8052 82.5659 92.3349 83.5757 91.8952C84.6996 91.4087 85.8252 90.9545 86.9858 90.5617C88.1514 90.168 89.3137 89.7709 90.4538 89.3057C91.4456 88.9009 92.4358 88.497 93.4242 88.0855C94.7347 87.5205 96.0427 86.9547 97.3566 86.4C97.3115 86.4188 97.2655 86.4375 97.2212 86.4562C98.2317 86.0132 99.2219 85.5317 100.225 85.0724C101.185 84.6328 102.174 84.2485 103.15 83.8437C104.144 83.4177 105.141 82.9976 106.143 82.5928C107.007 82.2452 107.881 81.9257 108.746 81.578C109.076 81.4459 109.405 81.313 109.734 81.1801C109.96 81.0327 110.186 80.8853 110.407 80.7361C110.978 80.3518 111.577 79.9974 112.187 79.6778C112.97 79.2663 113.765 78.8965 114.589 78.5769C115.203 78.34 115.815 78.1049 116.422 77.856C117.047 77.5604 117.658 77.2357 118.288 76.9545C118.95 76.6605 119.591 76.3223 120.252 76.0223C121.647 75.3901 123.08 74.8677 124.502 74.3071C125.25 73.979 125.99 73.6373 126.733 73.299C127.596 72.9062 128.485 72.5637 129.365 72.21C130.313 71.7985 131.249 71.3597 132.19 70.9336C132.819 70.649 133.469 70.4104 134.114 70.1659C134.506 70.0176 134.895 69.86 135.282 69.6989C135.523 69.5788 135.762 69.4552 135.998 69.3299C136.898 68.719 137.812 68.1234 138.746 67.5644C139.42 67.1639 140.088 66.7558 140.764 66.3621C141.133 66.1465 141.502 65.9318 141.871 65.7162C142.161 65.5483 142.456 65.3626 142.761 65.2075C142.841 64.7252 142.844 64.2293 142.769 63.7453C142.76 63.4275 142.712 63.1114 142.627 62.7935C142.355 61.8059 141.677 60.8797 140.773 60.3812C139.86 59.8785 138.93 59.582 137.881 59.6373C137.139 59.6757 136.397 59.8308 135.687 60.0378C134.607 60.3523 133.549 60.6974 132.49 61.0774C131.677 61.3688 130.863 61.6602 130.05 61.955C128.641 62.4637 127.235 62.981 125.83 63.5059C123.153 64.5054 120.49 65.5458 117.852 66.6493C112.264 68.9866 106.702 71.4125 101.033 73.5444C95.3789 75.6704 89.6946 77.7027 83.9796 79.654C80.791 80.7412 77.5974 81.8021 74.3926 82.8408C71.6233 83.7381 68.8088 84.4879 65.9875 85.1994C63.974 85.7073 61.9537 86.1836 59.9359 86.6684C59.3804 86.5202 58.8265 86.3668 58.2743 86.2108C55.7061 85.4866 53.1481 84.7197 50.6719 83.7202C49.5327 83.22 48.4164 82.6712 47.3343 82.0569C46.2334 81.4331 45.1878 80.7072 44.1781 79.9454C42.4952 78.6067 40.9222 77.148 39.328 75.7054C38.9215 75.3373 38.5509 74.9308 38.1674 74.5397C37.5266 73.8827 36.8867 73.2249 36.2459 72.5688C35.8293 72.1427 35.4526 71.669 35.0607 71.2199C34.4472 70.5178 33.8337 69.8156 33.221 69.1135C32.8682 68.7088 32.5427 68.2776 32.2061 67.8601C31.5594 67.0532 30.9118 66.2471 30.2634 65.4401C30.1833 65.3396 30.1006 65.2407 30.0188 65.1393C26.2218 60.2108 22.4172 55.2891 18.5888 50.3844C17.6728 49.2111 16.7678 48.0275 15.8416 46.8618C15.1889 46.0404 14.5447 45.2122 13.8758 44.4053C13.1089 43.4807 12.3131 42.586 11.4644 41.7365C11.0716 41.3428 10.6532 40.9713 10.2135 40.6313C9.72782 40.2555 9.24466 39.8883 8.753 39.5227C8.06877 39.1257 7.33257 38.9126 6.54865 38.8828C6.19673 39.0217 5.84138 39.1632 5.48776 39.3063Z" fill="#B66C42"/>
<path opacity="0.21" d="M75.5381 95.361C75.5722 95.3473 75.6062 95.3328 75.6395 95.3184C75.6062 95.3328 75.5722 95.3465 75.5381 95.361Z" fill="#B66C42"/>
<path opacity="0.21" d="M3.10352 39.9386C3.14016 39.9343 3.17681 39.9292 3.2126 39.9241L3.21089 39.9224C3.17595 39.9275 3.1393 39.9334 3.10352 39.9386Z" fill="#B66C42"/>
<path opacity="0.21" d="M3.96516 42.0704C3.70186 42.3337 3.55273 42.6941 3.55273 43.0648C3.55273 43.4712 3.72231 43.7558 3.96516 44.0592C4.25061 44.4179 4.53862 44.7741 4.82152 45.1345C5.79547 46.4629 6.7694 47.7897 7.74335 49.1172C8.49745 50.1466 9.17829 51.2296 9.88298 52.2913C10.6644 53.468 11.4713 54.632 12.2279 55.8249C13.155 57.2863 14.0838 58.7485 15.01 60.2115C16.4825 62.5335 17.8509 64.9185 19.3967 67.1945C20.2445 68.4419 21.0881 69.6886 21.9708 70.9113C22.8357 72.1085 23.7014 73.3049 24.5612 74.5072C25.4252 75.7137 26.3029 76.9058 27.1073 78.1533C27.5376 78.8213 27.9696 79.4885 28.3999 80.1574C28.4868 80.2137 28.5703 80.2767 28.6521 80.3466C28.9333 80.5869 29.2358 80.8093 29.4846 81.0854C29.6917 81.3129 29.886 81.5472 30.0751 81.7883C30.4944 82.3252 30.8804 82.8816 31.2646 83.4423C31.5314 83.8334 31.7921 84.227 32.0529 84.6207C32.576 85.414 33.1103 86.2014 33.6215 87.0023C34.1311 87.8008 34.6364 88.6009 35.1519 89.395C35.7467 90.311 36.3568 91.216 36.9516 92.1328C37.0845 92.3373 37.1646 92.5674 37.197 92.8034C37.4952 92.7744 37.8019 92.8358 38.078 92.9866C38.9233 93.4467 39.4721 94.1915 40.0413 94.9396C40.9888 96.1624 41.9542 97.3689 42.8856 98.6028C43.8007 99.8145 44.7176 101.028 45.6412 102.236C46.2011 102.948 46.7839 103.646 47.3966 104.316C47.4579 104.382 47.5184 104.449 47.5806 104.515C48.8247 104.602 50.0696 104.262 51.2532 103.916C52.2049 103.638 53.1457 103.306 54.0898 103.001C55.3407 102.6 56.589 102.197 57.8356 101.785C59.2458 101.319 60.6271 100.792 62.0168 100.264C62.5954 100.045 63.1706 99.8102 63.7432 99.5674C64.0261 99.4949 64.3073 99.4182 64.5851 99.3305C65.4355 99.0629 66.2858 98.7945 67.1362 98.5261C67.7983 98.3173 68.451 98.0694 69.1071 97.841C69.7982 97.6007 70.4952 97.3732 71.1803 97.1193C71.3993 97.0375 71.6191 96.9565 71.8381 96.8747L71.8398 96.8739C73.1682 96.343 74.4898 95.8019 75.808 95.2472C77.3912 94.5766 78.9719 93.9026 80.5619 93.2456C81.5725 92.8077 82.5677 92.3373 83.5783 91.8985C84.7022 91.4111 85.8278 90.9578 86.9884 90.565C87.4315 90.4158 87.8737 90.265 88.3143 90.1116C88.5009 90.0281 88.6884 89.9455 88.875 89.862C90.0253 89.3498 91.1577 88.796 92.2978 88.2626C96.3248 86.3778 100.339 84.4622 104.347 82.5356C109.12 80.3253 113.881 78.0749 118.587 75.724C119.206 75.4146 119.825 75.1045 120.443 74.7926C121.773 74.157 123.103 73.5222 124.433 72.8882C127.19 71.5734 129.943 70.2543 132.686 68.9114C133.794 68.3704 134.884 67.814 135.971 67.2354C136.73 66.8323 137.488 66.4284 138.247 66.0245C139.365 65.4298 140.436 64.7575 141.485 64.0519C141.651 63.9497 141.812 63.8406 141.967 63.7247C142.341 63.504 142.636 63.2075 142.857 62.8352C142.913 62.738 142.963 62.6383 143.005 62.5378C142.498 62.0538 142.061 61.4922 141.667 60.9162C141.258 60.3189 140.922 59.6781 140.568 59.0476C140.478 59.045 140.388 59.0493 140.296 59.0595C139.932 59.0996 139.579 59.1558 139.22 59.2197C139.039 59.2512 138.857 59.2989 138.678 59.3398C138.304 59.4225 137.941 59.5367 137.575 59.6457C136.818 59.8715 136.084 60.1664 135.344 60.4408C134.464 60.7671 133.604 61.1659 132.74 61.5323C132.185 61.7683 131.628 61.9984 131.082 62.2532C128.409 63.4998 125.752 64.7754 123.11 66.0876C117.47 68.891 111.816 71.6637 106.149 74.4117C100.91 76.9527 95.6551 79.4596 90.361 81.8804C88.212 82.8637 86.046 83.8053 83.8774 84.746C78.4913 87.0091 73.0839 89.2246 67.6995 91.492C67.0331 91.7732 66.3685 92.0553 65.703 92.3382C64.8944 92.5657 64.0815 92.7778 63.2677 92.9909C61.1119 93.555 58.9152 93.9375 56.7509 94.4633C55.8391 94.684 55.1046 95.352 54.7084 96.182C54.538 96.222 54.3667 96.2604 54.1954 96.297C52.9948 96.5552 51.7976 96.7878 50.5894 97.0042C50.4181 97.0238 50.246 97.0417 50.073 97.0579C49.848 97.0792 49.6248 97.0792 49.3999 97.0682C49.3044 97.0451 49.2107 97.0204 49.117 96.9923C48.7531 96.8023 48.4063 96.591 48.0689 96.3567C47.1264 95.5668 46.2675 94.7027 45.4291 93.7995C44.7406 93.0573 44.0657 92.3032 43.3687 91.5687C42.5473 90.7038 41.7327 89.8339 40.9206 88.9596C40.2867 88.2771 39.7004 87.5494 39.1022 86.8336C38.3498 85.8111 37.5966 84.7911 36.8902 83.7345C36.0015 82.4044 35.1068 81.0786 34.2069 79.7561C33.8661 79.2542 33.5423 78.737 33.1776 78.2539C32.6178 77.5074 32.0554 76.7618 31.4947 76.0154C30.508 74.704 29.4821 73.4318 28.4433 72.1588C27.2538 70.7008 26.06 69.2489 24.8646 67.7952C23.9128 66.6389 23.0027 65.446 22.0833 64.2615C20.397 61.9873 18.6988 59.7182 17.0696 57.4013C15.143 54.6627 13.2249 51.9198 11.3068 49.1752C10.701 48.3077 10.0773 47.4616 9.44159 46.6163C8.29296 45.0877 7.15456 43.5581 5.95311 42.0712C5.73156 41.7977 5.297 41.6597 4.95872 41.6597C4.58805 41.6588 4.2276 41.8088 3.96516 42.0704Z" fill="#B66C42"/>
<path opacity="0.21" d="M96.2181 37.3944C95.5483 37.4089 94.8769 37.4677 94.2088 37.5188C93.5246 37.5725 92.8403 37.6219 92.1561 37.679C90.6556 37.8034 89.1576 37.9312 87.6588 38.0803C86.8084 38.1647 85.9571 38.2499 85.1059 38.3351C84.4446 38.4007 83.7851 38.5192 83.1281 38.6129C82.1022 38.7612 81.0772 38.9086 80.0512 39.0569C79.672 39.1114 79.2937 39.1634 78.9171 39.2366C77.0757 39.5928 75.2352 39.949 73.3938 40.3043C72.2239 40.531 71.0676 40.8267 69.9079 41.0993C68.4678 41.4376 67.021 41.7512 65.5877 42.115C64.111 42.4899 62.6352 42.864 61.1577 43.2389C55.118 44.771 49.0852 46.3244 43.0515 47.8752C37.748 49.2386 32.4386 50.5781 27.142 51.9687C24.2738 52.7219 21.4048 53.4735 18.5409 54.2463C17.9964 54.3937 17.6692 54.9774 17.8183 55.5202C17.97 56.0681 18.5468 56.3877 19.0922 56.2436C22.7997 55.2637 26.5191 54.335 30.2368 53.3934C33.018 52.6887 35.8146 52.0386 38.6027 51.3628C44.5137 49.9305 50.4323 48.5279 56.3501 47.122C59.2047 46.4428 62.0771 45.8327 64.9401 45.1903C67.7248 44.5665 70.5307 44.0459 73.329 43.4912C74.2859 43.302 75.2556 43.1742 76.2193 43.0217C77.4634 42.824 78.7092 42.6271 79.9541 42.4303C81.4163 42.2582 82.8785 42.0869 84.3407 41.9156C85.6861 41.758 87.0384 41.6532 88.3873 41.5322C89.7097 41.4129 91.0339 41.2979 92.3572 41.1828C93.7973 41.0576 95.2399 40.9332 96.6714 40.7406C96.9594 40.6605 97.2108 40.5139 97.4238 40.3026C97.7416 39.9839 97.9223 39.5468 97.9223 39.0977C97.9223 38.1962 97.1673 37.3936 96.2539 37.3936C96.2419 37.3944 96.23 37.3944 96.2181 37.3944Z" fill="#B66C42"/>
<path opacity="0.21" d="M113.231 42.5788C110.492 43.0525 107.753 43.5365 105.014 44.0197C101.78 44.588 98.5545 45.1939 95.3293 45.8108C94.1636 46.034 93.0065 46.305 91.8459 46.5581C90.2798 46.8998 88.7136 47.2415 87.1475 47.5831C85.7935 47.8788 84.4514 48.2486 83.106 48.581C81.4214 48.9968 79.7376 49.4126 78.053 49.8284C77.114 50.0602 76.1827 50.3278 75.2488 50.58C73.208 51.1287 71.1689 51.6783 69.1282 52.2271C66.9903 52.8014 64.86 53.3953 62.7298 53.996C56.7532 55.6815 50.7766 57.3669 44.7999 59.0549C40.3716 60.3067 35.9432 61.5575 31.5132 62.7999C30.4702 63.0922 29.8362 64.1965 30.1243 65.2446C30.4114 66.285 31.5251 66.9223 32.5689 66.6318C39.096 64.8151 45.6154 62.9627 52.1527 61.186C55.5415 60.2658 58.9294 59.3438 62.3182 58.4235C64.5243 57.8237 66.7244 57.2093 68.9407 56.6546C72.3039 55.8136 75.6689 54.9717 79.0321 54.1298C80.2225 53.8324 81.4325 53.599 82.6305 53.3348C84.4378 52.936 86.2468 52.5372 88.055 52.1385C89.1712 51.8922 90.3028 51.7056 91.4259 51.4951C93.0048 51.1995 94.5846 50.9029 96.1635 50.6055C96.7037 50.5041 97.2499 50.4309 97.7927 50.3431C98.8391 50.1752 99.8838 50.0065 100.929 49.8387C102.214 49.6307 103.501 49.4313 104.787 49.232C108.07 48.725 111.356 48.2214 114.625 47.6343C115.266 47.5192 115.875 46.9705 116.192 46.4294C116.547 45.8236 116.643 45.0857 116.456 44.4099C116.276 43.7547 115.838 43.1863 115.251 42.8429C115.043 42.7552 114.833 42.6674 114.624 42.5796C114.392 42.5166 114.16 42.4859 113.928 42.4859C113.695 42.4842 113.463 42.5157 113.231 42.5788Z" fill="#B66C42"/>
<path opacity="0.21" d="M120.6 54.5909C117.529 55.0425 114.469 55.5794 111.406 56.0872C108.534 56.5627 105.671 57.0842 102.812 57.6295C99.8328 58.1978 96.8675 58.8344 93.8979 59.4479C92.8141 59.6728 91.737 59.9336 90.6574 60.1781C88.701 60.6204 86.7463 61.0617 84.7907 61.5048C82.2285 62.0851 79.6722 62.6909 77.1133 63.2874C74.5613 63.8822 72.0161 64.5119 69.4555 65.064C63.2242 66.407 56.9979 67.7669 50.7494 69.028C50.1709 69.1447 49.6323 69.6142 49.3418 70.1102C49.0231 70.6547 48.9362 71.3167 49.1049 71.9251C49.2668 72.5131 49.6605 73.0243 50.1871 73.3328C50.7614 73.6694 51.3638 73.6983 52.002 73.5697C55.9745 72.7755 59.9376 71.9456 63.9024 71.1071C66.4817 70.5618 69.0687 70.0411 71.6412 69.4634C75.3069 68.6411 78.9709 67.8197 82.6366 66.9974C85.1086 66.4427 87.5873 65.9221 90.0669 65.4023C91.6961 65.0606 93.3245 64.7198 94.9537 64.3781C96.2293 64.1105 97.5177 63.8941 98.8001 63.6538C101.701 63.1093 104.604 62.5912 107.51 62.0791C112.331 61.2296 117.171 60.4908 121.989 59.6225C122.626 59.5084 123.232 58.963 123.548 58.4245C123.901 57.8212 123.997 57.0867 123.812 56.4144C123.632 55.7626 123.196 55.1959 122.614 54.8542C122.406 54.7665 122.198 54.6787 121.99 54.5909C121.758 54.5287 121.527 54.498 121.296 54.498C121.065 54.498 120.832 54.5287 120.6 54.5909Z" fill="#B66C42"/>
<path d="M44.9298 0.600701H44.9264C44.5064 0.394493 44.0087 0.334002 43.5188 0.445626C42.5627 0.663763 41.6535 1.03612 40.7665 1.45109C39.9587 1.83028 39.168 2.32961 38.4582 2.86984C38.1684 3.09139 37.8779 3.31378 37.5882 3.53532C37.1681 3.85656 36.7523 4.17696 36.3824 4.55615C35.9513 4.99924 35.5806 5.51049 35.2313 6.01749C34.8061 6.63271 34.4593 7.31183 34.1372 7.98583C33.8304 8.62832 33.5458 9.28272 33.3643 9.97207C33.1649 10.7313 33.0993 11.5246 33.038 12.306C32.9843 12.9979 32.9587 13.6923 32.9221 14.3859C32.888 15.0182 32.8335 15.6666 32.8701 16.2998C32.9178 17.1536 33.0218 17.9988 33.1487 18.8424C33.0593 18.8646 32.9698 18.8884 32.882 18.9182C32.6281 19.0069 32.3682 19.0972 32.1467 19.2523C31.9899 19.3724 31.8331 19.4934 31.678 19.6144C31.5707 19.7226 31.4752 19.8377 31.3926 19.9604C31.4522 20.158 31.5127 20.3557 31.5724 20.5534C31.6678 20.6173 31.7479 20.7025 31.805 20.8056C32.0265 21.2036 32.1552 21.6168 32.2455 22.0616C32.2915 22.2832 32.341 22.5039 32.3912 22.7237C32.4466 22.9674 32.4977 23.2128 32.5523 23.4574C32.6767 23.5963 32.773 23.765 32.8326 23.9516C33.0831 24.7449 33.3115 25.545 33.585 26.3315C33.6924 26.6417 33.8236 26.9535 33.8236 27.2893C33.8236 27.619 33.689 27.9522 33.4768 28.207C33.7128 28.6143 33.9625 29.0139 34.213 29.4144C34.6672 30.1446 35.0455 30.9192 35.4954 31.6528C36.1345 32.6958 37.0607 33.5326 38.2716 33.8197C38.3593 33.841 38.4471 33.8572 38.5348 33.8717C39.0171 34.8354 39.5275 35.783 40.0635 36.7186C40.4044 37.3133 40.7332 37.9132 41.086 38.4994C41.2428 38.7593 41.403 39.0167 41.5624 39.2748C41.5683 39.3021 41.5743 39.3285 41.5794 39.3549C41.7038 39.9548 41.9577 40.4959 42.1954 41.0591C42.4758 41.7187 43.016 42.241 43.5886 42.656C43.8281 43.0454 44.0632 43.4365 44.2737 43.8446C44.5728 44.4215 44.8421 45.0078 45.1752 45.5667C45.3278 45.8215 45.4922 46.0703 45.6473 46.3234C45.937 46.7946 46.3162 47.1772 46.8641 47.3272C47.5551 47.5172 48.3484 47.2309 48.789 46.6762C49.5099 45.767 49.7911 44.551 50.1242 43.4518C50.3304 42.7701 50.5366 42.0902 50.7514 41.4111C51.18 40.0451 51.6043 38.6784 52.05 37.3184C52.5041 35.9321 52.9949 34.5508 53.3895 33.1466C53.7712 31.7858 54.0975 30.4139 54.4375 29.042C54.7843 27.6386 55.161 26.2403 55.4814 24.8309C55.8077 23.3986 56.1332 21.9662 56.4502 20.5313C56.7459 19.1935 57.0697 17.8616 57.3262 16.5162C57.4881 15.6632 57.6576 14.8128 57.7667 13.9514C57.8212 13.5253 57.8775 13.0984 57.9252 12.6715C57.9806 12.1867 58.0112 11.7001 58.0164 11.2119C58.024 10.56 57.9056 9.89454 57.7905 9.25546C57.6022 8.20142 57.189 7.17208 56.722 6.21517C56.2355 5.21652 55.5938 4.33204 54.8943 3.47057C54.1904 2.60229 53.3707 1.83709 52.3593 1.33521C51.7833 1.0489 51.1689 0.808613 50.5452 0.646715C49.8166 0.456697 49.0455 0.382568 48.2999 0.320365C48.08 0.302471 47.8585 0.293945 47.6378 0.293945C46.7286 0.298206 45.8109 0.436246 44.9298 0.600701ZM44.7458 23.9524C44.3462 23.9243 43.8766 23.8613 43.4992 23.7062C43.0245 23.5111 42.4758 23.3168 42.06 22.9998C41.7421 22.7586 41.4056 22.5286 41.1559 22.2116C40.9676 21.9747 40.7716 21.7412 40.6003 21.4924C40.2825 21.0297 40.0797 20.5236 39.9545 19.997C39.7644 19.8394 39.6008 19.6476 39.4747 19.4329C39.4381 19.3699 39.4057 19.3068 39.375 19.242C39.1816 18.9847 39.0342 18.6933 38.9498 18.3865C38.7956 17.8267 38.851 17.312 38.9371 16.7522C38.9703 16.5324 39.0154 16.3193 39.0887 16.1106C39.2455 15.6641 39.421 15.2099 39.6349 14.7796C39.5472 14.5538 39.5011 14.3127 39.5011 14.0672C39.502 13.7119 39.5923 13.3805 39.7704 13.0737C39.8854 12.8479 40.1138 12.5991 40.2561 12.4176C40.3294 12.3239 40.4035 12.2293 40.4768 12.1355C40.591 11.989 40.712 11.8492 40.8321 11.7086C40.9514 11.5689 41.0826 11.4445 41.2189 11.3201C41.4362 11.1215 41.7421 10.8864 42.0242 10.762C42.1043 10.6359 42.1861 10.5097 42.273 10.387C42.5363 10.0155 42.8004 9.61164 43.1353 9.29721C43.4548 8.99813 43.8008 8.66752 44.1928 8.47324C44.4476 8.34287 44.7092 8.22782 44.9784 8.12813C45.0372 8.10512 45.0943 8.08298 45.1531 8.05997C45.4385 8.00799 45.7257 7.96709 46.0137 7.93641C46.07 7.93301 46.1253 7.9313 46.1807 7.9313C46.5139 7.9313 46.8411 7.98753 47.1726 8.04036C47.7281 8.12643 48.2164 8.31474 48.7285 8.55503C48.8665 8.61979 49.0011 8.69308 49.1332 8.77232C49.9095 8.89588 50.644 9.25887 51.2439 9.77524C52.0014 10.4297 52.349 11.3968 52.5169 12.3588C52.6149 12.9271 52.7069 13.51 52.7018 14.0894C52.6967 14.616 52.6797 15.1418 52.6643 15.6683C52.6507 16.1455 52.6618 16.6235 52.6558 17.1016C52.6481 17.6478 52.5331 18.1539 52.338 18.6609C52.1761 19.081 52.0483 19.5445 51.7023 19.853C51.6043 19.9408 51.4995 20.0166 51.3887 20.0796C51.2916 20.2927 51.1723 20.4972 51.0249 20.6897C50.7599 21.0366 50.4736 21.3603 50.1796 21.6833C49.6283 22.29 49.0591 22.9384 48.2948 23.2784C47.8381 23.4812 47.372 23.5894 46.8922 23.7173C46.358 23.8604 45.7964 23.9652 45.2443 23.9695C45.2332 23.9695 45.2204 23.9695 45.2076 23.9695C45.0542 23.9695 44.9017 23.9635 44.7458 23.9524Z" fill="#E25743"/>
<path d="M42.8801 0.522378C41.7579 0.96206 40.5948 1.39493 39.6114 2.10643C39.2919 2.3382 38.992 2.58276 38.7074 2.85372C38.6435 2.91422 38.5821 2.97898 38.5225 3.04459C38.4764 3.07612 38.4313 3.10849 38.3853 3.14087C37.5068 3.76887 36.6572 4.42498 35.904 5.20124C35.2427 5.88122 34.6429 6.64129 34.1486 7.44993C33.8751 7.89728 33.668 8.38212 33.4644 8.86356C33.2505 9.37141 33.0665 9.88608 32.9097 10.4152C32.7435 10.9742 32.6558 11.5434 32.5731 12.1186C32.5084 12.5693 32.4419 13.0363 32.4334 13.493C32.4078 14.9663 32.4692 16.4259 32.6191 17.8907C32.7717 19.3835 33.0239 20.8781 33.398 22.3318C33.761 23.7403 34.256 25.1028 34.7681 26.4619C35.3049 27.8892 35.8665 29.3071 36.5038 30.6943C37.0901 31.9699 37.69 33.2352 38.398 34.4486C38.7372 35.0306 39.1112 35.593 39.4367 36.1844C39.7742 36.8004 40.0699 37.4361 40.3945 38.059C40.7575 38.7551 41.1486 39.4309 41.5406 40.1108C41.7511 40.4764 41.9556 40.8436 42.1549 41.2151C42.3586 41.5935 42.552 41.9905 42.7889 42.3484C43.2635 43.0642 43.7944 43.7356 44.2997 44.4301C44.8305 45.1586 45.3069 45.9204 45.917 46.5868C46.1351 46.804 46.3924 46.9532 46.689 47.0367C47.1687 47.1687 47.6007 47.0724 48.037 46.8603C48.4221 46.6737 48.8081 46.2195 48.8874 45.7883C48.9214 45.6077 48.9479 45.4254 48.9649 45.243C48.9513 44.9993 48.9155 44.7607 48.8814 44.5187C48.8473 44.2793 48.8064 44.0373 48.7519 43.8013C48.6215 43.2389 48.469 42.6893 48.3071 42.1346C48.1631 41.6429 47.9705 41.1589 47.7813 40.6809C47.5393 40.0691 47.2863 39.4598 47.0153 38.8599C46.1436 36.9257 45.3214 34.9718 44.4599 33.0359C44.3491 32.7623 44.2392 32.4897 44.1284 32.217C43.9904 31.8761 43.8873 31.5208 43.7714 31.1723C43.5694 30.5716 43.3939 29.9615 43.203 29.3573C42.9619 28.5947 42.7148 27.8338 42.4583 27.0763C42.2427 26.4423 42.0101 25.8143 41.7971 25.1778C41.4383 24.105 41.1614 23.0101 40.9134 21.9075C40.8052 21.772 40.6996 21.6357 40.6016 21.4934C40.2829 21.0307 40.0809 20.5262 39.9557 19.9979C39.7657 19.8403 39.6012 19.6486 39.476 19.4338C39.4393 19.3708 39.4061 19.3086 39.3763 19.2438C39.182 18.9856 39.0346 18.6942 38.9511 18.3866C38.7968 17.8268 38.8514 17.313 38.9383 16.7523C38.9715 16.5324 39.0167 16.3194 39.09 16.1107C39.234 15.7008 39.3933 15.2833 39.585 14.8845C39.5705 14.7464 39.5569 14.6084 39.545 14.4712C39.5169 14.3391 39.5032 14.2036 39.5032 14.0673C39.5032 14.0298 39.5041 13.9932 39.5066 13.9565C39.4487 13.0175 39.4589 12.0768 39.5543 11.1361C39.6983 10.3036 39.9463 9.50433 40.2479 8.71444C40.6646 7.76776 41.1162 6.84324 41.711 5.99029C42.1728 5.4458 42.696 4.97118 43.2345 4.49912C43.6725 4.11483 44.079 3.69645 44.4871 3.28147C45.0078 2.75317 45.1228 1.92493 44.7453 1.28074C44.5979 1.03193 44.4002 0.834252 44.1531 0.688543C43.9162 0.549651 43.5941 0.45166 43.2891 0.45166C43.1459 0.45166 43.0053 0.472956 42.8801 0.522378ZM36.2848 6.87733C36.2141 7.04519 36.1426 7.21476 36.071 7.38433C36.1417 7.21476 36.2133 7.04689 36.2848 6.87733Z" fill="#C04A39"/>
<path d="M38.4373 19.6772C38.722 20.2226 39.0662 20.7475 39.4496 21.2289C39.5451 21.349 39.6422 21.4658 39.7419 21.5825C39.9251 21.7947 40.1432 21.9838 40.3767 22.1474C40.5437 22.3008 40.7159 22.4482 40.8905 22.5905C41.2135 22.853 41.5424 23.1001 41.8943 23.3216C42.3868 23.6318 42.9279 23.8636 43.4698 24.0698C43.9172 24.2402 44.3756 24.3603 44.84 24.4711C45.0292 24.5163 45.2243 24.541 45.4169 24.5742C45.9622 24.6697 46.522 24.725 47.0751 24.6816C47.3656 24.6594 47.6485 24.604 47.9263 24.5154C48.2075 24.426 48.4802 24.2973 48.7443 24.1678C49.2743 23.9062 49.7711 23.5432 50.2278 23.1717C50.5474 22.9126 50.8601 22.651 51.166 22.3767C51.4966 22.081 51.7727 21.7367 52.0385 21.384C52.3887 20.9187 52.6265 20.3828 52.8421 19.8468C52.9469 19.5843 53.0346 19.3193 53.1241 19.0518C53.2366 18.7143 53.3439 18.3769 53.424 18.0284C53.5885 17.3161 53.6337 16.5824 53.6873 15.8564C53.7163 15.4559 53.7095 15.0495 53.7095 14.649C53.7078 13.8352 53.6396 13.0283 53.4147 12.2427C53.2988 11.8405 53.1624 11.4485 53.0133 11.0574C52.8651 10.668 52.6946 10.2888 52.4876 9.92582C52.2549 9.51596 51.9559 9.15551 51.6329 8.81553C51.1072 8.26081 50.4374 7.84414 49.7012 7.62941C49.2488 7.49818 48.7869 7.42917 48.32 7.37549C47.8462 7.32096 47.3707 7.28857 46.8961 7.28857C46.4513 7.28857 46.0065 7.31755 45.5634 7.38401C45.0564 7.45985 44.5716 7.59192 44.0987 7.78961C43.7263 7.94639 43.3701 8.12192 43.0165 8.31279C42.8001 8.42868 42.5896 8.55394 42.3817 8.68261C41.9216 8.9033 41.5006 9.18534 41.1087 9.51339C40.9007 9.68722 40.7133 9.88321 40.5395 10.0903C40.3767 10.2428 40.2182 10.3996 40.0751 10.5683C39.7087 11.0003 39.3559 11.4425 39.0619 11.9291C38.7509 12.4421 38.5328 13.0113 38.3232 13.5719C38.0317 14.355 37.8988 15.1764 37.7983 16.0021C37.7284 16.5756 37.7693 17.1644 37.8323 17.737C37.9082 18.4212 38.1187 19.068 38.4373 19.6772ZM39.4573 16.1368C39.5169 15.7857 39.5902 15.4406 39.6763 15.0946C39.7615 14.7529 39.8902 14.4232 40.0129 14.0943C40.2446 13.5753 40.5062 13.0837 40.8368 12.6176C40.9229 12.5111 41.009 12.4037 41.0942 12.2963C41.2084 12.154 41.3438 12.0271 41.4682 11.8942C41.7102 11.6351 41.9931 11.4076 42.2633 11.1792C42.4004 11.077 42.5376 10.9764 42.6799 10.8819C42.9066 10.7302 43.1358 10.5879 43.3684 10.4481C43.8243 10.1738 44.304 9.92411 44.7889 9.70512C45.2243 9.53641 45.6691 9.41541 46.1318 9.34043C46.9899 9.2484 47.8666 9.29271 48.7221 9.39496C49.0758 9.45461 49.4183 9.52703 49.7557 9.64973C49.9176 9.72813 50.0702 9.81674 50.2184 9.91985C50.4417 10.1056 50.6496 10.3084 50.8354 10.5308C51.0526 10.8435 51.235 11.1724 51.396 11.5175C51.4991 11.7723 51.5988 12.0271 51.696 12.2844C51.8638 12.7343 51.9789 13.2081 52.0538 13.6827C52.1178 14.2434 52.1229 14.8134 52.1203 15.3767C52.1169 15.9595 52.0931 16.5389 52.0257 17.1175C51.9516 17.5921 51.8349 18.0531 51.6823 18.5098C51.5673 18.8567 51.4523 19.2 51.3159 19.5392C51.1404 19.9277 50.9333 20.2941 50.6811 20.6375C50.2312 21.1846 49.6884 21.6524 49.132 22.0904C48.6727 22.4397 48.1964 22.7558 47.6724 22.9987C47.4738 23.0762 47.2753 23.1384 47.0648 23.1802C46.6252 23.2228 46.1906 23.1981 45.7517 23.1495C45.4305 23.1001 45.1135 23.0447 44.794 22.9774C44.3373 22.8811 43.884 22.726 43.4502 22.5513C43.3148 22.4917 43.1827 22.4295 43.0523 22.363C43.0284 22.1713 42.8887 22.0069 42.6936 21.9455C42.4524 21.8697 42.2104 21.7913 41.9727 21.7044C41.9701 21.7027 41.9684 21.7009 41.9659 21.6992C41.3507 21.2084 40.7814 20.6801 40.2855 20.0666C40.2165 19.9729 40.1509 19.8783 40.0878 19.782C39.9984 19.6005 39.9157 19.4156 39.8348 19.2299C39.747 19.0134 39.6669 18.7962 39.5987 18.5721C39.5331 18.3565 39.4914 18.1358 39.4556 17.9142C39.4241 17.6271 39.4011 17.3399 39.4045 17.0502C39.4062 16.7443 39.4258 16.4418 39.4573 16.1368Z" fill="black"/>
<path d="M143.998 63.828C143.987 63.5886 143.943 63.3568 143.867 63.1319C143.787 62.8473 143.649 62.5806 143.532 62.3096C143.434 62.083 143.305 61.8674 143.18 61.6543C143.051 61.4328 142.909 61.2215 142.763 61.0127C142.455 60.5747 142.156 60.1325 141.826 59.7107C141.365 59.1253 140.911 58.5391 140.429 57.9733C139.891 57.341 139.344 56.7198 138.79 56.1012C137.753 54.9424 136.67 53.8329 135.572 52.7303C135.028 52.1841 134.446 51.6729 133.885 51.1463C133.371 50.6657 132.84 50.1996 132.315 49.7292C131.762 49.2342 131.215 48.7331 130.656 48.2457C130.078 47.7413 129.514 47.213 128.915 46.7307C128.256 46.1999 127.609 45.646 126.93 45.1407C126.357 44.7138 125.783 44.286 125.208 43.8583C124.662 43.451 124.108 43.0548 123.557 42.6526C123.116 42.3322 122.689 41.9922 122.258 41.6573C122.29 41.682 122.323 41.7068 122.355 41.7323C121.897 41.3361 121.436 40.9399 120.976 40.5453C120.482 40.1201 120.015 39.6617 119.536 39.2203C118.655 38.4083 117.776 37.6013 116.875 36.8114C115.939 35.99 114.956 35.2163 113.951 34.4784C112.952 33.743 111.934 33.0264 110.951 32.2698C110.917 32.2434 110.883 32.2178 110.849 32.1914C110.858 32.1982 110.866 32.2042 110.874 32.211C110.9 32.2306 110.925 32.2502 110.951 32.2698C110.949 32.2689 110.947 32.2672 110.946 32.2664C110.923 32.2476 110.899 32.2297 110.875 32.211C110.714 32.0866 110.554 31.963 110.393 31.8395C110.346 31.8037 110.3 31.767 110.253 31.7312C110.245 31.7244 110.237 31.7185 110.228 31.7116C110.195 31.6861 110.162 31.6605 110.128 31.635C110.123 31.6307 110.118 31.6273 110.113 31.623C110.111 31.6222 110.11 31.6205 110.109 31.6196C109.971 31.5131 109.834 31.4066 109.696 31.3009C109.721 31.3205 109.747 31.3401 109.771 31.3606C109.737 31.3333 109.702 31.306 109.666 31.2788C109.651 31.2677 109.637 31.2566 109.622 31.2455C109.654 31.2703 109.686 31.295 109.718 31.3197C109.641 31.26 109.564 31.2012 109.489 31.1416C109.48 31.1356 109.472 31.1288 109.464 31.1228C109.484 31.1382 109.505 31.1544 109.525 31.1697C109.485 31.1382 109.444 31.1075 109.404 31.076C109.514 31.1603 109.622 31.2455 109.732 31.3299C108.508 30.333 107.294 29.3215 106.084 28.3075C104.995 27.3941 103.9 26.4815 102.852 25.5212C101.68 24.4492 100.538 23.3509 99.404 22.238C98.3746 21.2283 97.2737 20.3012 96.1958 19.3452C95.0089 18.2911 93.8994 17.157 92.7576 16.0552C92.2302 15.5457 91.6891 15.0497 91.1582 14.5444C90.6393 14.0519 90.1408 13.5407 89.6525 13.0166C89.2308 12.5633 88.7502 12.1262 88.1929 11.8484C87.697 11.6013 87.1627 11.4939 86.614 11.4939C86.5484 11.4939 86.4827 11.4956 86.4163 11.4982C85.8121 11.5263 85.2234 11.6916 84.6533 11.8816C83.7168 12.1952 82.8068 12.6059 81.8882 12.9698C80.5351 13.5057 79.1854 14.0579 77.8135 14.5436C76.6785 14.9449 75.5333 15.3105 74.3873 15.6794C73.363 16.0092 72.349 16.3713 71.3205 16.6849C70.2145 17.0223 69.0932 17.324 68.0161 17.7475C66.8785 18.1948 65.758 18.6831 64.6367 19.1671C63.419 19.6741 62.1929 20.1581 60.9514 20.6054C60.3984 20.8039 59.8505 21.0033 59.3085 21.2317C58.8518 21.4234 58.4061 21.6356 57.9562 21.8418C57.9937 21.6441 58.0295 21.4456 58.0602 21.2462C58.0875 21.0689 58.0176 20.8926 57.8293 20.8406C57.8191 20.838 57.8088 20.8406 57.7986 20.8389C57.8387 20.6139 57.8787 20.3881 57.9187 20.1632C58.1139 19.0367 58.2877 17.906 58.4607 16.7761C58.5578 16.1404 58.6405 15.5031 58.7206 14.8648C58.77 14.4822 58.81 14.1039 58.8373 13.7188C58.8918 12.9621 58.908 12.1799 58.8348 11.4232C58.8015 11.0875 58.7692 10.7526 58.7368 10.416C58.7027 10.065 58.6345 9.7156 58.5766 9.36795C58.4428 8.56442 58.2502 7.75664 57.9793 6.9889C57.7296 6.28166 57.4032 5.58891 56.9951 4.95835C56.5554 4.27923 55.9956 3.67765 55.3999 3.13487C54.8699 2.65258 54.2675 2.25123 53.6412 1.90699C53.2075 1.6684 52.7516 1.47668 52.3009 1.27899C51.5451 0.950081 50.7756 0.633108 49.9832 0.40219C48.8482 0.0707242 47.6569 0.0187452 46.4828 0.00170326C46.401 0.000851161 46.32 0 46.2382 0C45.8053 0 45.3716 0.0136241 44.9396 0.0408912C44.6405 0.0604894 44.3423 0.08094 44.0441 0.0996861C43.1766 0.155925 42.31 0.311867 41.4656 0.510405C41.1682 0.580277 40.8742 0.674003 40.5794 0.755805C40.0588 0.901513 39.5501 1.07619 39.0474 1.27302C38.3282 1.55422 37.6312 1.87461 36.9725 2.2785C36.4297 2.60997 35.9304 3.02239 35.472 3.46718C35.3569 3.54813 35.241 3.62908 35.1269 3.71088C34.6914 4.02616 34.2943 4.38659 33.9356 4.78792C33.7388 5.00691 33.5599 5.24039 33.3801 5.47471C33.2676 5.62128 33.1474 5.76444 33.0418 5.91696C32.6924 6.42226 32.3473 6.92499 32.0525 7.46607C31.6375 8.22444 31.347 9.06461 31.1978 9.91671C31.0581 10.7109 30.9559 11.5059 30.9192 12.3119C30.8502 13.821 30.8834 15.3326 30.9593 16.84C30.9967 17.5779 31.0411 18.3175 31.1382 19.0495C31.2481 19.8777 31.37 20.7034 31.5089 21.5282C31.5932 22.025 31.6989 22.5184 31.813 23.0092C31.8693 23.2682 31.9264 23.5273 31.9826 23.7863C32.0346 24.03 32.1113 24.2703 32.1769 24.5106C32.2553 24.7935 32.3337 25.0781 32.4121 25.361C32.4317 25.4334 32.4581 25.505 32.4811 25.5765C32.5109 25.6839 32.5407 25.7921 32.5706 25.8995C32.7606 26.5871 32.9753 27.2663 33.242 27.9283C33.2599 27.9718 33.2795 28.0144 33.2974 28.0579C32.9046 28.2734 32.5101 28.4847 32.1121 28.6944C31.7517 28.8844 31.3955 29.0761 31.024 29.2457C30.16 29.6436 29.296 30.0288 28.4217 30.4028C26.9987 30.9754 25.574 31.5353 24.1254 32.0414C22.7178 32.5348 21.2931 32.9787 19.8777 33.4491C18.4897 33.9092 17.1314 34.4511 15.7723 34.9854C15.0259 35.2785 14.282 35.5716 13.5279 35.8443C12.7653 36.1187 11.9984 36.3743 11.2272 36.6257C9.85876 37.073 8.47667 37.482 7.10735 37.9303C6.30467 38.1936 5.50028 38.4534 4.6959 38.7099C4.02359 38.9238 3.34448 39.1121 2.67302 39.3234C2.18733 39.476 1.69396 39.6268 1.23298 39.8458C1.02677 39.9438 0.794155 40.0886 0.639073 40.2514C0.605841 40.2872 0.5726 40.3221 0.538516 40.357C0.345942 40.5505 0.213884 40.778 0.140603 41.0404C0.119301 41.0907 0.0988462 41.1409 0.0775438 41.1912C0.0502767 41.3795 0.0238587 41.5687 0 41.7579C0.0272671 41.9692 0.0545274 42.1797 0.0834987 42.391C0.133772 42.552 0.193438 42.7097 0.262458 42.863C0.586255 43.6478 1.08473 44.35 1.53293 45.0691C1.76044 45.4355 1.98964 45.8028 2.21801 46.1692C2.59293 46.7708 2.96104 47.3783 3.353 47.9697C3.58903 48.3267 3.82507 48.6846 4.0628 49.0416C4.28691 49.3799 4.54339 49.7003 4.78283 50.0266C5.73547 51.3261 6.77333 52.5659 7.78392 53.8219C8.66584 54.9177 9.5128 56.0424 10.3888 57.1433C11.3533 58.3576 12.3239 59.5633 13.337 60.7366C14.3493 61.91 15.365 63.0799 16.3168 64.3027C16.5929 64.6571 16.869 65.0116 17.1451 65.3669C18.9532 67.8457 20.7017 70.3636 22.4638 72.8739C23.3739 74.1708 24.2882 75.4643 25.1939 76.7637C25.9762 77.8876 26.7337 79.0303 27.5313 80.1449C29.3496 82.6901 31.2813 85.1509 33.2011 87.6186C34.1989 88.9027 35.2001 90.1817 36.2244 91.4436C37.1634 92.6017 38.1331 93.7315 39.0644 94.8964C40.0469 96.1251 41.0183 97.3598 42.0391 98.5578C42.5035 99.1023 42.9772 99.6383 43.4374 100.185C43.929 100.77 44.4088 101.36 44.8825 101.957C45.2949 102.513 45.7065 103.071 46.1121 103.632C46.5237 104.2 46.9054 104.79 47.3229 105.353C47.6868 105.842 48.0302 106.343 48.5142 106.721C48.7212 106.883 48.9078 107.016 49.137 107.14C49.3586 107.261 49.6065 107.347 49.8477 107.419C50.088 107.49 50.359 107.497 50.6086 107.516C50.9452 107.54 51.2971 107.46 51.6269 107.407C51.8902 107.364 52.1492 107.264 52.4006 107.176C52.6613 107.085 52.9187 106.979 53.1726 106.87C53.6438 106.669 54.0979 106.438 54.5547 106.208C54.9253 106.021 55.2892 105.819 55.6547 105.626C57.0249 104.901 58.3951 104.179 59.7755 103.473C61.0621 102.816 62.3539 102.169 63.6448 101.519C66.4338 100.115 69.2321 98.7368 72.0687 97.4322C74.8687 96.143 77.6976 94.9177 80.5172 93.6728C82.8946 92.6238 85.2702 91.5723 87.6561 90.5438C90.3666 89.414 93.0729 88.2756 95.7749 87.1244C98.5144 85.9723 101.263 84.8476 104.024 83.7484C106.862 82.6177 109.678 81.4383 112.506 80.2837C115.474 79.0738 118.455 77.8953 121.373 76.5678C122.831 75.9057 124.278 75.2231 125.728 74.5432C126.992 73.951 128.262 73.3656 129.516 72.7529C130.963 72.0457 132.392 71.3103 133.814 70.5554C135.074 69.8865 136.316 69.1758 137.594 68.5418C138.964 67.8619 140.363 67.2458 141.746 66.5931C142.036 66.4559 142.325 66.3162 142.611 66.173C143.055 65.9506 143.474 65.6609 143.731 65.2221C143.92 64.8991 143.967 64.6018 144.009 64.2379C144.041 64.0999 144.036 63.9627 143.998 63.828ZM39.5518 3.34447C40.899 2.79913 42.3186 2.38927 43.7561 2.17881C44.4837 2.09104 45.2148 2.03906 45.9476 1.99645C46.8398 1.94362 47.7498 1.96152 48.6386 2.06803C49.2742 2.16943 49.8946 2.32963 50.4978 2.55884C50.7594 2.65939 51.0219 2.75909 51.2852 2.85878C51.4965 2.94825 51.7078 3.03858 51.9191 3.1289C52.5778 3.40924 53.2024 3.76455 53.7793 4.18549C54.2803 4.59109 54.7353 5.04866 55.1409 5.54799C55.4954 6.03539 55.7791 6.55262 56.0237 7.10222C56.4463 8.17075 56.6628 9.29127 56.8511 10.4211C56.8792 10.7151 56.9082 11.0091 56.9363 11.3031C57.0062 12.0359 56.9976 12.778 56.961 13.5125C56.9244 14.259 56.8161 14.9978 56.7199 15.7382C56.5426 16.8979 56.3594 18.0559 56.1745 19.2139C56.0833 19.7865 55.9802 20.3566 55.8822 20.9275C55.7987 21.42 55.711 21.9159 55.6011 22.4025C55.4784 22.9419 55.3659 23.4838 55.2236 24.0181C55.0753 24.5728 54.9339 25.1301 54.7771 25.6822C54.4584 26.8087 54.1474 27.9394 53.7989 29.0582C53.4469 30.1889 53.0908 31.318 52.7124 32.4402C52.3477 33.5207 51.9609 34.5968 51.638 35.6901C50.9801 37.9149 50.4109 40.1644 49.7719 42.3944C49.5401 43.2022 49.304 44.01 49.0714 44.8178C48.9743 45.1526 48.8806 45.4884 48.7817 45.8241C48.7476 45.8727 48.7144 45.9229 48.6786 45.9715C48.5201 46.1658 48.3497 46.343 48.1588 46.5066C48.1222 46.5313 48.0856 46.5552 48.0481 46.5782C48.0072 46.5526 47.9654 46.5288 47.9245 46.5023C47.7158 46.2799 47.5198 46.0431 47.3221 45.8147C47.0315 45.4807 46.7358 45.1501 46.4368 44.822C46.1061 44.4582 45.7755 44.0935 45.45 43.7254C45.1816 43.4203 44.9294 43.1033 44.6789 42.7847C43.8114 41.6301 42.95 40.4704 42.1515 39.2672C41.7476 38.6588 41.3446 38.0495 40.9237 37.4531C40.5045 36.8575 40.069 36.2738 39.66 35.6705C39.4564 35.3706 39.2587 35.0672 39.0627 34.7622C39.0141 34.6727 38.9664 34.5832 38.917 34.4937C38.6094 33.9475 38.2967 33.4056 37.9797 32.8645C37.955 32.8228 37.9302 32.781 37.9055 32.7384C37.6022 31.8923 37.3065 31.0428 36.9717 30.2068C36.6811 29.4826 36.3598 28.7736 36.0003 28.0792C35.8486 27.7869 35.6926 27.4963 35.5308 27.2092C35.3961 26.9706 35.2462 26.7422 35.0979 26.5122C34.9283 26.0401 34.7621 25.5663 34.6003 25.0917C34.4827 24.744 34.3847 24.3904 34.2858 24.0351C34.1904 23.6934 34.0924 23.356 34.0166 23.01C33.9237 22.5959 33.8104 22.1818 33.7397 21.7634C33.6706 21.3604 33.6016 20.959 33.5326 20.5568C33.4397 19.8002 33.357 19.0452 33.2863 18.286C33.2463 17.8608 33.2326 17.4331 33.2079 17.0079C33.1551 16.1302 33.19 15.2551 33.2965 14.3834C33.3928 13.7298 33.5207 13.0857 33.6485 12.4372C33.7328 12.0043 33.8496 11.58 33.9569 11.1531C34.06 10.7424 34.17 10.3359 34.2876 9.92863C34.481 9.25462 34.6625 8.5755 34.9198 7.92279C35.2342 7.23174 35.6202 6.58756 36.0727 5.97746C36.5268 5.41423 37.0262 4.89871 37.5852 4.44028C38.1978 3.99463 38.8599 3.64526 39.5518 3.34447ZM139.347 64.1731C138.636 64.5225 137.923 64.8651 137.212 65.2153C135.933 65.8441 134.69 66.5505 133.443 67.2398C132.061 68.0033 130.673 68.7549 129.276 69.4919C127.977 70.1762 126.651 70.8076 125.331 71.4492C122.642 72.7563 119.969 74.112 117.231 75.3109C114.44 76.532 111.634 77.7189 108.844 78.9443C107.441 79.5612 106.041 80.1823 104.632 80.7856C103.196 81.4008 101.754 82.0058 100.319 82.6279C98.8544 83.2618 97.387 83.8932 95.93 84.5442C94.6143 85.1313 93.3055 85.7312 91.9882 86.3132C89.1788 87.5555 86.3524 88.7604 83.5609 90.0411C82.0399 90.7398 80.5164 91.4386 78.992 92.1296C77.6712 92.7295 76.3437 93.3123 75.0229 93.9122C72.2579 95.1648 69.4885 96.4105 66.7558 97.7355C63.9107 99.1159 61.0673 100.499 58.2196 101.873C57.3104 102.312 56.4046 102.757 55.4988 103.203C54.553 103.668 53.608 104.139 52.6417 104.562C52.1552 104.754 51.661 104.914 51.148 105.016C51.0142 105.024 50.8855 105.024 50.7509 105.017C50.7194 105.01 50.6879 105.002 50.6572 104.994C50.5933 104.958 50.5319 104.92 50.4706 104.88C50.3981 104.812 50.33 104.742 50.2635 104.668C50.0718 104.377 49.9073 104.067 49.7369 103.765C49.5443 103.424 49.3475 103.089 49.1473 102.753C48.7928 102.155 48.3897 101.581 47.9884 101.014C47.0409 99.6749 46.0192 98.3993 44.9456 97.1578C43.9537 96.0109 42.9679 94.8614 42.0033 93.6907C41.0754 92.5633 40.1287 91.4539 39.1615 90.3606C37.6891 88.6948 36.2789 86.9838 34.8653 85.2694C33.4363 83.5362 32.0031 81.8073 30.6031 80.0511C28.7694 77.6337 26.9885 75.178 25.182 72.741C24.3419 71.606 23.4991 70.4761 22.6632 69.3377C21.7361 68.0732 20.8193 66.8027 19.8752 65.5518C18.9311 64.2984 17.9809 63.0467 16.9559 61.8571C15.9138 60.6472 14.8495 59.4585 13.8091 58.2459C11.8356 55.9453 10.0224 53.5092 8.15117 51.1258C7.96456 50.8813 7.77794 50.6359 7.59047 50.3913C7.36978 50.1016 7.12781 49.8196 6.92501 49.5171C6.48618 48.8627 6.03199 48.2193 5.64002 47.5351C5.44489 47.196 5.24892 46.856 5.05379 46.5151C4.83565 46.1351 4.6499 45.7312 4.44795 45.3418C4.02105 44.5153 3.62823 43.6674 3.25075 42.8179C3.21667 42.7361 3.18344 42.6543 3.15191 42.5716C3.24479 42.5461 3.33682 42.5196 3.428 42.4924C3.77139 42.3893 4.11477 42.2819 4.45731 42.1771C5.185 41.9538 5.90247 41.7008 6.62164 41.452C7.97648 40.9825 9.31938 40.4746 10.6691 39.9889C11.4215 39.718 12.1722 39.4444 12.9221 39.1675C13.6174 38.9102 14.3025 38.6281 14.9901 38.3512C16.3143 37.8169 17.6231 37.2349 18.937 36.6717C20.1862 36.1809 21.4396 35.7063 22.7041 35.2496C23.3705 35.0084 24.0445 34.7792 24.7049 34.5193C25.453 34.2245 26.196 33.9245 26.9356 33.6127C28.2044 33.0767 29.4749 32.5407 30.7155 31.9451C31.3308 31.6511 31.9622 31.3785 32.5638 31.0581C33.1023 30.7718 33.6399 30.4846 34.1751 30.1932C34.3293 30.5622 34.4869 30.9294 34.6514 31.2967C34.7374 31.4867 34.8261 31.6707 34.9206 31.8565C35.0604 32.1292 35.1899 32.4112 35.3441 32.6771C35.4072 32.7853 35.4694 32.8944 35.5325 33.0026C35.7003 33.5062 35.8707 34.0089 36.0514 34.5091C36.2593 35.0825 36.5004 35.6441 36.7424 36.2048C37.1753 37.2085 37.7275 38.1433 38.3452 39.0439C38.6554 39.4956 38.9979 39.9242 39.3294 40.3596C39.6788 40.818 40.0068 41.2918 40.3315 41.7681C40.6391 42.2197 40.9492 42.6696 41.2594 43.1178C41.6096 43.6248 41.9504 44.142 42.339 44.6192C42.6764 45.0359 43.0309 45.4321 43.428 45.7934C43.8055 46.1376 44.1991 46.4632 44.5902 46.7904C45.0521 47.1755 45.4986 47.5768 45.9749 47.9441C46.4521 48.3131 46.994 48.6087 47.5539 48.8311C47.9254 48.9794 48.3437 49.0757 48.7442 49.0425C49.039 49.0186 49.3134 48.9555 49.5759 48.8158C49.8545 48.6667 50.03 48.4545 50.2115 48.2023C50.2652 48.1282 50.3002 48.0395 50.3393 47.9569C50.4194 47.7822 50.4936 47.605 50.5592 47.4243C50.6504 47.1764 50.7177 46.9241 50.7824 46.6685C51.315 44.563 51.9362 42.4805 52.4619 40.3732C52.4883 40.2684 52.5139 40.1627 52.5395 40.0579C52.64 39.7461 52.7533 39.4376 52.865 39.1292C53.3541 37.7743 53.7938 36.4033 54.288 35.0502C54.4252 34.6761 54.5589 34.3012 54.6859 33.9237C54.8052 33.5743 54.9074 33.2216 55.0139 32.8696C55.2261 32.1641 55.4008 31.4458 55.5917 30.7343C55.7868 30.0075 55.9743 29.2764 56.1532 28.5444C56.2333 28.2163 56.3109 27.8883 56.3858 27.5602C56.4693 27.1955 56.5469 26.8266 56.6568 26.4687C56.863 25.7921 57.0845 25.1198 57.295 24.4433C57.4041 24.4629 57.514 24.4799 57.6239 24.4765C57.8037 24.4705 57.9844 24.4356 58.1599 24.3938C58.3866 24.3393 58.6107 24.2677 58.8305 24.191C59.3895 24.001 59.9382 23.7837 60.4895 23.575C61.0979 23.3449 61.7165 23.1447 62.3275 22.9231C63.0279 22.6683 63.7267 22.4102 64.4228 22.1435C65.8373 21.6015 67.222 20.9854 68.6347 20.4384C70.0347 19.8948 71.4893 19.5113 72.9174 19.052C73.9058 18.7342 74.8883 18.3968 75.8818 18.0951C76.9291 17.7773 77.9797 17.4697 79.0167 17.1186C80.0809 16.759 81.1461 16.3978 82.212 16.0416C82.6611 15.8899 83.1119 15.7382 83.5609 15.5874C84.4096 15.302 85.2566 14.9875 86.1376 14.8214C86.2714 14.812 86.4044 14.8069 86.539 14.8086C86.5671 14.8248 86.5944 14.8418 86.6217 14.8589C87.1772 15.3548 87.6629 15.9282 88.1938 16.4497C88.7477 16.9917 89.3177 17.5166 89.8877 18.0423C90.9878 19.0572 92.0427 20.1197 93.1265 21.1499C93.6949 21.6901 94.3169 22.1861 94.9134 22.6939C95.4596 23.1591 95.9896 23.644 96.5154 24.1331C97.5941 25.1352 98.6294 26.1824 99.7235 27.1674C101.774 29.0156 103.91 30.7616 106.041 32.516C106.725 33.0793 107.422 33.6255 108.127 34.1623C108.191 34.2202 108.261 34.2731 108.334 34.3199C108.396 34.3745 108.461 34.423 108.53 34.4665C109.91 35.5043 111.319 36.5055 112.722 37.5119C113.181 37.8672 113.64 38.2234 114.098 38.5778C114.325 38.7534 114.536 38.9528 114.754 39.1402C115.061 39.4044 115.369 39.6685 115.677 39.9344C116.191 40.3766 116.684 40.8461 117.187 41.302C117.705 41.7715 118.223 42.2427 118.74 42.7114C119.203 43.1332 119.695 43.5277 120.171 43.9341C120.499 44.2128 120.861 44.465 121.204 44.7274C121.455 44.92 121.703 45.1185 121.958 45.3052C123.031 46.0899 124.096 46.8807 125.159 47.6791C125.413 47.887 125.666 48.0949 125.92 48.302C126.211 48.5397 126.514 48.7689 126.795 49.0186C127.368 49.5281 127.951 50.0292 128.517 50.5481C129.629 51.5681 130.753 52.5761 131.839 53.6233C132.401 54.1653 132.976 54.697 133.519 55.2611C134.077 55.8413 134.635 56.4174 135.175 57.013C136.265 58.2153 137.324 59.4406 138.364 60.6855C138.747 61.1465 139.103 61.6296 139.47 62.1034C139.383 61.9909 139.296 61.8776 139.208 61.7651C139.637 62.3803 140.081 62.9836 140.442 63.6389C140.077 63.8187 139.709 63.9959 139.347 64.1731Z" fill="black"/>
<path d="M109.697 31.3002C109.641 31.2567 109.584 31.2124 109.527 31.1689C109.574 31.2047 109.621 31.2414 109.668 31.2772C109.677 31.2848 109.687 31.2925 109.697 31.3002Z" fill="black"/>
</svg>
