<svg width="30" height="30" viewBox="0 0 30 30" fill="none" xmlns="http://www.w3.org/2000/svg">
<rect width="30" height="30" rx="7" fill="#2B2B6E"/>
<path d="M20.2227 11.8151C20.2227 12.1268 20.4777 12.3819 20.7895 12.3819H22.4389C22.7506 12.3819 23.0057 12.1268 23.0057 11.8151C23.0057 11.5034 22.7506 11.2483 22.4389 11.2483H20.7895C20.4777 11.2483 20.2227 11.5034 20.2227 11.8151Z" fill="white"/>
<path d="M20.3871 15.3341C20.5005 15.4474 20.6422 15.4984 20.7895 15.4984C20.9369 15.4984 21.0786 15.4417 21.192 15.3341C21.413 15.113 21.413 14.7559 21.192 14.5348L20.6252 13.968C20.4041 13.747 20.047 13.747 19.8259 13.968C19.6049 14.1891 19.6049 14.5462 19.8259 14.7672L20.3928 15.3341H20.3871Z" fill="white"/>
<path d="M20.2227 9.83217C20.3701 9.83217 20.5118 9.77549 20.6252 9.66779L21.192 9.10098C21.413 8.87993 21.413 8.52283 21.192 8.30178C20.9709 8.08072 20.6138 8.08072 20.3928 8.30178L19.8259 8.86859C19.6049 9.08965 19.6049 9.44674 19.8259 9.66779C19.9393 9.78116 20.081 9.83217 20.2284 9.83217H20.2227Z" fill="white"/>
<path d="M8.38592 13.9627L7.81911 14.5295C7.59806 14.7505 7.59806 15.1076 7.81911 15.3287C7.93247 15.442 8.07418 15.4931 8.22155 15.4931C8.36892 15.4931 8.51062 15.4364 8.62398 15.3287L9.1908 14.7619C9.41185 14.5408 9.41185 14.1837 9.1908 13.9627C8.96974 13.7416 8.61265 13.7416 8.39159 13.9627H8.38592Z" fill="white"/>
<path d="M8.38611 9.66779C8.49948 9.78116 8.64118 9.83217 8.78855 9.83217C8.93592 9.83217 9.07762 9.77549 9.19099 9.66779C9.41204 9.44674 9.41204 9.08965 9.19099 8.86859L8.62418 8.30178C8.40312 8.08072 8.04603 8.08072 7.82497 8.30178C7.60392 8.52283 7.60392 8.87993 7.82497 9.10098L8.39178 9.66779H8.38611Z" fill="white"/>
<path d="M17.9332 18.0139L15.9954 21.5894C15.695 22.139 15.1228 22.479 14.4995 22.479C13.8762 22.479 13.3039 22.139 13.0036 21.5894L11.0657 18.0139C8.23252 18.4389 6 19.4022 6 20.8811C6 22.9266 10.2781 23.9975 14.4995 23.9975C18.7209 23.9975 22.9989 22.9266 22.9989 20.8811C22.9989 19.4022 20.7607 18.4389 17.9276 18.0139H17.9332Z" fill="white"/>
<path d="M10.4196 14.4271L14.0063 21.0454C14.1027 21.2267 14.2953 21.34 14.505 21.34C14.7146 21.34 14.9016 21.2267 15.0036 21.0454L18.5791 14.4498C18.8454 14.0078 19.021 13.6225 19.1287 13.2485C19.5367 11.8206 19.2873 10.2964 18.4431 9.06112C17.6385 7.88819 16.3749 7.14591 14.9753 7.02125C14.6636 6.99292 14.3407 6.99292 14.0347 7.02125C12.6351 7.14591 11.3658 7.88819 10.5669 9.06112C9.72262 10.2964 9.4733 11.8206 9.88128 13.2485C9.98894 13.6282 10.1646 14.0078 10.4196 14.4271ZM13.9384 9.20278C13.9384 8.89113 14.1933 8.63615 14.505 8.63615C14.8166 8.63615 15.0716 8.89113 15.0716 9.20278V9.84874C15.0716 10.1604 14.8166 10.4154 14.505 10.4154C14.1933 10.4154 13.9384 10.1604 13.9384 9.84874V9.20278ZM13.9384 11.7809C13.9384 11.4693 14.1933 11.2143 14.505 11.2143C14.8166 11.2143 15.0716 11.4693 15.0716 11.7809V15.4357C15.0716 15.7474 14.8166 16.0023 14.505 16.0023C14.1933 16.0023 13.9384 15.7474 13.9384 15.4357V11.7809Z" fill="white"/>
</svg>
