<svg width="30" height="30" viewBox="0 0 30 30" fill="none" xmlns="http://www.w3.org/2000/svg">
<path d="M23.3478 0H6.65217C4.88833 0.00138178 3.19713 0.702678 1.9499 1.9499C0.702678 3.19713 0.00138178 4.88833 0 6.65217V23.3478C0.00138178 25.1117 0.702678 26.8029 1.9499 28.0501C3.19713 29.2973 4.88833 29.9986 6.65217 30H23.3478C25.1117 29.9986 26.8029 29.2973 28.0501 28.0501C29.2973 26.8029 29.9986 25.1117 30 23.3478V6.65217C29.9986 4.88833 29.2973 3.19713 28.0501 1.9499C26.8029 0.702678 25.1117 0.00138178 23.3478 0ZM4.1113 9.19304C4.1566 9.11245 4.22251 9.04535 4.30226 8.99859C4.38202 8.95184 4.47277 8.92712 4.56522 8.92696H6.49565C6.57101 8.92695 6.64548 8.94327 6.71393 8.9748C6.78238 9.00632 6.84319 9.0523 6.89217 9.10956L10.1687 12.913H15.5583L10.9774 7.30957C10.915 7.23321 10.8755 7.14074 10.8635 7.04286C10.8515 6.94497 10.8674 6.84569 10.9096 6.75652C10.9522 6.66693 11.0196 6.59137 11.1037 6.5387C11.1877 6.48602 11.2851 6.45842 11.3843 6.45913H13.6748C13.8034 6.45803 13.9279 6.50449 14.0243 6.58957L21.0365 12.913H24.0887C24.3465 12.9141 24.6015 12.9673 24.8383 13.0695C25.075 13.1717 25.2885 13.3208 25.4661 13.5078C25.6311 13.6791 25.7596 13.8821 25.8439 14.1045C25.9282 14.3269 25.9665 14.5641 25.9565 14.8017C25.935 15.2604 25.7376 15.6931 25.4053 16.0098C25.0729 16.3266 24.6313 16.5031 24.1722 16.5026H8.52C8.39138 16.5037 8.2669 16.4573 8.17043 16.3722C8.13182 16.3352 8.09846 16.293 8.0713 16.247L4.11652 9.72C4.06896 9.64053 4.04341 9.54984 4.04249 9.45723C4.04158 9.36462 4.06533 9.27344 4.1113 9.19304ZM25.4348 19.5757H4.56522C4.42684 19.5757 4.29414 19.5207 4.19629 19.4228C4.09845 19.325 4.04348 19.1923 4.04348 19.0539C4.04348 18.9155 4.09845 18.7828 4.19629 18.685C4.29414 18.5871 4.42684 18.5322 4.56522 18.5322H25.4348C25.5732 18.5322 25.7059 18.5871 25.8037 18.685C25.9016 18.7828 25.9565 18.9155 25.9565 19.0539C25.9565 19.1923 25.9016 19.325 25.8037 19.4228C25.7059 19.5207 25.5732 19.5757 25.4348 19.5757Z" fill="#2B2B6E"/>
</svg>
