<svg width="50" height="46" viewBox="0 0 50 46" fill="none" xmlns="http://www.w3.org/2000/svg">
<path d="M16.6662 4.20664V0H11.1106V4.20684H8.33281L2.85352 24.2862C4.78906 23.2182 7.01201 22.6095 9.37451 22.6095C13.0098 22.6095 16.3146 24.0496 18.7495 26.3889V4.20664H16.6662Z" fill="black"/>
<path d="M9.375 45.4858C14.5527 45.4858 18.75 41.2885 18.75 36.1108C18.75 30.9332 14.5527 26.7358 9.375 26.7358C4.19733 26.7358 0 30.9332 0 36.1108C0 41.2885 4.19733 45.4858 9.375 45.4858Z" fill="black"/>
<path d="M40.625 45.4858C45.8027 45.4858 50 41.2885 50 36.1108C50 30.9332 45.8027 26.7358 40.625 26.7358C35.4473 26.7358 31.25 30.9332 31.25 36.1108C31.25 41.2885 35.4473 45.4858 40.625 45.4858Z" fill="black"/>
<path d="M41.6667 4.20684H38.889V0H33.3334V4.20664H31.25V26.3889C33.6849 24.0496 36.9897 22.6095 40.625 22.6095C42.9874 22.6095 45.21 23.2181 47.1451 24.2858L41.6667 4.20684Z" fill="black"/>
<path d="M25.0003 6.25C23.8496 6.25 22.917 7.18281 22.917 8.3335V36.1111C22.917 37.2617 23.8496 38.1944 25.0003 38.1944C26.1507 38.1944 27.0836 37.2616 27.0836 36.1111V8.3335C27.0836 7.18281 26.1507 6.25 25.0003 6.25Z" fill="black"/>
</svg>
