<svg width="50" height="50" viewBox="0 0 50 50" fill="none" xmlns="http://www.w3.org/2000/svg">
<path d="M0.137539 5.79827C0.479431 6.53216 1.34915 6.84827 2.0845 6.50637L8.72205 3.41079L10.2475 6.68254L5.16583 15.038C4.91124 15.4556 4.88263 15.9735 5.09005 16.4184C5.29747 16.8619 5.71231 17.1723 6.1958 17.2466C9.14295 17.6998 12.0694 17.3396 14.7584 16.3544L16.6941 20.6044H9.67615C9.15398 20.6044 8.67049 20.8833 8.40868 21.3354C7.31113 23.2312 6.59121 25.3136 6.20195 27.4645C6.62158 27.7479 6.98466 28.1001 7.31757 28.4799C8.39579 27.2461 9.96619 26.4638 11.7189 26.4638C13.4774 26.4638 15.0387 27.2581 16.1134 28.4881C17.1881 27.258 18.7494 26.4638 20.5079 26.4638C22.2664 26.4638 23.8277 27.2581 24.9024 28.4881C25.9771 27.258 27.7337 26.4638 29.4922 26.4638C31.2507 26.4638 32.812 27.2581 33.8867 28.4881C34.9614 27.258 36.5228 26.4638 38.2812 26.4638C40.034 26.4638 41.6043 27.2461 42.6826 28.4799C43.0155 28.1001 43.3785 27.7479 43.7982 27.4645C43.4089 25.3136 42.689 23.2312 41.5915 21.3354C41.3297 20.8833 40.8462 20.6044 40.324 20.6044C39.7474 20.6044 18.6013 20.6044 19.9264 20.6044L17.4139 15.1167C19.8851 13.6969 22.0425 11.6933 23.6007 9.13145C23.8553 8.71378 23.8839 8.19591 23.6764 7.75099C23.469 7.30754 23.0542 6.99709 22.5707 6.92278L12.9028 5.44476L10.7576 0.8444C10.593 0.492449 10.2956 0.220673 9.93074 0.0876663C9.56736 -0.0453406 9.16258 -0.0253212 8.81063 0.136299L0.845639 3.85131C0.113222 4.19321 -0.204354 5.06439 0.137539 5.79827Z" fill="#2B2B6E"/>
<path d="M44.0363 32.8416C43.8262 33.3931 43.3015 33.7879 42.6758 33.7879C41.8662 33.7879 41.211 33.1327 41.211 32.3231C41.211 32.253 41.2293 32.1881 41.2317 32.1187C41.2229 32.0754 41.1973 32.0402 41.1923 31.9954C41.0293 30.5121 39.7776 29.3933 38.2812 29.3933C36.6662 29.3933 35.3516 30.708 35.3516 32.323C35.3516 33.1326 34.6964 33.7878 33.8867 33.7878C33.0771 33.7878 32.4219 33.1326 32.4219 32.323C32.4219 30.708 31.1073 29.3933 29.4922 29.3933C27.8772 29.3933 26.3673 30.708 26.3673 32.323C26.3673 33.1326 25.7121 33.7878 24.9024 33.7878C24.0928 33.7878 23.4376 33.1326 23.4376 32.323C23.4376 30.708 22.1229 29.3933 20.5079 29.3933C18.8929 29.3933 17.5782 30.708 17.5782 32.323C17.5782 33.1326 16.9231 33.7878 16.1134 33.7878C15.3037 33.7878 14.6486 33.1326 14.6486 32.323C14.6486 30.708 13.3339 29.3933 11.7189 29.3933C10.2226 29.3933 8.97088 30.512 8.80779 31.9954C8.80281 32.04 8.77723 32.0752 8.76844 32.1183C8.77098 32.1878 8.78914 32.253 8.78914 32.3231C8.78914 33.1327 8.13397 33.7879 7.32431 33.7879C6.69863 33.7879 6.17402 33.3931 5.96387 32.8416C6.95927 42.413 15.0722 49.9987 24.9023 49.9987C34.7324 49.9987 43.0408 42.413 44.0363 32.8416Z" fill="#2B2B6E"/>
<path d="M46.9955 14.8194C45.9042 13.7274 44.5734 12.9776 43.1528 12.5012L42.04 18.0654C42.8409 18.4098 43.5344 18.9697 44.0138 19.7223L49.3772 18.6496C48.8741 17.2295 48.0924 15.9155 46.9955 14.8194Z" fill="#2B2B6E"/>
<path d="M45.3672 22.4388C46.262 24.6298 46.8052 26.9585 46.9706 29.3358C46.9783 29.3285 46.9887 29.3263 46.9962 29.3188C48.9331 27.3834 50.0003 24.8084 50.0003 22.069C50.0003 21.8836 49.9566 21.7067 49.947 21.5229L45.3672 22.4388Z" fill="#2B2B6E"/>
<path d="M32.4966 16.8904L33.2805 17.6743H39.1316L40.2741 11.9619C37.4434 11.8244 34.561 12.7531 32.4966 14.819C31.9243 15.3912 31.9243 16.3181 32.4966 16.8904Z" fill="#2B2B6E"/>
</svg>
