<svg width="50" height="50" viewBox="0 0 50 50" fill="none" xmlns="http://www.w3.org/2000/svg">
<path d="M42.6758 0H7.32422C3.28584 0 0 3.28584 0 7.32422V42.6758C0 46.7142 3.28584 50 7.32422 50H42.6758C46.7142 50 50 46.7142 50 42.6758V7.32422C50 3.28584 46.7142 0 42.6758 0ZM25 14.0849C25 14.1046 25 14.1123 25 14.1133C25 14.263 25 15.1151 25 19.1405C25 21.5676 23.0325 23.5351 20.6055 23.5351V39.746C20.6055 41.3641 19.2938 42.6757 17.6758 42.6757C16.0577 42.6757 14.7461 41.3641 14.7461 39.746V23.5352C12.319 23.5352 10.3516 21.5677 10.3516 19.1406C10.3516 13.9762 10.3516 12.1954 10.3516 11.6558C10.3516 11.501 10.3516 11.4479 10.3516 11.4469C10.3516 11.1307 10.3516 10.3886 10.3516 8.78897C10.3516 7.9793 11.0067 7.32412 11.8164 7.32412C12.6261 7.32412 13.2812 7.9793 13.2812 8.78897V16.2108H16.2109V8.78906C16.2109 7.97939 16.8661 7.32422 17.6758 7.32422C18.4854 7.32422 19.1406 7.97939 19.1406 8.78906V16.2109H22.0703V8.78906C22.0703 7.97939 22.7255 7.32422 23.5352 7.32422C24.3448 7.32422 25 7.97939 25 8.78906C25 13.0452 25 13.9318 25 14.0849ZM39.6484 39.7461C39.6484 41.3574 38.3301 42.6758 36.7188 42.6758C35.1074 42.6758 33.7891 41.3574 33.7891 39.7461V25H32.3242C31.5038 25 30.8594 24.3556 30.8594 23.5352V16.2109C30.8594 11.9629 33.8771 8.32041 37.8907 7.5C38.7989 7.32422 39.6484 8.02734 39.6484 8.96484V39.7461Z" fill="black"/>
</svg>
