<svg width="50" height="50" viewBox="0 0 50 50" fill="none" xmlns="http://www.w3.org/2000/svg">
<path d="M38.913 0H11.087C8.14722 0.00230297 5.32855 1.17113 3.24984 3.24984C1.17113 5.32855 0.00230297 8.14722 0 11.087V38.913C0.00230297 41.8528 1.17113 44.6715 3.24984 46.7502C5.32855 48.8289 8.14722 49.9977 11.087 50H38.913C41.8528 49.9977 44.6715 48.8289 46.7502 46.7502C48.8289 44.6715 49.9977 41.8528 50 38.913V11.087C49.9977 8.14722 48.8289 5.32855 46.7502 3.24984C44.6715 1.17113 41.8528 0.00230297 38.913 0ZM30.0609 41.7391C30.2338 41.7391 30.3997 41.8078 30.522 41.9301C30.6443 42.0525 30.713 42.2183 30.713 42.3913C30.713 42.5643 30.6443 42.7302 30.522 42.8525C30.3997 42.9748 30.2338 43.0435 30.0609 43.0435H19.9391C19.7662 43.0435 19.6003 42.9748 19.478 42.8525C19.3557 42.7302 19.287 42.5643 19.287 42.3913C19.287 42.2183 19.3557 42.0525 19.478 41.9301C19.6003 41.8078 19.7662 41.7391 19.9391 41.7391H24.3478V25.6435L15.2435 14.4261H34.7565L25.6522 25.6435V41.7391H30.0609ZM35.8174 13.1217H14.1826L10.2174 8.26087H39.7826L35.8174 13.1217Z" fill="#2B2B6E"/>
</svg>
