<svg width="45" height="45" viewBox="0 0 45 45" fill="none" xmlns="http://www.w3.org/2000/svg">
<path d="M22.5 0C18.0499 0 13.6998 1.3196 9.99968 3.79193C6.29957 6.26426 3.41569 9.77828 1.71272 13.8896C0.00974899 18.001 -0.435826 22.525 0.432341 26.8895C1.30051 31.2541 3.44343 35.2632 6.59011 38.4099C9.73679 41.5566 13.7459 43.6995 18.1105 44.5677C22.475 45.4358 26.999 44.9902 31.1104 43.2873C35.2217 41.5843 38.7357 38.7004 41.2081 35.0003C43.6804 31.3002 45 26.9501 45 22.5C44.9935 16.5346 42.6209 10.8154 38.4028 6.59722C34.1846 2.37905 28.4654 0.00645203 22.5 0ZM22.5 5.625C25.8298 5.6282 29.0845 6.61514 31.8552 8.46188C34.626 10.3086 36.7894 12.9328 38.0738 16.005L26.295 18.3619C23.7018 18.8794 21.0319 18.8794 18.4388 18.3619L6.90563 16.0537C8.18403 12.9694 10.3474 10.3328 13.1228 8.47676C15.8982 6.62072 19.1612 5.62839 22.5 5.625ZM5.63626 23.0756L11.55 24.2587C12.6295 24.4747 13.6482 24.9256 14.5339 25.5796C15.4195 26.2335 16.1503 27.0744 16.6744 28.0425L17.8463 30.2044C18.4379 31.2987 18.7484 32.5229 18.75 33.7669V38.9475C15.1217 38.1147 11.8697 36.1077 9.49858 33.2379C7.12746 30.368 5.7698 26.7959 5.63626 23.0756ZM26.25 38.955V33.7744C26.2516 32.5304 26.5621 31.3062 27.1538 30.2119L28.3256 28.05C28.8497 27.0819 29.5805 26.241 30.4662 25.5871C31.3518 24.9331 32.3705 24.4822 33.45 24.2662L39.3638 23.0831C39.2302 26.8034 37.8725 30.3755 35.5014 33.2454C33.1303 36.1152 29.8783 38.1222 26.25 38.955Z" fill="white"/>
</svg>
