<svg width="30" height="30" viewBox="0 0 30 30" fill="none" xmlns="http://www.w3.org/2000/svg">
<rect width="30" height="30" rx="7" fill="#2B2B6E"/>
<path d="M5.6121 21.5687C5.09703 21.0551 4.76193 20.3887 4.65685 19.669C4.55177 18.9492 4.68235 18.2148 5.02909 17.5754L5.41244 16.8566L4.02278 16.058L3.63144 16.7528C3.20727 17.5131 2.98969 18.3713 3.00038 19.2419C3.01106 20.1125 3.24964 20.9651 3.69235 21.7148C4.13506 22.4645 4.76645 23.0852 5.52365 23.5149C6.28084 23.9447 7.13741 24.1686 8.00806 24.1643H14.3973V22.567H8.00806C7.56233 22.5685 7.12079 22.481 6.70934 22.3096C6.2979 22.1382 5.92485 21.8863 5.6121 21.5687Z" fill="white"/>
<path d="M25.3789 12.3841C25.3789 12.8607 25.1896 13.3178 24.8526 13.6548C24.5156 13.9918 24.0585 14.1811 23.582 14.1811H16.5938V15.7784H23.6059C24.5061 15.7784 25.3695 15.4208 26.006 14.7843C26.6426 14.1477 27.0002 13.2844 27.0002 12.3841C27.0002 11.4839 26.6426 10.6206 26.006 9.98403C25.3695 9.34748 24.5061 8.98987 23.6059 8.98987H22.1843V10.5872H23.582C24.0585 10.5872 24.5156 10.7765 24.8526 11.1135C25.1896 11.4505 25.3789 11.9076 25.3789 12.3841Z" fill="white"/>
<path d="M9.80515 3C8.4625 3 7.15 3.39814 6.03363 4.14408C4.91726 4.89001 4.04716 5.95024 3.53335 7.19068C3.01954 8.43112 2.88511 9.79607 3.14704 11.1129C3.40898 12.4298 4.05553 13.6394 5.00492 14.5888C5.95432 15.5382 7.16392 16.1847 8.48077 16.4466C9.79762 16.7086 11.1626 16.5741 12.403 16.0603C13.6435 15.5465 14.7037 14.6764 15.4496 13.5601C16.1955 12.4437 16.5937 11.1312 16.5937 9.78854C16.5916 7.98876 15.8757 6.26329 14.603 4.99065C13.3304 3.71801 11.6049 3.00211 9.80515 3ZM6.84215 12.3043C6.76535 12.3155 6.68733 12.3155 6.61054 12.3043C6.43773 12.3043 6.26959 12.2482 6.13135 12.1446C6.03216 12.0702 5.95165 11.9737 5.8962 11.8628C5.84075 11.7519 5.81189 11.6296 5.81189 11.5056V9.74062H7.40919V10.4674L9.75723 9.7566L8.95857 8.95794C8.912 8.91398 8.85652 8.88053 8.79589 8.85986C8.73526 8.83919 8.6709 8.83179 8.60717 8.83815H7.08973V7.24084H8.60717C8.8808 7.23979 9.15186 7.29368 9.40428 7.39931C9.65671 7.50495 9.88536 7.66018 10.0767 7.8558L11.4584 9.23747L13.5349 8.59056L13.9981 10.1879L6.84215 12.3043Z" fill="white"/>
<path d="M22.9825 16.577C21.9234 16.577 20.9077 16.9977 20.1589 17.7466C19.41 18.4955 18.9893 19.5112 18.9893 20.5703C18.9893 23.3336 22.08 26.3925 22.4314 26.7359C22.58 26.8775 22.7773 26.9565 22.9825 26.9565C23.1877 26.9565 23.3851 26.8775 23.5336 26.7359C23.885 26.3925 26.9758 23.3336 26.9758 20.5703C26.9758 19.5112 26.5551 18.4955 25.8062 17.7466C25.0573 16.9977 24.0416 16.577 22.9825 16.577ZM23.893 21.3689H22.0721V19.7716H23.893V21.3689Z" fill="white"/>
<path d="M16.0029 22.567H18.3989V24.1643H16.0029V22.567Z" fill="white"/>
<path d="M18.167 8.98987H20.5629V10.5872H18.167V8.98987Z" fill="white"/>
</svg>
