<svg width="180" height="26" viewBox="0 0 180 26" fill="none" xmlns="http://www.w3.org/2000/svg">
<mask id="path-1-outside-1_517_1523" maskUnits="userSpaceOnUse" x="21.8838" y="0" width="158" height="26" fill="black">
<rect fill="white" x="21.8838" width="158" height="26"/>
<path d="M22.8838 12.45C22.8838 10.1906 23.5786 8.51227 24.9683 7.4149C26.358 6.30945 28.276 5.75671 30.7223 5.75671C32.9275 5.75671 34.6445 6.18437 35.8734 7.03966C37.1023 7.88692 37.7168 9.12152 37.7168 10.7434C37.7168 11.2033 37.6823 11.6471 37.6134 12.0748C37.556 12.5024 37.4928 12.8131 37.4239 13.0068L37.3205 13.2972H26.5188C26.6566 14.7174 27.1218 15.722 27.9143 16.311C28.7182 16.892 29.8897 17.1825 31.4287 17.1825C32.1637 17.1825 32.8758 17.122 33.5649 17.0009C34.2655 16.8799 34.7823 16.7629 35.1154 16.6499L35.5978 16.4684C36.3098 16.9122 36.6831 17.5053 36.7175 18.2476C36.6602 18.2718 36.5797 18.3081 36.4763 18.3565C36.373 18.405 36.1319 18.4897 35.7528 18.6107C35.3853 18.7317 34.9948 18.8366 34.5813 18.9254C34.1679 19.0142 33.6223 19.0949 32.9447 19.1675C32.2671 19.2482 31.5723 19.2885 30.8602 19.2885C25.5426 19.2885 22.8838 17.009 22.8838 12.45ZM26.5188 11.5301H34.0817C34.1506 11.1428 34.1851 10.7716 34.1851 10.4166C34.1851 9.60969 33.9152 8.9601 33.3754 8.4679C32.8356 7.96763 31.9513 7.71747 30.7223 7.71747C28.1727 7.71747 26.7715 8.98836 26.5188 11.5301ZM40.2664 21.794C40.2664 21.3501 40.3813 20.9306 40.611 20.5352C40.8407 20.1398 41.1393 19.7969 41.5068 19.5064C41.8744 19.224 42.2074 18.998 42.5061 18.8286C42.8046 18.6591 43.109 18.5098 43.4191 18.3807C42.9023 18.0176 42.6439 17.5375 42.6439 16.9404C42.6439 16.0367 43.2066 15.1208 44.3322 14.1929C42.1959 13.499 41.1278 12.1757 41.1278 10.2229C41.1278 8.8189 41.7193 7.72555 42.9023 6.94284C44.0967 6.1521 45.808 5.75671 48.0361 5.75671C49.6211 5.75671 50.9246 5.94631 51.9468 6.32557L56.8911 5.75671C57.0519 6.01492 57.1323 6.33766 57.1323 6.725C57.1323 7.11229 57.0519 7.44316 56.8911 7.71747L53.9624 7.62065C54.617 8.29037 54.9444 9.15781 54.9444 10.2229C54.9444 11.627 54.3529 12.7243 53.17 13.5151C51.9869 14.2978 50.2757 14.6891 48.0361 14.6891C47.5422 14.6891 47.0254 14.6609 46.4856 14.6044C46.0262 15.0401 45.7965 15.4718 45.7965 15.8995C45.7965 15.9479 45.8023 15.9964 45.8138 16.0447C45.8597 16.311 46.055 16.5329 46.3995 16.7105C46.744 16.8799 47.1805 16.9969 47.7088 17.0615C48.2371 17.126 48.8286 17.1946 49.4833 17.2672C50.1379 17.3398 50.804 17.4044 51.4816 17.4609C52.1593 17.5174 52.8196 17.6303 53.4628 17.7998C54.106 17.9612 54.6802 18.1629 55.1856 18.405C55.6909 18.639 56.0929 18.9779 56.3915 19.4216C56.7016 19.8654 56.8567 20.394 56.8567 21.0072C56.8567 22.2499 56.0469 23.2666 54.4276 24.0573C52.8082 24.8481 50.5973 25.2435 47.7949 25.2435C45.2567 25.2435 43.3674 24.9288 42.1271 24.2994C40.8866 23.6781 40.2664 22.8429 40.2664 21.794ZM43.6947 21.2977C43.6947 21.9513 44.0451 22.4798 44.7456 22.8833C45.4577 23.2867 46.5086 23.4885 47.8983 23.4885C49.6785 23.4885 51.0567 23.2827 52.0329 22.8711C53.0091 22.4677 53.4972 21.9271 53.4972 21.2493C53.4972 20.862 53.3193 20.5473 52.9632 20.3052C52.6186 20.0712 52.1305 19.8977 51.4989 19.7848C50.8787 19.6799 50.2413 19.5992 49.5866 19.5427C48.9319 19.4862 48.1911 19.4176 47.3642 19.3369C46.5373 19.2562 45.8539 19.1594 45.3142 19.0464C44.8432 19.3127 44.4528 19.6435 44.1427 20.039C43.844 20.4424 43.6947 20.862 43.6947 21.2977ZM45.4175 8.18953C44.7859 8.64137 44.47 9.31918 44.47 10.2229C44.47 11.1267 44.7859 11.8045 45.4175 12.2563C46.0607 12.7001 46.9336 12.922 48.0361 12.922C49.1387 12.922 50.0001 12.7001 50.6203 12.2563C51.2519 11.8045 51.5678 11.1267 51.5678 10.2229C51.5678 9.31918 51.2519 8.64137 50.6203 8.18953C50.0001 7.72961 49.1387 7.49963 48.0361 7.49963C46.9336 7.49963 46.0607 7.72961 45.4175 8.18953ZM59.7509 12.45C59.7509 10.1906 60.4457 8.51227 61.8354 7.4149C63.2251 6.30945 65.1431 5.75671 67.5894 5.75671C69.7946 5.75671 71.5116 6.18437 72.7405 7.03966C73.9694 7.88692 74.5838 9.12152 74.5838 10.7434C74.5838 11.2033 74.5494 11.6471 74.4805 12.0748C74.4231 12.5024 74.3599 12.8131 74.291 13.0068L74.1876 13.2972H63.3859C63.5237 14.7174 63.9889 15.722 64.7813 16.311C65.5853 16.892 66.7568 17.1825 68.2958 17.1825C69.0308 17.1825 69.7429 17.122 70.432 17.0009C71.1326 16.8799 71.6494 16.7629 71.9825 16.6499L72.4648 16.4684C73.1769 16.9122 73.5502 17.5053 73.5846 18.2476C73.5273 18.2718 73.4468 18.3081 73.3434 18.3565C73.2401 18.405 72.9989 18.4897 72.6199 18.6107C72.2524 18.7317 71.8619 18.8366 71.4484 18.9254C71.0349 19.0142 70.4894 19.0949 69.8118 19.1675C69.1342 19.2482 68.4394 19.2885 67.7273 19.2885C62.4096 19.2885 59.7509 17.009 59.7509 12.45ZM63.3859 11.5301H70.9488C71.0177 11.1428 71.0522 10.7716 71.0522 10.4166C71.0522 9.60969 70.7823 8.9601 70.2425 8.4679C69.7027 7.96763 68.8184 7.71747 67.5894 7.71747C65.0398 7.71747 63.6386 8.98836 63.3859 11.5301ZM77.5298 15.1491C77.5298 13.8177 78.0983 12.8373 79.2353 12.2079C80.3724 11.5785 82.0606 11.2639 84.3002 11.2639C85.7703 11.2639 87.1141 11.3122 88.3315 11.4091V10.4892C88.3315 9.6097 88.0501 8.948 87.4873 8.50424C86.936 8.06044 86.0058 7.83853 84.6965 7.83853C83.9614 7.83853 83.1977 7.89099 82.4052 7.99589C81.6242 8.10074 81.0213 8.20565 80.5963 8.31055L79.9588 8.4679L79.9072 8.44371C79.8842 8.41952 79.8498 8.39934 79.8038 8.38318C79.7694 8.35899 79.7234 8.32671 79.666 8.28636C79.6086 8.23792 79.5511 8.18953 79.4938 8.1411C79.4478 8.09271 79.3904 8.03218 79.3214 7.95955C79.264 7.87889 79.2066 7.79818 79.1492 7.71747C79.1147 7.65292 79.0802 7.58837 79.0458 7.52382C79.0228 7.45928 78.9999 7.39874 78.9769 7.34228C78.9654 7.28581 78.9539 7.22929 78.9424 7.17282C78.9309 7.10828 78.9252 7.05582 78.9252 7.01547C78.9252 6.96708 78.9252 6.92266 78.9252 6.88236C78.9252 6.842 78.9252 6.80973 78.9252 6.78553C78.9367 6.75326 78.9424 6.725 78.9424 6.70081V6.67657C79.0114 6.65237 79.109 6.6201 79.2353 6.57974C79.3732 6.53939 79.6545 6.46681 80.0794 6.3619C80.5159 6.24892 80.9581 6.1521 81.406 6.07139C81.8654 5.99073 82.4339 5.9181 83.1115 5.85353C83.7891 5.78898 84.4553 5.75671 85.1099 5.75671C87.5907 5.75671 89.3307 6.14402 90.3299 6.91865C91.3406 7.69328 91.8459 8.91171 91.8459 10.574V18.877C91.5933 18.99 91.1396 19.0464 90.4849 19.0464C90.2208 19.0464 89.9681 19.0343 89.7269 19.0101C89.4972 18.9779 89.3307 18.9496 89.2273 18.9254L89.0723 18.877L88.5382 17.2914C87.6194 18.6228 85.7703 19.2885 82.9909 19.2885C81.2912 19.2885 79.9531 18.9375 78.9769 18.2355C78.0121 17.5335 77.5298 16.5047 77.5298 15.1491ZM81.1648 15.1491C81.1648 16.6418 82.187 17.3883 84.2313 17.3883C85.1272 17.3883 85.8909 17.2228 86.5226 16.892C87.1543 16.5531 87.6137 16.1335 87.9008 15.6332C88.1879 15.1249 88.3315 14.5681 88.3315 13.9629V13.0915C86.7121 12.9947 85.5234 12.9462 84.7654 12.9462C83.5595 12.9462 82.6579 13.1238 82.0606 13.4788C81.4634 13.8258 81.1648 14.3825 81.1648 15.1491ZM96.8592 18.877V6.18036C97.2036 6.06737 97.7892 6.0109 98.6163 6.0109C98.9493 6.0109 99.2598 6.02702 99.547 6.05929C99.8455 6.08348 100.058 6.11174 100.184 6.14402L100.373 6.18036V7.31808C101.683 6.27718 103.463 5.75671 105.714 5.75671C107.448 5.75671 108.792 6.09965 109.746 6.78553C110.699 7.46329 111.175 8.37108 111.175 9.50881V18.877C110.785 18.99 110.199 19.0464 109.418 19.0464C109.062 19.0464 108.734 19.0343 108.436 19.0101C108.137 18.9779 107.931 18.9496 107.816 18.9254L107.644 18.877V9.94453C107.644 8.4921 106.553 7.7659 104.37 7.7659C103.59 7.7659 102.843 7.9071 102.131 8.18953C101.419 8.47192 100.833 8.85926 100.373 9.35145V18.877C99.9598 18.99 99.3741 19.0464 98.6163 19.0464C98.2486 19.0464 97.9156 19.0343 97.6171 19.0101C97.3299 18.9779 97.1351 18.9496 97.0314 18.9254L96.8592 18.877ZM121.615 2.29508C121.615 2.1095 121.638 1.92794 121.684 1.75042C121.742 1.56484 121.793 1.42363 121.839 1.3268L121.908 1.19366H138.808C138.992 1.50028 139.084 1.85935 139.084 2.27088C139.084 2.46453 139.061 2.65416 139.015 2.83974C138.969 3.02533 138.923 3.16251 138.877 3.25127L138.808 3.3844H132.244V18.877C131.82 18.99 131.217 19.0464 130.436 19.0464C130.057 19.0464 129.718 19.0343 129.42 19.0101C129.12 18.9779 128.914 18.9496 128.799 18.9254L128.644 18.877V3.3844H121.908C121.713 3.10199 121.615 2.73888 121.615 2.29508ZM138.274 15.1491C138.274 13.8177 138.843 12.8373 139.98 12.2079C141.117 11.5785 142.805 11.2639 145.045 11.2639C146.515 11.2639 147.859 11.3122 149.076 11.4091V10.4892C149.076 9.6097 148.795 8.948 148.232 8.50424C147.68 8.06044 146.75 7.83853 145.441 7.83853C144.706 7.83853 143.943 7.89099 143.15 7.99589C142.369 8.10074 141.766 8.20565 141.341 8.31055L140.704 8.4679L140.651 8.44371C140.629 8.41952 140.594 8.39934 140.548 8.38318C140.514 8.35899 140.468 8.32671 140.411 8.28636C140.353 8.23792 140.296 8.18953 140.239 8.1411C140.192 8.09271 140.135 8.03218 140.066 7.95955C140.009 7.87889 139.951 7.79818 139.894 7.71747C139.859 7.65292 139.825 7.58837 139.791 7.52382C139.767 7.45928 139.745 7.39874 139.721 7.34228C139.71 7.28581 139.699 7.22929 139.687 7.17282C139.676 7.10828 139.67 7.05582 139.67 7.01547C139.67 6.96708 139.67 6.92266 139.67 6.88236C139.67 6.842 139.67 6.80973 139.67 6.78553C139.681 6.75326 139.687 6.725 139.687 6.70081V6.67657C139.756 6.65237 139.853 6.6201 139.98 6.57974C140.118 6.53939 140.399 6.46681 140.824 6.3619C141.26 6.24892 141.703 6.1521 142.15 6.07139C142.61 5.99073 143.178 5.9181 143.856 5.85353C144.534 5.78898 145.2 5.75671 145.855 5.75671C148.335 5.75671 150.075 6.14402 151.074 6.91865C152.085 7.69328 152.59 8.91171 152.59 10.574V18.877C152.338 18.99 151.884 19.0464 151.23 19.0464C150.965 19.0464 150.712 19.0343 150.471 19.0101C150.242 18.9779 150.075 18.9496 149.972 18.9254L149.817 18.877L149.283 17.2914C148.364 18.6228 146.515 19.2885 143.736 19.2885C142.036 19.2885 140.698 18.9375 139.721 18.2355C138.757 17.5335 138.274 16.5047 138.274 15.1491ZM141.91 15.1491C141.91 16.6418 142.931 17.3883 144.976 17.3883C145.872 17.3883 146.635 17.2228 147.267 16.892C147.899 16.5531 148.358 16.1335 148.646 15.6332C148.933 15.1249 149.076 14.5681 149.076 13.9629V13.0915C147.457 12.9947 146.268 12.9462 145.51 12.9462C144.304 12.9462 143.403 13.1238 142.805 13.4788C142.208 13.8258 141.91 14.3825 141.91 15.1491ZM155.622 18.877L161.859 12.3774L156.001 6.18036C156.473 6.06737 157.121 6.0109 157.948 6.0109C158.327 6.0109 158.678 6.02702 158.999 6.05929C159.321 6.08348 159.551 6.11174 159.688 6.14402L159.895 6.18036L164.047 10.574L168.251 6.18036C168.652 6.06737 169.215 6.0109 169.938 6.0109C170.295 6.0109 170.628 6.02702 170.938 6.05929C171.248 6.08348 171.466 6.11174 171.592 6.14402L171.782 6.18036L165.925 12.2805L172.196 18.877C171.736 18.99 171.093 19.0464 170.266 19.0464C169.887 19.0464 169.537 19.0343 169.215 19.0101C168.893 18.9779 168.664 18.9496 168.526 18.9254L168.319 18.877L163.771 14.084L159.189 18.877C158.753 18.99 158.173 19.0464 157.449 19.0464C157.104 19.0464 156.777 19.0343 156.467 19.0101C156.168 18.9779 155.95 18.9496 155.812 18.9254L155.622 18.877ZM175.348 3.50544V1.16945C175.716 1.05648 176.324 1 177.174 1C177.53 1 177.858 1.01614 178.156 1.04841C178.466 1.07262 178.685 1.10086 178.811 1.13314L179 1.16945V3.50544C178.587 3.61841 177.979 3.67489 177.174 3.67489C176.795 3.67489 176.451 3.66279 176.14 3.63858C175.842 3.6063 175.635 3.57806 175.521 3.55386L175.348 3.50544ZM175.417 18.877V6.18036C175.761 6.06737 176.347 6.0109 177.174 6.0109C177.519 6.0109 177.835 6.02702 178.122 6.05929C178.42 6.08348 178.633 6.11174 178.759 6.14402L178.932 6.18036V18.877C178.541 18.99 177.955 19.0464 177.174 19.0464C176.806 19.0464 176.473 19.0343 176.175 19.0101C175.888 18.9779 175.693 18.9496 175.589 18.9254L175.417 18.877Z"/>
</mask>
<path d="M22.8838 12.45C22.8838 10.1906 23.5786 8.51227 24.9683 7.4149C26.358 6.30945 28.276 5.75671 30.7223 5.75671C32.9275 5.75671 34.6445 6.18437 35.8734 7.03966C37.1023 7.88692 37.7168 9.12152 37.7168 10.7434C37.7168 11.2033 37.6823 11.6471 37.6134 12.0748C37.556 12.5024 37.4928 12.8131 37.4239 13.0068L37.3205 13.2972H26.5188C26.6566 14.7174 27.1218 15.722 27.9143 16.311C28.7182 16.892 29.8897 17.1825 31.4287 17.1825C32.1637 17.1825 32.8758 17.122 33.5649 17.0009C34.2655 16.8799 34.7823 16.7629 35.1154 16.6499L35.5978 16.4684C36.3098 16.9122 36.6831 17.5053 36.7175 18.2476C36.6602 18.2718 36.5797 18.3081 36.4763 18.3565C36.373 18.405 36.1319 18.4897 35.7528 18.6107C35.3853 18.7317 34.9948 18.8366 34.5813 18.9254C34.1679 19.0142 33.6223 19.0949 32.9447 19.1675C32.2671 19.2482 31.5723 19.2885 30.8602 19.2885C25.5426 19.2885 22.8838 17.009 22.8838 12.45ZM26.5188 11.5301H34.0817C34.1506 11.1428 34.1851 10.7716 34.1851 10.4166C34.1851 9.60969 33.9152 8.9601 33.3754 8.4679C32.8356 7.96763 31.9513 7.71747 30.7223 7.71747C28.1727 7.71747 26.7715 8.98836 26.5188 11.5301ZM40.2664 21.794C40.2664 21.3501 40.3813 20.9306 40.611 20.5352C40.8407 20.1398 41.1393 19.7969 41.5068 19.5064C41.8744 19.224 42.2074 18.998 42.5061 18.8286C42.8046 18.6591 43.109 18.5098 43.4191 18.3807C42.9023 18.0176 42.6439 17.5375 42.6439 16.9404C42.6439 16.0367 43.2066 15.1208 44.3322 14.1929C42.1959 13.499 41.1278 12.1757 41.1278 10.2229C41.1278 8.8189 41.7193 7.72555 42.9023 6.94284C44.0967 6.1521 45.808 5.75671 48.0361 5.75671C49.6211 5.75671 50.9246 5.94631 51.9468 6.32557L56.8911 5.75671C57.0519 6.01492 57.1323 6.33766 57.1323 6.725C57.1323 7.11229 57.0519 7.44316 56.8911 7.71747L53.9624 7.62065C54.617 8.29037 54.9444 9.15781 54.9444 10.2229C54.9444 11.627 54.3529 12.7243 53.17 13.5151C51.9869 14.2978 50.2757 14.6891 48.0361 14.6891C47.5422 14.6891 47.0254 14.6609 46.4856 14.6044C46.0262 15.0401 45.7965 15.4718 45.7965 15.8995C45.7965 15.9479 45.8023 15.9964 45.8138 16.0447C45.8597 16.311 46.055 16.5329 46.3995 16.7105C46.744 16.8799 47.1805 16.9969 47.7088 17.0615C48.2371 17.126 48.8286 17.1946 49.4833 17.2672C50.1379 17.3398 50.804 17.4044 51.4816 17.4609C52.1593 17.5174 52.8196 17.6303 53.4628 17.7998C54.106 17.9612 54.6802 18.1629 55.1856 18.405C55.6909 18.639 56.0929 18.9779 56.3915 19.4216C56.7016 19.8654 56.8567 20.394 56.8567 21.0072C56.8567 22.2499 56.0469 23.2666 54.4276 24.0573C52.8082 24.8481 50.5973 25.2435 47.7949 25.2435C45.2567 25.2435 43.3674 24.9288 42.1271 24.2994C40.8866 23.6781 40.2664 22.8429 40.2664 21.794ZM43.6947 21.2977C43.6947 21.9513 44.0451 22.4798 44.7456 22.8833C45.4577 23.2867 46.5086 23.4885 47.8983 23.4885C49.6785 23.4885 51.0567 23.2827 52.0329 22.8711C53.0091 22.4677 53.4972 21.9271 53.4972 21.2493C53.4972 20.862 53.3193 20.5473 52.9632 20.3052C52.6186 20.0712 52.1305 19.8977 51.4989 19.7848C50.8787 19.6799 50.2413 19.5992 49.5866 19.5427C48.9319 19.4862 48.1911 19.4176 47.3642 19.3369C46.5373 19.2562 45.8539 19.1594 45.3142 19.0464C44.8432 19.3127 44.4528 19.6435 44.1427 20.039C43.844 20.4424 43.6947 20.862 43.6947 21.2977ZM45.4175 8.18953C44.7859 8.64137 44.47 9.31918 44.47 10.2229C44.47 11.1267 44.7859 11.8045 45.4175 12.2563C46.0607 12.7001 46.9336 12.922 48.0361 12.922C49.1387 12.922 50.0001 12.7001 50.6203 12.2563C51.2519 11.8045 51.5678 11.1267 51.5678 10.2229C51.5678 9.31918 51.2519 8.64137 50.6203 8.18953C50.0001 7.72961 49.1387 7.49963 48.0361 7.49963C46.9336 7.49963 46.0607 7.72961 45.4175 8.18953ZM59.7509 12.45C59.7509 10.1906 60.4457 8.51227 61.8354 7.4149C63.2251 6.30945 65.1431 5.75671 67.5894 5.75671C69.7946 5.75671 71.5116 6.18437 72.7405 7.03966C73.9694 7.88692 74.5838 9.12152 74.5838 10.7434C74.5838 11.2033 74.5494 11.6471 74.4805 12.0748C74.4231 12.5024 74.3599 12.8131 74.291 13.0068L74.1876 13.2972H63.3859C63.5237 14.7174 63.9889 15.722 64.7813 16.311C65.5853 16.892 66.7568 17.1825 68.2958 17.1825C69.0308 17.1825 69.7429 17.122 70.432 17.0009C71.1326 16.8799 71.6494 16.7629 71.9825 16.6499L72.4648 16.4684C73.1769 16.9122 73.5502 17.5053 73.5846 18.2476C73.5273 18.2718 73.4468 18.3081 73.3434 18.3565C73.2401 18.405 72.9989 18.4897 72.6199 18.6107C72.2524 18.7317 71.8619 18.8366 71.4484 18.9254C71.0349 19.0142 70.4894 19.0949 69.8118 19.1675C69.1342 19.2482 68.4394 19.2885 67.7273 19.2885C62.4096 19.2885 59.7509 17.009 59.7509 12.45ZM63.3859 11.5301H70.9488C71.0177 11.1428 71.0522 10.7716 71.0522 10.4166C71.0522 9.60969 70.7823 8.9601 70.2425 8.4679C69.7027 7.96763 68.8184 7.71747 67.5894 7.71747C65.0398 7.71747 63.6386 8.98836 63.3859 11.5301ZM77.5298 15.1491C77.5298 13.8177 78.0983 12.8373 79.2353 12.2079C80.3724 11.5785 82.0606 11.2639 84.3002 11.2639C85.7703 11.2639 87.1141 11.3122 88.3315 11.4091V10.4892C88.3315 9.6097 88.0501 8.948 87.4873 8.50424C86.936 8.06044 86.0058 7.83853 84.6965 7.83853C83.9614 7.83853 83.1977 7.89099 82.4052 7.99589C81.6242 8.10074 81.0213 8.20565 80.5963 8.31055L79.9588 8.4679L79.9072 8.44371C79.8842 8.41952 79.8498 8.39934 79.8038 8.38318C79.7694 8.35899 79.7234 8.32671 79.666 8.28636C79.6086 8.23792 79.5511 8.18953 79.4938 8.1411C79.4478 8.09271 79.3904 8.03218 79.3214 7.95955C79.264 7.87889 79.2066 7.79818 79.1492 7.71747C79.1147 7.65292 79.0802 7.58837 79.0458 7.52382C79.0228 7.45928 78.9999 7.39874 78.9769 7.34228C78.9654 7.28581 78.9539 7.22929 78.9424 7.17282C78.9309 7.10828 78.9252 7.05582 78.9252 7.01547C78.9252 6.96708 78.9252 6.92266 78.9252 6.88236C78.9252 6.842 78.9252 6.80973 78.9252 6.78553C78.9367 6.75326 78.9424 6.725 78.9424 6.70081V6.67657C79.0114 6.65237 79.109 6.6201 79.2353 6.57974C79.3732 6.53939 79.6545 6.46681 80.0794 6.3619C80.5159 6.24892 80.9581 6.1521 81.406 6.07139C81.8654 5.99073 82.4339 5.9181 83.1115 5.85353C83.7891 5.78898 84.4553 5.75671 85.1099 5.75671C87.5907 5.75671 89.3307 6.14402 90.3299 6.91865C91.3406 7.69328 91.8459 8.91171 91.8459 10.574V18.877C91.5933 18.99 91.1396 19.0464 90.4849 19.0464C90.2208 19.0464 89.9681 19.0343 89.7269 19.0101C89.4972 18.9779 89.3307 18.9496 89.2273 18.9254L89.0723 18.877L88.5382 17.2914C87.6194 18.6228 85.7703 19.2885 82.9909 19.2885C81.2912 19.2885 79.9531 18.9375 78.9769 18.2355C78.0121 17.5335 77.5298 16.5047 77.5298 15.1491ZM81.1648 15.1491C81.1648 16.6418 82.187 17.3883 84.2313 17.3883C85.1272 17.3883 85.8909 17.2228 86.5226 16.892C87.1543 16.5531 87.6137 16.1335 87.9008 15.6332C88.1879 15.1249 88.3315 14.5681 88.3315 13.9629V13.0915C86.7121 12.9947 85.5234 12.9462 84.7654 12.9462C83.5595 12.9462 82.6579 13.1238 82.0606 13.4788C81.4634 13.8258 81.1648 14.3825 81.1648 15.1491ZM96.8592 18.877V6.18036C97.2036 6.06737 97.7892 6.0109 98.6163 6.0109C98.9493 6.0109 99.2598 6.02702 99.547 6.05929C99.8455 6.08348 100.058 6.11174 100.184 6.14402L100.373 6.18036V7.31808C101.683 6.27718 103.463 5.75671 105.714 5.75671C107.448 5.75671 108.792 6.09965 109.746 6.78553C110.699 7.46329 111.175 8.37108 111.175 9.50881V18.877C110.785 18.99 110.199 19.0464 109.418 19.0464C109.062 19.0464 108.734 19.0343 108.436 19.0101C108.137 18.9779 107.931 18.9496 107.816 18.9254L107.644 18.877V9.94453C107.644 8.4921 106.553 7.7659 104.37 7.7659C103.59 7.7659 102.843 7.9071 102.131 8.18953C101.419 8.47192 100.833 8.85926 100.373 9.35145V18.877C99.9598 18.99 99.3741 19.0464 98.6163 19.0464C98.2486 19.0464 97.9156 19.0343 97.6171 19.0101C97.3299 18.9779 97.1351 18.9496 97.0314 18.9254L96.8592 18.877ZM121.615 2.29508C121.615 2.1095 121.638 1.92794 121.684 1.75042C121.742 1.56484 121.793 1.42363 121.839 1.3268L121.908 1.19366H138.808C138.992 1.50028 139.084 1.85935 139.084 2.27088C139.084 2.46453 139.061 2.65416 139.015 2.83974C138.969 3.02533 138.923 3.16251 138.877 3.25127L138.808 3.3844H132.244V18.877C131.82 18.99 131.217 19.0464 130.436 19.0464C130.057 19.0464 129.718 19.0343 129.42 19.0101C129.12 18.9779 128.914 18.9496 128.799 18.9254L128.644 18.877V3.3844H121.908C121.713 3.10199 121.615 2.73888 121.615 2.29508ZM138.274 15.1491C138.274 13.8177 138.843 12.8373 139.98 12.2079C141.117 11.5785 142.805 11.2639 145.045 11.2639C146.515 11.2639 147.859 11.3122 149.076 11.4091V10.4892C149.076 9.6097 148.795 8.948 148.232 8.50424C147.68 8.06044 146.75 7.83853 145.441 7.83853C144.706 7.83853 143.943 7.89099 143.15 7.99589C142.369 8.10074 141.766 8.20565 141.341 8.31055L140.704 8.4679L140.651 8.44371C140.629 8.41952 140.594 8.39934 140.548 8.38318C140.514 8.35899 140.468 8.32671 140.411 8.28636C140.353 8.23792 140.296 8.18953 140.239 8.1411C140.192 8.09271 140.135 8.03218 140.066 7.95955C140.009 7.87889 139.951 7.79818 139.894 7.71747C139.859 7.65292 139.825 7.58837 139.791 7.52382C139.767 7.45928 139.745 7.39874 139.721 7.34228C139.71 7.28581 139.699 7.22929 139.687 7.17282C139.676 7.10828 139.67 7.05582 139.67 7.01547C139.67 6.96708 139.67 6.92266 139.67 6.88236C139.67 6.842 139.67 6.80973 139.67 6.78553C139.681 6.75326 139.687 6.725 139.687 6.70081V6.67657C139.756 6.65237 139.853 6.6201 139.98 6.57974C140.118 6.53939 140.399 6.46681 140.824 6.3619C141.26 6.24892 141.703 6.1521 142.15 6.07139C142.61 5.99073 143.178 5.9181 143.856 5.85353C144.534 5.78898 145.2 5.75671 145.855 5.75671C148.335 5.75671 150.075 6.14402 151.074 6.91865C152.085 7.69328 152.59 8.91171 152.59 10.574V18.877C152.338 18.99 151.884 19.0464 151.23 19.0464C150.965 19.0464 150.712 19.0343 150.471 19.0101C150.242 18.9779 150.075 18.9496 149.972 18.9254L149.817 18.877L149.283 17.2914C148.364 18.6228 146.515 19.2885 143.736 19.2885C142.036 19.2885 140.698 18.9375 139.721 18.2355C138.757 17.5335 138.274 16.5047 138.274 15.1491ZM141.91 15.1491C141.91 16.6418 142.931 17.3883 144.976 17.3883C145.872 17.3883 146.635 17.2228 147.267 16.892C147.899 16.5531 148.358 16.1335 148.646 15.6332C148.933 15.1249 149.076 14.5681 149.076 13.9629V13.0915C147.457 12.9947 146.268 12.9462 145.51 12.9462C144.304 12.9462 143.403 13.1238 142.805 13.4788C142.208 13.8258 141.91 14.3825 141.91 15.1491ZM155.622 18.877L161.859 12.3774L156.001 6.18036C156.473 6.06737 157.121 6.0109 157.948 6.0109C158.327 6.0109 158.678 6.02702 158.999 6.05929C159.321 6.08348 159.551 6.11174 159.688 6.14402L159.895 6.18036L164.047 10.574L168.251 6.18036C168.652 6.06737 169.215 6.0109 169.938 6.0109C170.295 6.0109 170.628 6.02702 170.938 6.05929C171.248 6.08348 171.466 6.11174 171.592 6.14402L171.782 6.18036L165.925 12.2805L172.196 18.877C171.736 18.99 171.093 19.0464 170.266 19.0464C169.887 19.0464 169.537 19.0343 169.215 19.0101C168.893 18.9779 168.664 18.9496 168.526 18.9254L168.319 18.877L163.771 14.084L159.189 18.877C158.753 18.99 158.173 19.0464 157.449 19.0464C157.104 19.0464 156.777 19.0343 156.467 19.0101C156.168 18.9779 155.95 18.9496 155.812 18.9254L155.622 18.877ZM175.348 3.50544V1.16945C175.716 1.05648 176.324 1 177.174 1C177.53 1 177.858 1.01614 178.156 1.04841C178.466 1.07262 178.685 1.10086 178.811 1.13314L179 1.16945V3.50544C178.587 3.61841 177.979 3.67489 177.174 3.67489C176.795 3.67489 176.451 3.66279 176.14 3.63858C175.842 3.6063 175.635 3.57806 175.521 3.55386L175.348 3.50544ZM175.417 18.877V6.18036C175.761 6.06737 176.347 6.0109 177.174 6.0109C177.519 6.0109 177.835 6.02702 178.122 6.05929C178.42 6.08348 178.633 6.11174 178.759 6.14402L178.932 6.18036V18.877C178.541 18.99 177.955 19.0464 177.174 19.0464C176.806 19.0464 176.473 19.0343 176.175 19.0101C175.888 18.9779 175.693 18.9496 175.589 18.9254L175.417 18.877Z" fill="black"/>
<path d="M22.8838 12.45C22.8838 10.1906 23.5786 8.51227 24.9683 7.4149C26.358 6.30945 28.276 5.75671 30.7223 5.75671C32.9275 5.75671 34.6445 6.18437 35.8734 7.03966C37.1023 7.88692 37.7168 9.12152 37.7168 10.7434C37.7168 11.2033 37.6823 11.6471 37.6134 12.0748C37.556 12.5024 37.4928 12.8131 37.4239 13.0068L37.3205 13.2972H26.5188C26.6566 14.7174 27.1218 15.722 27.9143 16.311C28.7182 16.892 29.8897 17.1825 31.4287 17.1825C32.1637 17.1825 32.8758 17.122 33.5649 17.0009C34.2655 16.8799 34.7823 16.7629 35.1154 16.6499L35.5978 16.4684C36.3098 16.9122 36.6831 17.5053 36.7175 18.2476C36.6602 18.2718 36.5797 18.3081 36.4763 18.3565C36.373 18.405 36.1319 18.4897 35.7528 18.6107C35.3853 18.7317 34.9948 18.8366 34.5813 18.9254C34.1679 19.0142 33.6223 19.0949 32.9447 19.1675C32.2671 19.2482 31.5723 19.2885 30.8602 19.2885C25.5426 19.2885 22.8838 17.009 22.8838 12.45ZM26.5188 11.5301H34.0817C34.1506 11.1428 34.1851 10.7716 34.1851 10.4166C34.1851 9.60969 33.9152 8.9601 33.3754 8.4679C32.8356 7.96763 31.9513 7.71747 30.7223 7.71747C28.1727 7.71747 26.7715 8.98836 26.5188 11.5301ZM40.2664 21.794C40.2664 21.3501 40.3813 20.9306 40.611 20.5352C40.8407 20.1398 41.1393 19.7969 41.5068 19.5064C41.8744 19.224 42.2074 18.998 42.5061 18.8286C42.8046 18.6591 43.109 18.5098 43.4191 18.3807C42.9023 18.0176 42.6439 17.5375 42.6439 16.9404C42.6439 16.0367 43.2066 15.1208 44.3322 14.1929C42.1959 13.499 41.1278 12.1757 41.1278 10.2229C41.1278 8.8189 41.7193 7.72555 42.9023 6.94284C44.0967 6.1521 45.808 5.75671 48.0361 5.75671C49.6211 5.75671 50.9246 5.94631 51.9468 6.32557L56.8911 5.75671C57.0519 6.01492 57.1323 6.33766 57.1323 6.725C57.1323 7.11229 57.0519 7.44316 56.8911 7.71747L53.9624 7.62065C54.617 8.29037 54.9444 9.15781 54.9444 10.2229C54.9444 11.627 54.3529 12.7243 53.17 13.5151C51.9869 14.2978 50.2757 14.6891 48.0361 14.6891C47.5422 14.6891 47.0254 14.6609 46.4856 14.6044C46.0262 15.0401 45.7965 15.4718 45.7965 15.8995C45.7965 15.9479 45.8023 15.9964 45.8138 16.0447C45.8597 16.311 46.055 16.5329 46.3995 16.7105C46.744 16.8799 47.1805 16.9969 47.7088 17.0615C48.2371 17.126 48.8286 17.1946 49.4833 17.2672C50.1379 17.3398 50.804 17.4044 51.4816 17.4609C52.1593 17.5174 52.8196 17.6303 53.4628 17.7998C54.106 17.9612 54.6802 18.1629 55.1856 18.405C55.6909 18.639 56.0929 18.9779 56.3915 19.4216C56.7016 19.8654 56.8567 20.394 56.8567 21.0072C56.8567 22.2499 56.0469 23.2666 54.4276 24.0573C52.8082 24.8481 50.5973 25.2435 47.7949 25.2435C45.2567 25.2435 43.3674 24.9288 42.1271 24.2994C40.8866 23.6781 40.2664 22.8429 40.2664 21.794ZM43.6947 21.2977C43.6947 21.9513 44.0451 22.4798 44.7456 22.8833C45.4577 23.2867 46.5086 23.4885 47.8983 23.4885C49.6785 23.4885 51.0567 23.2827 52.0329 22.8711C53.0091 22.4677 53.4972 21.9271 53.4972 21.2493C53.4972 20.862 53.3193 20.5473 52.9632 20.3052C52.6186 20.0712 52.1305 19.8977 51.4989 19.7848C50.8787 19.6799 50.2413 19.5992 49.5866 19.5427C48.9319 19.4862 48.1911 19.4176 47.3642 19.3369C46.5373 19.2562 45.8539 19.1594 45.3142 19.0464C44.8432 19.3127 44.4528 19.6435 44.1427 20.039C43.844 20.4424 43.6947 20.862 43.6947 21.2977ZM45.4175 8.18953C44.7859 8.64137 44.47 9.31918 44.47 10.2229C44.47 11.1267 44.7859 11.8045 45.4175 12.2563C46.0607 12.7001 46.9336 12.922 48.0361 12.922C49.1387 12.922 50.0001 12.7001 50.6203 12.2563C51.2519 11.8045 51.5678 11.1267 51.5678 10.2229C51.5678 9.31918 51.2519 8.64137 50.6203 8.18953C50.0001 7.72961 49.1387 7.49963 48.0361 7.49963C46.9336 7.49963 46.0607 7.72961 45.4175 8.18953ZM59.7509 12.45C59.7509 10.1906 60.4457 8.51227 61.8354 7.4149C63.2251 6.30945 65.1431 5.75671 67.5894 5.75671C69.7946 5.75671 71.5116 6.18437 72.7405 7.03966C73.9694 7.88692 74.5838 9.12152 74.5838 10.7434C74.5838 11.2033 74.5494 11.6471 74.4805 12.0748C74.4231 12.5024 74.3599 12.8131 74.291 13.0068L74.1876 13.2972H63.3859C63.5237 14.7174 63.9889 15.722 64.7813 16.311C65.5853 16.892 66.7568 17.1825 68.2958 17.1825C69.0308 17.1825 69.7429 17.122 70.432 17.0009C71.1326 16.8799 71.6494 16.7629 71.9825 16.6499L72.4648 16.4684C73.1769 16.9122 73.5502 17.5053 73.5846 18.2476C73.5273 18.2718 73.4468 18.3081 73.3434 18.3565C73.2401 18.405 72.9989 18.4897 72.6199 18.6107C72.2524 18.7317 71.8619 18.8366 71.4484 18.9254C71.0349 19.0142 70.4894 19.0949 69.8118 19.1675C69.1342 19.2482 68.4394 19.2885 67.7273 19.2885C62.4096 19.2885 59.7509 17.009 59.7509 12.45ZM63.3859 11.5301H70.9488C71.0177 11.1428 71.0522 10.7716 71.0522 10.4166C71.0522 9.60969 70.7823 8.9601 70.2425 8.4679C69.7027 7.96763 68.8184 7.71747 67.5894 7.71747C65.0398 7.71747 63.6386 8.98836 63.3859 11.5301ZM77.5298 15.1491C77.5298 13.8177 78.0983 12.8373 79.2353 12.2079C80.3724 11.5785 82.0606 11.2639 84.3002 11.2639C85.7703 11.2639 87.1141 11.3122 88.3315 11.4091V10.4892C88.3315 9.6097 88.0501 8.948 87.4873 8.50424C86.936 8.06044 86.0058 7.83853 84.6965 7.83853C83.9614 7.83853 83.1977 7.89099 82.4052 7.99589C81.6242 8.10074 81.0213 8.20565 80.5963 8.31055L79.9588 8.4679L79.9072 8.44371C79.8842 8.41952 79.8498 8.39934 79.8038 8.38318C79.7694 8.35899 79.7234 8.32671 79.666 8.28636C79.6086 8.23792 79.5511 8.18953 79.4938 8.1411C79.4478 8.09271 79.3904 8.03218 79.3214 7.95955C79.264 7.87889 79.2066 7.79818 79.1492 7.71747C79.1147 7.65292 79.0802 7.58837 79.0458 7.52382C79.0228 7.45928 78.9999 7.39874 78.9769 7.34228C78.9654 7.28581 78.9539 7.22929 78.9424 7.17282C78.9309 7.10828 78.9252 7.05582 78.9252 7.01547C78.9252 6.96708 78.9252 6.92266 78.9252 6.88236C78.9252 6.842 78.9252 6.80973 78.9252 6.78553C78.9367 6.75326 78.9424 6.725 78.9424 6.70081V6.67657C79.0114 6.65237 79.109 6.6201 79.2353 6.57974C79.3732 6.53939 79.6545 6.46681 80.0794 6.3619C80.5159 6.24892 80.9581 6.1521 81.406 6.07139C81.8654 5.99073 82.4339 5.9181 83.1115 5.85353C83.7891 5.78898 84.4553 5.75671 85.1099 5.75671C87.5907 5.75671 89.3307 6.14402 90.3299 6.91865C91.3406 7.69328 91.8459 8.91171 91.8459 10.574V18.877C91.5933 18.99 91.1396 19.0464 90.4849 19.0464C90.2208 19.0464 89.9681 19.0343 89.7269 19.0101C89.4972 18.9779 89.3307 18.9496 89.2273 18.9254L89.0723 18.877L88.5382 17.2914C87.6194 18.6228 85.7703 19.2885 82.9909 19.2885C81.2912 19.2885 79.9531 18.9375 78.9769 18.2355C78.0121 17.5335 77.5298 16.5047 77.5298 15.1491ZM81.1648 15.1491C81.1648 16.6418 82.187 17.3883 84.2313 17.3883C85.1272 17.3883 85.8909 17.2228 86.5226 16.892C87.1543 16.5531 87.6137 16.1335 87.9008 15.6332C88.1879 15.1249 88.3315 14.5681 88.3315 13.9629V13.0915C86.7121 12.9947 85.5234 12.9462 84.7654 12.9462C83.5595 12.9462 82.6579 13.1238 82.0606 13.4788C81.4634 13.8258 81.1648 14.3825 81.1648 15.1491ZM96.8592 18.877V6.18036C97.2036 6.06737 97.7892 6.0109 98.6163 6.0109C98.9493 6.0109 99.2598 6.02702 99.547 6.05929C99.8455 6.08348 100.058 6.11174 100.184 6.14402L100.373 6.18036V7.31808C101.683 6.27718 103.463 5.75671 105.714 5.75671C107.448 5.75671 108.792 6.09965 109.746 6.78553C110.699 7.46329 111.175 8.37108 111.175 9.50881V18.877C110.785 18.99 110.199 19.0464 109.418 19.0464C109.062 19.0464 108.734 19.0343 108.436 19.0101C108.137 18.9779 107.931 18.9496 107.816 18.9254L107.644 18.877V9.94453C107.644 8.4921 106.553 7.7659 104.37 7.7659C103.59 7.7659 102.843 7.9071 102.131 8.18953C101.419 8.47192 100.833 8.85926 100.373 9.35145V18.877C99.9598 18.99 99.3741 19.0464 98.6163 19.0464C98.2486 19.0464 97.9156 19.0343 97.6171 19.0101C97.3299 18.9779 97.1351 18.9496 97.0314 18.9254L96.8592 18.877ZM121.615 2.29508C121.615 2.1095 121.638 1.92794 121.684 1.75042C121.742 1.56484 121.793 1.42363 121.839 1.3268L121.908 1.19366H138.808C138.992 1.50028 139.084 1.85935 139.084 2.27088C139.084 2.46453 139.061 2.65416 139.015 2.83974C138.969 3.02533 138.923 3.16251 138.877 3.25127L138.808 3.3844H132.244V18.877C131.82 18.99 131.217 19.0464 130.436 19.0464C130.057 19.0464 129.718 19.0343 129.42 19.0101C129.12 18.9779 128.914 18.9496 128.799 18.9254L128.644 18.877V3.3844H121.908C121.713 3.10199 121.615 2.73888 121.615 2.29508ZM138.274 15.1491C138.274 13.8177 138.843 12.8373 139.98 12.2079C141.117 11.5785 142.805 11.2639 145.045 11.2639C146.515 11.2639 147.859 11.3122 149.076 11.4091V10.4892C149.076 9.6097 148.795 8.948 148.232 8.50424C147.68 8.06044 146.75 7.83853 145.441 7.83853C144.706 7.83853 143.943 7.89099 143.15 7.99589C142.369 8.10074 141.766 8.20565 141.341 8.31055L140.704 8.4679L140.651 8.44371C140.629 8.41952 140.594 8.39934 140.548 8.38318C140.514 8.35899 140.468 8.32671 140.411 8.28636C140.353 8.23792 140.296 8.18953 140.239 8.1411C140.192 8.09271 140.135 8.03218 140.066 7.95955C140.009 7.87889 139.951 7.79818 139.894 7.71747C139.859 7.65292 139.825 7.58837 139.791 7.52382C139.767 7.45928 139.745 7.39874 139.721 7.34228C139.71 7.28581 139.699 7.22929 139.687 7.17282C139.676 7.10828 139.67 7.05582 139.67 7.01547C139.67 6.96708 139.67 6.92266 139.67 6.88236C139.67 6.842 139.67 6.80973 139.67 6.78553C139.681 6.75326 139.687 6.725 139.687 6.70081V6.67657C139.756 6.65237 139.853 6.6201 139.98 6.57974C140.118 6.53939 140.399 6.46681 140.824 6.3619C141.26 6.24892 141.703 6.1521 142.15 6.07139C142.61 5.99073 143.178 5.9181 143.856 5.85353C144.534 5.78898 145.2 5.75671 145.855 5.75671C148.335 5.75671 150.075 6.14402 151.074 6.91865C152.085 7.69328 152.59 8.91171 152.59 10.574V18.877C152.338 18.99 151.884 19.0464 151.23 19.0464C150.965 19.0464 150.712 19.0343 150.471 19.0101C150.242 18.9779 150.075 18.9496 149.972 18.9254L149.817 18.877L149.283 17.2914C148.364 18.6228 146.515 19.2885 143.736 19.2885C142.036 19.2885 140.698 18.9375 139.721 18.2355C138.757 17.5335 138.274 16.5047 138.274 15.1491ZM141.91 15.1491C141.91 16.6418 142.931 17.3883 144.976 17.3883C145.872 17.3883 146.635 17.2228 147.267 16.892C147.899 16.5531 148.358 16.1335 148.646 15.6332C148.933 15.1249 149.076 14.5681 149.076 13.9629V13.0915C147.457 12.9947 146.268 12.9462 145.51 12.9462C144.304 12.9462 143.403 13.1238 142.805 13.4788C142.208 13.8258 141.91 14.3825 141.91 15.1491ZM155.622 18.877L161.859 12.3774L156.001 6.18036C156.473 6.06737 157.121 6.0109 157.948 6.0109C158.327 6.0109 158.678 6.02702 158.999 6.05929C159.321 6.08348 159.551 6.11174 159.688 6.14402L159.895 6.18036L164.047 10.574L168.251 6.18036C168.652 6.06737 169.215 6.0109 169.938 6.0109C170.295 6.0109 170.628 6.02702 170.938 6.05929C171.248 6.08348 171.466 6.11174 171.592 6.14402L171.782 6.18036L165.925 12.2805L172.196 18.877C171.736 18.99 171.093 19.0464 170.266 19.0464C169.887 19.0464 169.537 19.0343 169.215 19.0101C168.893 18.9779 168.664 18.9496 168.526 18.9254L168.319 18.877L163.771 14.084L159.189 18.877C158.753 18.99 158.173 19.0464 157.449 19.0464C157.104 19.0464 156.777 19.0343 156.467 19.0101C156.168 18.9779 155.95 18.9496 155.812 18.9254L155.622 18.877ZM175.348 3.50544V1.16945C175.716 1.05648 176.324 1 177.174 1C177.53 1 177.858 1.01614 178.156 1.04841C178.466 1.07262 178.685 1.10086 178.811 1.13314L179 1.16945V3.50544C178.587 3.61841 177.979 3.67489 177.174 3.67489C176.795 3.67489 176.451 3.66279 176.14 3.63858C175.842 3.6063 175.635 3.57806 175.521 3.55386L175.348 3.50544ZM175.417 18.877V6.18036C175.761 6.06737 176.347 6.0109 177.174 6.0109C177.519 6.0109 177.835 6.02702 178.122 6.05929C178.42 6.08348 178.633 6.11174 178.759 6.14402L178.932 6.18036V18.877C178.541 18.99 177.955 19.0464 177.174 19.0464C176.806 19.0464 176.473 19.0343 176.175 19.0101C175.888 18.9779 175.693 18.9496 175.589 18.9254L175.417 18.877Z" stroke="black" stroke-width="0.6" mask="url(#path-1-outside-1_517_1523)"/>
<path d="M11.3262 0.935466L11.1908 0.651346L11.0554 0.935466L0.864592 22.3183L0.672445 22.7215L1.069 22.5161L11.1908 17.2721L21.3127 22.5161L21.7092 22.7215L21.5171 22.3183L11.3262 0.935466Z" fill="black" stroke="black" stroke-width="0.3"/>
</svg>
