<svg width="183" height="40" viewBox="0 0 183 40" fill="none" xmlns="http://www.w3.org/2000/svg">
<rect width="183" height="40" rx="20" fill="#006FE1"/>
<path d="M169.627 14.2159C169.627 13.6636 169.18 13.2159 168.627 13.2159L159.627 13.2159C159.075 13.2159 158.627 13.6636 158.627 14.2159C158.627 14.7681 159.075 15.2159 159.627 15.2159L167.627 15.2159L167.627 23.2159C167.627 23.7681 168.075 24.2159 168.627 24.2159C169.18 24.2159 169.627 23.7681 169.627 23.2159L169.627 14.2159ZM156.623 27.6344L169.335 14.923L167.92 13.5087L155.209 26.2201L156.623 27.6344Z" fill="white"/>
<path d="M55.9688 25V15.1357H60.0908C61.9639 15.1357 63.0918 16.0791 63.0918 17.5898V17.6035C63.0918 18.6357 62.3262 19.5518 61.335 19.709V19.832C62.6611 19.9551 63.5771 20.9121 63.5771 22.1904V22.2041C63.5771 23.9336 62.292 25 60.1865 25H55.9688ZM59.6602 16.5098H57.7324V19.292H59.4346C60.6855 19.292 61.3486 18.8066 61.3486 17.9111V17.8975C61.3486 17.0225 60.7266 16.5098 59.6602 16.5098ZM59.7148 20.543H57.7324V23.626H59.7832C61.082 23.626 61.7725 23.0859 61.7725 22.0811V22.0674C61.7725 21.0693 61.0615 20.543 59.7148 20.543ZM68.5469 25.1504C66.3047 25.1504 64.9512 23.6875 64.9512 21.2676V21.2539C64.9512 18.8545 66.3252 17.3848 68.5469 17.3848C70.7754 17.3848 72.1426 18.8477 72.1426 21.2539V21.2676C72.1426 23.6875 70.7822 25.1504 68.5469 25.1504ZM68.5469 23.7695C69.7295 23.7695 70.3994 22.8467 70.3994 21.2744V21.2607C70.3994 19.6885 69.7227 18.7588 68.5469 18.7588C67.3643 18.7588 66.6875 19.6885 66.6875 21.2607V21.2744C66.6875 22.8467 67.3643 23.7695 68.5469 23.7695ZM77.0781 25.1504C74.8359 25.1504 73.4824 23.6875 73.4824 21.2676V21.2539C73.4824 18.8545 74.8564 17.3848 77.0781 17.3848C79.3066 17.3848 80.6738 18.8477 80.6738 21.2539V21.2676C80.6738 23.6875 79.3135 25.1504 77.0781 25.1504ZM77.0781 23.7695C78.2607 23.7695 78.9307 22.8467 78.9307 21.2744V21.2607C78.9307 19.6885 78.2539 18.7588 77.0781 18.7588C75.8955 18.7588 75.2188 19.6885 75.2188 21.2607V21.2744C75.2188 22.8467 75.8955 23.7695 77.0781 23.7695ZM82.4512 25V14.6367H84.1533V20.5908H84.2695L87.0244 17.5283H88.9932L85.9854 20.6865L89.1982 25H87.1475L84.748 21.7666L84.1533 22.375V25H82.4512ZM98.666 25.2461C95.7744 25.2461 93.9971 23.2432 93.9971 20.0713V20.0576C93.9971 16.8789 95.8018 14.8896 98.666 14.8896C101.537 14.8896 103.328 16.8789 103.328 20.0576V20.0713C103.328 23.2432 101.544 25.2461 98.666 25.2461ZM98.666 23.7217C100.423 23.7217 101.53 22.2861 101.53 20.0713V20.0576C101.53 17.8291 100.416 16.4141 98.666 16.4141C96.916 16.4141 95.7949 17.8291 95.7949 20.0576V20.0713C95.7949 22.2861 96.8887 23.7217 98.666 23.7217ZM105.174 25V17.5283H106.876V18.6699H106.992C107.348 17.8701 108.065 17.3848 109.146 17.3848C110.813 17.3848 111.723 18.3896 111.723 20.167V25H110.021V20.5635C110.021 19.4014 109.549 18.8135 108.517 18.8135C107.505 18.8135 106.876 19.5244 106.876 20.6455V25H105.174ZM113.801 25V14.6367H115.503V25H113.801ZM118.531 16.2773C117.971 16.2773 117.513 15.833 117.513 15.2725C117.513 14.7188 117.971 14.2676 118.531 14.2676C119.085 14.2676 119.543 14.7188 119.543 15.2725C119.543 15.833 119.085 16.2773 118.531 16.2773ZM117.677 25V17.5283H119.379V25H117.677ZM121.471 25V17.5283H123.173V18.6699H123.289C123.645 17.8701 124.362 17.3848 125.442 17.3848C127.11 17.3848 128.02 18.3896 128.02 20.167V25H126.317V20.5635C126.317 19.4014 125.846 18.8135 124.813 18.8135C123.802 18.8135 123.173 19.5244 123.173 20.6455V25H121.471ZM133.229 25.1504C131.007 25.1504 129.66 23.6602 129.66 21.2812V21.2744C129.66 18.9229 131.021 17.3848 133.146 17.3848C135.272 17.3848 136.585 18.875 136.585 21.1309V21.6914H131.362C131.383 23.0312 132.107 23.8105 133.263 23.8105C134.186 23.8105 134.712 23.3457 134.876 23.0039L134.896 22.9561H136.517L136.496 23.0176C136.257 23.9814 135.259 25.1504 133.229 25.1504ZM133.167 18.7178C132.217 18.7178 131.506 19.3604 131.376 20.5498H134.924C134.808 19.3262 134.117 18.7178 133.167 18.7178Z" fill="white"/>
<ellipse cx="23" cy="20" rx="11" ry="10" fill="url(#paint0_radial_761_3930)"/>
<defs>
<radialGradient id="paint0_radial_761_3930" cx="0" cy="0" r="1" gradientUnits="userSpaceOnUse" gradientTransform="translate(23 20) rotate(90) scale(10 11)">
<stop offset="0.406102" stop-color="#00FF15"/>
<stop offset="0.811102" stop-color="#E2D116"/>
</radialGradient>
</defs>
</svg>
