<svg width="60" height="30" viewBox="0 0 60 30" fill="none" xmlns="http://www.w3.org/2000/svg">
<path d="M21.4677 9.08228H14.3704C13.8101 9.08228 13.4365 9.45582 13.4365 10.0161C13.4365 10.5764 13.8101 10.95 14.3704 10.95H16.9852V17.5803C16.9852 18.1406 17.3587 18.5142 17.919 18.5142C18.4793 18.5142 18.8529 18.1406 18.8529 17.5803V10.95H21.4677C22.028 10.95 22.4015 10.5764 22.4015 10.0161C22.4015 9.45582 22.028 9.08228 21.4677 9.08228Z" fill="white"/>
<path d="M45.3743 9.08228C44.814 9.08228 44.4404 9.45582 44.4404 10.0161V17.5803C44.4404 18.1406 44.814 18.5142 45.3743 18.5142C45.9346 18.5142 46.3081 18.1406 46.3081 17.5803V10.0161C46.3081 9.5492 45.8412 9.08228 45.3743 9.08228Z" fill="white"/>
<path d="M38.7441 13.8438L41.4523 10.6687C41.8258 10.2952 41.7324 9.64149 41.3589 9.36133C40.9853 8.98779 40.3317 9.08118 40.0515 9.45472L37.6235 12.3497L35.1955 9.45472C34.8219 9.08118 34.2616 8.98779 33.8881 9.36133C33.5145 9.73487 33.4211 10.2952 33.7947 10.6687L36.5029 13.8438L33.6079 17.0189C33.2344 17.3925 33.3278 18.0462 33.7013 18.3263C34.0748 18.6999 34.7285 18.6065 35.0087 18.2329L37.4367 15.338L39.8647 18.2329C40.2383 18.6065 40.7986 18.6999 41.1721 18.3263C41.5457 17.9528 41.639 17.3925 41.2655 17.0189L38.7441 13.8438Z" fill="white"/>
<path d="M27.538 9.73585C27.2578 8.98877 26.1372 8.98877 25.7636 9.73585L23.6158 15.0588L22.6819 17.2067C22.4952 17.6736 22.6819 18.2339 23.1488 18.4207C23.6158 18.6074 24.1761 18.4207 24.3629 17.9537L25.0166 16.3662H28.1917L28.8453 17.9537C29.0321 18.4207 29.5924 18.7008 30.0594 18.4207C30.5263 18.2339 30.8064 17.6736 30.5263 17.2067L27.538 9.73585ZM25.857 14.4985L26.6975 12.5374L27.538 14.4985H25.857Z" fill="white"/>
<path d="M59.6627 28.6926L58.0752 24.9572C57.795 24.3035 57.1413 23.8366 56.3942 23.8366H55.1802L52.0985 7.21401C51.5382 4.22568 49.2036 1.89105 46.2152 1.33074C35.5693 -0.44358 24.5499 -0.44358 13.5304 1.33074C10.5421 1.79767 8.11407 4.1323 7.55376 7.21401L4.56543 23.8366H3.35142C2.60434 23.8366 1.95065 24.3035 1.67049 24.9572L0.0829426 28.6926C-0.197213 29.3463 0.269713 30 0.923409 30H58.8222C59.4759 30 59.9429 29.2529 59.6627 28.6926ZM9.42146 7.49416C9.795 5.25292 11.5693 3.4786 13.8106 3.10506C24.6433 1.33074 35.4759 1.33074 45.9351 3.10506C48.1763 3.4786 49.9506 5.25292 50.3242 7.49416L53.3125 23.8366H6.43314L9.42146 7.49416ZM2.32419 28.1323L3.35142 25.7043H56.3942L57.4215 28.1323H2.32419Z" fill="white"/>
</svg>
