<svg width="359" height="178" viewBox="0 0 359 178" fill="none" xmlns="http://www.w3.org/2000/svg">
<path d="M195.049 152.97H178.063L176.562 150.32H193.547L195.049 152.97Z" fill="#E0E0E0"/>
<path d="M197.088 156.742H180.103L178.602 154.092H195.587L197.088 156.742Z" fill="#E0E0E0"/>
<path d="M199.129 160.514H182.144L180.643 157.864H197.628L199.129 160.514Z" fill="#E0E0E0"/>
<path d="M201.166 164.286H184.181L182.68 161.636H199.665L201.166 164.286Z" fill="#E0E0E0"/>
<path d="M203.206 168.058H186.221L184.72 165.408H201.705L203.206 168.058Z" fill="#E0E0E0"/>
<path d="M205.246 171.83H188.261L186.76 169.18H203.745L205.246 171.83Z" fill="#E0E0E0"/>
<path d="M177.014 132.813H56.9413L47.8447 109.914H177.014V132.813Z" fill="#E0E0E0"/>
<path d="M99.7567 130.498H56.066L50.1855 115.686H99.7567V130.498Z" fill="#FAFAFA"/>
<path d="M65.3633 115.042C65.3633 120.421 65.3633 125.8 65.3633 131.179" stroke="#E0E0E0" stroke-width="0.5" stroke-miterlimit="10"/>
<path d="M57.2725 115.042C57.2725 120.421 57.2725 125.8 57.2725 131.179" stroke="#E0E0E0" stroke-width="0.5" stroke-miterlimit="10"/>
<path d="M53.2686 123.11C64.4971 123.11 82.9583 123.11 94.1869 123.11" stroke="#E0E0E0" stroke-width="0.5" stroke-miterlimit="10"/>
<path d="M73.4375 115.042C73.4375 120.421 73.4375 125.8 73.4375 131.179" stroke="#E0E0E0" stroke-width="0.5" stroke-miterlimit="10"/>
<path d="M81.5117 115.042C81.5117 120.421 81.5117 125.8 81.5117 131.179" stroke="#E0E0E0" stroke-width="0.5" stroke-miterlimit="10"/>
<path d="M89.123 115.042C89.123 120.421 89.123 125.8 89.123 131.179" stroke="#E0E0E0" stroke-width="0.5" stroke-miterlimit="10"/>
<path d="M184.155 132.813H304.228L313.325 109.914H184.155V132.813Z" fill="#E0E0E0"/>
<path d="M261.411 130.498H305.102L310.982 115.686H261.411V130.498Z" fill="#FAFAFA"/>
<path d="M295.802 115.042C295.802 120.421 295.802 125.8 295.802 131.179" stroke="#E0E0E0" stroke-width="0.5" stroke-miterlimit="10"/>
<path d="M303.894 115.042C303.894 120.421 303.894 125.8 303.894 131.179" stroke="#E0E0E0" stroke-width="0.5" stroke-miterlimit="10"/>
<path d="M307.899 123.11C296.67 123.11 278.209 123.11 266.98 123.11" stroke="#E0E0E0" stroke-width="0.5" stroke-miterlimit="10"/>
<path d="M287.729 115.042C287.729 120.421 287.729 125.8 287.729 131.179" stroke="#E0E0E0" stroke-width="0.5" stroke-miterlimit="10"/>
<path d="M279.654 115.042C279.654 120.421 279.654 125.8 279.654 131.179" stroke="#E0E0E0" stroke-width="0.5" stroke-miterlimit="10"/>
<path d="M272.043 115.042C272.043 120.421 272.043 125.8 272.043 131.179" stroke="#E0E0E0" stroke-width="0.5" stroke-miterlimit="10"/>
<path d="M294.31 61.0528C293.303 60.2922 291.834 60.2061 290.746 60.8436C289.301 57.9238 285.275 56.6352 282.403 58.1736C281.654 55.0274 278.554 52.6091 275.32 52.6479C272.087 52.6867 269.046 55.1791 268.373 58.3426C268.265 58.8452 268.195 59.3962 267.835 59.7633C267.251 60.3597 266.276 60.1596 265.443 60.0945C262.824 59.8901 260.189 61.7292 259.477 64.2575L295.544 64.1263C295.86 62.9053 295.316 61.8134 294.31 61.0528Z" fill="#F0F0F0"/>
<path d="M178.773 73.419C177.767 72.6584 176.298 72.5723 175.21 73.2099C173.765 70.29 169.739 69.0014 166.867 70.5399C166.118 67.3936 163.018 64.9754 159.784 65.0141C156.55 65.0529 153.509 67.5453 152.836 70.7088C152.729 71.2114 152.658 71.7624 152.299 72.1295C151.715 72.7259 150.739 72.5258 149.907 72.4607C147.288 72.2564 144.653 74.0954 143.94 76.6237L180.008 76.4926C180.323 75.2715 179.78 74.1796 178.773 73.419Z" fill="#F0F0F0"/>
<path d="M301.39 26.9093C300.752 26.4273 299.821 26.3728 299.131 26.7768C298.214 24.9253 295.661 24.1082 293.84 25.0837C293.365 23.0886 291.4 21.5555 289.349 21.5799C287.298 21.6043 285.37 23.1848 284.943 25.1909C284.875 25.5097 284.83 25.8592 284.603 26.0918C284.232 26.4699 283.614 26.3431 283.086 26.3019C281.426 26.1722 279.755 27.3382 279.303 28.9418L302.173 28.8585C302.374 28.084 302.029 27.3914 301.39 26.9093Z" fill="#F0F0F0"/>
<path d="M236.787 36.9394C235.835 36.2205 234.446 36.1386 233.417 36.7417C232.051 33.9808 228.243 32.7621 225.527 34.2168C224.819 31.2414 221.888 28.9548 218.829 28.9912C215.771 29.028 212.895 31.3845 212.259 34.3762C212.158 34.8515 212.091 35.3723 211.751 35.7198C211.199 36.2841 210.276 36.0946 209.489 36.0333C207.013 35.8399 204.521 37.5789 203.847 39.9703L237.954 39.8464C238.253 38.6913 237.739 37.6584 236.787 36.9394Z" fill="#E6E6E6"/>
<path d="M71.4085 36.1474C70.7925 35.6817 69.8931 35.629 69.2268 36.0196C68.3422 34.2318 65.8771 33.443 64.1189 34.385C63.6604 32.4588 61.7625 30.9778 59.7822 31.0018C57.802 31.0257 55.9404 32.5512 55.5283 34.4884C55.4627 34.7961 55.4196 35.1336 55.1995 35.3581C54.8419 35.7233 54.2445 35.6008 53.7352 35.5611C52.1317 35.4361 50.5181 36.5619 50.082 38.11L72.1648 38.0295C72.3577 37.2819 72.0251 36.6132 71.4085 36.1474Z" fill="#E6E6E6"/>
<path d="M107.126 91.8442C106.661 91.4933 105.983 91.4536 105.481 91.7475C104.814 90.4 102.956 89.805 101.63 90.5149C101.285 89.0626 99.8534 87.9464 98.3609 87.9646C96.868 87.9823 95.4645 89.133 95.1539 90.5929C95.1046 90.8251 95.0715 91.0793 94.9059 91.2487C94.6364 91.5239 94.186 91.4316 93.8021 91.4019C92.5935 91.3076 91.3767 92.1563 91.0479 93.3233L107.696 93.2625C107.841 92.6991 107.59 92.195 107.126 91.8442Z" fill="#E6E6E6"/>
<path d="M312.903 94.5234C312.438 94.1725 311.761 94.1328 311.258 94.4267C310.592 93.0788 308.733 92.4842 307.408 93.1941C307.062 91.7418 305.631 90.6256 304.138 90.6438C302.645 90.6615 301.242 91.8122 300.931 93.2721C300.882 93.5043 300.849 93.7585 300.683 93.9279C300.414 94.2031 299.963 94.1108 299.579 94.0811C298.37 93.9868 297.154 94.8355 296.825 96.0024L313.473 95.9417C313.618 95.3783 313.367 94.8742 312.903 94.5234Z" fill="#E6E6E6"/>
<path d="M221.469 80.8178C221.004 80.4669 220.326 80.4272 219.824 80.7211C219.157 79.3732 217.298 78.7787 215.973 79.4885C215.627 78.0362 214.196 76.92 212.704 76.9377C211.211 76.9559 209.807 78.1061 209.497 79.5661C209.447 79.7982 209.415 80.0524 209.249 80.2218C208.979 80.4971 208.529 80.4047 208.145 80.375C206.936 80.2807 205.719 81.1294 205.391 82.2964L222.039 82.2356C222.184 81.6732 221.933 81.1691 221.469 80.8178Z" fill="#E6E6E6"/>
<path d="M143.413 26.5796C142.903 26.1938 142.157 26.1502 141.605 26.4733C140.872 24.9919 138.829 24.338 137.371 25.1182C136.991 23.5214 135.418 22.2946 133.777 22.3142C132.136 22.3338 130.593 23.5985 130.251 25.2039C130.197 25.459 130.161 25.7386 129.978 25.9248C129.682 26.2278 129.187 26.1258 128.764 26.0928C127.435 25.9894 126.098 26.9223 125.736 28.2056L144.04 28.1391C144.2 27.5197 143.924 26.9654 143.413 26.5796Z" fill="#F0F0F0"/>
<path d="M322.488 131.815H235.971C234.424 131.815 233.165 130.556 233.165 129.009V2.98905C233.165 1.442 234.424 0.183105 235.971 0.183105H322.488C324.035 0.183105 325.294 1.44152 325.294 2.98905V129.009C325.294 130.557 324.035 131.815 322.488 131.815ZM235.971 0.302772C234.49 0.302772 233.285 1.50806 233.285 2.98905V129.009C233.285 130.491 234.49 131.695 235.971 131.695H322.488C323.97 131.695 325.174 130.491 325.174 129.009V2.98905C325.174 1.50806 323.969 0.302772 322.488 0.302772H235.971Z" fill="#E0E0E0"/>
<path d="M222.72 131.815H136.203C134.656 131.815 133.397 130.556 133.397 129.009V2.98905C133.397 1.442 134.656 0.183105 136.203 0.183105H222.721C224.268 0.183105 225.527 1.44152 225.527 2.98905V129.009C225.526 130.557 224.268 131.815 222.72 131.815ZM136.203 0.302772C134.722 0.302772 133.517 1.50806 133.517 2.98905V129.009C133.517 130.491 134.722 131.695 136.203 131.695H222.721C224.202 131.695 225.407 130.491 225.407 129.009V2.98905C225.407 1.50806 224.202 0.302772 222.721 0.302772H136.203Z" fill="#E0E0E0"/>
<path d="M123.017 131.815H36.5003C34.9532 131.815 33.6943 130.556 33.6943 129.009V2.98905C33.6943 1.442 34.9528 0.183105 36.5003 0.183105H123.017C124.564 0.183105 125.823 1.44152 125.823 2.98905V129.009C125.824 130.557 124.565 131.815 123.017 131.815ZM36.5003 0.302772C35.0193 0.302772 33.814 1.50806 33.814 2.98905V129.009C33.814 130.491 35.0193 131.695 36.5003 131.695H123.017C124.499 131.695 125.704 130.491 125.704 129.009V2.98905C125.704 1.50806 124.498 0.302772 123.017 0.302772H36.5003Z" fill="#E0E0E0"/>
<path d="M359 161.047H0V161.104H359V161.047Z" fill="#E0E0E0"/>
<path d="M339.543 175.108H312.867V175.309H339.543V175.108Z" fill="#EBEBEB"/>
<path d="M243.963 177.293H236.962V177.494H243.963V177.293Z" fill="#EBEBEB"/>
<path d="M54.2417 168.982H19.4551V169.183H54.2417V168.982Z" fill="#EBEBEB"/>
<path d="M66.5138 168.982H61.4131V169.183H66.5138V168.982Z" fill="#EBEBEB"/>
<path d="M158.534 172.383H83.0898V172.584H158.534V172.383Z" fill="#EBEBEB"/>
<path d="M130.223 57.193C130.223 57.193 132.751 56.5842 134.22 55.1884C135.319 54.1435 135.073 52.3106 133.757 51.5577C132.084 50.6004 128.988 49.3013 124.702 49.4765C118.008 49.7503 79.554 58.5817 79.554 58.5817L62.2617 62.7887L63.2535 65.1863C63.2535 65.1863 90.896 64.3774 98.9697 63.6747C107.043 62.972 130.223 57.193 130.223 57.193Z" fill="#EBEBEB"/>
<path d="M74.763 59.7468L63.2769 52.348C61.8381 51.4213 60.0943 51.0944 58.4175 51.4367L55.4043 52.0522L62.3249 62.9381L74.763 59.7468Z" fill="#E0E0E0"/>
<path d="M69.2636 63.7151L63.2472 65.1861L55.9863 64.6045C55.9863 64.6045 57.4367 63.4849 59.9061 63.549C60.3092 63.5591 68.7658 63.7276 69.2636 63.7151Z" fill="#E0E0E0"/>
<path opacity="0.6" d="M133.146 51.2281L127.522 52.3946C127.399 52.42 127.274 52.3807 127.187 52.2912L126.752 51.8403C126.554 51.6345 126.661 51.2908 126.94 51.2338L131.129 50.3794C131.804 50.5962 132.49 50.8983 133.146 51.2266C133.146 51.2281 133.146 51.2271 133.146 51.2281Z" fill="white"/>
<path opacity="0.6" d="M125.283 52.6021C125.374 52.694 125.327 52.8496 125.2 52.8759L77.3041 62.8092C77.093 62.8532 76.8742 62.7853 76.7244 62.6302C76.3812 62.2741 76.5645 61.6796 77.0489 61.579L124.32 51.7755C124.397 51.7592 124.477 51.7836 124.532 51.8396L125.283 52.6021Z" fill="white"/>
<path d="M111.928 59.7652C111.928 59.7652 111.338 60.5086 105.721 61.8804C100.104 63.2523 94.0393 63.4237 90.3871 63.5084C86.7348 63.5931 78.2232 63.4442 77.5665 62.9081C76.9097 62.3715 90.7556 58.8275 101.611 58.8007C111.381 58.7768 112.208 58.7241 111.928 59.7652Z" fill="#E0E0E0"/>
<path d="M98.4729 60.8013L99.3623 65.0906C99.3623 65.0906 95.0835 66.248 93.3033 65.2964C92.0856 64.6454 92.1455 62.9146 94.0405 62.0511C96.4602 60.9487 98.4729 60.8013 98.4729 60.8013Z" fill="#E6E6E6"/>
<path d="M107.272 59.0815L108.161 63.3709C108.161 63.3709 103.882 64.5283 102.102 63.5767C100.884 62.9257 100.944 61.1949 102.839 60.3309C105.259 59.229 107.272 59.0815 107.272 59.0815Z" fill="#E6E6E6"/>
<path d="M106.683 59.1572L107.586 63.5121L107.037 63.627L106.151 59.2539C106.339 59.2147 106.519 59.1812 106.683 59.1572Z" fill="white"/>
<path d="M97.8204 60.8818L98.7236 65.2367L98.1746 65.3516L97.2891 60.9785C97.4772 60.9393 97.6562 60.9058 97.8204 60.8818Z" fill="white"/>
<path d="M61.2005 57.6673C61.447 58.8568 62.6116 59.6212 63.8016 59.3747C64.9911 59.1277 65.7555 57.9636 65.509 56.7736C65.262 55.5841 64.0979 54.8197 62.9079 55.0662C61.7184 55.3132 60.954 56.4773 61.2005 57.6673Z" fill="#EBEBEB"/>
<path d="M198.659 100.759H160.345H83.8936L96.5155 132.828H163.391H195.613H262.488L275.11 100.759H198.659Z" fill="#407BFF"/>
<path d="M171.781 19.7452C171.781 16.8618 171.781 13.9778 171.781 11.0943C171.781 10.8631 171.422 10.8631 171.422 11.0943C171.422 13.9778 171.422 16.8618 171.422 19.7452C171.422 19.9764 171.781 19.9764 171.781 19.7452Z" fill="#263238"/>
<g opacity="0.3">
<path d="M171.781 19.7452C171.781 16.8618 171.781 13.9778 171.781 11.0943C171.781 10.8631 171.422 10.8631 171.422 11.0943C171.422 13.9778 171.422 16.8618 171.422 19.7452C171.422 19.9764 171.781 19.9764 171.781 19.7452Z" fill="white"/>
</g>
<path d="M178.677 0.000488281H177.188V19.7244H178.677V0.000488281Z" fill="#407BFF"/>
<path d="M174.467 10.2931C174.467 7.4096 174.467 4.52564 174.467 1.64215C174.467 1.41095 174.108 1.41095 174.108 1.64215C174.108 4.52564 174.108 7.4096 174.108 10.2931C174.108 10.5243 174.467 10.5243 174.467 10.2931Z" fill="#263238"/>
<g opacity="0.3">
<path d="M174.467 10.2931C174.467 7.4096 174.467 4.52564 174.467 1.64215C174.467 1.41095 174.108 1.41095 174.108 1.64215C174.108 4.52564 174.108 7.4096 174.108 10.2931C174.108 10.5243 174.467 10.5243 174.467 10.2931Z" fill="white"/>
</g>
<path d="M183.615 15.5H181.883V20.1493H183.615V15.5Z" fill="#263238"/>
<path d="M168.505 34.5553L164.037 23.1606H192.9L188.543 34.5553H168.505Z" fill="#407BFF"/>
<path d="M164.037 23.1605L169.181 19.7241H187.962L192.9 23.1605H164.037Z" fill="#407BFF"/>
<path d="M187.416 34.0688H169.401V129.927H187.416V34.0688Z" fill="#407BFF"/>
<path opacity="0.6" d="M158.093 130.107H95.4439L85.5059 104.761H158.093V130.107Z" fill="white"/>
<path opacity="0.6" d="M106.72 130.17L120.482 104.761H138.058L123.553 130.17H106.72Z" fill="white"/>
<path opacity="0.6" d="M128.969 130.17L143.758 104.761H150.186L134.655 130.17H128.969Z" fill="white"/>
<path d="M182.907 15.652C182.907 12.7685 182.907 9.88452 182.907 7.00103C182.907 6.76984 182.548 6.76984 182.548 7.00103C182.548 9.885 182.548 12.7685 182.548 15.652C182.548 15.8832 182.907 15.8837 182.907 15.652Z" fill="#263238"/>
<path d="M175.18 10.1406H173.447V19.724H175.18V10.1406Z" fill="#263238"/>
<mask id="mask0_761_4093" style="mask-type:luminance" maskUnits="userSpaceOnUse" x="177" y="0" width="2" height="20">
<path d="M178.673 0H177.184V19.7239H178.673V0Z" fill="white"/>
</mask>
<g mask="url(#mask0_761_4093)">
<path opacity="0.3" d="M178.674 1.64209L177.185 3.80854V7.29179L178.674 5.0277V1.64209Z" fill="white"/>
</g>
<mask id="mask1_761_4093" style="mask-type:luminance" maskUnits="userSpaceOnUse" x="177" y="0" width="2" height="20">
<path d="M178.673 0H177.184V19.7239H178.673V0Z" fill="white"/>
</mask>
<g mask="url(#mask1_761_4093)">
<path opacity="0.3" d="M178.674 8.69189L177.185 10.8588V14.3421L178.674 12.078V8.69189Z" fill="white"/>
</g>
<mask id="mask2_761_4093" style="mask-type:luminance" maskUnits="userSpaceOnUse" x="177" y="0" width="2" height="20">
<path d="M178.673 0H177.184V19.7239H178.673V0Z" fill="white"/>
</mask>
<g mask="url(#mask2_761_4093)">
<path opacity="0.3" d="M178.674 15.7422L177.185 17.9086V21.3919L178.674 19.1278V15.7422Z" fill="white"/>
</g>
<path opacity="0.3" d="M175.18 10.1406H173.447V19.724H175.18V10.1406Z" fill="white"/>
<path opacity="0.6" d="M164.861 25.2603L167.696 32.491H189.334L192.098 25.2603H164.861Z" fill="white"/>
<path opacity="0.3" d="M164.037 23.1605L169.181 19.7241H187.962L192.9 23.1605H164.037Z" fill="white"/>
<path d="M168.771 25.2603V32.491" stroke="#407BFF" stroke-width="0.25" stroke-miterlimit="10"/>
<path d="M166.772 30.5029H190.096" stroke="#407BFF" stroke-width="0.25" stroke-miterlimit="10"/>
<path d="M165.626 27.3789H191.291" stroke="#407BFF" stroke-width="0.25" stroke-miterlimit="10"/>
<path d="M172.823 25.2603V32.491" stroke="#407BFF" stroke-width="0.25" stroke-miterlimit="10"/>
<path d="M176.876 25.2603V32.491" stroke="#407BFF" stroke-width="0.25" stroke-miterlimit="10"/>
<path d="M180.925 25.2603V32.491" stroke="#407BFF" stroke-width="0.25" stroke-miterlimit="10"/>
<path d="M184.978 25.2603V32.491" stroke="#407BFF" stroke-width="0.25" stroke-miterlimit="10"/>
<path d="M189.031 25.2603V32.491" stroke="#407BFF" stroke-width="0.25" stroke-miterlimit="10"/>
<path opacity="0.3" d="M165.21 26.1544H191.758L192.098 25.2603H164.861L165.21 26.1544Z" fill="black"/>
<path opacity="0.6" d="M167.697 32.491L173.449 25.2603H176.876L170.979 32.491H167.697Z" fill="white"/>
<path opacity="0.6" d="M172.034 32.491L177.786 25.2603H179.039L173.143 32.491H172.034Z" fill="white"/>
<path opacity="0.6" d="M174.364 77.2732L177.86 70.8184H182.324L178.64 77.2732H174.364Z" fill="white"/>
<path opacity="0.6" d="M180.016 77.2732L183.772 70.8184H185.405L181.46 77.2732H180.016Z" fill="white"/>
<path opacity="0.6" d="M187.414 70.8184H172.772V77.2564H187.414V70.8184Z" fill="white"/>
<path d="M175.573 70.5386C175.573 72.8764 175.573 75.2147 175.573 77.5525" stroke="#407BFF" stroke-width="0.25" stroke-miterlimit="10"/>
<path d="M172.772 74.0454C177.653 74.0454 182.534 74.0454 187.414 74.0454" stroke="#407BFF" stroke-width="0.25" stroke-miterlimit="10"/>
<path d="M179.083 70.5386C179.083 72.8764 179.083 75.2147 179.083 77.5525" stroke="#407BFF" stroke-width="0.25" stroke-miterlimit="10"/>
<path d="M182.593 70.5386C182.593 72.8764 182.593 75.2147 182.593 77.5525" stroke="#407BFF" stroke-width="0.25" stroke-miterlimit="10"/>
<path d="M185.902 70.5386C185.902 72.8764 185.902 75.2147 185.902 77.5525" stroke="#407BFF" stroke-width="0.25" stroke-miterlimit="10"/>
<path opacity="0.3" d="M172.772 70.8184V71.6067H187.414V70.8184H172.886" fill="black"/>
<path opacity="0.6" d="M174.364 67.4275L177.86 60.9731H182.324L178.64 67.4275H174.364Z" fill="white"/>
<path opacity="0.6" d="M180.016 67.4275L183.772 60.9731H185.405L181.46 67.4275H180.016Z" fill="white"/>
<path opacity="0.6" d="M187.414 60.9731H172.772V67.4112H187.414V60.9731Z" fill="white"/>
<path d="M175.573 60.6934C175.573 63.0312 175.573 65.3695 175.573 67.7073" stroke="#407BFF" stroke-width="0.25" stroke-miterlimit="10"/>
<path d="M172.772 64.2002C177.653 64.2002 182.534 64.2002 187.414 64.2002" stroke="#407BFF" stroke-width="0.25" stroke-miterlimit="10"/>
<path d="M179.083 60.6934C179.083 63.0312 179.083 65.3695 179.083 67.7073" stroke="#407BFF" stroke-width="0.25" stroke-miterlimit="10"/>
<path d="M182.593 60.6934C182.593 63.0312 182.593 65.3695 182.593 67.7073" stroke="#407BFF" stroke-width="0.25" stroke-miterlimit="10"/>
<path d="M185.902 60.6934C185.902 63.0312 185.902 65.3695 185.902 67.7073" stroke="#407BFF" stroke-width="0.25" stroke-miterlimit="10"/>
<path opacity="0.3" d="M172.772 60.9731V61.7615H187.414V60.9731H172.886" fill="black"/>
<path opacity="0.6" d="M174.364 57.5823L177.86 51.1279H182.324L178.64 57.5823H174.364Z" fill="white"/>
<path opacity="0.6" d="M180.016 57.5823L183.772 51.1279H185.405L181.46 57.5823H180.016Z" fill="white"/>
<path opacity="0.6" d="M187.414 51.1279H172.772V57.566H187.414V51.1279Z" fill="white"/>
<path d="M175.573 50.8481C175.573 53.186 175.573 55.5238 175.573 57.862" stroke="#407BFF" stroke-width="0.25" stroke-miterlimit="10"/>
<path d="M172.772 54.355C177.653 54.355 182.534 54.355 187.414 54.355" stroke="#407BFF" stroke-width="0.25" stroke-miterlimit="10"/>
<path d="M179.083 50.8481C179.083 53.186 179.083 55.5238 179.083 57.862" stroke="#407BFF" stroke-width="0.25" stroke-miterlimit="10"/>
<path d="M182.593 50.8481C182.593 53.186 182.593 55.5238 182.593 57.862" stroke="#407BFF" stroke-width="0.25" stroke-miterlimit="10"/>
<path d="M185.902 50.8481C185.902 53.186 185.902 55.5238 185.902 57.862" stroke="#407BFF" stroke-width="0.25" stroke-miterlimit="10"/>
<path opacity="0.3" d="M172.772 51.1279V51.9163H187.414V51.1279H172.886" fill="black"/>
<path opacity="0.6" d="M174.364 47.7371L177.86 41.2827H182.324L178.64 47.7371H174.364Z" fill="white"/>
<path opacity="0.6" d="M180.016 47.7371L183.772 41.2827H185.405L181.46 47.7371H180.016Z" fill="white"/>
<path opacity="0.6" d="M187.414 41.2827H172.772V47.7208H187.414V41.2827Z" fill="white"/>
<path d="M175.573 41.0029C175.573 43.3407 175.573 45.679 175.573 48.0168" stroke="#407BFF" stroke-width="0.25" stroke-miterlimit="10"/>
<path d="M172.772 44.5098C177.653 44.5098 182.534 44.5098 187.414 44.5098" stroke="#407BFF" stroke-width="0.25" stroke-miterlimit="10"/>
<path d="M179.083 41.0029C179.083 43.3407 179.083 45.679 179.083 48.0168" stroke="#407BFF" stroke-width="0.25" stroke-miterlimit="10"/>
<path d="M182.593 41.0029C182.593 43.3407 182.593 45.679 182.593 48.0168" stroke="#407BFF" stroke-width="0.25" stroke-miterlimit="10"/>
<path d="M185.902 41.0029C185.902 43.3407 185.902 45.679 185.902 48.0168" stroke="#407BFF" stroke-width="0.25" stroke-miterlimit="10"/>
<path opacity="0.3" d="M172.772 41.2827V42.0711H187.414V41.2827H172.886" fill="black"/>
<path opacity="0.6" d="M174.364 87.7405L177.86 81.2861H182.324L178.64 87.7405H174.364Z" fill="white"/>
<path opacity="0.6" d="M180.016 87.7405L183.772 81.2861H185.405L181.46 87.7405H180.016Z" fill="white"/>
<path opacity="0.6" d="M187.414 81.2861H172.772V87.7242H187.414V81.2861Z" fill="white"/>
<path d="M175.573 81.0059C175.573 83.3437 175.573 85.682 175.573 88.0198" stroke="#407BFF" stroke-width="0.25" stroke-miterlimit="10"/>
<path d="M172.772 84.5132C177.653 84.5132 182.534 84.5132 187.414 84.5132" stroke="#407BFF" stroke-width="0.25" stroke-miterlimit="10"/>
<path d="M179.083 81.0059C179.083 83.3437 179.083 85.682 179.083 88.0198" stroke="#407BFF" stroke-width="0.25" stroke-miterlimit="10"/>
<path d="M182.593 81.0059C182.593 83.3437 182.593 85.682 182.593 88.0198" stroke="#407BFF" stroke-width="0.25" stroke-miterlimit="10"/>
<path d="M185.902 81.0059C185.902 83.3437 185.902 85.682 185.902 88.0198" stroke="#407BFF" stroke-width="0.25" stroke-miterlimit="10"/>
<path opacity="0.3" d="M172.772 81.2861V82.074H187.414V81.2861H172.886" fill="black"/>
<path opacity="0.6" d="M174.364 98.408L177.86 91.9536H182.324L178.64 98.408H174.364Z" fill="white"/>
<path opacity="0.6" d="M180.016 98.408L183.772 91.9536H185.405L181.46 98.408H180.016Z" fill="white"/>
<path opacity="0.6" d="M187.414 91.9536H172.772V98.3917H187.414V91.9536Z" fill="white"/>
<path d="M175.573 91.6733C175.573 94.0111 175.573 96.3494 175.573 98.6872" stroke="#407BFF" stroke-width="0.25" stroke-miterlimit="10"/>
<path d="M172.772 95.1802C177.653 95.1802 182.534 95.1802 187.414 95.1802" stroke="#407BFF" stroke-width="0.25" stroke-miterlimit="10"/>
<path d="M179.083 91.6733C179.083 94.0111 179.083 96.3494 179.083 98.6872" stroke="#407BFF" stroke-width="0.25" stroke-miterlimit="10"/>
<path d="M182.593 91.6733C182.593 94.0111 182.593 96.3494 182.593 98.6872" stroke="#407BFF" stroke-width="0.25" stroke-miterlimit="10"/>
<path d="M185.902 91.6733C185.902 94.0111 185.902 96.3494 185.902 98.6872" stroke="#407BFF" stroke-width="0.25" stroke-miterlimit="10"/>
<path opacity="0.3" d="M172.772 91.9536V92.7415H187.414V91.9536H172.886" fill="black"/>
<path d="M111.48 103.66C111.48 112.863 111.48 122.068 111.48 131.272" stroke="#407BFF" stroke-width="0.5" stroke-miterlimit="10"/>
<path d="M97.6328 103.66C97.6328 112.863 97.6328 122.068 97.6328 131.272" stroke="#407BFF" stroke-width="0.5" stroke-miterlimit="10"/>
<path d="M90.7822 117.465C109.996 117.465 138.878 117.465 158.091 117.465" stroke="#407BFF" stroke-width="0.5" stroke-miterlimit="10"/>
<path d="M125.298 103.66C125.298 112.863 125.298 122.068 125.298 131.272" stroke="#407BFF" stroke-width="0.5" stroke-miterlimit="10"/>
<path d="M139.11 103.66C139.11 112.863 139.11 122.068 139.11 131.272" stroke="#407BFF" stroke-width="0.5" stroke-miterlimit="10"/>
<path d="M152.139 103.66C152.139 112.863 152.139 122.068 152.139 131.272" stroke="#407BFF" stroke-width="0.5" stroke-miterlimit="10"/>
<path opacity="0.3" d="M85.5059 104.761H158.093V105.698H85.8371L85.5059 104.761Z" fill="black"/>
<path opacity="0.6" d="M200.912 130.107H263.561L273.499 104.761H200.912V130.107Z" fill="white"/>
<path opacity="0.6" d="M252.282 130.17L238.52 104.761H220.944L235.449 130.17H252.282Z" fill="white"/>
<path opacity="0.6" d="M230.035 130.17L215.246 104.761H208.817L224.348 130.17H230.035Z" fill="white"/>
<path d="M247.522 103.66C247.522 112.863 247.522 122.068 247.522 131.272" stroke="#407BFF" stroke-width="0.5" stroke-miterlimit="10"/>
<path d="M261.371 103.66C261.371 112.863 261.371 122.068 261.371 131.272" stroke="#407BFF" stroke-width="0.5" stroke-miterlimit="10"/>
<path d="M268.221 117.465C249.007 117.465 220.126 117.465 200.912 117.465" stroke="#407BFF" stroke-width="0.5" stroke-miterlimit="10"/>
<path d="M233.706 103.66C233.706 112.863 233.706 122.068 233.706 131.272" stroke="#407BFF" stroke-width="0.5" stroke-miterlimit="10"/>
<path d="M219.893 103.66C219.893 112.863 219.893 122.068 219.893 131.272" stroke="#407BFF" stroke-width="0.5" stroke-miterlimit="10"/>
<path d="M206.865 103.66C206.865 112.863 206.865 122.068 206.865 131.272" stroke="#407BFF" stroke-width="0.5" stroke-miterlimit="10"/>
<path opacity="0.3" d="M273.499 104.761H200.912V105.698H273.168L273.499 104.761Z" fill="black"/>
<path opacity="0.3" d="M187.416 34.5552H169.401V36.4124H187.416V34.5552Z" fill="black"/>
<path opacity="0.3" d="M189.889 123.745H169.113V132.822H189.889V123.745Z" fill="black"/>
<path d="M187.801 126.066H171.199V132.822H187.801V126.066Z" fill="#263238"/>
<path d="M174.569 126.83H172.198V132.822H174.569V126.83Z" fill="#407BFF"/>
<path d="M177.693 126.83H175.322V132.822H177.693V126.83Z" fill="#407BFF"/>
<path d="M180.817 126.83H178.446V132.822H180.817V126.83Z" fill="#407BFF"/>
<path d="M183.937 126.83H181.566V132.822H183.937V126.83Z" fill="#407BFF"/>
<path d="M187.06 126.83H184.689V132.822H187.06V126.83Z" fill="#407BFF"/>
<path opacity="0.3" d="M172.198 127.354C172.198 127.354 187.062 127.409 187.062 127.354C187.062 127.299 187.062 126.83 187.062 126.83H172.198V127.354Z" fill="black"/>
<path opacity="0.3" d="M172.198 132.822L174.569 130.762V132.822H172.198Z" fill="white"/>
<path opacity="0.3" d="M175.322 130.165L177.693 128.067V132.822H175.322V130.165Z" fill="white"/>
<path opacity="0.3" d="M178.421 130.36L180.792 128.266V132.822H178.421V130.36Z" fill="white"/>
<path opacity="0.3" d="M192.56 112.608H166.145V115.563H192.56V112.608Z" fill="black"/>
<path d="M329.225 163.867L327.557 161.945V160.528L326.388 160.607L326.356 162.141L328.462 164.592L329.225 163.867Z" fill="#263238"/>
<path d="M327.226 163.882C327.226 164.688 327.879 165.341 328.685 165.341C329.491 165.341 330.144 164.687 330.144 163.882C330.144 163.076 329.49 162.423 328.685 162.423C327.879 162.423 327.226 163.076 327.226 163.882Z" fill="#263238"/>
<path opacity="0.3" d="M327.938 163.882C327.938 164.294 328.272 164.628 328.683 164.628C329.095 164.628 329.429 164.294 329.429 163.882C329.429 163.47 329.095 163.136 328.683 163.136C328.272 163.136 327.938 163.47 327.938 163.882Z" fill="white"/>
<path d="M284.193 164.825L282.525 162.903L282.482 160.529L281.312 160.608L281.324 163.099L283.43 165.55L284.193 164.825Z" fill="#263238"/>
<path d="M282.194 164.84C282.194 165.646 282.848 166.299 283.653 166.299C284.459 166.299 285.112 165.646 285.112 164.84C285.112 164.034 284.459 163.381 283.653 163.381C282.847 163.381 282.194 164.034 282.194 164.84Z" fill="#263238"/>
<path opacity="0.3" d="M282.906 164.84C282.906 165.253 283.24 165.586 283.652 165.586C284.064 165.586 284.398 165.252 284.398 164.84C284.398 164.428 284.064 164.095 283.652 164.095C283.24 164.095 282.906 164.428 282.906 164.84Z" fill="white"/>
<path d="M281.517 162.551L282.512 163.099L280.407 165.55L279.644 164.825L281.517 162.551Z" fill="#263238"/>
<path d="M280.181 166.299C280.986 166.299 281.64 165.646 281.64 164.84C281.64 164.035 280.986 163.381 280.181 163.381C279.375 163.381 278.722 164.035 278.722 164.84C278.722 165.646 279.375 166.299 280.181 166.299Z" fill="#263238"/>
<path opacity="0.3" d="M280.179 165.586C280.591 165.586 280.925 165.252 280.925 164.84C280.925 164.429 280.591 164.095 280.179 164.095C279.767 164.095 279.434 164.429 279.434 164.84C279.434 165.252 279.767 165.586 280.179 165.586Z" fill="white"/>
<path d="M334.771 160.669C334.771 160.669 339.272 160.523 342.251 158.671C344.481 157.285 344.707 154.091 342.74 152.352C340.238 150.141 335.444 146.853 328.115 145.647C316.667 143.763 248.361 145.253 248.361 145.253L217.562 146.323L218.403 150.737C218.403 150.737 265.561 159.059 279.5 160.699C293.437 162.339 334.771 160.669 334.771 160.669Z" fill="#263238"/>
<path opacity="0.3" d="M334.771 160.669C334.771 160.669 339.272 160.523 342.251 158.671C344.481 157.285 344.707 154.091 342.74 152.352C340.238 150.141 335.444 146.853 328.115 145.647C316.667 143.763 248.361 145.253 248.361 145.253L217.562 146.323L218.403 150.737C218.403 150.737 265.561 159.059 279.5 160.699C293.437 162.339 334.771 160.669 334.771 160.669Z" fill="white"/>
<path d="M239.824 145.548L222.941 128.974C220.826 126.898 217.983 125.731 215.02 125.724L209.694 125.71L217.56 146.322L239.824 145.548Z" fill="#263238"/>
<path d="M228.969 150.233L218.251 150.618L206.143 147.085C206.143 147.085 208.995 145.695 213.159 146.669C213.839 146.828 228.121 150.08 228.969 150.233Z" fill="#263238"/>
<path d="M341.819 151.578L331.872 151.583C331.657 151.583 331.456 151.473 331.341 151.291L330.762 150.374C330.498 149.955 330.799 149.41 331.294 149.411L338.696 149.432C339.765 150.036 340.822 150.789 341.82 151.575C341.819 151.578 341.819 151.576 341.819 151.578Z" fill="#407BFF"/>
<path d="M323.253 151.892H324.071C324.28 151.892 324.45 151.722 324.45 151.513V149.791C324.45 149.582 324.28 149.412 324.071 149.412H323.253C323.043 149.412 322.874 149.582 322.874 149.791V151.513C322.874 151.722 323.043 151.892 323.253 151.892Z" fill="#407BFF"/>
<path d="M320.424 151.892H321.242C321.451 151.892 321.621 151.722 321.621 151.513V149.791C321.621 149.582 321.451 149.412 321.242 149.412H320.424C320.214 149.412 320.045 149.582 320.045 149.791V151.513C320.045 151.722 320.214 151.892 320.424 151.892Z" fill="#407BFF"/>
<path d="M317.593 151.892H318.412C318.621 151.892 318.791 151.722 318.791 151.513V149.791C318.791 149.582 318.621 149.412 318.412 149.412H317.593C317.384 149.412 317.215 149.582 317.215 149.791V151.513C317.215 151.722 317.384 151.892 317.593 151.892Z" fill="#407BFF"/>
<path d="M314.764 151.892H315.583C315.792 151.892 315.962 151.722 315.962 151.513V149.791C315.962 149.582 315.792 149.412 315.583 149.412H314.764C314.555 149.412 314.386 149.582 314.386 149.791V151.513C314.386 151.722 314.555 151.892 314.764 151.892Z" fill="#407BFF"/>
<path d="M311.935 151.892H312.754C312.963 151.892 313.132 151.722 313.132 151.513V149.791C313.132 149.582 312.963 149.412 312.754 149.412H311.935C311.726 149.412 311.557 149.582 311.557 149.791V151.513C311.557 151.722 311.726 151.892 311.935 151.892Z" fill="#407BFF"/>
<path d="M309.11 151.892H309.929C310.138 151.892 310.307 151.722 310.307 151.513V149.791C310.307 149.582 310.138 149.412 309.929 149.412H309.11C308.901 149.412 308.731 149.582 308.731 149.791V151.513C308.731 151.722 308.901 151.892 309.11 151.892Z" fill="#407BFF"/>
<path d="M306.28 151.892H307.099C307.308 151.892 307.477 151.722 307.477 151.513V149.791C307.477 149.582 307.308 149.412 307.099 149.412H306.28C306.071 149.412 305.901 149.582 305.901 149.791V151.513C305.901 151.722 306.071 151.892 306.28 151.892Z" fill="#407BFF"/>
<path d="M303.451 151.892H304.269C304.479 151.892 304.648 151.722 304.648 151.513V149.791C304.648 149.582 304.479 149.412 304.269 149.412H303.451C303.242 149.412 303.072 149.582 303.072 149.791V151.513C303.072 151.722 303.242 151.892 303.451 151.892Z" fill="#407BFF"/>
<path d="M300.622 151.892H301.44C301.649 151.892 301.819 151.722 301.819 151.513V149.791C301.819 149.582 301.649 149.412 301.44 149.412H300.622C300.413 149.412 300.243 149.582 300.243 149.791V151.513C300.243 151.722 300.413 151.892 300.622 151.892Z" fill="#407BFF"/>
<path d="M297.793 151.892H298.611C298.82 151.892 298.99 151.722 298.99 151.513V149.791C298.99 149.582 298.82 149.412 298.611 149.412H297.793C297.584 149.412 297.414 149.582 297.414 149.791V151.513C297.414 151.722 297.584 151.892 297.793 151.892Z" fill="#407BFF"/>
<path d="M291.759 151.892H292.578C292.787 151.892 292.957 151.722 292.957 151.513V149.791C292.957 149.582 292.787 149.412 292.578 149.412H291.759C291.55 149.412 291.381 149.582 291.381 149.791V151.513C291.381 151.722 291.55 151.892 291.759 151.892Z" fill="#407BFF"/>
<path d="M289.091 151.892H289.91C290.119 151.892 290.289 151.722 290.289 151.513V149.791C290.289 149.582 290.119 149.412 289.91 149.412H289.091C288.882 149.412 288.713 149.582 288.713 149.791V151.513C288.713 151.722 288.882 151.892 289.091 151.892Z" fill="#407BFF"/>
<path d="M286.42 151.892H287.238C287.447 151.892 287.617 151.722 287.617 151.513V149.791C287.617 149.582 287.447 149.412 287.238 149.412H286.42C286.21 149.412 286.041 149.582 286.041 149.791V151.513C286.041 151.722 286.21 151.892 286.42 151.892Z" fill="#407BFF"/>
<path d="M283.752 151.892H284.57C284.779 151.892 284.949 151.722 284.949 151.513V149.791C284.949 149.582 284.779 149.412 284.57 149.412H283.752C283.542 149.412 283.373 149.582 283.373 149.791V151.513C283.373 151.722 283.542 151.892 283.752 151.892Z" fill="#407BFF"/>
<path d="M281.084 151.892H281.902C282.111 151.892 282.281 151.722 282.281 151.513V149.791C282.281 149.582 282.111 149.412 281.902 149.412H281.084C280.875 149.412 280.705 149.582 280.705 149.791V151.513C280.705 151.722 280.874 151.892 281.084 151.892Z" fill="#407BFF"/>
<path d="M278.413 151.892H279.231C279.44 151.892 279.61 151.722 279.61 151.513V149.791C279.61 149.582 279.44 149.412 279.231 149.412H278.413C278.204 149.412 278.034 149.582 278.034 149.791V151.513C278.034 151.722 278.204 151.892 278.413 151.892Z" fill="#407BFF"/>
<path d="M275.745 151.892H276.563C276.773 151.892 276.942 151.722 276.942 151.513V149.791C276.942 149.582 276.773 149.412 276.563 149.412H275.745C275.536 149.412 275.366 149.582 275.366 149.791V151.513C275.366 151.722 275.536 151.892 275.745 151.892Z" fill="#407BFF"/>
<path d="M273.073 151.892H273.891C274.101 151.892 274.27 151.722 274.27 151.513V149.791C274.27 149.582 274.101 149.412 273.891 149.412H273.073C272.864 149.412 272.694 149.582 272.694 149.791V151.513C272.694 151.722 272.864 151.892 273.073 151.892Z" fill="#407BFF"/>
<path d="M270.405 151.892H271.224C271.433 151.892 271.602 151.722 271.602 151.513V149.791C271.602 149.582 271.433 149.412 271.224 149.412H270.405C270.196 149.412 270.026 149.582 270.026 149.791V151.513C270.026 151.722 270.196 151.892 270.405 151.892Z" fill="#407BFF"/>
<path d="M267.733 151.892H268.552C268.761 151.892 268.93 151.722 268.93 151.513V149.791C268.93 149.582 268.761 149.412 268.552 149.412H267.733C267.524 149.412 267.354 149.582 267.354 149.791V151.513C267.354 151.722 267.524 151.892 267.733 151.892Z" fill="#407BFF"/>
<path d="M265.065 151.892H265.884C266.093 151.892 266.262 151.722 266.262 151.513V149.791C266.262 149.582 266.093 149.412 265.884 149.412H265.065C264.856 149.412 264.687 149.582 264.687 149.791V151.513C264.687 151.722 264.856 151.892 265.065 151.892Z" fill="#407BFF"/>
<path d="M262.397 151.892H263.216C263.425 151.892 263.594 151.722 263.594 151.513V149.791C263.594 149.582 263.425 149.412 263.216 149.412H262.397C262.188 149.412 262.019 149.582 262.019 149.791V151.513C262.019 151.722 262.188 151.892 262.397 151.892Z" fill="#407BFF"/>
<path d="M259.726 151.892H260.545C260.754 151.892 260.923 151.722 260.923 151.513V149.791C260.923 149.582 260.754 149.412 260.545 149.412H259.726C259.517 149.412 259.348 149.582 259.348 149.791V151.513C259.348 151.722 259.517 151.892 259.726 151.892Z" fill="#407BFF"/>
<path d="M257.058 151.892H257.877C258.086 151.892 258.255 151.722 258.255 151.513V149.791C258.255 149.582 258.086 149.412 257.877 149.412H257.058C256.849 149.412 256.68 149.582 256.68 149.791V151.513C256.68 151.722 256.849 151.892 257.058 151.892Z" fill="#407BFF"/>
<path d="M254.386 151.892H255.205C255.414 151.892 255.584 151.722 255.584 151.513V149.791C255.584 149.582 255.414 149.412 255.205 149.412H254.386C254.177 149.412 254.008 149.582 254.008 149.791V151.513C254.008 151.722 254.177 151.892 254.386 151.892Z" fill="#407BFF"/>
<path d="M251.718 151.892H252.537C252.746 151.892 252.916 151.722 252.916 151.513V149.791C252.916 149.582 252.746 149.412 252.537 149.412H251.718C251.509 149.412 251.34 149.582 251.34 149.791V151.513C251.34 151.722 251.509 151.892 251.718 151.892Z" fill="#407BFF"/>
<path d="M249.048 151.892H249.866C250.075 151.892 250.245 151.722 250.245 151.513V149.791C250.245 149.582 250.075 149.412 249.866 149.412H249.048C248.838 149.412 248.669 149.582 248.669 149.791V151.513C248.669 151.722 248.839 151.892 249.048 151.892Z" fill="#407BFF"/>
<path d="M246.38 151.892H247.198C247.407 151.892 247.577 151.722 247.577 151.513V149.791C247.577 149.582 247.407 149.412 247.198 149.412H246.38C246.17 149.412 246.001 149.582 246.001 149.791V151.513C246 151.722 246.17 151.892 246.38 151.892Z" fill="#407BFF"/>
<path d="M243.712 151.892H244.53C244.739 151.892 244.909 151.722 244.909 151.513V149.791C244.909 149.582 244.739 149.412 244.53 149.412H243.712C243.502 149.412 243.333 149.582 243.333 149.791V151.513C243.333 151.722 243.502 151.892 243.712 151.892Z" fill="#407BFF"/>
<path d="M241.04 151.892H241.858C242.067 151.892 242.237 151.722 242.237 151.513V149.791C242.237 149.582 242.067 149.412 241.858 149.412H241.04C240.831 149.412 240.661 149.582 240.661 149.791V151.513C240.661 151.722 240.831 151.892 241.04 151.892Z" fill="#407BFF"/>
<path d="M302.683 159.965C302.683 159.965 301.422 161.019 291.416 161.375C281.409 161.732 271.065 159.895 264.841 158.758C258.617 157.621 244.236 154.384 243.31 153.244C242.385 152.104 266.103 151.551 286.671 153.908C303.481 155.835 303.523 158.298 302.683 159.965Z" fill="#263238"/>
<path d="M279.662 155.652L279.666 163.238C279.666 163.238 272.005 163.7 269.319 161.462C267.483 159.931 268.19 157.016 271.707 156.216C276.197 155.196 279.662 155.652 279.662 155.652Z" fill="#407BFF"/>
<path d="M295.188 155.822L295.193 163.408C295.193 163.408 287.531 163.87 284.845 161.631C283.009 160.101 283.717 157.186 287.234 156.386C291.723 155.366 295.188 155.822 295.188 155.822Z" fill="#407BFF"/>
<path opacity="0.5" d="M279.662 155.652L279.666 163.238C279.666 163.238 272.005 163.7 269.319 161.462C267.483 159.931 268.19 157.016 271.707 156.216C276.197 155.196 279.662 155.652 279.662 155.652Z" fill="white"/>
<g opacity="0.5">
<path d="M295.188 155.822L295.193 163.408C295.193 163.408 287.531 163.87 284.845 161.631C283.009 160.101 283.717 157.186 287.234 156.386C291.723 155.366 295.188 155.822 295.188 155.822Z" fill="white"/>
</g>
<path d="M294.16 155.743L294.165 163.446L293.193 163.447L293.225 155.721C293.559 155.72 293.874 155.726 294.16 155.743Z" fill="#407BFF"/>
<path d="M278.527 155.56L278.532 163.262L277.561 163.264L277.592 155.537C277.926 155.536 278.241 155.542 278.527 155.56Z" fill="#407BFF"/>
<path opacity="0.4" d="M339.566 151.583L335.634 149.412H333.899L337.657 151.583H339.566Z" fill="white"/>
<path opacity="0.4" d="M336.301 151.581L332.872 149.412L332.308 149.414L335.846 151.583L336.301 151.581Z" fill="white"/>
<path d="M39.3652 161.465L41.288 159.248V157.614L42.6364 157.705L42.6728 159.475L40.245 162.3L39.3652 161.465Z" fill="#263238"/>
<path d="M41.6687 161.482C41.6687 162.411 40.9153 163.164 39.9862 163.164C39.0571 163.164 38.3037 162.411 38.3037 161.482C38.3037 160.553 39.0571 159.799 39.9862 159.799C40.9153 159.799 41.6687 160.553 41.6687 161.482Z" fill="#263238"/>
<path opacity="0.3" d="M40.8483 161.482C40.8483 161.957 40.4634 162.342 39.9881 162.342C39.5128 162.342 39.1279 161.957 39.1279 161.482C39.1279 161.007 39.5128 160.622 39.9881 160.622C40.4629 160.622 40.8483 161.007 40.8483 161.482Z" fill="white"/>
<path d="M91.2969 162.569L93.2197 160.353L93.2695 157.616L94.6179 157.707L94.6045 160.58L92.1767 163.405L91.2969 162.569Z" fill="#263238"/>
<path d="M93.5984 162.587C93.5984 163.516 92.845 164.269 91.9159 164.269C90.9868 164.269 90.2334 163.516 90.2334 162.587C90.2334 161.658 90.9868 160.904 91.9159 160.904C92.845 160.904 93.5984 161.658 93.5984 162.587Z" fill="#263238"/>
<path opacity="0.3" d="M92.7779 162.587C92.7779 163.062 92.3926 163.447 91.9178 163.447C91.4429 163.447 91.0576 163.062 91.0576 162.587C91.0576 162.111 91.4429 161.727 91.9178 161.727C92.3926 161.727 92.7779 162.112 92.7779 162.587Z" fill="white"/>
<path d="M94.3837 159.947L93.2363 160.58L95.6641 163.405L96.5439 162.569L94.3837 159.947Z" fill="#263238"/>
<path d="M94.2383 162.587C94.2383 163.516 94.9917 164.269 95.9208 164.269C96.8499 164.269 97.6033 163.516 97.6033 162.587C97.6033 161.658 96.8499 160.904 95.9208 160.904C94.9917 160.904 94.2383 161.658 94.2383 162.587Z" fill="#263238"/>
<path opacity="0.3" d="M95.0625 162.587C95.0625 163.062 95.4478 163.447 95.9227 163.447C96.3975 163.447 96.7828 163.062 96.7828 162.587C96.7828 162.111 96.3975 161.727 95.9227 161.727C95.4473 161.727 95.0625 162.112 95.0625 162.587Z" fill="white"/>
<path d="M32.9711 157.777C32.9711 157.777 27.7809 157.609 24.345 155.473C21.7736 153.874 21.5132 150.19 23.7821 148.186C26.6666 145.637 32.1947 141.845 40.646 140.454C53.8481 138.282 132.613 140.001 132.613 140.001L168.129 141.234L167.159 146.323C167.159 146.323 112.779 155.92 96.707 157.811C80.6343 159.703 32.9711 157.777 32.9711 157.777Z" fill="#407BFF"/>
<path opacity="0.8" d="M32.9711 157.777C32.9711 157.777 27.7809 157.609 24.345 155.473C21.7736 153.874 21.5132 150.19 23.7821 148.186C26.6666 145.637 32.1947 141.845 40.646 140.454C53.8481 138.282 132.613 140.001 132.613 140.001L168.129 141.234L167.159 146.323C167.159 146.323 112.779 155.92 96.707 157.811C80.6343 159.703 32.9711 157.777 32.9711 157.777Z" fill="white"/>
<path d="M142.455 140.341L161.923 121.228C164.362 118.834 167.64 117.489 171.057 117.481L177.198 117.466L168.128 141.234L142.455 140.341Z" fill="#263238"/>
<path d="M154.975 145.744L167.334 146.187L181.297 142.113C181.297 142.113 178.008 140.51 173.206 141.634C172.422 141.817 155.953 145.567 154.975 145.744Z" fill="#263238"/>
<path d="M24.8442 147.294L36.314 147.3C36.5625 147.3 36.7932 147.172 36.9263 146.963L37.5945 145.905C37.8994 145.423 37.5514 144.794 36.9808 144.796L28.4457 144.819C27.2127 145.516 25.994 146.385 24.8438 147.291C24.8442 147.293 24.8437 147.292 24.8442 147.294Z" fill="#407BFF"/>
<path d="M168.135 130.79C168.134 133.216 166.166 135.181 163.74 135.18C161.314 135.179 159.348 133.211 159.35 130.785C159.351 128.359 161.319 126.393 163.745 126.395C166.171 126.396 168.136 128.364 168.135 130.79Z" fill="#407BFF"/>
<path d="M46.2535 147.655H45.3096C45.0683 147.655 44.873 147.46 44.873 147.219V145.233C44.873 144.992 45.0688 144.796 45.3096 144.796H46.2535C46.4948 144.796 46.6901 144.992 46.6901 145.233V147.219C46.6905 147.46 46.4948 147.655 46.2535 147.655Z" fill="#407BFF"/>
<path d="M49.5133 147.655H48.5694C48.3281 147.655 48.1328 147.46 48.1328 147.219V145.233C48.1328 144.992 48.3286 144.796 48.5694 144.796H49.5133C49.7545 144.796 49.9498 144.992 49.9498 145.233V147.219C49.9503 147.46 49.7545 147.655 49.5133 147.655Z" fill="#407BFF"/>
<path d="M52.7779 147.655H51.834C51.5928 147.655 51.3975 147.46 51.3975 147.219V145.233C51.3975 144.992 51.5932 144.796 51.834 144.796H52.7779C53.0192 144.796 53.2145 144.992 53.2145 145.233V147.219C53.215 147.46 53.0192 147.655 52.7779 147.655Z" fill="#407BFF"/>
<path d="M56.0377 147.655H55.0938C54.8525 147.655 54.6572 147.46 54.6572 147.219V145.233C54.6572 144.992 54.8525 144.796 55.0938 144.796H56.0377C56.279 144.796 56.4742 144.992 56.4742 145.233V147.219C56.4742 147.46 56.2785 147.655 56.0377 147.655Z" fill="#407BFF"/>
<path d="M59.3023 147.655H58.3584C58.1172 147.655 57.9219 147.46 57.9219 147.219V145.233C57.9219 144.992 58.1172 144.796 58.3584 144.796H59.3023C59.5436 144.796 59.7389 144.992 59.7389 145.233V147.219C59.7389 147.46 59.5436 147.655 59.3023 147.655Z" fill="#407BFF"/>
<path d="M62.5621 147.655H61.6182C61.3769 147.655 61.1816 147.46 61.1816 147.219V145.233C61.1816 144.992 61.3769 144.796 61.6182 144.796H62.5621C62.8034 144.796 62.9987 144.992 62.9987 145.233V147.219C62.9987 147.46 62.8034 147.655 62.5621 147.655Z" fill="#407BFF"/>
<path d="M65.8268 147.655H64.8828C64.6416 147.655 64.4463 147.46 64.4463 147.219V145.233C64.4463 144.992 64.6416 144.796 64.8828 144.796H65.8268C66.068 144.796 66.2633 144.992 66.2633 145.233V147.219C66.2633 147.46 66.068 147.655 65.8268 147.655Z" fill="#407BFF"/>
<path d="M69.086 147.655H68.1426C67.9014 147.655 67.7061 147.46 67.7061 147.219V145.233C67.7061 144.992 67.9014 144.796 68.1426 144.796H69.086C69.3273 144.796 69.5226 144.992 69.5226 145.233V147.219C69.5226 147.46 69.3273 147.655 69.086 147.655Z" fill="#407BFF"/>
<path d="M72.3512 147.655H71.4072C71.166 147.655 70.9707 147.46 70.9707 147.219V145.233C70.9707 144.992 71.166 144.796 71.4072 144.796H72.3512C72.5924 144.796 72.7877 144.992 72.7877 145.233V147.219C72.7877 147.46 72.5924 147.655 72.3512 147.655Z" fill="#407BFF"/>
<path d="M75.6109 147.655H74.667C74.4258 147.655 74.2305 147.46 74.2305 147.219V145.233C74.2305 144.992 74.4258 144.796 74.667 144.796H75.6109C75.8522 144.796 76.0475 144.992 76.0475 145.233V147.219C76.0475 147.46 75.8522 147.655 75.6109 147.655Z" fill="#407BFF"/>
<path d="M82.567 147.655H81.6231C81.3818 147.655 81.1865 147.46 81.1865 147.219V145.233C81.1865 144.992 81.3818 144.796 81.6231 144.796H82.567C82.8082 144.796 83.0035 144.992 83.0035 145.233V147.219C83.0035 147.46 82.8082 147.655 82.567 147.655Z" fill="#407BFF"/>
<path d="M85.6451 147.655H84.7012C84.4599 147.655 84.2646 147.46 84.2646 147.219V145.233C84.2646 144.992 84.4604 144.796 84.7012 144.796H85.6451C85.8864 144.796 86.0817 144.992 86.0817 145.233V147.219C86.0817 147.46 85.8864 147.655 85.6451 147.655Z" fill="#407BFF"/>
<path d="M88.7232 147.655H87.7793C87.5381 147.655 87.3428 147.46 87.3428 147.219V145.233C87.3428 144.992 87.5381 144.796 87.7793 144.796H88.7232C88.9645 144.796 89.1598 144.992 89.1598 145.233V147.219C89.1598 147.46 88.9645 147.655 88.7232 147.655Z" fill="#407BFF"/>
<path d="M91.8009 147.655H90.8574C90.6162 147.655 90.4209 147.46 90.4209 147.219V145.233C90.4209 144.992 90.6162 144.796 90.8574 144.796H91.8009C92.0421 144.796 92.2374 144.992 92.2374 145.233V147.219C92.2374 147.46 92.0421 147.655 91.8009 147.655Z" fill="#407BFF"/>
<path d="M94.879 147.655H93.9356C93.6943 147.655 93.499 147.46 93.499 147.219V145.233C93.499 144.992 93.6948 144.796 93.9356 144.796H94.879C95.1203 144.796 95.3156 144.992 95.3156 145.233V147.219C95.3156 147.46 95.1198 147.655 94.879 147.655Z" fill="#407BFF"/>
<path d="M97.9576 147.655H97.0137C96.7724 147.655 96.5771 147.46 96.5771 147.219V145.233C96.5771 144.992 96.7724 144.796 97.0137 144.796H97.9576C98.1989 144.796 98.3942 144.992 98.3942 145.233V147.219C98.3946 147.46 98.1989 147.655 97.9576 147.655Z" fill="#407BFF"/>
<path d="M101.036 147.655H100.092C99.8506 147.655 99.6553 147.46 99.6553 147.219V145.233C99.6553 144.992 99.8506 144.796 100.092 144.796H101.036C101.277 144.796 101.472 144.992 101.472 145.233V147.219C101.473 147.46 101.277 147.655 101.036 147.655Z" fill="#407BFF"/>
<path d="M104.114 147.655H103.17C102.929 147.655 102.733 147.46 102.733 147.219V145.233C102.733 144.992 102.929 144.796 103.17 144.796H104.114C104.355 144.796 104.55 144.992 104.55 145.233V147.219C104.551 147.46 104.355 147.655 104.114 147.655Z" fill="#407BFF"/>
<path d="M107.192 147.655H106.248C106.007 147.655 105.812 147.46 105.812 147.219V145.233C105.812 144.992 106.007 144.796 106.248 144.796H107.192C107.433 144.796 107.628 144.992 107.628 145.233V147.219C107.628 147.46 107.433 147.655 107.192 147.655Z" fill="#407BFF"/>
<path d="M110.274 147.655H109.33C109.089 147.655 108.894 147.46 108.894 147.219V145.233C108.894 144.992 109.089 144.796 109.33 144.796H110.274C110.515 144.796 110.71 144.992 110.71 145.233V147.219C110.71 147.46 110.515 147.655 110.274 147.655Z" fill="#407BFF"/>
<path d="M113.348 147.655H112.404C112.163 147.655 111.968 147.46 111.968 147.219V145.233C111.968 144.992 112.163 144.796 112.404 144.796H113.348C113.589 144.796 113.785 144.992 113.785 145.233V147.219C113.785 147.46 113.589 147.655 113.348 147.655Z" fill="#407BFF"/>
<path d="M116.426 147.655H115.482C115.241 147.655 115.046 147.46 115.046 147.219V145.233C115.046 144.992 115.242 144.796 115.482 144.796H116.426C116.668 144.796 116.863 144.992 116.863 145.233V147.219C116.863 147.46 116.668 147.655 116.426 147.655Z" fill="#407BFF"/>
<path d="M119.508 147.655H118.564C118.323 147.655 118.128 147.46 118.128 147.219V145.233C118.128 144.992 118.323 144.796 118.564 144.796H119.508C119.75 144.796 119.945 144.992 119.945 145.233V147.219C119.945 147.46 119.749 147.655 119.508 147.655Z" fill="#407BFF"/>
<path d="M122.583 147.655H121.639C121.397 147.655 121.202 147.46 121.202 147.219V145.233C121.202 144.992 121.398 144.796 121.639 144.796H122.583C122.824 144.796 123.019 144.992 123.019 145.233V147.219C123.02 147.46 122.824 147.655 122.583 147.655Z" fill="#407BFF"/>
<path d="M125.661 147.655H124.717C124.476 147.655 124.28 147.46 124.28 147.219V145.233C124.28 144.992 124.476 144.796 124.717 144.796H125.661C125.902 144.796 126.097 144.992 126.097 145.233V147.219C126.098 147.46 125.902 147.655 125.661 147.655Z" fill="#407BFF"/>
<path d="M128.743 147.655H127.799C127.558 147.655 127.362 147.46 127.362 147.219V145.233C127.362 144.992 127.558 144.796 127.799 144.796H128.743C128.984 144.796 129.179 144.992 129.179 145.233V147.219C129.18 147.46 128.984 147.655 128.743 147.655Z" fill="#407BFF"/>
<path d="M131.821 147.655H130.877C130.636 147.655 130.44 147.46 130.44 147.219V145.233C130.44 144.992 130.636 144.796 130.877 144.796H131.821C132.062 144.796 132.257 144.992 132.257 145.233V147.219C132.257 147.46 132.062 147.655 131.821 147.655Z" fill="#407BFF"/>
<path d="M134.899 147.655H133.955C133.714 147.655 133.519 147.46 133.519 147.219V145.233C133.519 144.992 133.714 144.796 133.955 144.796H134.899C135.14 144.796 135.336 144.992 135.336 145.233V147.219C135.336 147.46 135.14 147.655 134.899 147.655Z" fill="#407BFF"/>
<path d="M137.977 147.655H137.033C136.792 147.655 136.597 147.46 136.597 147.219V145.233C136.597 144.992 136.792 144.796 137.033 144.796H137.977C138.218 144.796 138.413 144.992 138.413 145.233V147.219C138.413 147.46 138.218 147.655 137.977 147.655Z" fill="#407BFF"/>
<path d="M141.055 147.655H140.111C139.87 147.655 139.675 147.46 139.675 147.219V145.233C139.675 144.992 139.871 144.796 140.111 144.796H141.055C141.296 144.796 141.491 144.992 141.491 145.233V147.219C141.491 147.46 141.296 147.655 141.055 147.655Z" fill="#407BFF"/>
<path d="M69.7872 155.407C69.7872 155.407 71.2409 156.622 82.7801 157.032C94.3189 157.443 106.247 155.326 113.424 154.015C120.6 152.704 137.184 148.97 138.251 147.656C139.319 146.341 111.968 145.704 88.2513 148.422C68.8667 150.644 68.8184 153.484 69.7872 155.407Z" fill="#263238"/>
<path d="M96.5155 151.991L96.5107 160.738C96.5107 160.738 105.346 161.272 108.442 158.69C110.56 156.925 109.744 153.564 105.688 152.642C100.511 151.465 96.5155 151.991 96.5155 151.991Z" fill="#407BFF"/>
<path d="M78.6103 152.188L78.6055 160.935C78.6055 160.935 87.4402 161.468 90.5372 158.886C92.6548 157.121 91.8387 153.76 87.7829 152.838C82.6062 151.661 78.6103 152.188 78.6103 152.188Z" fill="#407BFF"/>
<path opacity="0.4" d="M79.7958 152.097L79.791 160.978L80.9106 160.981L80.8742 152.071C80.4899 152.07 80.1266 152.077 79.7958 152.097Z" fill="white"/>
<path opacity="0.4" d="M97.8231 151.885L97.8184 160.767L98.938 160.769L98.9016 151.86C98.5172 151.858 98.1539 151.865 97.8231 151.885Z" fill="white"/>
<path opacity="0.4" d="M27.4424 147.3L31.9758 144.796H33.9762L29.6423 147.3H27.4424Z" fill="white"/>
<path opacity="0.4" d="M31.207 147.297L35.1608 144.796L35.8118 144.799L31.7312 147.3L31.207 147.297Z" fill="white"/>
</svg>
