<svg width="50" height="50" viewBox="0 0 50 50" fill="none" xmlns="http://www.w3.org/2000/svg">
<path d="M26.6732 33.6296V26.5691C26.6117 22.9502 21.7069 22.1047 20.3994 25.4193C22.1114 26.0901 23.3269 27.7585 23.3269 29.7056V36.7677C23.3917 40.3821 28.2909 41.2338 29.6004 37.9193C28.3179 37.4189 26.6732 35.9979 26.6732 33.6296Z" fill="black"/>
<path d="M25.0007 14.9057C26.3559 14.9057 27.4584 13.8032 27.4584 12.448C27.3349 9.19207 22.6661 9.19285 22.543 12.448C22.543 13.8032 23.6455 14.9057 25.0007 14.9057Z" fill="black"/>
<path d="M46.4006 3.59941C44.281 1.47979 41.0136 0 36.1963 0H13.8037C8.98643 0 5.71904 1.47979 3.59941 3.59941C1.4793 5.71953 0 8.98691 0 13.8037V36.1963C0 41.0131 1.4793 44.2805 3.59941 46.4005C5.71904 48.5202 8.98643 50 13.8037 50H36.1963C41.0136 50 44.281 48.5202 46.4006 46.4006C48.5207 44.2806 50 41.0131 50 36.1963V13.8037C50 8.98691 48.5207 5.71953 46.4006 3.59941ZM25.0004 7.06055C27.971 7.06055 30.3878 9.47734 30.3878 12.4479C30.117 19.5853 19.8828 19.5833 19.613 12.4479C19.613 9.47734 22.0298 7.06055 25.0004 7.06055ZM26.5706 42.9395C23.1659 42.9395 20.3972 40.1707 20.3972 36.7676V29.7055C20.3972 28.7838 19.6473 28.0339 18.7256 28.0339H18.724C17.915 28.0339 17.2592 27.378 17.2592 26.569C17.5676 18.393 29.3038 18.392 29.6029 26.569V33.6296C29.6029 34.555 30.3518 35.3028 31.2761 35.3028C32.0851 35.3028 32.7409 35.9587 32.7409 36.7677C32.7409 40.1714 29.9729 42.9395 26.5706 42.9395Z" fill="black"/>
</svg>
