<svg width="47" height="47" viewBox="0 0 47 47" fill="none" xmlns="http://www.w3.org/2000/svg">
<path d="M41.8719 0H4.22187C1.89375 0 0 1.89375 0 4.22187V41.8719C0 44.2 1.89375 46.0938 4.22187 46.0938H41.8719C44.2 46.0938 46.0938 44.2 46.0938 41.8719V4.22187C46.0938 1.89375 44.2 0 41.8719 0ZM5.85938 19.0344C5.38594 19.0344 4.95781 18.7484 4.77656 18.3109C4.59531 17.8734 4.69531 17.3688 5.03125 17.0344L13.8625 8.20312C14.3016 7.76406 15.0797 7.76406 15.5203 8.20312L24.3516 17.0344C24.6859 17.3688 24.7875 17.8734 24.6062 18.3109C24.425 18.7484 23.9969 19.0344 23.5234 19.0344H19.9531V37.0625C19.9531 37.7094 19.4281 38.2344 18.7812 38.2344H10.6016C9.95469 38.2344 9.42969 37.7094 9.42969 37.0625V19.0344H5.85938ZM41.0625 29.0594L32.2313 37.8906C32.0109 38.1109 31.7141 38.2344 31.4031 38.2344C31.0922 38.2344 30.7938 38.1109 30.575 37.8906L21.7438 29.0594C21.4094 28.725 21.3078 28.2203 21.4891 27.7828C21.6703 27.3453 22.0984 27.0594 22.5719 27.0594H26.1422V9.03125C26.1422 8.38438 26.6672 7.85938 27.3141 7.85938H35.4922C36.1391 7.85938 36.6641 8.38438 36.6641 9.03125V27.0594H40.2344C40.7094 27.0594 41.1359 27.3453 41.3172 27.7828C41.4984 28.2203 41.3984 28.725 41.0625 29.0594Z" fill="black"/>
</svg>
