<svg width="330" height="129" viewBox="0 0 330 129" fill="none" xmlns="http://www.w3.org/2000/svg">
<path d="M242.07 12.4529C242.293 12.4557 242.986 12.3864 243.155 12.4665C243.664 12.7092 244.433 13.6398 244.839 14.0609L244.903 14.1281C244.949 13.6764 245.057 13.228 244.834 12.8131C245.045 13.303 245.19 13.8567 245.016 14.3855C244.929 14.6479 244.752 14.8984 244.596 15.1243C243.782 14.9933 242.791 15.0924 241.958 15.0883C242.102 14.8399 242.201 14.6484 242.222 14.3595C242.275 13.6347 242.476 13.0851 242.07 12.4529Z" fill="#FBEEE0"/>
<path d="M277.319 49.8662L283.907 50.0297C284.423 50.0747 284.799 49.988 285.156 50.3839L285.079 50.8271C284.602 51.0892 283.695 50.9266 283.145 50.9C281.518 50.8218 279.644 50.5805 278.041 50.7993C277.888 50.311 277.693 50.194 277.319 49.8662Z" fill="#E193A2"/>
<path d="M241.958 15.0885C240.97 15.1109 239.465 15.3286 238.534 15.101C237.992 14.968 237.66 14.4292 237.065 14.3368L236.99 14.3281L237.095 14.0315C237.841 13.6146 239.366 14.0978 240.336 13.7945C241.132 13.5454 241.304 12.7641 242.07 12.4531C242.476 13.0853 242.275 13.6349 242.222 14.3597C242.201 14.6487 242.102 14.8402 241.958 15.0885Z" fill="#F7C2A8"/>
<path d="M239.957 32.992C240.473 32.4365 240.335 31.6043 240.812 30.971C241.668 30.4654 243.24 30.6808 244.263 30.678L245.134 30.7422C245.531 31.3972 245.423 31.8819 245.409 32.6234L245.192 32.9632L239.957 32.992Z" fill="#652F67"/>
<path d="M205.888 3.08447C206.879 3.16993 207.522 3.51086 208.405 3.8915C210.458 4.77689 211.907 4.30157 213.834 3.42345C213.672 4.41699 213.63 5.90587 212.751 6.54199C212.469 6.74623 210.768 6.58596 210.323 6.58188L210.276 6.34112C208.762 5.28465 207.503 4.02216 205.888 3.08447Z" fill="#FBEEE0"/>
<path d="M245.595 30.7061L249.261 30.9048C249.917 30.9231 250.779 30.8043 251.316 31.2349C251.64 31.7655 251.819 32.1756 251.667 32.8132L251.577 33.1381C249.58 33.0559 247.396 32.8335 245.412 33.0284L245.192 32.963L245.409 32.6231C245.423 31.8817 245.531 31.397 245.134 30.7419L245.595 30.7061Z" fill="#7F7196"/>
<path d="M203.23 3.38969C204.262 2.83636 204.748 2.85445 205.89 3.08421C207.505 4.0219 208.764 5.28439 210.278 6.34086L210.326 6.58162L203.402 6.62505C203.206 5.61273 203.31 4.43056 203.23 3.38969Z" fill="#F7C2A8"/>
<path d="M244.832 12.8133L244.885 12.6802C245.105 12.1061 245.213 11.1551 244.997 10.5723C244.965 10.4872 244.894 10.3883 244.848 10.3165C244.968 9.95254 244.94 9.85326 245.28 9.65381C245.491 9.90077 245.777 10.158 245.801 10.4938L245.759 10.5567C245.259 11.381 245.761 24.4297 245.773 26.32C245.782 27.5793 246.039 29.55 245.592 30.7061L245.131 30.742L244.261 30.6778L244.599 30.1691C244.725 29.196 244.642 28.167 244.654 27.1841L244.766 21.8732C244.807 19.9717 245.138 17.6755 244.908 15.8125C244.876 15.5537 244.745 15.3328 244.594 15.1245C244.75 14.8986 244.927 14.6481 245.014 14.3857C245.188 13.8568 245.043 13.3032 244.832 12.8133Z" fill="#DCBFCF"/>
<path d="M202.062 22.1973L202.406 21.5744L202.543 5.60202L202.575 2.21719C202.577 1.8814 202.651 1.34953 202.497 1.0531C202.389 0.844434 202.385 0.71253 202.375 0.476911L202.821 0L203.116 0.122331C203.162 0.200338 203.479 0.687709 203.475 0.742846C203.475 0.764476 203.312 0.968537 203.298 1.00878C203.132 1.47559 203.279 2.82618 203.229 3.38997C203.309 4.43084 203.204 5.61301 203.401 6.62533C203.805 9.9575 203.624 13.4714 203.678 16.8286C203.706 18.5093 204.034 20.5735 203.665 22.1976C203.163 22.2714 202.573 22.2072 202.062 22.1973Z" fill="#DCBFCF"/>
<path d="M202.061 22.1973C202.572 22.2072 203.162 22.2714 203.664 22.1976L203.926 22.351C204.375 23.352 204.375 24.2682 204.651 25.2975C204.144 25.502 203.566 25.4371 203.027 25.4314L200.113 25.3605C198.939 25.5007 197.06 25.5399 195.911 25.2975L195.735 24.6979C196.301 24.0833 196.04 23.1929 196.597 22.6676C197.148 22.1451 197.842 22.2435 198.549 22.2602C199.675 22.2464 200.953 22.3524 202.061 22.1973Z" fill="#652F67"/>
<path d="M203.927 22.3507L211.825 22.3635C213.017 22.3786 214.797 22.1733 215.891 22.6379C216.369 23.1118 216.905 24.6805 216.928 25.3608C216.933 25.4992 216.891 25.6136 216.845 25.7416C216.472 26.0284 205.996 25.5411 204.546 25.5638L203.035 25.5278L203.028 25.4311C203.567 25.4368 204.145 25.5017 204.652 25.2973C204.376 24.2679 204.376 23.3517 203.927 22.3507Z" fill="#7F7196"/>
<path d="M239.954 32.9916L245.19 32.9629L245.409 33.0283C245.741 35.2001 245.987 37.7084 245.904 39.8939L245.562 40.246C243.903 39.913 241.938 39.9784 240.234 39.8478C239.554 39.7955 238.836 39.8499 238.304 39.3638L238.353 39.2984C238.742 38.7613 238.873 37.9564 239.041 37.3164C239.367 36.0795 240.117 34.2397 239.954 32.9916Z" fill="#DF797D"/>
<path d="M251.665 32.813C252.289 33.4372 253.972 39.31 253.968 40.2617C253.968 40.3868 253.947 40.4985 253.909 40.6171C253.503 40.9483 252.02 40.6732 251.436 40.6322L245.563 40.2459L245.905 39.8938C245.988 37.7083 245.742 35.2 245.41 33.0282C247.394 32.8334 249.578 33.0557 251.575 33.138L251.665 32.813Z" fill="#F7C2A8"/>
<path d="M195.735 24.6978L195.911 25.2973C197.06 25.5397 198.939 25.5005 200.113 25.3603L203.027 25.4312L203.034 25.5278L200.223 25.5142L199.249 36.6439L198.645 36.9412L192.787 36.5016C192.865 36.4337 192.954 36.3541 193.012 36.2682C193.464 35.6089 193.649 34.1799 193.846 33.3873L195.212 27.7798C195.452 26.8245 195.93 25.6828 195.735 24.6978Z" fill="#DF797D"/>
<path d="M203.036 25.5278L204.547 25.5638C205.199 26.8084 205.284 28.2934 205.545 29.6691C206.011 32.1436 206.57 34.7106 206.869 37.2056L206.688 37.4353L198.646 36.9412L199.251 36.6439L200.224 25.5142L203.036 25.5278Z" fill="#E193A2"/>
<path d="M157.8 35.35L157.576 35.281C156.041 34.7974 154.982 34.0608 154.243 32.5901C153.689 31.4888 153.518 29.7631 153.943 28.5866C154.403 27.3088 155.544 26.0919 156.785 25.5397C157.936 25.0275 159.216 25.0163 160.386 25.4673C161.684 25.9678 162.579 26.802 163.125 28.0886C163.659 29.3429 163.685 30.991 163.145 32.2526C162.475 33.8133 161.572 34.6183 160.006 35.2532C159.26 35.3477 158.552 35.4491 157.8 35.35Z" fill="url(#paint0_linear_761_7921)"/>
<path d="M37.8052 128.767L25.6559 128.768C23.1586 128.764 20.1886 129.063 17.7833 128.426C14.5075 127.557 11.8093 125.39 10.1072 122.482C9.61556 121.642 8.64436 119.688 8.89239 118.751L9.41983 118.665C9.80597 118.703 10.2082 118.771 10.5958 118.763C11.3131 119.55 12.0272 120.414 12.8683 121.07C16.3088 123.754 20.7622 125.134 24.9301 126.2C26.7957 126.677 28.6556 127.169 30.5555 127.493C32.934 127.9 35.5074 128.015 37.8052 128.767Z" fill="#49A69E"/>
<path d="M204.544 25.5638C205.994 25.5411 216.47 26.0284 216.843 25.7416C217.445 26.3419 220.473 36.4178 220.477 37.7799L220.456 37.9996L220.371 38.3857L206.686 37.4353L206.866 37.2055C206.567 34.7105 206.008 32.1435 205.542 29.6691C205.281 28.2933 205.196 26.8083 204.544 25.5638Z" fill="#F7C2A8"/>
<path d="M157.799 35.3497C158.551 35.4488 159.259 35.3474 160.005 35.2529C161.025 35.6706 162.825 35.4231 163.931 35.4125L171.395 35.3552C172.785 35.354 174.367 35.2793 175.741 35.4884L175.641 35.5465C174.881 35.9637 173.982 35.9408 173.168 36.2309C170.367 37.2287 167.325 39.7458 166.417 42.6715L166.357 42.8933L166.147 42.9509L162.341 42.9615C161.275 42.8158 160.187 42.9709 159.118 42.8803C158.39 42.8188 157.676 42.528 156.917 42.4803C156.074 42.4275 155.2 42.5587 154.349 42.5451L143.183 42.5479L136.005 42.5642C134.529 42.575 133.007 42.5186 131.544 42.7344L114.593 42.9339C115.94 40.9966 117.496 37.9789 119.721 37.026C121.179 36.4016 123.695 36.7017 125.314 36.6285L147.589 35.8325L153.912 35.6238C155.197 35.5795 156.539 35.6144 157.799 35.3497Z" fill="#E5CFD8"/>
<path d="M126.906 39.4439C128.074 39.4368 130.143 39.1228 131.068 39.7641C131.124 40.3699 131.06 40.4832 130.781 40.9945C129.679 40.9922 127.459 41.2865 126.604 40.6913C126.544 40.0786 126.622 39.9623 126.906 39.4439Z" fill="#652F67"/>
<path d="M143.868 39.108L146.845 39.074C147.147 39.0704 147.764 38.9804 148.038 39.0603C148.127 39.0864 148.353 39.3263 148.438 39.3972C148.494 39.9863 148.395 40.0645 148.082 40.5375C146.872 40.5583 144.491 40.93 143.563 40.2521C143.511 39.6532 143.557 39.5874 143.868 39.108Z" fill="#652F67"/>
<path d="M138.999 39.3034C139.561 39.3761 139.553 39.4019 139.925 39.8354L139.75 40.4315C138.878 41.1064 136.982 40.8355 135.848 40.8479L135.094 40.7658C134.785 40.3311 134.816 40.2864 134.852 39.7468C135.663 39.0945 137.899 39.3348 138.999 39.3034Z" fill="#652F67"/>
<path d="M152.871 38.8922L156.124 38.8752C156.334 38.8752 156.999 38.8009 157.168 38.8755C157.264 38.9185 157.437 39.1335 157.521 39.2149C157.539 39.8363 157.465 39.9535 157.152 40.4598C155.826 40.4859 154.332 40.6465 153.027 40.4497C152.736 40.4057 152.697 40.2412 152.529 40.0127C152.543 39.4514 152.565 39.3613 152.871 38.8922Z" fill="#652F67"/>
<path d="M131.543 42.7344C133.007 42.5187 134.529 42.5751 136.005 42.5642L143.182 42.5479L154.349 42.5451C155.2 42.5587 156.074 42.4275 156.916 42.4804C157.675 42.5281 158.389 42.8188 159.118 42.8803C160.187 42.9709 161.275 42.8158 162.341 42.9615L166.147 42.9509C165.794 43.7842 165.114 44.4923 164.553 45.1945L161.74 48.8155L154.732 48.5609L107.101 49.1821C107.808 47.8209 109.02 46.4859 109.957 45.2571L103.892 45.6998C103.228 45.6835 103.043 45.503 102.612 45.0424C102.535 44.5809 102.555 44.3378 102.754 43.9129C103.037 43.6402 103.292 43.4117 103.683 43.3113C104.53 43.094 105.783 43.1975 106.674 43.1654L114.593 42.9339L131.543 42.7344Z" fill="#652F67"/>
<path d="M131.543 42.7344C133.007 42.5187 134.529 42.5751 136.005 42.5642L143.182 42.5479L154.349 42.5451C155.2 42.5587 156.074 42.4275 156.916 42.4804C157.675 42.5281 158.389 42.8188 159.118 42.8803C160.187 42.9709 161.275 42.8158 162.341 42.9615L146.373 43.4837C142.023 44.0618 110.76 44.6056 109.957 45.2571L103.892 45.6998C103.228 45.6835 103.043 45.503 102.612 45.0424C102.535 44.5809 102.555 44.3378 102.754 43.9129C103.037 43.6402 103.292 43.4117 103.683 43.3113C104.53 43.094 105.783 43.1975 106.674 43.1654L114.593 42.9339L131.543 42.7344Z" fill="#E193A2"/>
<path d="M131.545 42.7344C133.008 42.5187 134.53 42.5751 136.006 42.5642L143.184 42.5479L154.35 42.5451C155.202 42.5587 156.075 42.4275 156.918 42.4804C157.677 42.5281 158.391 42.8188 159.119 42.8803C160.189 42.9709 161.277 42.8158 162.342 42.9615L146.375 43.4837L144.252 43.3367C145.387 43.2418 146.766 43.1151 147.895 43.2718L148.038 43.2924C148.87 42.7504 151.623 43.0472 152.648 43.1151C153.111 42.8022 153.734 43.0715 154.245 42.8491L146.994 42.8231C146.177 42.8303 145.092 43.0252 144.311 42.9123C142.819 42.6967 141.238 42.7764 139.732 42.777L131.545 42.7344Z" fill="#E4ACB9"/>
<path d="M4.46572 56.9438C4.87952 57.0073 5.23055 57.0298 5.56953 57.2984L6.26008 71.3519L13.7818 72.1094C14.7863 72.2245 15.8965 72.2323 16.8753 72.4723L55.8535 111.494L66.8292 111.484C68.0284 111.483 70.0261 111.229 71.1336 111.582L55.8148 111.675L60.5501 117.191C61.1286 117.874 61.8376 118.548 62.3233 119.296C60.3134 118.906 58.3217 118.598 56.2807 118.429C54.611 118.291 52.3149 118.55 50.7642 118.041L44.0573 111.785L0.328125 70.8558L4.22833 71.1705L4.26397 61.8959C4.26929 60.2969 4.0888 58.4888 4.46572 56.9438Z" fill="#E4ACB9"/>
<path d="M4.46777 56.9438C4.88157 57.0073 5.2326 57.0298 5.57158 57.2984L6.26213 71.3519L4.8766 71.2708C4.80179 71.1934 4.70144 71.1342 4.65198 71.0384C4.52522 70.7925 4.66208 69.305 4.66439 68.9485L4.79328 59.4536C4.79647 58.9861 4.94557 57.7821 4.80321 57.3871C4.75817 57.2617 4.55447 57.0586 4.46777 56.9438Z" fill="#E5CFD8"/>
<path d="M44.0576 111.785C45.2098 111.54 46.6615 111.705 47.855 111.701L55.8151 111.675L60.5504 117.191C61.1289 117.874 61.8379 118.548 62.3237 119.296C60.3137 118.906 58.322 118.598 56.2811 118.429C54.6113 118.291 52.3153 118.55 50.7645 118.041L44.0576 111.785Z" fill="#652F67"/>
<path d="M175.741 35.4881C177.076 35.4344 178.195 35.678 179.486 35.7548L189.605 36.3804C190.508 36.4361 191.99 36.7887 192.788 36.5013L198.646 36.941L206.687 37.4351L220.372 38.3856L220.458 37.9995C220.679 38.1886 220.91 38.3409 221.195 38.4212C221.828 38.5999 222.633 38.5625 223.291 38.6132L227.383 38.8978L238.172 39.6954L238.305 39.3635C238.837 39.8497 239.555 39.7952 240.236 39.8475C241.94 39.9782 243.904 39.9128 245.564 40.2457L251.437 40.632C252.021 40.673 253.504 40.9481 253.91 40.617C255.008 41.0834 256.451 41.0246 257.634 41.1102L262.906 41.5963C268.42 42.2051 273.574 44.4131 278.511 46.8184C280.25 47.6658 282.342 48.6315 283.853 49.8392L283.906 50.0295L277.318 49.866C276.185 49.6582 274.9 49.6839 273.746 49.6132L266.812 49.2047L245.455 47.9018L198.837 44.9689L166.357 42.893L166.418 42.6712C167.325 39.7456 170.368 37.2284 173.169 36.2306C173.983 35.9406 174.882 35.9634 175.642 35.5463L175.741 35.4881Z" fill="#FBEEE0"/>
<path d="M10.5957 118.763L26.4036 118.793L30.0836 118.805C30.3692 118.808 30.9699 118.729 31.2211 118.816C31.6548 118.967 32.1806 119.433 32.626 119.657C33.9173 120.305 35.3004 120.884 36.6666 121.352C47.1978 124.959 58.2423 125.776 69.2915 126.051L98.4981 126.15L148.368 126.101L314.015 126.066C315.265 126.066 323.502 125.859 323.961 126.273C323.593 127.032 321.394 127.864 320.577 128.145C319.816 128.405 318.994 128.66 318.192 128.715C315.276 128.915 312.25 128.74 309.319 128.737L292.281 128.747L238.112 128.762L102.163 128.779L37.8051 128.767C35.5073 128.015 32.9339 127.9 30.5554 127.493C28.6556 127.169 26.7956 126.677 24.93 126.2C20.7621 125.134 16.3087 123.754 12.8682 121.07C12.0271 120.414 11.313 119.55 10.5957 118.763Z" fill="#69BEB1"/>
<path d="M115.008 111.563L115.117 111.621C118.473 113.175 121.723 115.33 125.005 117.081L132.636 121.168C134.689 122.229 136.975 123.204 138.856 124.543L178.087 123.801L207.069 122.561L226.133 120.932L242.268 119.558C247.477 119.35 252.717 119.778 257.884 120.429C261.144 120.84 264.424 121.64 267.725 121.45C275.976 120.975 284.002 118.118 292.278 117.796C295.077 117.688 311.879 119.198 312.606 118.802L312.743 118.846C314.198 119.293 316.319 119.032 317.847 119.032L329.468 119.086C328.686 121.324 327.693 123.071 325.99 124.754C325.5 125.239 325.002 125.81 324.367 126.101L324.24 126.155L324.142 126.199L323.962 126.273C323.502 125.858 315.265 126.065 314.016 126.066L148.368 126.101L98.4983 126.15L69.2917 126.051C58.2425 125.776 47.198 124.959 36.6668 121.352C35.3006 120.884 33.9175 120.305 32.6262 119.657C32.1808 119.433 31.655 118.966 31.2213 118.816C30.9701 118.728 30.3694 118.808 30.0838 118.805L26.4038 118.793L10.5959 118.763C10.2083 118.771 9.80606 118.703 9.41992 118.664C12.5129 118.315 15.96 118.617 19.0966 118.617L40.4415 118.544C43.8678 118.464 47.359 118.463 50.7642 118.041C52.3149 118.55 54.611 118.291 56.2807 118.429C58.3217 118.598 60.3134 118.906 62.3233 119.296C61.8375 118.548 61.1286 117.874 60.5501 117.191L55.8148 111.675L71.1336 111.582L115.008 111.563Z" fill="#B2D0C3"/>
<path d="M115.011 111.563L115.121 111.621C118.476 113.175 121.727 115.33 125.009 117.081L132.64 121.168C134.692 122.229 136.979 123.204 138.86 124.543L104.379 122.856L86.7612 123.053C83.8744 123.083 80.8909 123.225 78.0215 122.891C72.6783 122.27 67.5823 120.362 62.3269 119.296C61.8411 118.548 61.1321 117.874 60.5536 117.191L55.8184 111.675L71.1371 111.582L115.011 111.563Z" fill="#7D3061"/>
<path d="M166.355 42.8931L198.835 44.969L245.454 47.9019L266.81 49.2048L273.744 49.6133C274.898 49.684 276.183 49.6583 277.316 49.8661C277.69 50.1939 277.885 50.3109 278.038 50.7991C279.406 52.1877 280.615 53.9156 281.761 55.4965L281.745 55.8556L281.883 55.8943C283.349 56.2881 285.131 56.2712 286.656 56.3923C287.787 56.482 289.055 56.4781 290.145 56.7864C291.099 57.0566 291.911 57.645 292.735 58.1803L297.492 61.5543L297.568 61.8743L298.144 62.1736L298.024 62.6205C297.38 62.9797 296.286 62.774 295.531 62.7448C293.072 62.6492 290.577 62.3946 288.12 62.4154L287.826 62.3255C286.385 62.0188 284.498 62.1408 282.998 62.0716L273.302 61.5655L243.168 59.9262L182.934 56.6843L159.646 55.5663L150.284 55.1754C149.692 55.1711 148.717 55.0412 148.212 55.3736C146.894 58.7137 144.779 61.051 142.134 63.4135C141.581 63.9069 140.945 64.6242 140.308 64.9629L140.151 65.0391C139.391 65.4158 138.493 66.4081 137.714 66.565C137.183 66.6721 136.245 66.5039 135.683 66.481L129.506 66.2498C126.997 66.1693 124.046 65.7823 121.96 67.4511C121.679 67.6763 121.405 67.8913 121.292 68.2475C121.258 68.3539 121.254 68.444 121.274 68.5525L121.379 71.4473L120.691 72.1607L115.319 77.7288C114.807 78.2648 113.688 79.1151 113.435 79.7849L113.281 79.821C111.83 81.0727 110.323 82.2449 108.626 83.1442C103.499 81.8233 97.8 81.7728 92.5269 81.3145L77.2278 79.9382C75.6667 80.0324 73.899 79.5599 72.3358 79.3932L59.0896 77.9139C57.355 77.6797 55.361 77.5569 53.709 76.9753L56.7922 74.4612C57.1688 74.155 57.6707 73.6199 58.0911 73.406C58.4705 73.2127 60.0028 73.3154 60.5093 73.2914L60.6164 70.1282C59.901 70.1307 58.9892 70.2403 58.3207 69.9828C58.2817 69.4632 58.1827 68.9122 58.3554 68.412C58.7474 68.2626 59.142 68.1816 59.5511 68.0947L59.6798 67.9548C59.9384 67.71 68.6405 61.0089 68.6645 61.0013C69.3231 60.7916 70.8077 60.9744 71.5401 60.9659L83.2691 60.9667C83.2283 60.1289 83.1773 59.3117 83.3173 58.4792L83.3466 58.3124C83.3269 58.0553 83.2 57.8588 83.0869 57.6305C82.4362 57.6349 81.7487 57.7677 81.1977 57.4119L81.1085 56.8549C81.3329 56.4567 81.3572 56.4437 81.7794 56.2654L92.5724 50.6873C93.2474 50.3506 94.2042 49.6413 94.9027 49.5134C96.2097 49.2746 97.7523 49.459 99.0841 49.4418L107.1 49.1819L154.731 48.5607L161.739 48.8153L164.552 45.1943C165.113 44.492 165.793 43.784 166.146 42.9507L166.355 42.8931Z" fill="#F7C2A8"/>
<path d="M149.355 53.9097L175.755 55.1706L264.724 60.0875L288.197 61.4307L294.005 61.7514C295.177 61.8216 296.399 61.992 297.569 61.8746L298.145 62.1739L298.024 62.6208C297.381 62.98 296.287 62.7744 295.532 62.7451C293.073 62.6495 290.578 62.395 288.121 62.4157L287.827 62.3258C286.385 62.0191 284.499 62.1411 282.999 62.0719L273.303 61.5658L243.169 59.9265L182.935 56.6846L159.647 55.5666L150.285 55.1757C149.693 55.1714 148.718 55.0415 148.213 55.3739C146.013 55.74 143.608 55.5372 141.373 55.6143L124.932 56.1028L99.7307 57.1397L88.6215 57.5161C86.7846 57.5647 84.9188 57.4955 83.0878 57.6308C82.4371 57.6352 81.7496 57.768 81.1986 57.4122L81.1094 56.8552C81.3338 56.457 81.3581 56.444 81.7802 56.2657L149.355 53.9097Z" fill="url(#paint1_linear_761_7921)"/>
<path d="M107.102 49.1823L154.733 48.561C153.305 50.6158 151.574 52.699 149.356 53.9097L81.7812 56.2657L92.5743 50.6876C93.2493 50.351 94.2061 49.6416 94.9046 49.5138C96.2116 49.275 97.7542 49.4594 99.086 49.4422L107.102 49.1823Z" fill="#EEA896"/>
<path d="M166.357 42.8931L198.836 44.969L245.455 47.9019L266.811 49.2048L273.745 49.6133C274.899 49.684 276.185 49.6583 277.318 49.8661C277.692 50.1939 277.887 50.3109 278.039 50.7991C279.408 52.1877 280.617 53.9156 281.762 55.4965L281.746 55.8556C281.234 55.9854 280.518 55.8769 279.986 55.8482L275.881 55.5734L258.933 54.4898L161.74 48.8153L164.554 45.1943C165.114 44.492 165.795 43.784 166.148 42.9507L166.357 42.8931Z" fill="#707A9E"/>
<path d="M83.0869 57.6309C84.9179 57.4957 86.7837 57.5648 88.6206 57.5162L99.7298 57.1398L124.931 56.1029L141.372 55.6144C143.607 55.5373 146.012 55.7401 148.212 55.374C146.894 58.7142 144.779 61.0514 142.134 63.414C141.581 63.9074 140.945 64.6247 140.308 64.9633L140.151 65.0395C139.391 65.4163 138.493 66.4086 137.714 66.5655C137.183 66.6726 136.245 66.5043 135.683 66.4814L129.506 66.2502C126.997 66.1698 124.046 65.7827 121.96 67.4516C121.679 67.6767 121.405 67.8918 121.292 68.248C121.258 68.3543 121.254 68.4444 121.274 68.5529L121.379 71.4477L120.691 72.1611L115.319 77.7293C114.807 78.2652 113.688 79.1155 113.435 79.7853L113.281 79.8215C111.83 81.0731 110.323 82.2454 108.626 83.1446C103.499 81.8238 97.8 81.7732 92.5269 81.315L77.2278 79.9386C75.6667 80.0328 73.899 79.5603 72.3358 79.3937L59.0896 77.9144C57.355 77.6802 55.361 77.5573 53.709 76.9758L56.7922 74.4616C57.1688 74.1554 57.6707 73.6204 58.0911 73.4064C58.4705 73.2131 60.0028 73.3158 60.5093 73.2919L60.6164 70.1286C59.901 70.1311 58.9892 70.2407 58.3207 69.9833C58.2817 69.4636 58.1827 68.9126 58.3554 68.4125C58.7474 68.263 59.142 68.182 59.5511 68.0951L59.6798 67.9553C59.9384 67.7104 68.6405 61.0094 68.6645 61.0017C69.3231 60.792 70.8077 60.9748 71.5401 60.9663L83.2691 60.9672C83.2283 60.1293 83.1773 59.3122 83.3173 58.4796L83.3466 58.3128C83.3269 58.0557 83.2 57.8593 83.0869 57.6309Z" fill="#E4ACB9"/>
<path d="M135.327 60.0339C134.983 59.9996 134.926 59.9984 134.637 59.7805C134.629 59.2268 134.449 57.2733 134.707 56.8643L137.182 56.9462L136.848 57.1398C136.225 57.118 135.867 56.9706 135.384 57.3871L135.327 60.0339Z" fill="#E193A2"/>
<path d="M127.115 60.2446C126.342 60.4529 125.344 60.2932 124.542 60.2664C124.549 59.4214 124.362 57.9575 124.815 57.2808C125.238 57.0027 125.801 57.0996 126.29 57.1135L125.619 57.3205C125.299 57.9891 125.486 59.1537 125.508 59.8994C125.943 60.3033 126.533 60.2079 127.115 60.2446Z" fill="#E193A2"/>
<path d="M90.1947 58.1196L91.1811 58.2413C91.6339 58.8676 91.4485 59.8064 91.4405 60.5781L91.2411 60.9098L90.1904 60.9183L90.1947 58.1196Z" fill="#201E65"/>
<path d="M83.3475 58.3125L84.5671 58.3558C84.9832 58.9376 84.8176 60.268 84.819 60.9827L83.623 60.9646C83.2487 60.5104 83.359 58.922 83.3475 58.3125Z" fill="#C56E93"/>
<path d="M121.554 57.1851L121.922 57.4755L121.9 60.1348C121.484 60.4828 121.079 60.3972 120.546 60.4256C120.758 59.535 120.668 58.4802 120.681 57.5641L121.554 57.1851Z" fill="#201E65"/>
<path d="M110.252 60.6552C110.458 59.711 110.316 58.69 110.429 57.7243L111.672 57.522L111.651 60.4012C111.199 60.7448 110.811 60.646 110.252 60.6552Z" fill="#201E65"/>
<path d="M88.8165 72.4032C88.8003 71.6611 88.5915 69.9873 88.9099 69.3624L90.0439 69.1929C90.0469 69.9407 90.2656 71.8889 89.7964 72.3655L88.8165 72.4032Z" fill="#201E65"/>
<path d="M139.473 56.9252C140.033 56.9392 140.449 56.822 140.868 57.2096C140.889 57.9833 141.109 59.3243 140.611 59.9467C140.19 59.9111 139.885 59.9418 139.529 59.6916L139.473 56.9252Z" fill="#414879"/>
<path d="M78.168 69.5326L79.25 69.4858C79.687 69.8954 79.6005 71.8964 79.6361 72.5873L78.302 72.556L78.168 69.5326Z" fill="#201E65"/>
<path d="M110.216 69.0644L111.501 68.8809C111.486 69.6631 111.666 71.6166 111.162 72.112L110.091 72.1006C110.306 71.1578 110.204 70.0331 110.216 69.0644Z" fill="#201E65"/>
<path d="M99.2005 69.3496C99.5866 69.0872 100.099 69.0425 100.551 68.9531L100.544 71.9788C100.139 72.2892 99.8717 72.1764 99.3796 72.1491C99.0051 71.4893 99.1948 70.1199 99.2005 69.3496Z" fill="#201E65"/>
<path d="M99.8708 57.8164C100.464 57.8366 100.836 57.7678 101.34 58.096L101.357 60.9286L100.17 60.8651C99.71 60.3346 99.8848 58.5805 99.8708 57.8164Z" fill="#201E65"/>
<path d="M135.326 60.0337L135.384 57.387C135.866 56.9705 136.224 57.1178 136.847 57.1397L136.907 57.3428L136.899 59.9137L135.326 60.0337Z" fill="#201E65"/>
<path d="M103.461 57.6519L104.692 57.6827L104.909 57.9187C104.915 58.9094 104.952 59.9061 104.823 60.8904C104.206 60.8642 103.78 60.953 103.278 60.578C103.263 59.688 103.088 58.4688 103.461 57.6519Z" fill="#C56E93"/>
<path d="M77.9295 69.521L78.1665 69.5327L78.3005 72.556L76.5276 72.7026L76.373 69.844C77.1707 69.9339 77.2356 69.9234 77.9295 69.521Z" fill="#557CA7"/>
<path d="M110.215 69.064C110.203 70.0327 110.305 71.1574 110.09 72.1002L110.068 71.9825C109.918 71.1516 109.952 70.2733 109.941 69.4306L109.873 71.9245C109.414 72.3156 108.894 72.21 108.305 72.2305L108.236 69.3379C109.07 69.4473 109.471 69.4182 110.215 69.064Z" fill="#548DAB"/>
<path d="M95.0786 58.4572C94.8809 59.2056 95.2782 60.1803 94.8527 60.8588C94.3443 60.8998 93.6993 61.0528 93.2571 60.7613L93.21 58.3619C93.7126 57.8295 94.6299 57.9819 95.3566 57.9502L95.0786 58.4572Z" fill="#C56E93"/>
<path d="M92.6042 68.9688C93.0924 69.003 93.5688 68.9203 93.9289 69.2652C93.9333 70.1596 94.1647 71.7306 93.6346 72.4059C93.1086 72.3612 92.7517 72.3986 92.3088 72.1018C92.3023 71.0737 92.1071 69.8658 92.6042 68.9688Z" fill="#C56E93"/>
<path d="M72.9702 72.8477L71.8908 72.6913C71.4474 72.0499 71.5632 70.6417 71.6708 69.8747C72.1321 69.4662 72.9466 69.5792 73.5331 69.5813L73.4293 70.6633C73.0308 71.4815 73.6542 72.1155 72.9702 72.8477Z" fill="#C56E93"/>
<path d="M108.507 57.5558L111.672 57.522L110.428 57.7243C110.315 58.69 110.457 59.711 110.251 60.6552L110.233 60.5036L110.129 58.0097L109.894 58.0964C109.901 58.6903 110.102 60.2196 109.743 60.6215L108.371 60.7187L108.244 58.0725C108.59 58.0058 108.933 57.9767 109.21 57.7418L108.507 57.5558Z" fill="#548DAB"/>
<path d="M119.88 57.3035L121.556 57.1851L120.683 57.5641C120.67 58.4802 120.76 59.535 120.548 60.4256L120.532 60.3036L120.437 57.83H120.317L120.313 60.2235C119.87 60.6142 119.214 60.4967 118.629 60.5121C118.603 59.5459 118.657 58.4995 118.366 57.571C118.845 57.7458 119.346 57.7256 119.85 57.7396L119.88 57.3035Z" fill="#548DAB"/>
<path d="M85.0059 60.979L85.0126 58.2698L87.3383 58.2227L87.1679 58.6214L87.0477 60.7552C86.4485 61.009 85.656 60.9554 85.0059 60.979Z" fill="#557CA7"/>
<path d="M104.942 72.2597C104.766 71.3878 104.848 70.2604 104.809 69.3637C104.477 69.5523 104.85 71.5596 104.499 72.1507C103.985 72.2218 103.586 72.2895 103.084 72.1019L103.052 71.8695C102.959 71.0637 102.864 69.6025 103.359 68.983C103.964 68.8416 104.389 68.8999 104.991 69.0219C104.996 70.0542 105.107 71.2454 104.942 72.2597Z" fill="#C56E93"/>
<path d="M115.301 60.6133L113.733 60.6482L113.495 60.4011C113.471 59.5033 113.376 58.5509 113.599 57.6742C114.277 57.1886 114.831 57.3285 115.64 57.3334L115.294 57.5645L115.301 60.6133Z" fill="#C56E93"/>
<path d="M114.317 68.5635C114.706 68.6293 114.906 68.5998 115.183 68.9108C115.186 69.943 115.284 71.0895 115.097 72.102L114.483 72.4761C114.08 72.3327 113.722 72.2314 113.41 71.9247C113.394 71.1134 113.301 70.2119 113.424 69.4118C113.484 69.0239 114.003 68.7915 114.317 68.5635Z" fill="#C56E93"/>
<path d="M137.183 56.9463L138.998 56.9695L139.162 57.2099L139.129 57.3007C138.851 58.1517 138.992 59.1514 138.923 60.0395L136.901 59.914L136.909 57.3431L136.849 57.1399L137.183 56.9463Z" fill="#557CA7"/>
<path d="M136.905 57.3428L137.858 57.4273C138.568 58.4636 137.201 59.6523 138.919 60.0392L136.897 59.9137L136.905 57.3428Z" fill="#B1BEC6"/>
<path d="M83.7495 69.7571C83.4196 70.6151 83.9089 71.6295 83.4375 72.4566C82.8258 72.4848 82.172 72.659 81.6817 72.2793C81.6812 71.4377 81.4589 69.9598 81.9964 69.3494C82.7469 69.2824 83.1104 69.1827 83.8091 69.4891L83.7495 69.7571Z" fill="#C56E93"/>
<path d="M83.8115 69.489C84.2645 69.1673 85.1178 69.2422 85.6722 69.2217L86.334 69.4036L86.2828 69.7018L85.7945 69.9744L85.8007 72.237L85.3635 72.5379C84.8703 72.5361 84.2991 72.6081 83.8605 72.3588C83.7293 71.513 83.7688 70.6127 83.752 69.7571L83.8115 69.489Z" fill="#557CA7"/>
<path d="M89.9421 58.0942L90.1951 58.1198L90.1909 60.9185C88.6527 61.2018 86.5845 61.0529 85.0059 60.9793C85.656 60.9557 86.4485 61.0092 87.0477 60.7555L87.1679 58.6217L87.3383 58.2229C88.1921 58.2036 89.1014 58.2462 89.9421 58.0942Z" fill="#B1BEC6"/>
<path d="M87.3374 58.2229C88.1912 58.2036 89.1005 58.2462 89.9412 58.0942L89.8765 58.2091C89.4769 58.9589 89.8772 60.4715 89.3533 60.8745L88.3782 60.8268C88.018 60.263 88.4947 58.8766 87.8464 58.7043L87.167 58.6217L87.3374 58.2229Z" fill="#548DAB"/>
<path d="M85.669 69.2219C87.3245 69.2207 88.4957 69.3846 88.5292 69.3623C88.9475 69.0822 89.5604 69.1767 90.044 69.1928L88.9101 69.3623C88.5916 69.9873 88.8005 71.661 88.8166 72.4032L88.6168 72.2323L88.3892 72.3856C87.3717 72.5399 86.3457 72.3516 85.3604 72.5381L85.7975 72.2372L85.7913 69.9747L86.2796 69.702L86.3308 69.4038L85.669 69.2219Z" fill="#548DAB"/>
<path d="M86.2796 69.7017L86.7173 69.797C86.9129 70.5188 86.6588 72.0359 87.2258 72.3873L88.3892 72.3853C87.3717 72.5395 86.3457 72.3513 85.3604 72.5378L85.7975 72.2369L85.7913 69.9743L86.2796 69.7017Z" fill="#B1BEC6"/>
<path d="M108.507 57.5557L109.209 57.7416C108.932 57.9766 108.59 58.0056 108.244 58.0723L108.371 60.7185L107.408 60.7611L105.226 60.8088L105.221 57.5998L108.507 57.5557Z" fill="#557CA7"/>
<path d="M107.408 60.7612C107.397 59.9989 107.214 58.7314 107.545 58.0566L108.244 58.0724L108.371 60.7187L107.408 60.7612Z" fill="#B1BEC6"/>
<path d="M73.5354 69.5809C74.789 69.2741 76.6229 69.5005 77.9316 69.5209C77.2377 69.9234 77.1728 69.9338 76.3752 69.8439L76.5298 72.7026L75.5263 72.7155C74.8875 72.7148 73.9415 72.8877 73.4781 72.4565L73.4316 70.6629L73.5354 69.5809Z" fill="#557CA7"/>
<path d="M75.5252 72.7158C75.4929 71.8693 75.3293 70.8147 75.5456 69.996L76.3741 69.8442L76.5287 72.7029L75.5252 72.7158Z" fill="#B1BEC6"/>
<path d="M115.64 57.3333C116.973 57.3141 118.576 57.1108 119.879 57.3037L119.85 57.7398C119.346 57.7258 118.844 57.746 118.366 57.5712C118.657 58.4997 118.602 59.546 118.629 60.5123L117.6 60.5545L115.301 60.6131L115.294 57.5643L115.64 57.3333Z" fill="#557CA7"/>
<path d="M117.601 60.5546C117.57 59.713 117.376 58.5331 117.644 57.7417L118.366 57.5713C118.658 58.4998 118.603 59.5461 118.63 60.5124L117.601 60.5546Z" fill="#B1BEC6"/>
<path d="M104.993 69.0221C106.957 68.8302 109.573 68.5748 111.502 68.8808L110.217 69.0643C109.473 69.4185 109.072 69.4476 108.238 69.3382L108.306 72.2308L107.201 72.2385L104.944 72.2599C105.11 71.2456 104.999 70.0544 104.993 69.0221Z" fill="#557CA7"/>
<path d="M107.2 72.2387C107.188 71.4747 106.981 70.058 107.353 69.4079L108.238 69.3384L108.306 72.2311L107.2 72.2387Z" fill="#B2D0C3"/>
<path d="M95.3542 57.9504C96.5546 57.8319 98.6385 57.6408 99.7885 57.9901L99.7419 58.1092C99.4701 58.8413 99.7836 60.4975 99.2826 60.8709L98.0279 60.8943L97.0274 60.8847C96.4498 60.8991 95.7158 60.9948 95.1872 60.7555L95.0762 58.4574L95.3542 57.9504Z" fill="#557CA7"/>
<path d="M97.0267 60.8849C97.0163 60.1114 96.9085 59.1971 97.1214 58.4509L97.9706 58.3354L98.0272 60.8945L97.0267 60.8849Z" fill="#B1BEC6"/>
<path d="M99.7889 57.9902L99.7423 58.1094C99.4705 58.8414 99.7839 60.4976 99.2829 60.871L98.0282 60.8944L97.9717 58.3354L98.2298 58.3842C99.0166 58.4886 99.1781 58.4615 99.7889 57.9902Z" fill="#548DAB"/>
<path d="M96.342 72.263L94.2183 72.2763L94.2021 69.0694L100.552 68.9531C100.1 69.0425 99.588 69.0872 99.2019 69.3496L98.9443 69.3882L98.8651 72.0132C98.4201 72.3284 97.8348 72.2431 97.2936 72.2612L96.342 72.263Z" fill="#548DAB"/>
<path d="M96.3408 72.2631L96.396 69.6199L97.1067 69.2676C97.317 70.2519 97.2849 71.2596 97.2923 72.2613L96.3408 72.2631Z" fill="#B2D0C3"/>
<path d="M65.6679 72.9131L63.9125 72.9106C63.4413 72.4172 63.6001 70.6488 63.5821 69.9031C64.2336 69.5276 68.4808 69.7286 69.5156 69.765L69.5172 72.6622C69.093 72.9627 68.6795 72.8746 68.1693 72.8835L66.5832 72.8991L65.6679 72.9131Z" fill="#557CA7"/>
<path d="M65.693 70.1943L66.6071 70.2094L66.5833 72.8989L65.668 72.9129L65.693 70.1943Z" fill="#B1BEC6"/>
<path d="M65.6937 70.1942C65.2398 70.1969 64.7131 70.265 64.2979 70.063C64.5716 69.8398 65.4866 69.9623 65.8738 69.9675C67.107 69.9843 68.302 70.0244 69.5164 69.7646L69.518 72.6619C69.0937 72.9624 68.6803 72.8743 68.17 72.8832C68.2986 72.0684 68.5335 70.6858 68.0796 70.0198L66.6078 70.2093L65.6937 70.1942Z" fill="#201E65"/>
<path d="M66.6097 70.2095L68.0816 70.02C68.5354 70.6861 68.3005 72.0686 68.172 72.8834L66.5859 72.899L66.6097 70.2095Z" fill="#548DAB"/>
<path d="M126.288 57.1133L131.838 57.063L131.812 59.8691C131.417 60.1852 130.899 60.1083 130.414 60.1088L128.285 60.1438L127.112 60.2445C126.531 60.2078 125.941 60.3031 125.506 59.8993C125.484 59.1536 125.297 57.989 125.617 57.3204L126.288 57.1133Z" fill="#201E65"/>
<path d="M127.114 60.2444C127.087 59.4927 126.854 58.0925 127.208 57.4459L128.282 57.3813L128.287 60.1437L127.114 60.2444Z" fill="#B2D0C3"/>
<path d="M128.279 57.3815L130.418 57.2964L130.414 60.1089L128.284 60.1438L128.279 57.3815Z" fill="#548DAB"/>
<path d="M117.99 72.1503L115.501 72.1555L115.5 68.6276L120.675 68.6658L121.275 68.5527L121.381 71.4475L120.692 72.1609L118.915 72.1321L117.99 72.1503Z" fill="#557CA7"/>
<path d="M117.992 72.1505C117.979 71.1707 117.853 70.0438 118.074 69.0884L118.825 68.9712L118.917 72.1323L117.992 72.1505Z" fill="#B1BEC6"/>
<path d="M120.677 68.6658L121.277 68.5527L121.382 71.4475L120.694 72.1609L118.917 72.1321L118.825 68.971C119.332 69.0807 119.865 69.0687 120.382 69.0864L120.677 68.6658Z" fill="#548DAB"/>
<path d="M77.2314 79.9386C77.3311 79.8836 77.4905 79.7634 77.5949 79.7379C78.206 79.5879 79.2799 79.7384 79.9339 79.739L86.2754 79.7487L113.285 79.8214C111.833 81.0731 110.327 82.2453 108.63 83.1445C103.502 81.8237 97.8037 81.7732 92.5305 81.3149L77.2314 79.9386Z" fill="#652F67"/>
<path d="M59.5529 68.0948C60.706 68.2649 61.8681 68.1289 63.0272 68.0948L68.8778 67.8938L77.2548 67.6786L119.417 66.6318C119.647 67.0329 119.578 67.1169 119.494 67.581C118.79 68.0016 92.4821 68.3136 88.9357 68.487L63.6979 69.0653L61.3123 69.2653C61.1175 69.5858 60.9678 69.9729 60.6182 70.1284C59.9029 70.1308 58.9911 70.2404 58.3225 69.983C58.2835 69.4633 58.1846 68.9123 58.3572 68.4122C58.7492 68.2627 59.1439 68.1817 59.5529 68.0948Z" fill="#E193A2"/>
<path d="M148.213 55.3737C148.718 55.0413 149.693 55.1713 150.285 55.1755L159.647 55.5664L182.935 56.6844L243.169 59.9264L273.303 61.5656L282.999 62.0717C284.499 62.1409 286.385 62.0189 287.827 62.3256L288.121 62.4155L287.766 62.5283C287.937 63.2419 288.889 64.1755 289.367 64.7807L292.527 68.9609C293.055 69.6708 293.81 70.521 294.175 71.3187C296.207 71.4206 298.863 71.2758 300.803 71.7731C301.517 71.9562 302.26 72.4395 302.9 72.8093C304.478 73.7194 305.971 74.7483 307.43 75.8358L307.478 76.1094L307.953 76.536L307.687 76.9698C304.694 77.1962 301.616 76.4645 298.61 76.6306L305.364 85.1927C305.829 85.7751 307.291 87.2741 307.304 87.9281L113.436 79.785C113.689 79.1152 114.807 78.2649 115.32 77.729L120.692 72.1608L121.38 71.4474L121.274 68.5526C121.255 68.4441 121.259 68.354 121.293 68.2476C121.405 67.8915 121.68 67.6764 121.961 67.4513C124.046 65.7824 126.998 66.1695 129.507 66.2499L135.684 66.4811C136.246 66.504 137.183 66.6722 137.715 66.5652C138.493 66.4083 139.392 65.416 140.152 65.0392L140.308 64.963C140.946 64.6244 141.582 63.907 142.135 63.4136C144.78 61.0511 146.894 58.7139 148.213 55.3737Z" fill="#F7C2A8"/>
<path d="M121.273 68.5527L122.204 68.7336C122.464 69.1867 122.337 69.8211 122.309 70.3292C122.019 70.7297 121.722 71.0903 121.379 71.4475L121.273 68.5527Z" fill="#201E65"/>
<path d="M297.944 75.7691C300.237 75.7429 302.534 75.9295 304.821 76.0609C305.532 76.1019 306.851 76.3433 307.477 76.1093L307.952 76.5359L307.686 76.9697C304.694 77.1961 301.616 76.4644 298.609 76.6305L297.944 75.7691Z" fill="#E193A2"/>
<path d="M260.475 75.9064C261.549 75.3369 263.191 75.719 264.395 75.7537C264.926 75.7692 265.735 75.688 266.233 75.8514C266.444 75.9206 266.584 76.041 266.662 76.242C266.846 76.721 266.751 77.5086 266.752 78.0392L266.751 81.6533C266.749 82.1275 266.825 82.7053 266.644 83.1425L265.988 83.3981L265.667 83.2712L265.646 78.5551C265.646 77.8275 265.731 77.0132 265.526 76.3103C263.935 76.1537 262.143 76.3205 260.613 75.9424L260.475 75.9064Z" fill="#9E4872"/>
<path d="M268.331 76.1086C269.817 75.5486 272.625 76.0696 274.267 76.1266C274.41 76.273 274.641 76.4572 274.753 76.6228C274.96 76.9284 274.891 77.7314 274.893 78.0863L274.885 83.0939C274.644 83.51 274.586 83.5674 274.162 83.796L273.535 83.7428C273.905 83.0859 273.808 82.2346 273.815 81.499L273.776 76.6625C272.118 76.3937 269.998 76.7648 268.459 76.1618L268.331 76.1086Z" fill="#9E4872"/>
<path d="M252.506 75.5512C253.552 74.9763 255.289 75.3025 256.452 75.3592C256.993 75.3856 257.745 75.3358 258.259 75.4877C258.562 75.5771 258.722 75.7746 258.86 76.0459C259.039 76.3958 258.947 77.2681 258.949 77.6886L258.938 82.5622C258.7 82.9036 258.557 82.9008 258.174 83.0364L257.878 82.9338C257.686 82.4611 257.771 81.8925 257.778 81.3885C257.794 80.0365 258.153 77.4573 257.697 76.2684C256.603 75.4346 254.066 75.8904 252.657 75.5853L252.506 75.5512Z" fill="#9E4872"/>
<path d="M201.42 73.2412C202.264 72.8416 203.186 72.9846 204.095 73.0183C205.397 73.0664 206.735 73.0621 208.019 73.3025C208.109 73.3984 208.419 73.667 208.462 73.7732C208.614 74.1576 208.522 75.0914 208.522 75.5305L208.506 80.6122L208.139 81.0531L207.276 81.0446C207.473 80.4284 207.389 79.5843 207.396 78.9302L207.327 73.7855C206.652 73.2931 202.774 73.5564 201.56 73.2754L201.42 73.2412Z" fill="#9E4872"/>
<path d="M244.146 75.1837C245.114 74.4325 248.913 74.969 250.156 75.0541C250.606 75.3927 250.792 75.5048 250.87 76.096L250.904 82.2074C250.728 82.4088 250.599 82.5233 250.368 82.656L249.801 82.5847C249.615 81.8684 249.702 80.9852 249.7 80.2397L249.698 75.673C247.906 75.2984 246.08 75.5438 244.3 75.2137L244.146 75.1837Z" fill="#9E4872"/>
<path d="M183.501 72.5168C184.267 72.1132 185.098 72.2631 185.932 72.3125L190.055 72.5462C190.41 72.7754 190.74 72.9027 190.864 73.3433C191.096 74.1647 191.139 79.6366 190.718 80.2576C190.351 80.4689 189.905 80.3606 189.499 80.322C189.584 80.1814 189.676 80.0192 189.715 79.8576C189.836 79.3513 189.766 78.665 189.774 78.1314C189.788 76.9948 190.091 74.2709 189.578 73.3516C189.091 72.4786 184.738 72.8332 183.645 72.5549L183.501 72.5168Z" fill="#9E4872"/>
<path d="M227.506 74.159C228.956 73.8615 230.656 74.1187 232.128 74.209C232.562 74.2356 233.303 74.1893 233.67 74.4506C233.826 74.5616 233.957 74.7075 234.083 74.8502L234.126 81.6759C233.585 82.1947 233.535 82.1097 232.819 82.095C233.023 81.4348 232.931 80.6021 232.936 79.9044C232.947 78.5643 233.144 76.8428 232.906 75.5452C232.591 73.8287 228.772 75.1006 227.587 74.2255L227.506 74.159Z" fill="#9E4872"/>
<path d="M235.8 74.6572C237.289 74.0879 240.216 74.617 241.824 74.706C242.191 74.9483 242.468 75.0457 242.56 75.5238C242.826 76.9263 242.594 78.8804 242.579 80.3346C242.572 80.9741 242.659 81.6685 242.356 82.2491C242.037 82.483 241.688 82.4443 241.308 82.4518C241.473 81.7474 241.395 80.8383 241.399 80.1099L241.37 75.33C239.596 74.9822 237.718 75.1497 235.958 74.6982L235.8 74.6572Z" fill="#9E4872"/>
<path d="M192.806 72.7579C193.898 72.3804 195.454 72.666 196.614 72.7235C197.49 72.7667 198.433 72.71 199.273 72.9901C199.942 73.6552 199.778 74.3372 199.782 75.2462L199.771 78.9799C199.768 79.5084 199.855 80.1011 199.585 80.5704C199.234 80.79 198.842 80.7021 198.447 80.6721C198.695 80.005 198.582 79.0536 198.585 78.3429L198.557 73.4846C198.257 73.2486 197.844 73.2961 197.467 73.2657C196.428 73.1816 193.641 73.388 192.88 72.8194L192.806 72.7579Z" fill="#9E4872"/>
<path d="M219 73.8085C220.431 73.6422 221.911 73.7819 223.347 73.8468C223.969 73.8748 224.726 73.8149 225.299 74.085C225.381 74.1916 225.574 74.3783 225.618 74.4955C225.928 75.3142 225.831 80.0971 225.698 81.1605C225.675 81.3366 225.572 81.4928 225.468 81.631C225.108 81.8551 224.657 81.767 224.25 81.745C224.617 81.1868 224.523 80.5579 224.528 79.9175L224.523 75.2933C223.415 73.2603 220.597 75.0887 219.078 73.8794L219 73.8085Z" fill="#9E4872"/>
<path d="M210.143 73.6036C211.086 72.9585 213.206 73.3808 214.343 73.4384C214.977 73.4705 215.72 73.4237 216.339 73.5595C216.805 73.6619 216.913 73.891 217.179 74.2415L217.204 79.1012C217.199 79.8733 217.33 80.5722 216.913 81.2333C216.596 81.3211 216.314 81.3659 215.986 81.378L215.977 74.1988C214.117 73.9176 212.08 74.1029 210.277 73.64L210.143 73.6036Z" fill="#9E4872"/>
<path d="M265.988 83.3985L265.857 83.4618C264.04 83.1882 262.022 83.2707 260.168 83.1735L260.173 78.7615C260.179 77.7901 260.095 76.8212 260.475 75.9067L260.613 75.9427C262.143 76.3209 263.935 76.1541 265.526 76.3106C265.731 77.0136 265.646 77.8279 265.646 78.5555L265.668 83.2716L265.988 83.3985Z" fill="#DF797D"/>
<path d="M258.17 83.0365C257.555 83.3382 253.208 82.8817 252.164 82.8209L252.165 77.7913C252.173 77.0136 252.063 76.2289 252.502 75.5513L252.653 75.5853C254.063 75.8904 256.6 75.4346 257.693 76.2684C258.149 77.4573 257.791 80.0365 257.775 81.3885C257.768 81.8926 257.683 82.4612 257.874 82.9338L258.17 83.0365Z" fill="#DF797D"/>
<path d="M273.534 83.743L268.045 83.5232L267.997 78.767C268.001 77.8607 267.909 76.9379 268.331 76.1089L268.458 76.1621C269.997 76.765 272.118 76.394 273.775 76.6627L273.814 81.4992C273.807 82.2348 273.905 83.0861 273.534 83.743Z" fill="#DF797D"/>
<path d="M250.371 82.6563C249.937 83.0038 244.919 82.5879 243.919 82.5634C243.763 80.9145 243.863 79.1517 243.868 77.491C243.87 76.7116 243.767 75.8886 244.148 75.1841L244.302 75.214C246.082 75.5442 247.908 75.2988 249.701 75.6734L249.703 80.24C249.704 80.9856 249.618 81.8688 249.804 82.5851L250.371 82.6563Z" fill="#DF797D"/>
<path d="M241.309 82.4513C240.274 82.4171 236.173 82.5064 235.51 82.112L235.512 77.3906C235.517 76.4655 235.423 75.5212 235.801 74.6567L235.958 74.6977C237.719 75.1493 239.596 74.9817 241.371 75.3296L241.399 80.1095C241.396 80.8378 241.474 81.7469 241.309 82.4513Z" fill="#DF797D"/>
<path d="M232.819 82.0947L227.02 81.866L227.022 77.4504C227.027 76.2789 226.896 75.2095 227.506 74.1587L227.588 74.2252C228.772 75.1003 232.591 73.8284 232.906 75.5449C233.144 76.8425 232.947 78.564 232.936 79.9041C232.931 80.6018 233.023 81.4345 232.819 82.0947Z" fill="#DF797D"/>
<path d="M224.249 81.7452C222.494 81.882 220.392 81.553 218.62 81.4603L218.541 81.25C218.386 80.6093 218.337 74.9993 218.544 74.4956C218.631 74.282 218.869 74.007 219 73.8086L219.078 73.8795C220.597 75.0888 223.414 73.2604 224.522 75.2934L224.528 79.9177C224.522 80.558 224.616 81.1869 224.249 81.7452Z" fill="#DF797D"/>
<path d="M215.989 81.3779L209.931 81.0837C209.743 79.9195 209.84 78.6123 209.837 77.4262C209.833 76.2122 209.656 74.7201 210.145 73.6035L210.28 73.6399C212.083 74.1028 214.12 73.9175 215.98 74.1987L215.989 81.3779Z" fill="#DF797D"/>
<path d="M207.276 81.0442L201.25 80.7061L201.146 80.5438L201.11 75.3811C201.11 74.6598 200.979 73.8511 201.42 73.2407L201.56 73.2749C202.775 73.5559 206.652 73.2927 207.328 73.785L207.397 78.9298C207.39 79.5838 207.473 80.4279 207.276 81.0442Z" fill="#DF797D"/>
<path d="M198.45 80.6721L192.287 80.3589L192.271 74.9028C192.276 74.536 192.181 73.7547 192.294 73.4315C192.361 73.2438 192.677 72.9298 192.808 72.7578L192.883 72.8193C193.643 73.3879 196.43 73.1815 197.469 73.2656C197.847 73.2961 198.26 73.2486 198.559 73.4845L198.588 78.3428C198.584 79.0536 198.698 80.0049 198.45 80.6721Z" fill="#DF797D"/>
<path d="M189.5 80.3218C187.504 80.4672 185.242 80.2012 183.242 80.0323C183.105 78.348 183.203 76.5978 183.189 74.9054C183.183 74.1659 183.018 73.124 183.502 72.5166L183.646 72.5547C184.74 72.8331 189.092 72.4785 189.58 73.3515C190.092 74.2707 189.789 76.9946 189.775 78.1312C189.768 78.6649 189.837 79.3511 189.716 79.8575C189.677 80.019 189.585 80.1812 189.5 80.3218Z" fill="#DF797D"/>
<path d="M148.215 55.3737C148.72 55.0413 149.695 55.1713 150.287 55.1755L159.649 55.5664L182.937 56.6844L243.171 59.9264L273.305 61.5656L283.001 62.0717C284.501 62.1409 286.388 62.0189 287.829 62.3256L288.123 62.4155L287.769 62.5283C287.939 63.2419 288.891 64.1755 289.37 64.7807L292.529 68.9609C293.057 69.6708 293.812 70.521 294.178 71.3187L296.786 74.6383L296.463 75.0432L138.648 66.6639L140.311 64.963C140.948 64.6244 141.584 63.907 142.137 63.4136C144.782 61.0511 146.897 58.7139 148.215 55.3737Z" fill="#FBEEE0"/>
<path d="M167.925 58.7295L169.21 59.0513C169.515 60.031 169.421 61.155 169.426 62.1737L169.097 62.7744C168.6 62.7715 168.4 62.812 167.973 62.5283L167.925 58.7295Z" fill="#49A69E"/>
<path d="M159.111 58.2134L160.616 58.497L160.576 62.1737L159.802 62.2983L159.294 62.2138C158.868 61.7124 159.111 59.0131 159.111 58.2134Z" fill="#49A69E"/>
<path d="M269.089 65.0731L269.481 64.4458L274.088 64.7866L274.049 68.379L273.736 68.6839L272.881 68.6263C273.152 67.6757 272.989 66.2024 273.003 65.1886L269.089 65.0731Z" fill="#414879"/>
<path d="M245.037 63.5038L245.475 63.0508C246.494 63.0939 248.78 62.9215 249.592 63.4461C250.038 64.134 249.813 65.9575 249.801 66.8148L249.535 67.2297L248.516 67.2018C248.75 66.2152 248.597 64.8152 248.611 63.7805L245.037 63.5038Z" fill="#414879"/>
<path d="M236.763 62.9784L237.217 62.4614L241.649 62.7387L241.592 66.5173L241.294 66.7889L240.291 66.6751C240.691 65.8443 240.498 64.1475 240.504 63.1995L236.935 63.002L236.763 62.9784Z" fill="#414879"/>
<path d="M220.056 61.5767L225.165 61.738L225.128 65.5423C224.66 65.9559 224.344 65.8043 223.736 65.7715C224.261 65.036 224.032 63.1877 224.023 62.267L220.371 62.041L220.056 61.5767Z" fill="#414879"/>
<path d="M261.005 64.0431C262.381 63.7283 264.462 64.0132 265.857 64.233C265.845 65.1959 266.102 67.6363 265.492 68.2607C265.129 68.2229 264.755 68.2031 264.402 68.1052C264.866 67.3234 264.696 65.707 264.701 64.783C264.157 64.4333 262.145 64.5434 261.42 64.5087L261.005 64.0431Z" fill="#414879"/>
<path d="M228.648 62.0915C230.04 61.8476 232.098 62.1004 233.51 62.3012L233.478 66.0318L233.137 66.3326L232.1 66.1857C232.584 65.3941 232.379 63.7426 232.364 62.809L228.971 62.6005L228.648 62.0915Z" fill="#414879"/>
<path d="M194.03 60.4646L194.401 59.9971L199.269 60.2096L199.214 64.1242L198.922 64.3969L198.065 64.3591C198.204 63.1782 198.113 61.8852 198.127 60.6904L194.03 60.4646Z" fill="#414879"/>
<path d="M185.311 59.9321L185.711 59.3901C187.305 59.3971 189.117 59.4165 190.69 59.6754L190.677 63.7694C190.193 64.0474 189.948 63.9195 189.406 63.8405C189.847 62.954 189.622 61.1765 189.612 60.1638L185.311 59.9321Z" fill="#414879"/>
<path d="M253.059 63.5527C254.018 63.4901 257.074 63.3612 257.856 63.8482L257.847 67.4926L257.516 67.7922L256.37 67.7062C256.837 66.9219 256.636 65.1614 256.638 64.2271L253.438 64.0377L253.059 63.5527Z" fill="#414879"/>
<path d="M211.24 61.3623C211.34 61.2764 211.632 60.9679 211.738 60.9314C211.925 60.8681 212.517 60.9626 212.735 60.9718L215.587 61.1097C215.853 61.1287 216.027 61.1858 216.259 61.3209C216.74 62.0188 216.449 64.1171 216.421 65.0104L216.153 65.365C215.788 65.3613 215.449 65.3592 215.091 65.2741C215.522 64.4013 215.311 62.7392 215.3 61.7487C214.008 61.5804 212.651 61.6935 211.384 61.3973L211.24 61.3623Z" fill="#414879"/>
<path d="M176.637 59.2556C177.771 58.534 180.3 59.0444 181.679 59.1451L181.846 59.2538C181.897 60.2362 182.205 62.7579 181.629 63.4457C181.248 63.423 180.851 63.423 180.477 63.3544C180.913 62.3044 180.734 60.784 180.723 59.6454C179.42 59.5004 178.069 59.5575 176.786 59.288L176.637 59.2556Z" fill="#414879"/>
<path d="M159.109 58.2134C160.119 57.7145 163.085 57.9962 164.233 58.2852L164.244 62.351C163.783 62.6505 163.517 62.5464 162.976 62.5116C163.035 61.5327 163.265 59.553 162.952 58.6753L160.614 58.4971L159.109 58.2134Z" fill="#414879"/>
<path d="M167.925 58.7297C169.054 58.1576 171.88 58.546 173.16 58.7409L173.153 62.7058L172.857 62.9944L171.811 62.9528C172.066 61.8371 171.903 60.3486 171.914 59.1887C171.276 58.8937 169.939 59.0588 169.21 59.0515L167.925 58.7297Z" fill="#414879"/>
<path d="M151.653 61.9901C151.025 61.9627 150.16 62.0937 149.724 61.6419C149.718 60.3865 149.612 59.0214 149.861 57.791C150.794 58.058 151.657 57.975 152.594 58.094L151.674 58.1814C151.299 58.7656 151.506 61.265 151.653 61.9901Z" fill="#49A69E"/>
<path d="M202.521 60.8705C202.649 60.7737 202.951 60.4865 203.087 60.4413C203.307 60.3691 203.943 60.4707 204.195 60.4796C205.268 60.5175 206.399 60.4877 207.463 60.6279L207.838 60.6849L207.824 64.6558C207.399 64.9866 207.119 64.8879 206.592 64.8808L206.622 61.2052C205.316 61.0963 203.938 61.1777 202.658 60.901L202.521 60.8705Z" fill="#414879"/>
<path d="M149.86 57.7911C150.029 57.7028 150.255 57.5418 150.432 57.492C150.657 57.4283 151.213 57.5372 151.482 57.5515C152.38 57.5996 153.878 57.4634 154.711 57.7267C155.031 57.8279 155.164 58.0221 155.283 58.3187C155.602 59.1099 155.327 61.0926 155.307 62.0033C154.892 62.2976 154.43 62.1515 153.932 62.1187C153.944 61.1906 154.24 58.9456 153.787 58.2346L152.593 58.0941C151.656 57.9751 150.793 58.0581 149.86 57.7911Z" fill="#414879"/>
<path d="M152.594 58.0942L153.788 58.2348C154.241 58.9458 153.945 61.1908 153.933 62.1189L151.653 61.9904C151.506 61.2652 151.299 58.7658 151.674 58.1816L152.594 58.0942Z" fill="#69BEB1"/>
<path d="M169.211 59.0513C169.94 59.0585 171.277 58.8935 171.915 59.1885C171.904 60.3483 172.067 61.8368 171.812 62.9525L169.098 62.7744L169.427 62.1737C169.422 61.155 169.516 60.031 169.211 59.0513Z" fill="#69BEB1"/>
<path d="M160.613 58.4971L162.951 58.6752C163.265 59.553 163.034 61.5326 162.976 62.5116C161.915 62.4756 160.849 62.4691 159.8 62.2984L160.574 62.1737L160.613 58.4971Z" fill="#69BEB1"/>
<path d="M245.037 63.5039L248.611 63.7807C248.597 64.8153 248.75 66.2154 248.516 67.202L245.163 67.019C245.191 65.9452 245.346 64.6717 245.074 63.6344L245.037 63.5039Z" fill="#69BEB1"/>
<path d="M253.059 63.5527L253.438 64.0378L256.638 64.2271C256.636 65.1615 256.837 66.922 256.37 67.7063L253.098 67.5411L253.075 63.7295L253.059 63.5527Z" fill="#69BEB1"/>
<path d="M236.763 62.9785L236.935 63.0021L240.504 63.1996C240.498 64.1476 240.691 65.8444 240.291 66.6752L236.896 66.5147C236.922 65.4824 237.101 64.074 236.8 63.0946L236.763 62.9785Z" fill="#69BEB1"/>
<path d="M261.005 64.043L261.42 64.5085C262.145 64.5433 264.157 64.4332 264.701 64.7828C264.696 65.7068 264.866 67.3232 264.402 68.105C263.35 68.1969 262.147 68.0091 261.086 67.9414C261.106 66.7344 261.251 65.3404 261.03 64.1598L261.005 64.043Z" fill="#69BEB1"/>
<path d="M269.089 65.0728L273.003 65.1883C272.989 66.2021 273.152 67.6754 272.881 68.626L269.284 68.4581C269.318 67.4651 269.523 66.1193 269.142 65.1928L269.089 65.0728Z" fill="#69BEB1"/>
<path d="M228.648 62.0913L228.971 62.6003L232.364 62.8088C232.379 63.7424 232.584 65.3939 232.1 66.1855L228.661 66.0759L228.648 62.0913Z" fill="#69BEB1"/>
<path d="M211.24 61.3623L211.384 61.3972C212.651 61.6935 214.008 61.5804 215.3 61.7486C215.311 62.7391 215.522 64.4012 215.091 65.274C213.917 65.0831 212.602 65.146 211.407 65.1028C211.425 64.0004 211.604 62.5246 211.279 61.4814L211.24 61.3623Z" fill="#69BEB1"/>
<path d="M223.736 65.7715L220.098 65.5831L220.056 61.5767L220.371 62.041L224.023 62.267C224.032 63.1877 224.261 65.036 223.736 65.7715Z" fill="#69BEB1"/>
<path d="M202.521 60.8706L202.658 60.9011C203.938 61.1779 205.316 61.0965 206.622 61.2053L206.592 64.8809C205.457 64.5944 203.899 64.7024 202.708 64.6368C202.725 63.5599 202.927 61.9822 202.564 60.9834L202.521 60.8706Z" fill="#69BEB1"/>
<path d="M194.03 60.4644L198.127 60.6902C198.113 61.885 198.204 63.178 198.065 64.3589L194.177 64.1802C194.197 63.0523 194.346 61.6894 194.067 60.5987L194.03 60.4644Z" fill="#69BEB1"/>
<path d="M176.637 59.2554L176.786 59.2878C178.069 59.5573 179.42 59.5002 180.723 59.6452C180.734 60.7838 180.913 62.3042 180.477 63.3541L176.713 63.1795C176.747 61.9801 176.922 60.5531 176.667 59.3853L176.637 59.2554Z" fill="#69BEB1"/>
<path d="M185.311 59.9321L189.612 60.1638C189.622 61.1765 189.847 62.954 189.406 63.8405C188.149 63.9201 186.779 63.7384 185.513 63.6749C185.532 62.5936 185.724 61.0576 185.357 60.0523L185.311 59.9321Z" fill="#69BEB1"/>
<path d="M16.8779 72.4722L20.734 72.8837C21.4304 72.9611 22.253 72.9675 22.9093 73.2042L23.6139 73.3992L38.8566 79.0505L60.8746 86.2148C72.8609 89.581 85.1159 92.1308 97.3579 94.373L115.16 97.4743L167.172 103.402L270.348 109.62L307.083 110.152L318.114 110.166C319.385 110.168 321.5 109.927 322.677 110.314L322.721 110.657C322.734 111.268 322.436 111.996 321.98 112.443C321.838 112.583 321.659 112.686 321.482 112.774C320.815 114.537 315.087 117.696 313.304 118.498L312.609 118.801C311.882 119.198 295.08 117.688 292.281 117.796C284.005 118.118 275.979 120.974 267.728 121.449C264.426 121.64 261.147 120.84 257.886 120.428C252.72 119.777 247.479 119.35 242.271 119.558L226.135 120.931L207.071 122.561L178.09 123.801L138.859 124.543C136.978 123.204 134.692 122.229 132.639 121.168L125.008 117.081C121.726 115.33 118.475 113.175 115.12 111.621L115.01 111.563L71.1362 111.582C70.0287 111.229 68.0309 111.483 66.8318 111.483L55.8561 111.494L16.8779 72.4722Z" fill="#E5CFD8"/>
<path d="M16.8779 72.4722L20.734 72.8837C21.4304 72.9611 22.253 72.9675 22.9093 73.2042C23.6956 73.833 24.5291 74.1779 25.4068 74.6473L31.5494 77.6692C43.4479 83.3229 55.9617 87.7255 68.3175 92.2645L94.2791 102.158L105.643 106.427C108.152 107.497 110.654 108.863 113.007 110.237C113.593 110.579 114.598 111.034 115.01 111.563L71.1362 111.582C70.0287 111.229 68.0309 111.483 66.8318 111.483L55.8561 111.494L16.8779 72.4722Z" fill="#DCBFCF"/>
<path d="M115.119 111.621L249.775 111.616L284.316 111.952L297.799 112.221C300.696 112.237 320.923 112.223 321.482 112.774C320.815 114.537 315.087 117.696 313.303 118.498L312.608 118.801C311.881 119.197 295.08 117.688 292.28 117.796C284.004 118.118 275.978 120.974 267.727 121.449C264.426 121.639 261.146 120.84 257.886 120.428C252.72 119.777 247.479 119.35 242.27 119.558L226.135 120.931L207.071 122.561L178.089 123.801L138.859 124.543C136.977 123.204 134.691 122.229 132.638 121.168L125.007 117.081C121.726 115.33 118.475 113.175 115.119 111.621Z" fill="#9E4872"/>
<path d="M23.6113 73.3994C28.0287 73.4202 32.6069 74.4245 37.012 74.9351L48.2554 76.2412C49.948 76.4366 52.1059 76.4582 53.7094 76.9757C55.3613 77.5572 57.3553 77.6801 59.0899 77.9143L72.3362 79.3936C73.8993 79.5602 75.6671 80.0327 77.2281 79.9386L92.5272 81.3149C97.8004 81.7732 103.499 81.8237 108.626 83.1445C110.324 82.2453 111.83 81.0731 113.282 79.8214L113.435 79.7852L307.303 87.9283L311.544 88.2343C312.145 88.2746 312.922 88.2207 313.466 88.4597C314.547 89.7523 315.599 91.0506 316.565 92.4306C316.9 92.9067 317.331 93.3903 317.418 93.9789C318.336 94.62 318.808 95.8481 319.34 96.8044C320.914 99.6314 322.58 102.47 323.15 105.697C323.4 107.114 323.481 108.818 323.151 110.22L322.719 110.658L322.674 110.314C321.497 109.927 319.382 110.168 318.111 110.166L307.08 110.152L270.345 109.62L167.17 103.403L115.158 97.4745L97.3554 94.3732C85.1133 92.131 72.8583 89.5812 60.8721 86.215L38.854 79.0507L23.6113 73.3994Z" fill="#FBEEE0"/>
<path d="M113.437 79.7852L307.305 87.9283L311.546 88.2343C312.147 88.2745 312.923 88.2206 313.468 88.4596C314.549 89.7522 315.6 91.0505 316.567 92.4306C316.902 92.9066 317.333 93.3902 317.419 93.9788L317.173 94.207L187.717 89.0565L150.126 87.5875C140.517 87.1728 130.771 87.2058 121.239 85.8263C116.955 85.2063 112.835 84.1295 108.628 83.1445C110.325 82.2452 111.832 81.073 113.283 79.8213L113.437 79.7852Z" fill="#707A9E"/>
<defs>
<linearGradient id="paint0_linear_761_7921" x1="155.671" y1="33.8942" x2="161.659" y2="26.6124" gradientUnits="userSpaceOnUse">
<stop stop-color="#F6B5A0"/>
<stop offset="1" stop-color="#FBF1E4"/>
</linearGradient>
<linearGradient id="paint1_linear_761_7921" x1="189.934" y1="54.9176" x2="189.306" y2="64.3255" gradientUnits="userSpaceOnUse">
<stop stop-color="#ED958E"/>
<stop offset="1" stop-color="#D583A6"/>
</linearGradient>
</defs>
</svg>
