<svg width="29" height="29" viewBox="0 0 29 29" fill="none" xmlns="http://www.w3.org/2000/svg">
<path fill-rule="evenodd" clip-rule="evenodd" d="M20.6752 0.819363C20.1466 0.293088 19.4305 -0.00164311 18.6846 6.89075e-06L9.37478 0.0206038C8.62886 0.0222538 7.91416 0.320154 7.38784 0.848763L0.819363 7.44639C0.293088 7.975 -0.00164311 8.69102 6.89075e-06 9.43694L0.0206038 18.7468C0.0222538 19.4927 0.320154 20.2075 0.848763 20.7337L7.44639 27.3022C7.975 27.8285 8.69102 28.1232 9.43694 28.1215L18.7468 28.101C19.4927 28.0993 20.2075 27.8014 20.7337 27.2728L27.3022 20.6752C27.8285 20.1466 28.1232 19.4305 28.1215 18.6846L28.101 9.37478C28.0993 8.62886 27.8014 7.91416 27.2728 7.38784L20.6752 0.819363ZM14.0608 8.43578C13.543 8.43578 13.1233 8.01606 13.1233 7.49828C13.1233 6.9805 13.543 6.56078 14.0608 6.56078C14.5786 6.56078 14.9983 6.9805 14.9983 7.49828C14.9983 8.01606 14.5786 8.43578 14.0608 8.43578ZM14.9983 20.1545C14.9983 20.4134 15.2081 20.6233 15.467 20.6233H15.9358C16.4536 20.6233 16.8733 21.043 16.8733 21.5608C16.8733 22.0786 16.4536 22.4983 15.9358 22.4983H15.467C14.1726 22.4983 13.1233 21.4489 13.1233 20.1545V11.717C13.1233 11.4581 12.9134 11.2483 12.6545 11.2483H12.1858C11.668 11.2483 11.2483 10.8286 11.2483 10.3108C11.2483 9.793 11.668 9.37328 12.1858 9.37328H12.6545C13.9489 9.37328 14.9983 10.4226 14.9983 11.717V20.1545Z" fill="#2B2B6E"/>
</svg>
