<svg width="30" height="30" viewBox="0 0 30 30" fill="none" xmlns="http://www.w3.org/2000/svg">
<path d="M22.9289 0H7.07109C5.19572 0 3.39716 0.744988 2.07108 2.07108C0.744988 3.39716 0 5.19572 0 7.07109L0 22.9289C0 24.8043 0.744988 26.6028 2.07108 27.9289C3.39716 29.255 5.19572 30 7.07109 30H22.9289C24.8043 30 26.6028 29.255 27.9289 27.9289C29.255 26.6028 30 24.8043 30 22.9289V7.07109C30 5.19572 29.255 3.39716 27.9289 2.07108C26.6028 0.744988 24.8043 0 22.9289 0ZM23.8354 15.3938C22.7736 20.0561 19.9834 23.2418 15.767 24.6094C15.2682 24.7695 14.7318 24.7695 14.233 24.6094C10.0143 23.2447 7.22637 20.059 6.16465 15.3967C5.38711 11.9836 5.8166 8.99004 5.83535 8.86465C5.88005 8.56318 6.04004 8.29085 6.2816 8.10503C6.52316 7.91921 6.82743 7.83443 7.13027 7.86855C9.08555 8.0877 10.8475 7.79531 12.3686 6.99902C13.4689 6.42246 14.0455 5.77324 14.0912 5.72051C14.199 5.58254 14.3368 5.47095 14.4942 5.3942C14.6515 5.31745 14.8243 5.27756 14.9994 5.27756C15.1745 5.27756 15.3473 5.31745 15.5046 5.3942C15.662 5.47095 15.7998 5.58254 15.9076 5.72051C15.9533 5.77324 16.5299 6.42363 17.6303 6.99902C19.1537 7.79531 20.9115 8.0877 22.8686 7.86855C23.1714 7.83443 23.4757 7.91921 23.7172 8.10503C23.9588 8.29085 24.1188 8.56318 24.1635 8.86465C24.1834 8.98711 24.6129 11.9807 23.8354 15.3938Z" fill="#2B2B6E"/>
<path d="M21.6407 10.2893C18.3319 10.2893 16.1329 8.98906 14.9997 8.07617C13.8325 9.01367 11.5427 10.3613 8.07452 10.2857C8.0253 11.3533 8.04522 13.0918 8.47413 14.9357C9.36417 18.7625 11.5456 21.2639 14.9575 22.3672C14.9851 22.3748 15.0143 22.3748 15.0419 22.3672C18.4567 21.2627 20.6353 18.7625 21.5253 14.9357C21.9542 13.0918 21.9741 11.3539 21.9249 10.2857C21.8294 10.2881 21.7345 10.2893 21.6407 10.2893ZM17.3124 15.8791H16.1763V17.0146C16.1763 17.3267 16.0523 17.626 15.8317 17.8466C15.611 18.0673 15.3118 18.1912 14.9997 18.1912C14.6877 18.1912 14.3884 18.0673 14.1678 17.8466C13.9471 17.626 13.8232 17.3267 13.8232 17.0146V15.8791H12.687C12.3794 15.8722 12.0868 15.7452 11.8717 15.5253C11.6566 15.3053 11.5361 15.0099 11.5361 14.7022C11.5361 14.3946 11.6566 14.0992 11.8717 13.8792C12.0868 13.6593 12.3794 13.5323 12.687 13.5254H13.8232V12.3898C13.8232 12.2353 13.8536 12.0823 13.9127 11.9396C13.9718 11.7968 14.0585 11.6671 14.1678 11.5579C14.277 11.4486 14.4067 11.362 14.5495 11.3028C14.6922 11.2437 14.8452 11.2133 14.9997 11.2133C15.1542 11.2133 15.3072 11.2437 15.45 11.3028C15.5927 11.362 15.7224 11.4486 15.8317 11.5579C15.9409 11.6671 16.0276 11.7968 16.0867 11.9396C16.1458 12.0823 16.1763 12.2353 16.1763 12.3898V13.526H17.3124C17.62 13.5328 17.9127 13.6598 18.1278 13.8798C18.3429 14.0998 18.4633 14.3952 18.4633 14.7028C18.4633 15.0105 18.3429 15.3059 18.1278 15.5259C17.9127 15.7458 17.62 15.8728 17.3124 15.8797V15.8791Z" fill="#2B2B6E"/>
</svg>
