<svg width="297" height="222" viewBox="0 0 297 222" fill="none" xmlns="http://www.w3.org/2000/svg">
<path d="M296.855 194.381H0V194.529H296.855V194.381Z" fill="#EBEBEB"/>
<path d="M267.111 203.934H247.447V204.082H267.111V203.934Z" fill="#EBEBEB"/>
<path d="M196.649 205.549H191.489V205.697H196.649V205.549Z" fill="#EBEBEB"/>
<path d="M246.853 198.424H235.46V198.572H246.853V198.424Z" fill="#EBEBEB"/>
<path d="M56.7889 199.421H31.1465V199.57H56.7889V199.421Z" fill="#EBEBEB"/>
<path d="M65.8363 199.421H62.0781V199.57H65.8363V199.421Z" fill="#EBEBEB"/>
<path d="M133.674 201.927H78.0557V202.076H133.674V201.927Z" fill="#EBEBEB"/>
<path d="M140.709 167.901H26.0697C25.1716 167.9 24.3109 167.542 23.6764 166.906C23.0419 166.271 22.6855 165.409 22.6855 164.511V3.3604C22.6934 2.46748 23.0532 1.61369 23.6868 0.984502C24.3204 0.355311 25.1767 0.00152963 26.0697 0H140.709C141.608 0 142.471 0.357169 143.107 0.992934C143.742 1.6287 144.099 2.49098 144.099 3.39009V164.511C144.099 165.41 143.742 166.273 143.107 166.909C142.471 167.544 141.608 167.901 140.709 167.901ZM26.0697 0.118743C25.211 0.120315 24.388 0.462539 23.7813 1.0703C23.1747 1.67806 22.834 2.50169 22.834 3.3604V164.511C22.834 165.37 23.1747 166.194 23.7813 166.801C24.388 167.409 25.211 167.751 26.0697 167.753H140.709C141.569 167.751 142.392 167.409 143 166.802C143.607 166.194 143.949 165.371 143.951 164.511V3.3604C143.949 2.50114 143.607 1.67753 143 1.06994C142.392 0.462347 141.569 0.120312 140.709 0.118743H26.0697Z" fill="#EBEBEB"/>
<path d="M269.135 167.901H154.49C153.591 167.9 152.73 167.542 152.094 166.907C151.459 166.271 151.101 165.41 151.1 164.511V3.3604C151.109 2.46694 151.47 1.61316 152.105 0.984131C152.739 0.355104 153.596 0.00151295 154.49 0H269.135C270.027 0.00308997 270.882 0.357562 271.514 0.986586C272.147 1.61561 272.506 2.4685 272.514 3.3604V164.511C272.514 165.408 272.158 166.269 271.525 166.904C270.892 167.54 270.032 167.898 269.135 167.901ZM154.49 0.118743C153.63 0.120312 152.807 0.462347 152.199 1.06994C151.592 1.67753 151.25 2.50114 151.248 3.3604V164.511C151.25 165.371 151.592 166.194 152.199 166.802C152.807 167.409 153.63 167.751 154.49 167.753H269.135C269.995 167.751 270.818 167.409 271.426 166.802C272.033 166.194 272.375 165.371 272.377 164.511V3.3604C272.375 2.50114 272.033 1.67753 271.426 1.06994C270.818 0.462347 269.995 0.120312 269.135 0.118743H154.49Z" fill="#EBEBEB"/>
<path d="M130.082 194.381H141.137V118.463H130.082V194.381Z" fill="#E6E6E6"/>
<path d="M133.977 194.381H130.082V179.954H138.056L133.977 194.381Z" fill="#F0F0F0"/>
<path d="M247.002 194.381H258.057V118.463H247.002V194.381Z" fill="#E6E6E6"/>
<path d="M130.088 190.439L250.397 190.439V118.457L130.088 118.457V190.439Z" fill="#F0F0F0"/>
<path d="M246.503 194.381H250.397V179.954H242.424L246.503 194.381Z" fill="#F0F0F0"/>
<path d="M210.731 124.418V183.961H246.396V124.418H210.731Z" fill="#E6E6E6"/>
<path d="M225.016 126.514H232.069C235.059 126.557 237.957 125.479 240.191 123.492H216.93C219.156 125.47 222.039 126.547 225.016 126.514Z" fill="#F0F0F0"/>
<path d="M172.408 124.418V183.961H208.072V124.418H172.408Z" fill="#E6E6E6"/>
<path d="M186.348 126.514H193.407C196.391 126.552 199.281 125.474 201.512 123.492H178.25C180.478 125.474 183.366 126.552 186.348 126.514Z" fill="#F0F0F0"/>
<path d="M134.084 124.424V183.967H169.748V124.424H134.084Z" fill="#E6E6E6"/>
<path d="M148.03 126.514H155.083C158.067 126.552 160.957 125.474 163.187 123.492H139.926C142.156 125.475 145.046 126.553 148.03 126.514Z" fill="#F0F0F0"/>
<path d="M44.2906 194.381H119.728L119.728 24.8051H44.2906L44.2906 194.381Z" fill="#F0F0F0"/>
<path d="M44.291 194.381H118.137L118.137 24.8051H44.291L44.291 194.381Z" fill="#F5F5F5"/>
<path d="M113.637 190.534L113.637 28.6523L48.7916 28.6523L48.7916 190.534H113.637Z" fill="#F0F0F0"/>
<path d="M107.266 58.7774C107.267 56.4558 106.81 54.1568 105.922 52.0117C105.035 49.8666 103.733 47.9175 102.091 46.2756C100.45 44.6337 98.5013 43.3313 96.3565 42.4427C94.2118 41.554 91.9129 41.0967 89.5913 41.0967H72.8487C68.1595 41.0967 63.6623 42.9595 60.3465 46.2752C57.0308 49.591 55.168 54.0882 55.168 58.7774H107.266Z" fill="#FAFAFA"/>
<path d="M107.271 180.47V141.796H55.1734V180.47H107.271Z" fill="#F5F5F5"/>
<path d="M107.272 69.6602H84.2891V136.803H107.272V69.6602Z" fill="#F5F5F5"/>
<path d="M78.1505 69.6602H55.168V136.803H78.1505V69.6602Z" fill="#F5F5F5"/>
<path d="M63.5275 102.931H54.0875C53.7001 102.931 53.3286 102.777 53.0547 102.504C52.7808 102.23 52.627 101.858 52.627 101.471C52.6285 101.084 52.7829 100.713 53.0565 100.44C53.33 100.166 53.7006 100.012 54.0875 100.01H63.5275C63.9144 100.012 64.2849 100.166 64.5585 100.44C64.8321 100.713 64.9865 101.084 64.988 101.471C64.988 101.858 64.8341 102.23 64.5602 102.504C64.2863 102.777 63.9148 102.931 63.5275 102.931Z" fill="#E0E0E0"/>
<path d="M49.9609 190.534L49.9609 28.6523H48.7913L48.7913 190.534H49.9609Z" fill="#F0F0F0"/>
<path d="M167.451 99.8501L247.447 99.8501V16.2259L167.451 16.2259V99.8501Z" fill="#E6E6E6"/>
<path d="M165.431 99.8501L245.428 99.8501V16.2259L165.431 16.2259V99.8501Z" fill="#F5F5F5"/>
<path d="M160.76 104.196L247.447 104.196V99.8503L160.76 99.8503V104.196Z" fill="#E6E6E6"/>
<path d="M158.485 104.196L240.708 104.196V99.8503L158.485 99.8503V104.196Z" fill="#F5F5F5"/>
<path d="M241.812 95.9497V20.1328L169.053 20.1328V95.9497H241.812Z" fill="white"/>
<path d="M207.448 95.9497V20.1328H203.417V95.9497H207.448Z" fill="#F5F5F5"/>
<path d="M170.573 95.9497V20.1328H169.047V95.9497H170.573Z" fill="#E6E6E6"/>
<path d="M208.975 95.9497V20.1328H207.449V95.9497H208.975Z" fill="#E6E6E6"/>
<path d="M178.203 101.839C176.73 86.5929 175.703 61.8589 176.499 53.5826C176.515 53.4416 176.56 53.3055 176.632 53.1828C176.703 53.0602 176.799 52.9538 176.914 52.8702C177.068 52.7578 177.249 52.6907 177.439 52.6766C177.629 52.6625 177.818 52.702 177.987 52.7904C178.155 52.8789 178.295 53.0129 178.391 53.1771C178.487 53.3413 178.535 53.5291 178.529 53.7192C178.393 57.8217 178.232 68.0692 179.123 85.7439C179.556 94.5427 180.18 100.587 179.752 101.839H178.203Z" fill="#E6E6E6"/>
<path d="M172.716 66.7037C168.525 62.049 159.969 58.742 151.254 58.7598C147.828 58.7598 161.667 64.1685 167.42 70.1353C171.891 74.7663 176.92 82.5617 178.647 86.8899C177.519 77.7764 176.926 71.3525 172.716 66.7037Z" fill="#E6E6E6"/>
<path d="M181.023 68.1226C184.502 63.2779 192.529 59.5494 201.209 59.1278C204.617 58.9616 191.638 65.0649 186.793 71.2752C183.035 76.1139 179.176 84.1349 178.113 88.5284C177.87 79.4031 177.52 72.9672 181.023 68.1226Z" fill="#E6E6E6"/>
<path d="M172.532 49.7171C168.97 45.7748 161.739 42.9725 154.353 42.9903C151.456 42.9903 163.17 47.5738 168.044 52.6203C171.832 56.5447 176.101 63.1468 177.543 66.81C176.611 59.1036 176.077 53.6534 172.532 49.7171Z" fill="#E6E6E6"/>
<path d="M179.562 55.5414C182.53 51.4388 189.305 48.2803 196.667 47.924C199.552 47.7875 188.563 52.935 184.46 58.2131C181.278 62.3097 178.006 69.1017 177.11 72.8243C176.926 65.0942 176.617 59.6439 179.562 55.5414Z" fill="#E6E6E6"/>
<path d="M178.79 118.463C176.579 118.464 174.452 117.618 172.845 116.1C171.237 114.582 170.272 112.507 170.146 110.299L169.38 97.0479H188.206L187.441 110.299C187.315 112.508 186.348 114.584 184.74 116.102C183.131 117.62 181.002 118.465 178.79 118.463Z" fill="#E6E6E6"/>
<path d="M189.423 100.058H168.162L167.551 94.5425H190.029L189.423 100.058Z" fill="#E6E6E6"/>
<path d="M148.428 221.193C212.004 221.193 263.543 218.184 263.543 214.472C263.543 210.76 212.004 207.751 148.428 207.751C84.852 207.751 33.3135 210.76 33.3135 214.472C33.3135 218.184 84.852 221.193 148.428 221.193Z" fill="#F5F5F5"/>
<path d="M31.0508 34.75C31.0539 33.7621 31.4477 32.8155 32.1463 32.117C32.8448 31.4184 33.7914 31.0246 34.7793 31.0215H201.149C202.137 31.0246 203.083 31.4184 203.782 32.117C204.48 32.8155 204.874 33.7621 204.877 34.75V46.7489H31.0508V34.75Z" fill="#263238"/>
<path d="M61.1935 42.0287C60.5712 42.0287 59.9628 41.8441 59.4453 41.4984C58.9279 41.1526 58.5246 40.6612 58.2864 40.0862C58.0482 39.5112 57.9859 38.8785 58.1073 38.2681C58.2288 37.6577 58.5284 37.0971 58.9685 36.657C59.4086 36.2169 59.9693 35.9172 60.5797 35.7958C61.1901 35.6744 61.8227 35.7367 62.3977 35.9749C62.9727 36.213 63.4641 36.6164 63.8099 37.1338C64.1557 37.6513 64.3402 38.2597 64.3402 38.882C64.3402 39.7166 64.0087 40.5169 63.4186 41.107C62.8285 41.6972 62.0281 42.0287 61.1935 42.0287ZM61.1935 36.3944C60.7015 36.3944 60.2206 36.5403 59.8115 36.8136C59.4024 37.087 59.0835 37.4755 58.8953 37.93C58.707 38.3846 58.6577 38.8848 58.7537 39.3673C58.8497 39.8499 59.0866 40.2931 59.4345 40.6411C59.7824 40.989 60.2257 41.2259 60.7082 41.3219C61.1908 41.4179 61.691 41.3686 62.1455 41.1803C62.6001 40.992 62.9886 40.6732 63.2619 40.2641C63.5353 39.855 63.6812 39.374 63.6812 38.882C63.6796 38.2227 63.417 37.5909 62.9508 37.1247C62.4847 36.6585 61.8528 36.3959 61.1935 36.3944Z" fill="#F0F0F0"/>
<path d="M51.2013 42.0287C50.5792 42.0275 49.9714 41.842 49.4547 41.4955C48.938 41.149 48.5356 40.6572 48.2984 40.0821C48.0611 39.507 47.9997 38.8745 48.1217 38.2645C48.2438 37.6545 48.544 37.0944 48.9843 36.6549C49.4246 36.2154 49.9853 35.9163 50.5955 35.7954C51.2057 35.6744 51.8381 35.7371 52.4128 35.9754C52.9874 36.2138 53.4785 36.6171 53.824 37.1344C54.1695 37.6518 54.3539 38.2599 54.3539 38.882C54.3539 39.2957 54.2723 39.7054 54.1138 40.0876C53.9553 40.4697 53.723 40.8169 53.4301 41.1091C53.1373 41.4014 52.7897 41.6331 52.4073 41.7909C52.0248 41.9486 51.615 42.0295 51.2013 42.0287ZM51.2013 36.3944C50.7095 36.3955 50.2291 36.5424 49.8208 36.8165C49.4125 37.0906 49.0946 37.4795 48.9072 37.9341C48.7199 38.3888 48.6714 38.8888 48.7681 39.371C48.8647 39.8531 49.1021 40.2958 49.4503 40.6431C49.7984 40.9904 50.2417 41.2268 50.7241 41.3223C51.2065 41.4178 51.7064 41.3682 52.1606 41.1797C52.6148 40.9913 53.0029 40.6724 53.276 40.2635C53.5491 39.8545 53.6949 39.3738 53.6949 38.882C53.6933 38.2217 53.4299 37.589 52.9624 37.1226C52.4949 36.6563 51.8616 36.3944 51.2013 36.3944Z" fill="#F0F0F0"/>
<path d="M41.2149 42.0287C40.5929 42.0275 39.9851 41.842 39.4684 41.4955C38.9517 41.149 38.5493 40.6572 38.312 40.0821C38.0748 39.507 38.0133 38.8745 38.1354 38.2645C38.2575 37.6545 38.5577 37.0944 38.998 36.6549C39.4383 36.2154 39.999 35.9163 40.6092 35.7954C41.2194 35.6744 41.8518 35.7371 42.4264 35.9754C43.0011 36.2138 43.4922 36.6171 43.8377 37.1344C44.1832 37.6518 44.3676 38.2599 44.3676 38.882C44.3676 39.2957 44.286 39.7054 44.1275 40.0876C43.969 40.4697 43.7366 40.8169 43.4438 41.1091C43.151 41.4014 42.8034 41.6331 42.421 41.7909C42.0385 41.9486 41.6287 42.0295 41.2149 42.0287ZM41.2149 36.3944C40.7229 36.3944 40.242 36.5403 39.8329 36.8136C39.4238 37.087 39.1049 37.4755 38.9167 37.93C38.7284 38.3846 38.6791 38.8848 38.7751 39.3673C38.8711 39.8499 39.108 40.2931 39.4559 40.641C39.8038 40.989 40.2471 41.2259 40.7296 41.3219C41.2122 41.4179 41.7124 41.3686 42.1669 41.1803C42.6215 40.992 43.01 40.6732 43.2834 40.2641C43.5567 39.855 43.7026 39.374 43.7026 38.882C43.701 38.2227 43.4384 37.5909 42.9723 37.1247C42.5061 36.6585 41.8742 36.3959 41.2149 36.3944Z" fill="#F0F0F0"/>
<path d="M201.149 161.234H34.7793C33.7914 161.231 32.8448 160.837 32.1463 160.139C31.4477 159.44 31.0539 158.494 31.0508 157.506V46.749H204.877V157.506C204.874 158.494 204.48 159.44 203.782 160.139C203.083 160.837 202.137 161.231 201.149 161.234Z" fill="#407BFF"/>
<path d="M203.82 49.937H32.1074V148.095H203.82V49.937Z" fill="white"/>
<path d="M108.192 58.3501H42.7825C41.5333 58.3501 40.5205 59.3628 40.5205 60.6121V69.3456C40.5205 70.5949 41.5333 71.6077 42.7825 71.6077H108.192C109.441 71.6077 110.454 70.5949 110.454 69.3456V60.6121C110.454 59.3628 109.441 58.3501 108.192 58.3501Z" fill="#407BFF"/>
<path d="M193.146 58.9438C193.588 58.9438 194.013 59.1196 194.325 59.4324C194.638 59.7453 194.814 60.1697 194.814 60.6121V69.3456C194.814 69.7881 194.638 70.2124 194.325 70.5253C194.013 70.8382 193.588 71.014 193.146 71.014H127.737C127.294 71.014 126.87 70.8382 126.557 70.5253C126.244 70.2124 126.068 69.7881 126.068 69.3456V60.6121C126.068 60.1697 126.244 59.7453 126.557 59.4324C126.87 59.1196 127.294 58.9438 127.737 58.9438H193.146ZM193.146 58.3501H127.737C127.137 58.3517 126.563 58.5905 126.139 59.0144C125.715 59.4382 125.476 60.0127 125.475 60.6121V69.3456C125.475 69.9456 125.713 70.5209 126.137 70.9451C126.561 71.3693 127.137 71.6077 127.737 71.6077H193.146C193.746 71.6077 194.321 71.3693 194.745 70.9451C195.17 70.5209 195.408 69.9456 195.408 69.3456V60.6121C195.406 60.0127 195.167 59.4382 194.744 59.0144C194.32 58.5905 193.745 58.3517 193.146 58.3501Z" fill="#407BFF"/>
<path d="M52.1454 77.5444C54.3271 77.5444 56.4599 78.1914 58.274 79.4035C60.088 80.6156 61.5019 82.3384 62.3368 84.3541C63.1718 86.3698 63.3902 88.5878 62.9646 90.7276C62.5389 92.8674 61.4883 94.833 59.9456 96.3757C58.4028 97.9185 56.4373 98.9691 54.2974 99.3947C52.1576 99.8204 49.9396 99.6019 47.9239 98.767C45.9083 97.9321 44.1854 96.5182 42.9733 94.7041C41.7612 92.8901 41.1142 90.7573 41.1142 88.5755C41.1174 85.6509 42.2806 82.8469 44.3486 80.7788C46.4167 78.7108 49.2207 77.5475 52.1454 77.5444ZM52.1454 76.9507C49.8462 76.9507 47.5986 77.6325 45.6869 78.9098C43.7753 80.1872 42.2853 82.0027 41.4054 84.1269C40.5255 86.2511 40.2953 88.5884 40.7439 90.8434C41.1924 93.0984 42.2996 95.1698 43.9254 96.7956C45.5511 98.4213 47.6225 99.5285 49.8775 99.977C52.1325 100.426 54.4699 100.195 56.594 99.3155C58.7182 98.4357 60.5337 96.9457 61.8111 95.034C63.0884 93.1223 63.7702 90.8747 63.7702 88.5755C63.7702 85.4924 62.5455 82.5356 60.3654 80.3555C58.1853 78.1754 55.2285 76.9507 52.1454 76.9507Z" fill="#407BFF"/>
<path opacity="0.4" d="M60.5578 93.1472C59.7341 94.6657 58.5158 95.9337 57.0314 96.8172C55.547 97.7008 53.8516 98.1672 52.1241 98.1672C50.3966 98.1672 48.7012 97.7008 47.2168 96.8172C45.7324 95.9337 44.5141 94.6657 43.6904 93.1472C46.1866 91.4786 49.1216 90.5879 52.1241 90.5879C55.1266 90.5879 58.0616 91.4786 60.5578 93.1472Z" fill="#407BFF"/>
<path opacity="0.4" d="M52.1458 89.5675C54.5067 89.5675 56.4205 87.6536 56.4205 85.2928C56.4205 82.9319 54.5067 81.0181 52.1458 81.0181C49.785 81.0181 47.8711 82.9319 47.8711 85.2928C47.8711 87.6536 49.785 89.5675 52.1458 89.5675Z" fill="#407BFF"/>
<path opacity="0.4" d="M189.429 94.5544H76.2794C74.6938 94.5544 73.1731 93.9245 72.0519 92.8033C70.9307 91.6821 70.3008 90.1614 70.3008 88.5758C70.3008 87.7909 70.4555 87.0138 70.756 86.2887C71.0565 85.5637 71.497 84.905 72.0522 84.3503C72.6075 83.7956 73.2666 83.3558 73.992 83.056C74.7173 82.7562 75.4946 82.6023 76.2794 82.603H189.429C190.214 82.6023 190.991 82.7562 191.716 83.056C192.442 83.3558 193.101 83.7956 193.656 84.3503C194.211 84.905 194.652 85.5637 194.952 86.2887C195.253 87.0138 195.408 87.7909 195.408 88.5758C195.408 90.1614 194.778 91.6821 193.656 92.8033C192.535 93.9245 191.015 94.5544 189.429 94.5544Z" fill="#407BFF"/>
<path d="M52.1454 109.243C54.3271 109.243 56.4599 109.89 58.274 111.102C60.088 112.314 61.5019 114.037 62.3368 116.053C63.1718 118.069 63.3902 120.287 62.9646 122.426C62.5389 124.566 61.4883 126.532 59.9456 128.074C58.4028 129.617 56.4373 130.668 54.2974 131.093C52.1576 131.519 49.9396 131.301 47.9239 130.466C45.9083 129.631 44.1854 128.217 42.9733 126.403C41.7612 124.589 41.1142 122.456 41.1142 120.274C41.1158 117.349 42.2785 114.544 44.3469 112.476C46.4153 110.407 49.2202 109.245 52.1454 109.243ZM52.1454 108.649C49.8462 108.649 47.5986 109.331 45.6869 110.609C43.7753 111.886 42.2853 113.701 41.4054 115.826C40.5255 117.95 40.2953 120.287 40.7439 122.542C41.1924 124.797 42.2996 126.869 43.9254 128.494C45.5511 130.12 47.6225 131.227 49.8775 131.676C52.1325 132.124 54.4699 131.894 56.594 131.014C58.7182 130.134 60.5337 128.644 61.8111 126.733C63.0884 124.821 63.7702 122.573 63.7702 120.274C63.7702 117.191 62.5455 114.234 60.3654 112.054C58.1853 109.874 55.2285 108.649 52.1454 108.649Z" fill="#407BFF"/>
<path opacity="0.4" d="M60.5578 124.81C59.7341 126.329 58.5158 127.597 57.0314 128.48C55.547 129.364 53.8516 129.83 52.1241 129.83C50.3966 129.83 48.7012 129.364 47.2168 128.48C45.7324 127.597 44.5141 126.329 43.6904 124.81C46.188 123.145 49.1225 122.257 52.1241 122.257C55.1257 122.257 58.0602 123.145 60.5578 124.81Z" fill="#407BFF"/>
<path opacity="0.4" d="M52.1458 121.236C54.5067 121.236 56.4205 119.322 56.4205 116.961C56.4205 114.6 54.5067 112.687 52.1458 112.687C49.785 112.687 47.8711 114.6 47.8711 116.961C47.8711 119.322 49.785 121.236 52.1458 121.236Z" fill="#407BFF"/>
<path opacity="0.4" d="M76.2794 114.266H189.429C191.015 114.266 192.535 114.896 193.656 116.017C194.778 117.138 195.408 118.659 195.408 120.244C195.408 121.83 194.778 123.351 193.656 124.472C192.535 125.593 191.015 126.223 189.429 126.223H76.2794C74.6938 126.223 73.1731 125.593 72.0519 124.472C70.9307 123.351 70.3008 121.83 70.3008 120.244C70.3008 118.66 70.93 117.141 72.0502 116.021C73.1703 114.901 74.6894 114.272 76.2735 114.272L76.2794 114.266Z" fill="#407BFF"/>
<path opacity="0.1" d="M161.56 126.045C161.56 129.677 161.916 133.3 162.623 136.862C159.303 138.834 156.551 141.634 154.637 144.988C152.723 148.342 151.713 152.136 151.705 155.998C151.693 157.761 151.892 159.519 152.298 161.234H201.149C202.137 161.231 203.083 160.837 203.782 160.139C204.48 159.44 204.874 158.494 204.877 157.506V72.0112C192.593 74.7585 181.611 81.6063 173.738 91.4274C165.864 101.248 161.57 113.457 161.56 126.045Z" fill="black"/>
<path d="M251.813 163.304C271.101 144.016 271.101 112.743 251.813 93.4548C232.524 74.1665 201.252 74.1665 181.964 93.4548C162.675 112.743 162.675 144.016 181.964 163.304C201.252 182.592 232.524 182.592 251.813 163.304Z" fill="#407BFF"/>
<path d="M248.957 160.157C266.541 142.573 266.541 114.064 248.957 96.4794C231.373 78.8953 202.864 78.8953 185.279 96.4794C167.695 114.064 167.695 142.573 185.279 160.157C202.864 177.741 231.373 177.741 248.957 160.157Z" fill="white"/>
<path d="M201.927 98.1108L199.054 101.792C199.054 101.792 196.53 103.704 195.574 105.354C194.458 106.458 193.437 107.592 192.428 108.786C191.271 110.15 190.193 111.579 189.198 113.066C188.109 114.657 187.208 116.368 186.514 118.166C186.075 119.305 185.832 120.509 185.796 121.729C185.78 122.591 185.934 123.448 186.247 124.252C186.641 125.236 187.291 126.097 188.129 126.746L188.759 127.22L189.703 127.399C191.566 127.753 193.458 127.94 195.355 127.957L196.103 127.891L195.331 120.363C194.696 120.363 193.33 120.488 192.707 120.476C192.707 120.357 192.754 120.238 192.784 120.12C193.16 118.687 193.677 117.295 194.328 115.964C194.993 114.521 195.758 113.078 196.554 111.642C197.255 110.371 198.009 109.094 198.739 107.848L202.301 105.603L204.385 101.905L201.927 98.1108ZM192.659 121.562C192.654 121.505 192.654 121.448 192.659 121.39C192.684 121.433 192.703 121.479 192.713 121.527C192.731 121.669 192.689 121.675 192.659 121.562Z" fill="#7F3E3B"/>
<path d="M222.161 106.066C222.25 105.609 219.127 104.042 216.978 105.318C215.12 106.423 214.882 107.931 215.559 109.73C215.559 109.854 215.606 109.979 215.624 110.104C215.666 110.395 215.701 110.697 215.719 110.97C215.856 112.864 215.357 114.628 213.226 115.631C213.226 115.75 212.935 115.874 212.84 115.958C212.051 116.652 211.547 117.615 211.427 118.659C211.427 119.431 212.157 120.042 213.006 120.779L214.193 121.58L215.82 121.426C220.813 119.959 223.147 115.4 223.04 115.061C221.757 112.947 221.775 109.243 222.161 106.066Z" fill="#7F3E3B"/>
<path d="M232.955 116.884L232.053 116.729C230.865 116.539 225.569 115.34 223.01 115.114C222.417 116.379 220.469 119.466 215.476 120.933L214.241 121.224L213.054 120.63C212.687 120.365 212.381 120.025 212.158 119.631C211.935 119.238 211.799 118.801 211.76 118.35C211.8 117.886 211.936 117.436 212.159 117.027C212.381 116.619 212.686 116.26 213.054 115.975C213.097 115.938 213.132 115.891 213.155 115.839C213.155 115.696 213.155 115.601 213.155 115.589C212.781 115.637 208.043 116.355 207.645 116.42C203.179 117.246 198.794 118.464 194.542 120.06L194.589 120.487L195.45 127.962L195.771 130.794C195.771 130.794 198.146 130.527 201.263 129.981C200.414 137.545 200.248 148.505 202.842 162.593L212.977 162.403L230.586 162.077C230.657 160.889 230.527 158.431 230.402 155.071L230.242 149.882C230.147 145.299 230.165 139.789 230.574 133.899C230.64 132.967 230.717 132.029 230.8 131.079C234.398 134.968 238.002 138.685 238.002 138.685L239.706 137.046C241.884 135.995 243.6 134.113 245.096 131.851L247.097 129.921C247.097 129.921 237.824 117.703 232.955 116.884Z" fill="#407BFF"/>
<path opacity="0.3" d="M228.08 128.028C228.216 129.264 228.61 130.457 229.238 131.531L230.603 133.87C230.669 132.938 230.746 132 230.829 131.05C229.891 130.023 228.953 129.007 228.08 128.028Z" fill="black"/>
<path opacity="0.3" d="M230.835 131.056C230.752 132.006 230.675 132.944 230.609 133.876C230.669 132.944 230.752 132 230.835 131.056Z" fill="black"/>
<path d="M215.559 109.729C215.559 109.854 215.6 109.979 215.624 110.104C215.624 109.979 215.582 109.854 215.559 109.729Z" fill="#7F3E3B"/>
<path opacity="0.2" d="M215.719 110.971C215.719 110.686 215.666 110.377 215.624 110.104C215.666 110.395 215.701 110.686 215.719 110.971Z" fill="black"/>
<path d="M219.412 108.323C219.293 108.406 219.18 108.495 219.056 108.578C218.017 109.274 216.808 109.672 215.559 109.73C215.559 109.855 215.6 109.979 215.624 110.104C215.665 110.395 215.701 110.698 215.719 110.971C215.719 110.971 215.719 111.006 215.719 111.024C217.259 110.648 218.587 109.677 219.412 108.323Z" fill="#7F3E3B"/>
<path d="M226.08 116.017C226.027 115.773 225.907 115.549 225.732 115.37C225.558 115.192 225.337 115.066 225.094 115.008L223.859 114.711C223.705 114.675 223.543 114.689 223.397 114.752C223.252 114.815 223.131 114.924 223.052 115.061L223.01 115.115C222.416 116.379 220.469 119.467 215.476 120.933L215.09 121.022L214.241 121.224L213.054 120.63C212.687 120.366 212.381 120.025 212.158 119.632C211.934 119.238 211.798 118.801 211.759 118.35C211.8 117.887 211.936 117.437 212.158 117.028C212.381 116.619 212.686 116.261 213.054 115.976C213.119 115.909 213.176 115.835 213.226 115.756C213.279 115.619 213.267 115.554 213.172 115.495C211.86 114.551 208.927 116.005 208.809 116.255C208.684 116.379 208.559 116.51 208.434 116.658C208.068 117.089 207.795 117.591 207.632 118.133C207.468 118.674 207.418 119.243 207.485 119.805C207.608 120.75 207.943 121.654 208.464 122.452C208.985 123.249 209.679 123.919 210.495 124.412C210.522 124.421 210.551 124.421 210.578 124.412C210.609 124.421 210.642 124.421 210.673 124.412C210.698 124.394 210.719 124.37 210.734 124.342C210.748 124.314 210.756 124.283 210.756 124.252C210.758 123.55 210.968 122.865 211.359 122.281C211.75 121.698 212.304 121.244 212.953 120.975L213.992 121.533C209.527 139.855 212.555 161.816 212.638 162.41H212.982C212.982 162.184 209.836 140.033 214.336 121.61L215.422 121.349C216.687 122.892 216.087 125.184 216.081 125.208C216.073 125.24 216.074 125.273 216.083 125.304C216.093 125.336 216.11 125.364 216.135 125.386C216.168 125.413 216.21 125.428 216.254 125.428C216.275 125.434 216.298 125.434 216.319 125.428C216.556 125.321 222.173 122.863 224.138 120.518C225.066 119.397 225.721 118.076 226.05 116.658C226.115 116.451 226.125 116.23 226.08 116.017Z" fill="white"/>
<path opacity="0.2" d="M219.412 108.323C219.293 108.406 219.18 108.495 219.056 108.578C218.017 109.274 216.808 109.672 215.559 109.73C215.559 109.855 215.6 109.979 215.624 110.104C215.665 110.395 215.701 110.698 215.719 110.971C215.719 110.971 215.719 111.006 215.719 111.024C217.259 110.648 218.587 109.677 219.412 108.323Z" fill="black"/>
<path d="M212.08 95.2138C214.401 92.2452 212.929 90.4641 211.943 90.6303C211.011 91.0697 210.127 92.3105 209.669 95.0891C209.56 95.7445 209.544 96.4122 209.622 97.0721C210.578 97.0246 212.08 95.2138 212.08 95.2138Z" fill="#263238"/>
<path d="M221.81 101.762C228.24 90.4519 215.541 89.1339 212.952 91.6691C212.079 92.4792 211.343 93.4256 210.773 94.4714L210.233 95.5341C210.009 96.0363 209.811 96.5495 209.639 97.0718C208.986 98.949 208.645 100.921 208.63 102.908C208.626 103.816 208.803 104.715 209.153 105.553C209.502 106.39 210.015 107.15 210.663 107.785C211.31 108.421 212.079 108.921 212.923 109.255C213.767 109.589 214.669 109.75 215.576 109.73C216.825 109.672 218.035 109.274 219.073 108.578C219.198 108.495 219.311 108.406 219.43 108.323C220.278 107.718 221.001 106.956 221.561 106.078C222.879 103.947 222.535 102.872 221.81 101.762Z" fill="#7F3E3B"/>
<path d="M209.907 95.1836C209.868 95.2352 209.85 95.2999 209.858 95.3642C209.866 95.4284 209.898 95.4872 209.949 95.5279C209.993 95.5622 210.047 95.581 210.103 95.5814C210.151 95.5801 210.196 95.5634 210.234 95.5339C210.257 95.5235 210.278 95.5071 210.293 95.4864C210.483 95.2358 210.728 95.0322 211.009 94.8912C211.29 94.7501 211.599 94.6755 211.914 94.673C211.979 94.6763 212.043 94.6538 212.092 94.6106C212.141 94.5673 212.171 94.5066 212.175 94.4415C212.178 94.4095 212.174 94.3773 212.164 94.3469C212.154 94.3164 212.138 94.2882 212.117 94.2639C212.096 94.2397 212.07 94.2198 212.041 94.2054C212.013 94.191 211.981 94.1825 211.949 94.1802C211.536 94.1777 211.128 94.2776 210.762 94.4711C210.431 94.6471 210.14 94.8897 209.907 95.1836Z" fill="#263238"/>
<path d="M216.331 102.296C216.308 102.274 216.277 102.262 216.245 102.262C216.213 102.262 216.182 102.274 216.159 102.296C215.753 102.637 215.274 102.88 214.76 103.007C214.245 103.135 213.709 103.143 213.19 103.032C213.159 103.027 213.127 103.034 213.1 103.052C213.074 103.069 213.055 103.096 213.048 103.127C213.042 103.16 213.049 103.193 213.067 103.22C213.084 103.248 213.111 103.267 213.143 103.276C213.426 103.332 213.715 103.358 214.004 103.353C214.854 103.345 215.673 103.033 216.313 102.474C216.326 102.464 216.337 102.451 216.345 102.436C216.353 102.422 216.358 102.406 216.36 102.389C216.361 102.372 216.36 102.356 216.355 102.34C216.35 102.324 216.342 102.309 216.331 102.296Z" fill="#263238"/>
<path d="M213.143 98.0576C212.357 99.2083 211.42 100.249 210.358 101.151C210.952 101.97 212.235 101.911 212.235 101.911L213.143 98.0576Z" fill="#630F0F"/>
<path d="M211.041 98.2C211.308 98.2535 211.634 97.9685 211.7 97.5588C211.765 97.1492 211.658 96.7811 211.391 96.7276C211.124 96.6742 210.827 96.9592 210.732 97.3688C210.637 97.7785 210.768 98.1466 211.041 98.2Z" fill="#263238"/>
<path d="M215.684 99.1497C215.951 99.2032 216.242 98.9182 216.343 98.5085C216.444 98.0989 216.295 97.7308 216.028 97.6773C215.761 97.6239 215.464 97.9089 215.369 98.3185C215.274 98.7282 215.411 99.0726 215.684 99.1497Z" fill="#263238"/>
<path d="M225.878 92.6783C228.39 90.529 222.666 86.1475 222.666 86.1475C222.666 86.1475 223.307 87.7149 221.978 88.1483C220.648 88.5817 211.291 85.0907 211.427 89.0507C211.453 89.6088 211.631 90.149 211.944 90.6122C212.222 91.0106 212.563 91.3614 212.953 91.6512C215.126 93.3017 219.08 93.8063 221.218 93.8063C220.878 94.6334 220.641 95.4986 220.511 96.383C220.347 97.3152 220.378 98.2712 220.602 99.1908C220.826 100.11 221.238 100.974 221.811 101.726C222.999 103.793 224.584 103.733 225.938 102.16C228.111 100.106 230.206 95.9437 225.878 92.6783Z" fill="#263238"/>
<path d="M224.785 100.972C223.8 100.568 222.69 101.043 221.817 101.762C221.338 102.143 220.923 102.598 220.588 103.11C219.751 104.422 220.048 105.947 221.55 106.078H221.811H222.167C223.35 105.958 224.455 105.433 225.296 104.594C225.608 104.293 225.833 103.914 225.947 103.495C226.06 103.077 226.059 102.636 225.943 102.219C225.858 101.937 225.71 101.677 225.509 101.461C225.308 101.245 225.061 101.078 224.785 100.972Z" fill="#7F3E3B"/>
<path d="M202.872 162.564C202.872 162.564 202.711 163.953 202.462 166.287C211.554 169.361 221.391 169.453 230.538 166.548C230.598 163.728 230.639 162.042 230.639 162.042L213.006 162.374H212.662L202.872 162.564Z" fill="#263238"/>
<path d="M248.765 138.656C248.715 138.15 248.599 137.653 248.421 137.177C248.336 136.941 248.235 136.711 248.118 136.489L247.946 136.168L247.851 136.002C247.002 134.541 246.07 133.158 245.12 131.846L239.729 137.041C240.441 137.931 241.136 138.822 241.777 139.736C241.658 140.04 241.505 140.328 241.32 140.597C240.457 141.796 239.461 142.893 238.352 143.868C236.026 145.963 233.591 147.931 231.055 149.764L230.23 149.871L226.917 150.322L223.657 152.525L225.801 156.882L228.496 155.505C229.14 155.416 229.774 155.267 230.39 155.06C231.342 154.812 232.172 154.225 232.723 153.409C234.3 152.785 235.844 152.079 237.348 151.296C238.965 150.461 240.532 149.531 242.039 148.511C242.802 147.989 243.558 147.417 244.306 146.795C245.101 146.143 245.836 145.422 246.503 144.64C247.358 143.674 248.015 142.551 248.439 141.333C248.738 140.474 248.849 139.561 248.765 138.656ZM241.825 139.594C241.825 139.564 241.825 139.528 241.825 139.505C241.825 139.362 241.878 139.309 241.878 139.392C241.875 139.461 241.861 139.529 241.837 139.594H241.825Z" fill="#7F3E3B"/>
<path d="M190.038 156.208C191.48 147.323 185.447 138.952 176.562 137.51C167.678 136.068 159.306 142.101 157.864 150.985C156.422 159.87 162.455 168.241 171.34 169.684C180.224 171.126 188.596 165.092 190.038 156.208Z" fill="#263238"/>
<path d="M182.899 152.061H175.466V144.628C175.466 144.223 175.305 143.835 175.019 143.549C174.733 143.263 174.345 143.102 173.94 143.102C173.535 143.102 173.147 143.263 172.861 143.549C172.575 143.835 172.414 144.223 172.414 144.628V152.061H164.981C164.576 152.061 164.188 152.222 163.902 152.508C163.616 152.794 163.455 153.182 163.455 153.587C163.455 153.992 163.616 154.38 163.902 154.666C164.188 154.952 164.576 155.113 164.981 155.113H172.414V162.546C172.414 162.746 172.454 162.945 172.53 163.13C172.607 163.315 172.719 163.483 172.861 163.625C173.003 163.767 173.171 163.879 173.356 163.956C173.541 164.032 173.74 164.072 173.94 164.072C174.14 164.072 174.339 164.032 174.524 163.956C174.709 163.879 174.877 163.767 175.019 163.625C175.161 163.483 175.273 163.315 175.35 163.13C175.426 162.945 175.466 162.746 175.466 162.546V155.113H182.899C183.304 155.113 183.692 154.952 183.978 154.666C184.264 154.38 184.425 153.992 184.425 153.587C184.425 153.182 184.264 152.794 183.978 152.508C183.692 152.222 183.304 152.061 182.899 152.061Z" fill="white"/>
<path d="M216.568 96.0385C216.867 96.099 217.146 96.2311 217.382 96.4235C217.617 96.6159 217.803 96.8628 217.922 97.1428C217.942 97.1855 217.974 97.2216 218.014 97.2468C218.054 97.272 218.1 97.2854 218.148 97.2853C218.181 97.2936 218.215 97.2936 218.249 97.2853C218.278 97.2719 218.305 97.2528 218.326 97.229C218.348 97.2053 218.365 97.1774 218.377 97.147C218.388 97.1166 218.392 97.0843 218.391 97.0519C218.389 97.0196 218.381 96.988 218.367 96.9588C218.213 96.6045 217.974 96.2934 217.672 96.0523C217.37 95.8112 217.013 95.6475 216.634 95.5754C216.569 95.5668 216.504 95.5841 216.452 95.6236C216.4 95.6632 216.366 95.7216 216.358 95.7862C216.349 95.8508 216.366 95.9161 216.406 95.9679C216.445 96.0197 216.504 96.0536 216.568 96.0623V96.0385Z" fill="#263238"/>
</svg>
