<svg width="25" height="26" viewBox="0 0 25 26" fill="none" xmlns="http://www.w3.org/2000/svg">
<path d="M12.4998 26H12.4949C10.5444 25.9992 8.61053 25.5165 6.87752 24.6008L1.53542 25.8746C1.20945 25.9522 0.868034 25.8496 0.63076 25.6027C0.393486 25.3558 0.29335 24.9987 0.365066 24.6564L1.52264 19.1406C0.528145 17.2154 0.00305176 15.1067 0.000190735 13.0159C0 13.0087 0 13.0015 0 12.9945C0.00133515 9.52963 1.30844 6.26651 3.68023 3.80638C6.04668 1.35184 9.17873 0 12.4996 0C15.8279 0.00139963 18.955 1.35444 21.3058 3.80957C23.6893 6.2989 25.0011 9.56462 25 13.0049C24.999 15.6048 24.2554 18.1175 22.8495 20.2711C22.5449 20.7378 21.9372 20.8572 21.492 20.5379C21.047 20.2186 20.933 19.5815 21.2376 19.1149C22.4203 17.3029 23.0459 15.1899 23.0469 13.0041C23.0478 10.1123 21.94 7.36202 19.9274 5.25998C17.9451 3.18954 15.307 2.04865 12.4992 2.04745C6.6927 2.04745 1.96533 6.94813 1.95312 12.9761C1.95312 12.9827 1.95332 12.9891 1.95332 12.9955C1.95255 14.8614 2.45323 16.7533 3.40099 18.4666C3.52364 18.6884 3.56255 18.9501 3.5099 19.2002L2.60334 23.5201L6.79474 22.5205C7.0261 22.4656 7.26871 22.5005 7.47738 22.6191C9.00879 23.4907 10.7439 23.9518 12.4952 23.9526H12.4996C14.4041 23.9526 16.2745 23.4127 17.9083 22.3916C18.3714 22.1018 18.9709 22.2608 19.2471 22.7465C19.5232 23.2321 19.3718 23.8604 18.9085 24.1501C16.9724 25.3602 14.7562 26 12.4996 26H12.4998ZM9.74178 7.7915C9.52759 7.29404 9.30214 7.27704 9.09843 7.26844H8.55045C8.35972 7.26844 8.04996 7.34322 7.78809 7.64214C7.52602 7.94106 6.7873 8.66367 6.7873 10.1335C6.7873 11.6033 7.81193 13.0237 7.95479 13.2232C8.09784 13.4224 9.9329 16.5349 12.8389 17.7324C15.2542 18.7276 15.7457 18.5296 16.2699 18.4796C16.7942 18.43 17.9617 17.7572 18.1997 17.0596C18.4381 16.3622 18.4381 15.7644 18.3666 15.6394C18.2953 15.515 18.1046 15.4402 17.8186 15.2909C17.5325 15.1415 16.1312 14.4063 15.8691 14.3067C15.6071 14.2072 15.4165 14.1574 15.2258 14.4565C15.0351 14.7552 14.4735 15.446 14.3066 15.6452C14.1399 15.8449 13.973 15.8697 13.6871 15.7204C13.4012 15.5704 12.4897 15.2495 11.3974 14.232C10.5473 13.44 9.9575 12.4303 9.79061 12.1311C9.62372 11.8324 9.77268 11.6705 9.91611 11.5215C10.0445 11.3877 10.2182 11.2048 10.3613 11.0304C10.504 10.8561 10.5448 10.7315 10.64 10.5322C10.7353 10.3328 10.6876 10.1585 10.6163 10.0089C10.5448 9.85955 9.99584 8.38214 9.74159 7.7915" fill="white"/>
</svg>
