<svg width="18" height="15" viewBox="0 0 18 15" fill="none" xmlns="http://www.w3.org/2000/svg">
<path d="M0.929415 5.55103C0.929415 4.53643 1.82475 3.7111 2.92542 3.7111H4.32453C5.25508 3.7111 6.0388 4.30093 6.25905 5.09655C6.3068 5.07949 6.35694 5.06574 6.40887 5.05638C6.89593 4.9645 7.29227 4.8363 7.46895 4.7147C7.71069 4.54743 7.79903 4.36311 7.88558 4.05994C8.08315 3.36997 8.31892 2.24202 8.33384 1.33691C8.34518 0.624382 8.93312 0.107178 9.73236 0.107178C9.79384 0.107178 9.8577 0.109929 9.92097 0.115981C10.4988 0.168802 11.03 0.443911 11.4162 0.889587C11.8477 1.38698 12.0447 2.04559 11.9576 2.69595C11.8818 3.25827 11.8036 3.81674 11.7606 4.11661C12.0943 4.0759 12.4691 4.04068 12.7675 4.04068H15.6965C16.2074 4.04068 16.707 4.23436 17.0669 4.57274C17.4227 4.90727 17.6137 5.34525 17.6042 5.80688C17.5934 6.31803 17.3379 6.77746 16.9422 7.08889C17.1971 7.39701 17.3314 7.77171 17.3248 8.16621C17.3141 8.77695 16.9482 9.31397 16.4086 9.61439C16.5859 9.88784 16.6778 10.2026 16.6718 10.5299C16.6593 11.215 16.2009 11.807 15.5514 12.0772C15.6899 12.3264 15.7604 12.6054 15.7556 12.8942C15.7389 13.8335 14.8829 14.5977 13.8479 14.5977H11.332C10.9118 14.5977 10.5006 14.5273 10.1102 14.3881L7.39314 13.4224C7.14006 13.3322 6.87325 13.2865 6.60107 13.2865C6.48766 13.2865 6.37903 13.2684 6.27755 13.2348C6.08834 14.0695 5.28433 14.6984 4.32393 14.6984H2.92482C1.82415 14.6984 0.928816 13.8731 0.928816 12.8585V5.55103H0.929415ZM6.23995 12.4034C6.23995 12.5872 6.40171 12.7363 6.60107 12.7363C6.94547 12.7363 7.2863 12.7946 7.60802 12.9091L10.3251 13.8747C10.6462 13.9892 10.9876 14.0475 11.3326 14.0475H13.8485C14.5534 14.0475 15.1479 13.5347 15.1599 12.8854C15.1659 12.5509 15.0214 12.2477 14.7844 12.0293C14.5522 11.8158 14.2311 11.6832 13.8772 11.6832H14.7647C15.4697 11.6832 16.0642 11.1704 16.0755 10.5211C16.0815 10.1866 15.937 9.88344 15.7001 9.665C15.4679 9.45152 15.1473 9.31892 14.7928 9.31892H15.4165C16.1215 9.31892 16.716 8.80612 16.7273 8.15686C16.7333 7.82233 16.5888 7.51916 16.3519 7.30072C16.1197 7.08724 15.7992 6.95463 15.4446 6.95463H15.7245C16.4247 6.95463 16.9935 6.43798 17.0067 5.79588C17.0204 5.13286 16.4145 4.5909 15.6959 4.5909H12.7669C12.1354 4.5909 11.0986 4.76862 11.0634 4.77632C11.0634 4.77632 11.1052 4.48801 11.1637 4.0748C11.2222 3.66213 11.2974 3.12512 11.3643 2.62882C11.4974 1.63623 10.7835 0.748731 9.86069 0.663998C9.24112 0.606775 8.93551 0.958914 8.92954 1.34517C8.91342 2.28054 8.67526 3.4525 8.46158 4.2008C8.35593 4.56999 8.21566 4.88637 7.82529 5.15597C7.49044 5.38706 6.88579 5.52902 6.52705 5.5967C6.35933 5.62861 6.23876 5.76451 6.23876 5.92298V12.4045L6.23995 12.4034ZM2.92542 14.1482H4.32453C5.0969 14.1482 5.72364 13.571 5.72364 12.8585V5.55103C5.72364 4.83905 5.0975 4.26132 4.32453 4.26132H2.92542C2.15304 4.26132 1.5263 4.8385 1.5263 5.55103V12.8585C1.5263 13.5704 2.15244 14.1482 2.92542 14.1482Z" fill="black"/>
</svg>
