<svg width="18" height="18" viewBox="0 0 18 18" fill="none" xmlns="http://www.w3.org/2000/svg">
<path d="M17.1572 4.37543C17.1572 7.24407 13.5479 9.27368 13.5479 9.27368C13.5479 9.27368 9.93848 7.26095 9.93848 4.37543C9.93848 2.49288 11.5544 0.966797 13.5479 0.966797C15.5413 0.966797 17.1572 2.49288 17.1572 4.37543Z" stroke="black" stroke-width="0.5" stroke-miterlimit="10" stroke-linecap="round" stroke-linejoin="round"/>
<path d="M13.5478 5.96548C14.4776 5.96548 15.2313 5.25365 15.2313 4.37556C15.2313 3.49747 14.4776 2.78564 13.5478 2.78564C12.618 2.78564 11.8643 3.49747 11.8643 4.37556C11.8643 5.25365 12.618 5.96548 13.5478 5.96548Z" stroke="black" stroke-width="0.5" stroke-miterlimit="10" stroke-linecap="round" stroke-linejoin="round"/>
<path d="M13.5459 10.8433C14.0049 10.8433 14.3769 10.4919 14.3769 10.0585C14.3769 9.62505 14.0049 9.27368 13.5459 9.27368C13.0869 9.27368 12.7148 9.62505 12.7148 10.0585C12.7148 10.4919 13.0869 10.8433 13.5459 10.8433Z" stroke="black" stroke-width="0.5" stroke-miterlimit="10" stroke-linecap="round" stroke-linejoin="round"/>
<path d="M8.96953 9.33215C8.96953 12.6501 4.79484 14.9976 4.79484 14.9976C4.79484 14.9976 0.620117 12.6696 0.620117 9.33215C0.620117 7.15477 2.48918 5.38965 4.79484 5.38965C7.1005 5.38965 8.96953 7.15477 8.96953 9.33215Z" stroke="black" stroke-width="0.5" stroke-miterlimit="10" stroke-linecap="round" stroke-linejoin="round"/>
<path d="M4.79693 11.6156C6.13237 11.6156 7.21496 10.5933 7.21496 9.33212C7.21496 8.07096 6.13237 7.04858 4.79693 7.04858C3.46149 7.04858 2.37891 8.07096 2.37891 9.33212C2.37891 10.5933 3.46149 11.6156 4.79693 11.6156Z" stroke="black" stroke-width="0.5" stroke-miterlimit="10" stroke-linecap="round" stroke-linejoin="round"/>
<path d="M4.79518 16.813C5.32603 16.813 5.75637 16.4066 5.75637 15.9053C5.75637 15.404 5.32603 14.9976 4.79518 14.9976C4.26433 14.9976 3.83398 15.404 3.83398 15.9053C3.83398 16.4066 4.26433 16.813 4.79518 16.813Z" stroke="black" stroke-width="0.5" stroke-miterlimit="10" stroke-linecap="round" stroke-linejoin="round"/>
<path d="M13.5469 12.1987C13.5469 12.6287 13.1779 12.9772 12.7226 12.9772H11.4867C11.0364 12.9772 10.6714 13.3219 10.6714 13.7472C10.6714 14.1724 11.0364 14.5171 11.4867 14.5171H15.2159C15.703 14.5171 16.0977 14.8899 16.0977 15.3499C16.0977 15.8098 15.703 16.1826 15.2159 16.1826H7.22168" stroke="black" stroke-width="0.5" stroke-miterlimit="10" stroke-linecap="round" stroke-linejoin="round"/>
</svg>
