<svg width="17" height="16" viewBox="0 0 17 16" fill="none" xmlns="http://www.w3.org/2000/svg">
<g clip-path="url(#clip0_761_8611)">
<path d="M10.7318 8.02156L11.5953 7.15781C12.1426 7.34015 12.73 7.36587 13.2911 7.23206C13.8522 7.09826 14.3648 6.81025 14.7709 6.40057C16.5865 4.5844 17.0424 2.19444 15.8073 0.95964C14.5723 -0.275158 12.1826 0.180411 10.3664 1.99609C9.95671 2.4022 9.6687 2.91474 9.5349 3.47587C9.40109 4.03699 9.42681 4.62435 9.60915 5.17163L8.7454 6.03514L7.95786 5.24785L7.92928 4.7019C7.89859 4.11429 7.65126 3.55889 7.23506 3.14295L4.48357 0.391462C4.44388 0.351765 4.39675 0.320276 4.34488 0.298792C4.29302 0.277308 4.23743 0.266251 4.18129 0.266251C4.06791 0.266251 3.95917 0.311291 3.879 0.391462C3.79883 0.471634 3.75379 0.58037 3.75379 0.69375C3.75379 0.74989 3.76485 0.80548 3.78633 0.857346C3.80781 0.909213 3.8393 0.95634 3.879 0.996037L5.99489 3.11168L5.21761 3.88896L3.1027 1.77331C3.06294 1.73355 3.01574 1.70201 2.96379 1.68049C2.91184 1.65897 2.85616 1.6479 2.79992 1.6479C2.74369 1.6479 2.68801 1.65897 2.63606 1.68049C2.58411 1.70201 2.53691 1.73355 2.49715 1.77331C2.41685 1.85361 2.37173 1.96253 2.37173 2.07609C2.37173 2.18965 2.41685 2.29856 2.49715 2.37886L4.61304 4.49475L3.83552 5.27105L1.71987 3.15516C1.6397 3.07499 1.53097 3.02995 1.41759 3.02995C1.30421 3.02995 1.19547 3.07499 1.1153 3.15516C1.03513 3.23533 0.990087 3.34407 0.990087 3.45745C0.990087 3.57083 1.03513 3.67957 1.1153 3.75974L3.86679 6.51122C4.28272 6.92743 4.83812 7.17475 5.42573 7.20545L5.97168 7.23403L6.75897 8.02156L1.40061 13.3802C1.13723 13.6436 0.989258 14.0008 0.989258 14.3733C0.989258 14.7457 1.13723 15.103 1.40061 15.3663C1.66399 15.6297 2.02122 15.7777 2.3937 15.7777C2.76618 15.7777 3.12341 15.6297 3.38679 15.3663L8.7454 10.008L14.1035 15.3661C14.2339 15.4965 14.3888 15.6 14.5592 15.6706C14.7296 15.7412 14.9123 15.7775 15.0967 15.7775C15.2812 15.7775 15.4638 15.7412 15.6343 15.6706C15.8047 15.6 15.9595 15.4965 16.0899 15.3661C16.2204 15.2357 16.3238 15.0808 16.3944 14.9104C16.465 14.74 16.5013 14.5573 16.5013 14.3729C16.5013 14.1884 16.465 14.0058 16.3944 13.8354C16.3238 13.665 16.2204 13.5101 16.0899 13.3797L10.7318 8.02156ZM10.4096 5.57884C10.4705 5.51803 10.5116 5.44024 10.5275 5.35568C10.5434 5.27112 10.5334 5.18372 10.4988 5.10495C10.3146 4.68877 10.2612 4.22649 10.3455 3.77927C10.4298 3.33206 10.6479 2.92098 10.971 2.60042C12.3987 1.17265 14.3368 0.698024 15.2027 1.56422C16.0687 2.43041 15.5936 4.36822 14.1665 5.79599C13.8459 6.11929 13.4346 6.33755 12.9871 6.42187C12.5396 6.50619 12.0771 6.45259 11.6608 6.26817C11.582 6.23355 11.4946 6.22354 11.4101 6.23945C11.3255 6.25536 11.2477 6.29645 11.1869 6.35733L10.1272 7.41699L9.34997 6.63971L10.4096 5.57884ZM2.78221 14.762C2.67911 14.8651 2.53928 14.923 2.39349 14.923C2.2477 14.9229 2.10789 14.865 2.00482 14.7619C1.90174 14.6588 1.84385 14.519 1.84387 14.3732C1.8439 14.2274 1.90183 14.0876 2.00494 13.9845L7.36355 8.62614L8.14082 9.40341L2.78221 14.762ZM15.4844 14.762C15.3813 14.865 15.2415 14.9228 15.0958 14.9228C14.95 14.9228 14.8102 14.865 14.7071 14.762L6.46023 6.51367C6.3855 6.439 6.28579 6.39462 6.18029 6.38909L5.4719 6.35171C5.09453 6.33255 4.73771 6.17395 4.47063 5.90665L4.4396 5.87563L6.59873 3.7165L6.62975 3.74752C6.89661 4.01411 7.05518 4.37015 7.07482 4.74684L7.11219 5.45523C7.11772 5.56073 7.1621 5.66044 7.23677 5.73517L15.4854 13.9843C15.5883 14.0874 15.6461 14.2272 15.6461 14.3729C15.6461 14.5186 15.5883 14.6584 15.4854 14.7615L15.4844 14.762Z" fill="black"/>
</g>
<defs>
<clipPath id="clip0_761_8611">
<rect width="15.6334" height="15.6334" fill="white" transform="translate(0.928711 0.205078)"/>
</clipPath>
</defs>
</svg>
