<svg width="30" height="30" viewBox="0 0 30 30" fill="none" xmlns="http://www.w3.org/2000/svg">
<g clip-path="url(#clip0_761_4479)">
<path d="M28.0946 15.9524C29.1448 15.9524 29.9993 15.0979 29.9993 14.0477V1.90508C29.9993 0.854866 29.1448 0.000366211 28.0946 0.000366211H17.1425C16.0923 0.000366211 15.2378 0.854866 15.2378 1.90508V14.0477C15.2378 15.0979 16.0923 15.9524 17.1425 15.9524H21.4281V17.7133L0.293798 12.6258C0.221892 12.6084 0.148098 12.6251 0.0904818 12.6703C0.0335798 12.7153 0 12.7843 0 12.8572V14.995V15.0053V22.6139V22.6242V29.7616C0 29.893 0.106404 29.9997 0.23807 29.9997H29.7541C29.8748 29.9997 29.9762 29.9097 29.9905 29.79C30.0048 29.6702 29.9272 29.5588 29.8101 29.5302L25.5673 28.5036C25.1409 27.539 24.203 27.1105 23.809 26.9693V20.9092L28.5325 22.0444C29.2929 22.1682 29.8406 21.6165 29.9694 21.0344C30.0963 20.4599 29.8413 19.7728 28.9765 19.5304L23.809 18.2864V15.9524H28.0946ZM0.476191 15.3022L1.90471 15.6455V22.7775L0.476191 22.4318V15.3022ZM2.3809 15.7598L9.76168 17.5335V24.6786L2.3809 22.8925V15.7598ZM10.2379 17.6478L11.6664 17.9911V25.1396L10.2379 24.7939V17.6478ZM12.1426 18.1057L19.5234 19.8794V27.041L12.1426 25.2548V18.1057ZM19.9995 19.9937L21.4281 20.3371V27.5017L19.9995 27.156V19.9937ZM27.8566 14.2857H17.3806C17.118 14.2857 16.9044 14.0722 16.9044 13.8095V2.14315C16.9044 1.88053 17.118 1.66696 17.3806 1.66696H27.8565C28.1191 1.66696 28.3327 1.88053 28.3327 2.14315V13.8095C28.3327 14.0722 28.1191 14.2857 27.8566 14.2857ZM0.476191 29.5235V22.9215L27.7587 29.5235H0.476191Z" fill="black"/>
<path d="M22.1424 5.00011C22.9313 5.00011 23.5709 4.36054 23.5709 3.57159C23.5709 2.78264 22.9313 2.14307 22.1424 2.14307C21.3534 2.14307 20.7139 2.78264 20.7139 3.57159C20.7139 4.36054 21.3534 5.00011 22.1424 5.00011Z" fill="black"/>
<path d="M23.2976 5.9578C23.171 5.54994 22.7224 5.23828 22.2046 5.23828C21.4789 5.23828 21.0331 5.79301 21.0334 6.17923L20.9636 7.61918H19.7618C19.1053 7.61918 18.5713 8.15319 18.5713 8.80963V10.9541C18.2597 10.9631 17.8425 11.0115 17.5887 11.2648C17.4528 11.4005 17.3809 11.5807 17.3809 11.7857C17.3809 12.2086 17.6668 12.5105 18.1825 12.6169L19.4315 12.7838C20.0482 12.8626 20.2141 12.5386 20.2572 12.2993C20.9742 13.1052 21.996 13.5714 23.095 13.5714C25.1955 13.5714 26.9045 11.8624 26.9045 9.76196C26.9045 7.72941 25.3043 6.06349 23.2976 5.9578ZM23.095 11.9048C21.9134 11.9048 20.9522 10.9434 20.9522 9.76196V9.5339L21.9046 9.52604V10.2382C21.9046 10.632 22.2251 10.9524 22.6189 10.9524C23.0127 10.9524 23.3331 10.6319 23.3331 10.2382V7.63225C24.4031 7.75105 25.2378 8.66082 25.2378 9.76196C25.2378 10.9434 24.2767 11.9048 23.095 11.9048Z" fill="black"/>
</g>
<defs>
<clipPath id="clip0_761_4479">
<rect width="30" height="30" fill="white"/>
</clipPath>
</defs>
</svg>
