<svg width="30" height="30" viewBox="0 0 30 30" fill="none" xmlns="http://www.w3.org/2000/svg">
<path d="M27.2983 7.89441H2.70173C1.98555 7.89559 1.29904 8.18061 0.792619 8.68703C0.286201 9.19345 0.00117736 9.87996 0 10.5961V12.7575H30V10.5961C29.9988 9.87996 29.7138 9.19345 29.2074 8.68703C28.701 8.18061 28.0145 7.89559 27.2983 7.89441Z" fill="black"/>
<path d="M0 13.8383V26.3148C0.00117736 27.031 0.286201 27.7175 0.792619 28.224C1.29904 28.7304 1.98555 29.0154 2.70173 29.0166H27.2983C28.0145 29.0154 28.701 28.7304 29.2074 28.224C29.7138 27.7175 29.9988 27.031 30 26.3148V13.8383H0ZM17.0209 15.2215H22.0623C22.2056 15.2215 22.3431 15.2785 22.4444 15.3798C22.5457 15.4811 22.6027 15.6186 22.6027 15.7619C22.6027 15.9052 22.5457 16.0426 22.4444 16.144C22.3431 16.2453 22.2056 16.3022 22.0623 16.3022H17.0209C16.8776 16.3022 16.7401 16.2453 16.6388 16.144C16.5375 16.0426 16.4805 15.9052 16.4805 15.7619C16.4805 15.6186 16.5375 15.4811 16.6388 15.3798C16.7401 15.2785 16.8776 15.2215 17.0209 15.2215ZM17.0209 18.6365H23.505C23.6484 18.6365 23.7858 18.6935 23.8871 18.7948C23.9885 18.8961 24.0454 19.0336 24.0454 19.1769C24.0454 19.3202 23.9885 19.4576 23.8871 19.559C23.7858 19.6603 23.6484 19.7172 23.505 19.7172H17.0209C16.8776 19.7172 16.7401 19.6603 16.6388 19.559C16.5375 19.4576 16.4805 19.3202 16.4805 19.1769C16.4805 19.0336 16.5375 18.8961 16.6388 18.7948C16.7401 18.6935 16.8776 18.6365 17.0209 18.6365ZM17.0209 22.0569H26.7471C26.8904 22.0569 27.0279 22.1138 27.1292 22.2152C27.2305 22.3165 27.2875 22.454 27.2875 22.5973C27.2875 22.7406 27.2305 22.878 27.1292 22.9793C27.0279 23.0807 26.8904 23.1376 26.7471 23.1376H17.0209C16.8776 23.1376 16.7401 23.0807 16.6388 22.9793C16.5375 22.878 16.4805 22.7406 16.4805 22.5973C16.4805 22.454 16.5375 22.3165 16.6388 22.2152C16.7401 22.1138 16.8776 22.0569 17.0209 22.0569ZM17.0209 25.4773H26.7471C26.8904 25.4773 27.0279 25.5342 27.1292 25.6356C27.2305 25.7369 27.2875 25.8743 27.2875 26.0177C27.2875 26.161 27.2305 26.2984 27.1292 26.3997C27.0279 26.5011 26.8904 26.558 26.7471 26.558H17.0209C16.8776 26.558 16.7401 26.5011 16.6388 26.3997C16.5375 26.2984 16.4805 26.161 16.4805 26.0177C16.4805 25.8743 16.5375 25.7369 16.6388 25.6356C16.7401 25.5342 16.8776 25.4773 17.0209 25.4773ZM3.93372 19.1391H8.45101L7.12176 18.107C6.85877 17.9036 6.66001 17.6288 6.54932 17.3153C6.43863 17.0018 6.42072 16.6631 6.49771 16.3397C6.57471 16.0163 6.74336 15.722 6.98343 15.492C7.22351 15.2621 7.52482 15.1062 7.85123 15.0432C8.09724 14.9929 8.35135 14.9979 8.59523 15.0577C8.83912 15.1175 9.06668 15.2307 9.26153 15.3891L14.6434 19.6794C14.8256 19.8265 14.9726 20.0125 15.0735 20.2239C15.1745 20.4352 15.2269 20.6664 15.2269 20.9006C15.2269 21.1348 15.1745 21.366 15.0735 21.5773C14.9726 21.7886 14.8256 21.9746 14.6434 22.1218L9.29935 26.3851C8.9893 26.6326 8.60458 26.7678 8.20785 26.7687C8.08972 26.7695 7.97189 26.7568 7.85663 26.7309C7.52716 26.6644 7.2237 26.5048 6.98232 26.2709C6.74094 26.037 6.57179 25.7387 6.49496 25.4115C6.41814 25.0843 6.43688 24.7419 6.54894 24.425C6.66101 24.1081 6.8617 23.8301 7.12716 23.6239L8.45101 22.5973H3.93372C3.47513 22.5973 3.03533 22.4151 2.71105 22.0908C2.38678 21.7665 2.20461 21.3267 2.20461 20.8682C2.20461 20.4096 2.38678 19.9698 2.71105 19.6455C3.03533 19.3212 3.47513 19.1391 3.93372 19.1391Z" fill="black"/>
<path d="M3.93357 21.5166H10.0287C10.1407 21.5156 10.2502 21.5501 10.3414 21.6152C10.4327 21.6802 10.501 21.7724 10.5366 21.8786C10.5738 21.9855 10.5766 22.1013 10.5446 22.2099C10.5126 22.3184 10.4475 22.4142 10.3583 22.4838L7.79164 24.4777C7.72141 24.5325 7.6627 24.6006 7.6189 24.6781C7.5751 24.7556 7.54708 24.8411 7.53644 24.9295C7.5258 25.0179 7.53275 25.1076 7.55691 25.1933C7.58107 25.279 7.62194 25.3591 7.67718 25.4289C7.73242 25.4988 7.80093 25.557 7.87877 25.6003C7.95661 25.6435 8.04224 25.671 8.13073 25.681C8.21922 25.691 8.30882 25.6834 8.39436 25.6587C8.47991 25.6339 8.55971 25.5925 8.62918 25.5368L13.9678 21.2735C14.0236 21.2287 14.0686 21.1719 14.0995 21.1074C14.1303 21.0428 14.1463 20.9722 14.1461 20.9006C14.1463 20.8283 14.1304 20.7568 14.0996 20.6914C14.0687 20.626 14.0237 20.5682 13.9678 20.5224L8.59135 16.232C8.51792 16.1731 8.43245 16.1309 8.34096 16.1085C8.24948 16.0861 8.15419 16.084 8.06181 16.1024C7.96883 16.119 7.88076 16.1563 7.80409 16.2114C7.72741 16.2666 7.66409 16.3383 7.61876 16.4212C7.54251 16.557 7.51749 16.7156 7.54822 16.8683C7.57896 17.021 7.66342 17.1576 7.78627 17.2533L10.3583 19.2526C10.4475 19.3222 10.5127 19.418 10.5447 19.5265C10.5766 19.6351 10.5738 19.7509 10.5366 19.8578C10.501 19.964 10.4327 20.0562 10.3415 20.1213C10.2502 20.1863 10.1407 20.2208 10.0287 20.2198H3.93357C3.7616 20.2198 3.59667 20.2881 3.47507 20.4097C3.35347 20.5313 3.28516 20.6963 3.28516 20.8682C3.28516 21.0402 3.35347 21.2051 3.47507 21.3267C3.59667 21.4483 3.7616 21.5166 3.93357 21.5166Z" fill="black"/>
<path d="M8.27303 6.81377V0.540349C8.27327 0.469321 8.25947 0.398946 8.2324 0.333277C8.20533 0.267608 8.16554 0.207943 8.11531 0.157718C8.06509 0.107493 8.00542 0.0677006 7.93975 0.0406329C7.87409 0.0135652 7.80371 -0.000243086 7.73268 3.23838e-06H4.39875C4.32772 -0.000243086 4.25734 0.0135652 4.19167 0.0406329C4.12601 0.0677006 4.06634 0.107493 4.01612 0.157718C3.96589 0.207943 3.9261 0.267608 3.89903 0.333277C3.87196 0.398946 3.85816 0.469321 3.8584 0.540349V6.81377H8.27303Z" fill="black"/>
<path d="M26.1422 6.81377V0.540349C26.1424 0.469321 26.1286 0.398946 26.1015 0.333277C26.0745 0.267608 26.0347 0.207943 25.9845 0.157718C25.9342 0.107493 25.8746 0.0677006 25.8089 0.0406329C25.7432 0.0135652 25.6728 -0.000243086 25.6018 3.23838e-06H22.2679C22.1969 -0.000243086 22.1265 0.0135652 22.0608 0.0406329C21.9951 0.0677006 21.9355 0.107493 21.8853 0.157718C21.835 0.207943 21.7952 0.267608 21.7682 0.333277C21.7411 0.398946 21.7273 0.469321 21.7275 0.540349V6.81377H26.1422Z" fill="black"/>
</svg>
