<svg width="23" height="29" viewBox="0 0 23 29" fill="none" xmlns="http://www.w3.org/2000/svg">
<path fill-rule="evenodd" clip-rule="evenodd" d="M19.9482 10.9928C21.0164 10.9928 21.8854 10.1238 21.8854 9.05567V4.03066C21.8854 2.9625 21.0164 2.09414 19.9482 2.09414H18.3428V0.351563C18.3428 0.157031 18.1852 0 17.9912 0C17.7973 0 17.6396 0.157031 17.6396 0.351563V2.09355H4.58496V0.351563C4.58496 0.157031 4.42734 0 4.2334 0C4.03945 0 3.88184 0.157031 3.88184 0.351563V2.09355H2.27637C1.2082 2.09355 0.339844 2.9625 0.339844 4.03008V9.05567C0.339844 10.1238 1.20879 10.9928 2.27637 10.9928H19.9482ZM15.4477 22.9805C15.4477 23.5869 15.941 24.0803 16.5475 24.0803H18.8367V27.5396H16.9143C16.7203 27.5396 16.5627 27.6967 16.5627 27.8912C16.5627 28.0852 16.7203 28.2428 16.9143 28.2428H21.4623C21.6568 28.2428 21.8139 28.0852 21.8139 27.8912C21.8139 27.6967 21.6562 27.5396 21.4623 27.5396H19.5398V24.0803H21.8291C22.4355 24.0803 22.9289 23.5869 22.9289 22.9805C22.9289 22.374 22.4355 21.8807 21.8291 21.8807H20.5336C20.7229 21.6129 20.8342 21.2865 20.8342 20.9338V19.1936C20.8342 18.999 20.6766 18.842 20.4826 18.842H17.8939C17.7 18.842 17.5424 18.9996 17.5424 19.1936V20.9338C17.5424 21.2859 17.6537 21.6123 17.843 21.8807H16.5475C15.941 21.8807 15.4477 22.374 15.4477 22.9805ZM20.1305 19.5451V20.9338C20.1305 21.4535 19.7074 21.8766 19.1877 21.8766C18.668 21.8766 18.2449 21.4535 18.2449 20.9338V19.5451H20.1305ZM11.5635 23.0818V27.5396H13.7941V23.0818C13.7941 22.4666 13.2938 21.9662 12.6785 21.9662C12.0633 21.9662 11.5635 22.4666 11.5635 23.0818ZM2.93438 24.474V27.5396H10.8604V24.474C10.8604 23.8998 10.3934 23.4334 9.81973 23.4334H3.975C3.40078 23.4334 2.93438 23.8998 2.93438 24.474ZM2.23125 27.5391V23.0818C2.23125 22.4666 1.73086 21.9662 1.11563 21.9662C0.500391 21.9662 0 22.4666 0 23.0818V27.5396H2.23125V27.5391ZM11.2482 15.1365C11.843 15.1365 12.327 15.6205 12.327 16.2152V21.2971C11.4938 21.4611 10.8627 22.1953 10.8604 23.0754C10.5697 22.8586 10.2094 22.7297 9.81973 22.7297H3.975C3.58535 22.7297 3.225 22.8586 2.93438 23.0754C2.93145 22.1959 2.30039 21.4617 1.46777 21.2977V16.2158C1.46777 15.6211 1.95176 15.1371 2.54648 15.1371H11.2482V15.1365ZM5.025 6.74707V7.82344L5.82363 8.28457C5.9918 8.38184 6.04922 8.59629 5.95254 8.76445C5.8875 8.87754 5.76914 8.94024 5.64785 8.94024C5.58809 8.94024 5.52773 8.925 5.47207 8.89336L4.67344 8.43223L3.8748 8.89336C3.70664 8.99063 3.4916 8.93262 3.39492 8.76445C3.29766 8.59629 3.35566 8.38125 3.52383 8.28457L4.32246 7.82344V6.74707L2.92852 7.55156C2.76035 7.64883 2.54531 7.59141 2.44805 7.42266C2.35078 7.25449 2.40879 7.03945 2.57695 6.94277L4.32246 5.93496V4.49707C4.32246 4.30254 4.48008 4.14551 4.67402 4.14551C4.86797 4.14551 5.02559 4.30313 5.02559 4.49707V5.93496L6.77109 6.94277C6.93926 7.04004 6.99668 7.25508 6.9 7.42266C6.83496 7.53574 6.7166 7.59902 6.59531 7.59902C6.53555 7.59902 6.4752 7.58379 6.41953 7.55156L5.025 6.74707ZM8.69121 4.9377C8.49726 4.9377 8.33965 4.78008 8.33965 4.58613C8.33965 4.3916 8.49726 4.23457 8.69121 4.23457H11.3449C11.5389 4.23457 11.6965 4.3916 11.6965 4.58613C11.6965 4.78008 11.5389 4.9377 11.3449 4.9377H8.69121ZM11.3443 6.1916C11.5383 6.1916 11.6959 6.34922 11.6959 6.54316C11.6959 6.7377 11.5383 6.89473 11.3443 6.89473H8.69063C8.49668 6.89473 8.33906 6.7377 8.33906 6.54316C8.33906 6.34922 8.49668 6.1916 8.69063 6.1916H11.3443ZM11.3443 8.14922C11.5383 8.14922 11.6959 8.30625 11.6959 8.50078C11.6959 8.69531 11.5383 8.85234 11.3443 8.85234H8.69063C8.49668 8.85234 8.33906 8.69531 8.33906 8.50078C8.33906 8.30625 8.49668 8.14922 8.69063 8.14922H11.3443ZM13.2984 8.14922H19.473C19.667 8.14922 19.8246 8.30625 19.8246 8.50078C19.8246 8.69531 19.667 8.85234 19.473 8.85234H13.2984C13.1045 8.85234 12.9469 8.69531 12.9469 8.50078C12.9469 8.30625 13.1045 8.14922 13.2984 8.14922ZM13.2984 6.89473C13.1045 6.89473 12.9469 6.7377 12.9469 6.54316C12.9469 6.34922 13.1045 6.1916 13.2984 6.1916H19.473C19.667 6.1916 19.8246 6.34922 19.8246 6.54316C19.8246 6.7377 19.667 6.89473 19.473 6.89473H13.2984ZM13.2984 4.9377C13.1045 4.9377 12.9469 4.78008 12.9469 4.58613C12.9469 4.3916 13.1045 4.23457 13.2984 4.23457H19.473C19.667 4.23457 19.8246 4.3916 19.8246 4.58613C19.8246 4.78008 19.667 4.9377 19.473 4.9377H13.2984Z" fill="black"/>
</svg>
