<svg width="48" height="48" viewBox="0 0 48 48" fill="none" xmlns="http://www.w3.org/2000/svg">
<path fill-rule="evenodd" clip-rule="evenodd" d="M41.8731 42.5324C42.3991 42.5324 42.9133 42.6884 43.3507 42.9807C43.788 43.2729 44.1289 43.6883 44.3302 44.1743C44.5314 44.6603 44.5841 45.195 44.4815 45.7109C44.3788 46.2268 44.1255 46.7007 43.7536 47.0726C43.3816 47.4446 42.9077 47.6979 42.3918 47.8005C41.8759 47.9031 41.3412 47.8504 40.8552 47.6491C40.3692 47.4478 39.9539 47.1069 39.6617 46.6696C39.3694 46.2322 39.2134 45.718 39.2134 45.192C39.2134 44.8427 39.2822 44.4969 39.4159 44.1742C39.5496 43.8515 39.7455 43.5583 39.9924 43.3114C40.2394 43.0644 40.5326 42.8685 40.8553 42.7348C41.178 42.6012 41.5238 42.5324 41.8731 42.5324ZM13.4654 13.2764L18.3939 14.597C18.9674 14.7518 19.4562 15.1276 19.7532 15.6421C20.0503 16.1566 20.1313 16.7678 19.9787 17.3419L19.6517 18.5626L17.4122 16.0814C17.2906 15.949 17.1216 15.8698 16.9419 15.8612C16.7623 15.8526 16.5865 15.9152 16.4528 16.0355C16.3191 16.1557 16.2382 16.3239 16.2278 16.5035C16.2174 16.683 16.2782 16.8594 16.3971 16.9943L19.2089 20.1096L25.0821 22.2342C25.5075 22.3606 25.8657 22.6501 26.0785 23.0396C26.2912 23.4291 26.3413 23.887 26.2178 24.3132C26.0943 24.7395 25.8071 25.0997 25.4191 25.3151C25.031 25.5305 24.5736 25.5836 24.1464 25.463L17.5283 23.1205C17.0375 22.9468 16.8433 22.6642 16.541 22.2986L13.9167 19.1446C13.8012 19.0058 13.6354 18.9186 13.4556 18.9021C13.2758 18.8855 13.0969 18.9411 12.9581 19.0565C12.8193 19.172 12.732 19.3378 12.7155 19.5176C12.699 19.6974 12.7545 19.8763 12.87 20.0151C13.7773 21.1057 14.6845 22.1964 15.5917 23.2873C15.9551 23.7273 16.2957 24.1247 16.8905 24.3353L17.9996 24.7278L17.2458 27.541L19.9086 34.7784C19.9672 34.938 20.0051 35.1044 20.0213 35.2736L21.664 45.5632C21.7047 45.8197 21.6945 46.0818 21.634 46.3344C21.5734 46.587 21.4637 46.8251 21.3111 47.0353C21.1585 47.2455 20.966 47.4236 20.7445 47.5594C20.5231 47.6952 20.2771 47.786 20.0206 47.8268C19.764 47.8675 19.502 47.8573 19.2494 47.7967C18.9968 47.7362 18.7586 47.6264 18.5484 47.4738C18.3382 47.3212 18.1601 47.1287 18.0244 46.9073C17.8886 46.6858 17.7977 46.4398 17.757 46.1833L16.1282 35.9814L13.821 29.7104C13.714 29.4198 13.5116 29.1741 13.2468 29.0135C12.982 28.8529 12.6706 28.787 12.3635 28.8265C12.0563 28.8661 11.7717 29.0087 11.5562 29.231C11.3407 29.4534 11.207 29.7423 11.1771 30.0505L10.5852 36.1552C10.5542 36.48 10.443 36.7921 10.2616 37.0634C8.08717 40.3809 5.83131 43.6731 3.62145 46.9701C3.32826 47.4034 2.87557 47.7031 2.36219 47.8038C1.84881 47.9045 1.31644 47.7981 0.881284 47.5077C0.446127 47.2173 0.143525 46.7665 0.0395345 46.2538C-0.0644561 45.741 0.0386091 45.208 0.326232 44.771L6.69088 35.2754L7.46442 27.2969C7.60602 25.8364 8.17653 24.4499 8.53258 23.0265L10.7201 14.8608C10.8751 14.2874 11.2509 13.7987 11.7653 13.5017C12.2798 13.2047 12.8913 13.1239 13.4654 13.2764ZM21.4598 0.976562H15.5321C15.4027 0.976795 15.2786 1.02831 15.1871 1.11983C15.0956 1.21135 15.044 1.33541 15.0438 1.46484V5.09121C15.044 5.22064 15.0956 5.3447 15.1871 5.43622C15.2786 5.52774 15.4027 5.57926 15.5321 5.57949H21.4598C21.5893 5.57926 21.7133 5.52774 21.8048 5.43622C21.8964 5.3447 21.9479 5.22064 21.9481 5.09121V1.46484C21.9479 1.33541 21.8964 1.21135 21.8048 1.11983C21.7133 1.02831 21.5893 0.976795 21.4598 0.976562ZM22.2278 6.78008C22.4193 7.36906 22.4687 7.995 22.3719 8.60672C22.2751 9.21844 22.0348 9.79856 21.6709 10.2996C21.3069 10.8007 20.8294 11.2085 20.2776 11.4897C19.7258 11.7709 19.1153 11.9175 18.496 11.9175C17.8766 11.9175 17.2661 11.7709 16.7143 11.4897C16.1625 11.2085 15.6851 10.8007 15.3211 10.2996C14.9571 9.79856 14.7169 9.21844 14.6201 8.60672C14.5233 7.995 14.5726 7.36906 14.7641 6.78008C15.0052 6.88989 15.2672 6.94651 15.5321 6.94609H21.4598C21.7248 6.94651 21.9867 6.88989 22.2278 6.78008ZM35.0933 13.7125H37.1945C37.3239 13.7128 37.448 13.7643 37.5395 13.8558C37.631 13.9473 37.6825 14.0714 37.6828 14.2008V15.3429C37.6828 15.751 37.5206 16.1424 37.2321 16.431C36.9435 16.7196 36.552 16.8817 36.1439 16.8817C35.7358 16.8817 35.3444 16.7196 35.0558 16.431C34.7672 16.1424 34.605 15.751 34.605 15.3429V14.2009C34.6053 14.0715 34.6568 13.9474 34.7483 13.8559C34.8399 13.7644 34.9639 13.7128 35.0933 13.7125ZM33.2448 9.00947V7.57988C33.2454 7.19111 33.4001 6.81843 33.675 6.54352C33.9499 6.26862 34.3226 6.1139 34.7114 6.11328H37.5763C37.965 6.11398 38.3376 6.2687 38.6125 6.54355C38.8873 6.81841 39.042 7.19099 39.0427 7.57969V9.00928H37.6756V7.57988C37.675 7.55373 37.6644 7.5288 37.6459 7.51031C37.6274 7.49181 37.6025 7.48119 37.5763 7.48066H34.7114C34.6852 7.48114 34.6602 7.49174 34.6417 7.51024C34.6231 7.52874 34.6125 7.5537 34.612 7.57988V9.00947H33.2448ZM29.4865 10.3767C29.4251 10.3768 29.3662 10.4012 29.3228 10.4446C29.2793 10.488 29.2549 10.5469 29.2547 10.6083V12.3968L33.2448 14.0368C33.2862 13.5751 33.4988 13.1456 33.8408 12.8326C34.1827 12.5197 34.6294 12.3459 35.0929 12.3455H37.1941C37.6577 12.3459 38.1043 12.5197 38.4462 12.8326C38.7882 13.1456 39.0008 13.5751 39.0422 14.0368L43.0324 12.3967V10.6082C43.0323 10.5468 43.0078 10.488 42.9644 10.4446C42.921 10.4011 42.8621 10.3767 42.8007 10.3766L29.4865 10.3767ZM43.0326 13.8749L39.0445 15.5142C39.0009 16.254 38.6763 16.9492 38.1371 17.4576C37.5979 17.966 36.8848 18.2491 36.1437 18.2491C35.4026 18.2491 34.6895 17.966 34.1502 17.4576C33.611 16.9492 33.2864 16.254 33.2428 15.5142L29.2547 13.8749V19.9863C29.2549 20.0477 29.2793 20.1066 29.3228 20.15C29.3662 20.1934 29.4251 20.2179 29.4865 20.218H42.8009C42.8623 20.2179 42.9212 20.1934 42.9646 20.15C43.008 20.1066 43.0325 20.0477 43.0326 19.9863V13.8749ZM36.1439 3.73564e-08C35.7887 -7.16332e-05 35.4412 0.102987 35.1434 0.29666C34.8457 0.490332 34.6106 0.766287 34.4667 1.09101C34.3228 1.41574 34.2762 1.77526 34.3327 2.12593C34.3892 2.47659 34.5463 2.80331 34.7849 3.06641C29.0833 3.75068 24.7361 8.6377 24.7361 14.3927V20.6553L25.5112 20.9356C25.717 20.999 25.9154 21.0839 26.1033 21.1891V14.3923C26.1033 8.87148 30.6228 4.35195 36.1437 4.35195C41.6646 4.35195 46.1842 8.87148 46.1842 14.3923V37.9122H26.1035V26.506C25.6846 26.741 25.2162 26.874 24.7363 26.8941V40.9653C24.7363 41.1466 24.8083 41.3205 24.9365 41.4487C25.0647 41.5769 25.2386 41.6489 25.4199 41.6489H46.8678C47.0491 41.6489 47.223 41.5769 47.3512 41.4487C47.4794 41.3205 47.5514 41.1466 47.5514 40.9653V14.3923C47.5514 8.6374 43.2045 3.75 37.5026 3.06641C37.7412 2.80335 37.8984 2.47665 37.9549 2.126C38.0114 1.77534 37.9649 1.41582 37.8211 1.09109C37.6772 0.766358 37.4421 0.490391 37.1444 0.296703C36.8466 0.103016 36.4991 -5.75857e-05 36.1439 3.73564e-08ZM32.343 31.5746V32.8958H31.3583V31.5746H32.343ZM29.1422 35.227C29.0646 35.2265 28.9903 35.1955 28.9355 35.1407C28.8806 35.0858 28.8496 35.0115 28.8492 34.934V31.8676C28.8496 31.79 28.8806 31.7157 28.9355 31.6609C28.9903 31.6061 29.0646 31.575 29.1422 31.5746H29.9911V33.5794C29.9911 33.7607 30.0631 33.9346 30.1913 34.0628C30.3195 34.191 30.4934 34.263 30.6747 34.263H33.0266C33.2079 34.263 33.3818 34.191 33.51 34.0628C33.6382 33.9346 33.7102 33.7607 33.7102 33.5794V31.5746H38.5775V33.5794C38.5775 33.7607 38.6495 33.9346 38.7777 34.0628C38.9059 34.191 39.0798 34.263 39.2611 34.263H41.6131C41.7944 34.263 41.9682 34.191 42.0964 34.0628C42.2246 33.9346 42.2966 33.7607 42.2966 33.5794V31.5746H43.1456C43.2231 31.575 43.2974 31.6061 43.3522 31.6609C43.4071 31.7157 43.4381 31.79 43.4385 31.8676V34.934C43.4381 35.0115 43.4071 35.0858 43.3522 35.1407C43.2974 35.1955 43.2231 35.2265 43.1456 35.227H29.1422ZM33.7102 21.5366H38.5775V23.541C38.5775 23.7223 38.6495 23.8962 38.7777 24.0244C38.9059 24.1526 39.0798 24.2246 39.2611 24.2246H41.6131C41.7944 24.2246 41.9682 24.1526 42.0964 24.0244C42.2246 23.8962 42.2966 23.7223 42.2966 23.541V21.5363H43.1456C43.2231 21.5368 43.2974 21.5678 43.3522 21.6226C43.4071 21.6775 43.4381 21.7517 43.4385 21.8293V24.8957C43.4381 24.9733 43.4071 25.0475 43.3522 25.1024C43.2974 25.1572 43.2231 25.1882 43.1456 25.1887H29.1417C29.0641 25.1882 28.9898 25.1572 28.935 25.1024C28.8801 25.0475 28.8491 24.9733 28.8487 24.8957V21.8293C28.8491 21.7517 28.8801 21.6775 28.935 21.6226C28.9898 21.5678 29.0641 21.5368 29.1417 21.5363H29.9906V23.541C29.9906 23.7223 30.0626 23.8962 30.1908 24.0244C30.319 24.1526 30.4929 24.2246 30.6742 24.2246H33.0261C33.2074 24.2246 33.3813 24.1526 33.5095 24.0244C33.6377 23.8962 33.7097 23.7223 33.7097 23.541L33.7102 21.5366ZM31.3583 21.5366H32.343V22.8574H31.3583V21.5366ZM39.9447 21.5366H40.9295V22.8574H39.9447V21.5366ZM43.1456 30.2078H29.1417C29.0641 30.2074 28.9898 30.1764 28.935 30.1215C28.8801 30.0667 28.8491 29.9924 28.8487 29.9148V26.8484C28.8491 26.7709 28.8801 26.6966 28.935 26.6418C28.9898 26.5869 29.0641 26.5559 29.1417 26.5555H43.1456C43.2231 26.5559 43.2974 26.5869 43.3522 26.6418C43.4071 26.6966 43.4381 26.7709 43.4385 26.8484V29.9148C43.4381 29.9924 43.4071 30.0667 43.3522 30.1215C43.2974 30.1764 43.2231 30.2074 43.1456 30.2078ZM40.9295 31.575V32.8962H39.9447V31.5746L40.9295 31.575ZM30.4146 42.5324C30.9406 42.5324 31.4548 42.6884 31.8922 42.9806C32.3296 43.2729 32.6704 43.6882 32.8717 44.1742C33.073 44.6602 33.1257 45.1949 33.0231 45.7108C32.9205 46.2268 32.6672 46.7006 32.2952 47.0726C31.9233 47.4445 31.4494 47.6978 30.9335 47.8005C30.4176 47.9031 29.8828 47.8504 29.3968 47.6491C28.9109 47.4478 28.4955 47.1069 28.2033 46.6696C27.911 46.2322 27.755 45.718 27.755 45.192C27.755 44.4866 28.0352 43.8102 28.534 43.3114C29.0328 42.8126 29.7093 42.5324 30.4146 42.5324Z" fill="black"/>
</svg>
