<svg width="50" height="50" viewBox="0 0 50 50" fill="none" xmlns="http://www.w3.org/2000/svg">
<path fill-rule="evenodd" clip-rule="evenodd" d="M24.3148 7.166V0C11.0467 0.356638 0.356638 11.0467 0 24.3148H7.166C7.26574 21.702 7.93821 19.127 9.15168 16.7877C8.47165 16.1243 8.08177 15.2191 8.08177 14.2519C8.08177 11.4517 11.2114 9.73802 13.5704 11.293C16.4975 8.84945 20.2286 7.32014 24.3148 7.166Z" fill="black"/>
<path fill-rule="evenodd" clip-rule="evenodd" d="M25.6816 0V7.16449C34.9935 7.51659 42.4799 15.0014 42.832 24.3148H49.9965C49.6398 11.0482 38.9498 0.358149 25.6816 0Z" fill="black"/>
<path fill-rule="evenodd" clip-rule="evenodd" d="M49.998 25.6871H42.832C42.7111 28.8591 41.7409 32.0583 39.861 34.8811C40.8659 36.0961 40.937 37.8204 40.0711 39.1079L41.1984 40.2352C41.4659 40.5027 41.4659 40.9364 41.1984 41.2039C40.9309 41.4714 40.4972 41.4714 40.2297 41.2039L39.1024 40.0766C37.8134 40.9425 36.0906 40.8714 34.8756 39.8665C32.2386 41.6225 29.0757 42.7075 25.6816 42.8375V50.0035C38.9513 49.6453 49.6413 38.9553 49.998 25.6871Z" fill="black"/>
<path fill-rule="evenodd" clip-rule="evenodd" d="M24.3148 50.002V42.8375C15.003 42.4854 7.51659 34.999 7.16449 25.6871H0C0.134495 30.7027 1.7575 35.6231 4.8539 39.8257C7.19924 38.5155 10.1203 40.2095 10.1203 42.9191C10.1203 43.581 9.93901 44.2006 9.62166 44.731C13.7215 47.9286 18.8172 49.8539 24.3148 50.002Z" fill="black"/>
<path d="M8.10881 44.4486C8.95673 43.6007 8.95673 42.226 8.10881 41.378C7.26089 40.5301 5.88614 40.5301 5.03822 41.378C4.1903 42.226 4.1903 43.6007 5.03822 44.4486C5.88614 45.2965 7.26089 45.2965 8.10881 44.4486Z" fill="black"/>
<path d="M11.6247 16.4233C12.824 16.4233 13.7962 15.4511 13.7962 14.2518C13.7962 13.0524 12.824 12.0802 11.6247 12.0802C10.4254 12.0802 9.45312 13.0524 9.45312 14.2518C9.45312 15.4511 10.4254 16.4233 11.6247 16.4233Z" fill="black"/>
<path fill-rule="evenodd" clip-rule="evenodd" d="M34.1896 35.1622L31.0826 32.0552C29.5941 33.3382 27.7066 34.1436 25.6816 34.2917V41.4638C28.707 41.3414 31.551 40.4074 34.0052 38.8011C33.3977 37.6647 33.4536 36.2578 34.1896 35.1622Z" fill="black"/>
<path fill-rule="evenodd" clip-rule="evenodd" d="M24.3153 41.4653V34.2933C19.7168 33.9593 16.0431 30.2856 15.7092 25.6871H8.53711C8.88619 34.2419 15.759 41.1147 24.3153 41.4653Z" fill="black"/>
<path fill-rule="evenodd" clip-rule="evenodd" d="M15.7107 24.3163C16.0446 19.7178 19.7183 16.0441 24.3168 15.7102V8.53662C20.7278 8.68321 17.3201 9.98584 14.5516 12.2586C15.5006 13.6504 15.3419 15.5424 14.1285 16.7559C13.0933 17.7911 11.5776 18.051 10.3052 17.5387C9.27003 19.5712 8.63685 21.8531 8.53711 24.3163H15.7107Z" fill="black"/>
<path fill-rule="evenodd" clip-rule="evenodd" d="M41.4598 24.3164C41.1092 15.7616 34.2364 8.88729 25.6816 8.53821V15.7102C30.2801 16.0442 33.9538 19.7179 34.2878 24.3164H41.4598Z" fill="black"/>
<path fill-rule="evenodd" clip-rule="evenodd" d="M41.4613 25.6871H34.2893C34.1412 27.7151 33.3327 29.6011 32.0527 31.0881L35.1597 34.1951C36.2538 33.4606 37.6592 33.4017 38.8001 34.0122C40.402 31.5611 41.3389 28.7186 41.4613 25.6871Z" fill="black"/>
<path fill-rule="evenodd" clip-rule="evenodd" d="M32.9507 25.0008C32.9507 22.8065 32.0606 20.8193 30.6234 19.3822C27.5225 16.2813 22.4918 16.2767 19.3848 19.3822C17.9462 20.8208 17.0576 22.8065 17.0576 25.0008C17.0576 30.6828 22.8454 34.5 28.0454 32.3466C30.8577 31.1815 32.9507 28.3843 32.9507 25.0008ZM25.6895 27.4519L27.7008 29.3786C27.9728 29.6401 27.9819 30.0723 27.719 30.3443C27.456 30.6163 27.0253 30.6254 26.7533 30.3624L25.0049 28.6865L23.2565 30.3624C22.9845 30.6239 22.5523 30.6163 22.2908 30.3443C22.0294 30.0723 22.0369 29.6401 22.309 29.3786L24.3203 27.4519V24.0397L21.3055 26.0027C20.9897 26.2082 20.5666 26.1175 20.361 25.8017C20.1555 25.4859 20.2462 25.0627 20.562 24.8572L24.3203 22.4091V20.1302C24.3203 19.7524 24.6271 19.4457 25.0049 19.4457C25.3827 19.4457 25.6895 19.7524 25.6895 20.1302V22.4091L29.4478 24.8572C29.7636 25.0627 29.8543 25.4859 29.6487 25.8017C29.4432 26.1175 29.0201 26.2082 28.7043 26.0027L25.6895 24.0397V27.4519Z" fill="black"/>
<path d="M37.1325 39.3072C38.3318 39.3072 39.3041 38.335 39.3041 37.1357C39.3041 35.9364 38.3318 34.9641 37.1325 34.9641C35.9332 34.9641 34.9609 35.9364 34.9609 37.1357C34.9609 38.335 35.9332 39.3072 37.1325 39.3072Z" fill="black"/>
</svg>
