<svg width="105" height="36" viewBox="0 0 105 36" fill="none" xmlns="http://www.w3.org/2000/svg">
<g clip-path="url(#clip0_761_7006)">
<path d="M96.6385 0.000114075H8.36627C8.0445 0.000114075 7.7266 0.000114075 7.40569 0.00186908C7.13705 0.00362408 6.87056 0.00872235 6.59935 0.0130133C6.01015 0.0199472 5.42234 0.071785 4.84101 0.168076C4.26051 0.266464 3.69819 0.451953 3.17308 0.718269C2.6486 0.986838 2.16937 1.33582 1.75278 1.75254C1.334 2.1681 0.984912 2.64842 0.718944 3.17505C0.452241 3.70063 0.267309 4.26383 0.170534 4.84521C0.0728385 5.42586 0.0202678 6.0132 0.0132935 6.60197C0.00515067 6.87101 0.00429076 7.14095 0 7.41002V27.6928C0.00429076 27.9652 0.00515067 28.2292 0.0132935 28.5018C0.02027 29.0905 0.0728406 29.6778 0.170534 30.2584C0.267042 30.8401 0.451985 31.4037 0.718944 31.9294C0.984792 32.4544 1.33393 32.9327 1.75278 33.346C2.1678 33.7646 2.64733 34.1138 3.17308 34.3803C3.69819 34.6473 4.26045 34.8339 4.84101 34.9338C5.42243 35.0294 6.01019 35.0812 6.59935 35.089C6.87056 35.0949 7.13705 35.0984 7.40569 35.0984C7.72659 35.1001 8.04452 35.1001 8.36627 35.1001H96.6385C96.9538 35.1001 97.2743 35.1001 97.5896 35.0984C97.857 35.0984 98.1312 35.0949 98.3985 35.089C98.9866 35.0816 99.5732 35.0298 100.153 34.9338C100.736 34.8332 101.3 34.6467 101.828 34.3803C102.353 34.1136 102.832 33.7644 103.247 33.346C103.665 32.9311 104.014 32.4531 104.284 31.9294C104.549 31.4033 104.732 30.8398 104.827 30.2584C104.925 29.6777 104.979 29.0905 104.99 28.5018C104.993 28.2292 104.993 27.9652 104.993 27.6928C105 27.374 105 27.0569 105 26.733V8.36807C105 8.04672 105 7.72794 104.993 7.41002C104.993 7.14095 104.993 6.87101 104.99 6.60193C104.979 6.01311 104.925 5.4259 104.827 4.84518C104.732 4.26413 104.548 3.70097 104.284 3.17501C103.742 2.11945 102.883 1.26023 101.828 0.71819C101.3 0.452524 100.736 0.267085 100.153 0.167997C99.5733 0.0712818 98.9866 0.0194259 98.3985 0.0128905C98.1312 0.00860828 97.857 0.00346613 97.5896 0.001755C97.2743 0 96.9538 0.000114075 96.6385 0.000114075Z" fill="#A6A6A6"/>
<path d="M7.40957 34.3319C7.14222 34.3319 6.88134 34.3285 6.61609 34.3226C6.06661 34.3154 5.51842 34.2676 4.976 34.1794C4.47023 34.0923 3.98027 33.9303 3.52229 33.6987C3.0685 33.4689 2.65461 33.1677 2.29648 32.8066C1.93316 32.4497 1.63068 32.0357 1.40103 31.5812C1.16884 31.1236 1.00816 30.6332 0.924567 30.127C0.834299 29.583 0.785459 29.033 0.778471 28.4817C0.772908 28.2966 0.765625 27.6804 0.765625 27.6804V7.40967C0.765625 7.40967 0.773382 6.80296 0.778515 6.62471C0.785206 6.07424 0.833761 5.52508 0.92376 4.98197C1.0075 4.47436 1.16831 3.98252 1.40062 3.52348C1.62943 3.06921 1.93023 2.65496 2.29136 2.29678C2.65209 1.9352 3.0673 1.63245 3.52186 1.39956C3.97879 1.16868 4.46782 1.00778 4.97257 0.922255C5.51677 0.833247 6.06687 0.785125 6.61825 0.778292L7.41 0.767578H97.5849L98.3861 0.778722C98.9325 0.785215 99.4776 0.832908 100.017 0.921395C100.527 1.00799 101.021 1.17001 101.483 1.40213C102.394 1.87146 103.135 2.61398 103.602 3.52562C103.831 3.98149 103.989 4.46932 104.072 4.97255C104.163 5.52011 104.214 6.07359 104.224 6.62858C104.227 6.87708 104.227 7.14402 104.227 7.40967C104.234 7.73874 104.234 8.05194 104.234 8.36772V26.7326C104.234 27.0514 104.234 27.3625 104.227 27.6761C104.227 27.9615 104.227 28.2229 104.223 28.4919C104.213 29.037 104.163 29.5806 104.073 30.1184C103.991 30.6283 103.832 31.1225 103.599 31.5838C103.368 32.0334 103.067 32.4438 102.708 32.7997C102.35 33.1628 101.935 33.4658 101.48 33.697C101.02 33.9304 100.526 34.093 100.017 34.1794C99.4744 34.268 98.9262 34.3159 98.3766 34.3226C98.1196 34.3285 97.8505 34.3319 97.5892 34.3319L96.638 34.3337L7.40957 34.3319Z" fill="black"/>
<path d="M21.734 17.8138C21.7434 17.0813 21.938 16.3632 22.2995 15.7262C22.661 15.0892 23.1778 14.554 23.8018 14.1703C23.4054 13.6042 22.8825 13.1383 22.2746 12.8096C21.6666 12.481 20.9904 12.2986 20.2997 12.277C18.8262 12.1223 17.3978 13.1587 16.6469 13.1587C15.8816 13.1587 14.7255 12.2923 13.4806 12.3179C12.6754 12.344 11.8907 12.5781 11.2029 12.9976C10.515 13.4171 9.9476 14.0076 9.55585 14.7116C7.85885 17.6499 9.12466 21.9681 10.7502 24.3432C11.5636 25.5061 12.5141 26.8052 13.7578 26.7592C14.9749 26.7087 15.4295 25.983 16.8986 25.983C18.3541 25.983 18.7806 26.7592 20.0496 26.7299C21.3555 26.7087 22.1784 25.5617 22.9632 24.3877C23.5475 23.559 23.9972 22.6432 24.2955 21.674C23.5368 21.3531 22.8893 20.8159 22.4338 20.1295C21.9783 19.443 21.7349 18.6376 21.734 17.8138Z" fill="white"/>
<path d="M19.337 10.7149C20.0491 9.86001 20.3999 8.76122 20.3149 7.65186C19.227 7.76612 18.2221 8.28609 17.5004 9.10816C17.1476 9.50976 16.8773 9.97698 16.7051 10.4831C16.5329 10.9892 16.4622 11.5243 16.4969 12.0578C17.041 12.0634 17.5793 11.9454 18.0713 11.7128C18.5633 11.4802 18.996 11.139 19.337 10.7149Z" fill="white"/>
<path d="M37.119 23.8148H32.9656L31.9682 26.7601H30.209L34.143 15.8633H35.9707L39.9047 26.7601H38.1155L37.119 23.8148ZM33.3958 22.4557H36.688L35.065 17.6757H35.0196L33.3958 22.4557Z" fill="white"/>
<path d="M48.4012 22.7883C48.4012 25.2571 47.0799 26.8433 45.0859 26.8433C44.5808 26.8697 44.0785 26.7534 43.6364 26.5075C43.1943 26.2617 42.8304 25.8964 42.5864 25.4533H42.5486V29.3884H40.918V18.8155H42.4964V20.1369H42.5264C42.7817 19.696 43.1517 19.3326 43.5972 19.0853C44.0426 18.8379 44.5467 18.716 45.0559 18.7324C47.0722 18.7324 48.4012 20.3263 48.4012 22.7883ZM46.7251 22.7883C46.7251 21.1798 45.894 20.1224 44.6258 20.1224C43.3798 20.1224 42.5418 21.2021 42.5418 22.7883C42.5418 24.389 43.3798 25.4611 44.6258 25.4611C45.894 25.4611 46.7251 24.4113 46.7251 22.7883Z" fill="white"/>
<path d="M57.1444 22.7883C57.1444 25.2571 55.8231 26.8433 53.8291 26.8433C53.324 26.8697 52.8216 26.7534 52.3796 26.5075C51.9375 26.2617 51.5736 25.8964 51.3295 25.4533H51.2918V29.3884H49.6611V18.8155H51.2395V20.1369H51.2695C51.5248 19.696 51.8949 19.3326 52.3403 19.0852C52.7857 18.8379 53.2898 18.716 53.7991 18.7324C55.8153 18.7324 57.1444 20.3263 57.1444 22.7883ZM55.4683 22.7883C55.4683 21.1798 54.6371 20.1224 53.3689 20.1224C52.123 20.1224 51.285 21.2021 51.285 22.7883C51.285 24.389 52.123 25.4611 53.3689 25.4611C54.6371 25.4611 55.4683 24.4113 55.4683 22.7883Z" fill="white"/>
<path d="M62.9232 23.724C63.044 24.8046 64.0937 25.5141 65.5281 25.5141C66.9026 25.5141 67.8914 24.8046 67.8914 23.8302C67.8914 22.9844 67.295 22.478 65.8829 22.1309L64.4707 21.7907C62.4699 21.3074 61.541 20.3716 61.541 18.8532C61.541 16.973 63.1794 15.6816 65.5058 15.6816C67.8083 15.6816 69.3867 16.973 69.4398 18.8532H67.7937C67.6952 17.7657 66.7963 17.1093 65.4827 17.1093C64.1691 17.1093 63.2702 17.7734 63.2702 18.74C63.2702 19.5104 63.8443 19.9637 65.2487 20.3108L66.4492 20.6056C68.6849 21.1343 69.6137 22.0324 69.6137 23.6262C69.6137 25.6649 67.9899 26.9417 65.4073 26.9417C62.9908 26.9417 61.3593 25.6949 61.2539 23.7239L62.9232 23.724Z" fill="white"/>
<path d="M73.1333 16.9355V18.8157H74.644V20.1071H73.1333V24.4868C73.1333 25.1672 73.4358 25.4843 74.0999 25.4843C74.2792 25.4812 74.4583 25.4686 74.6363 25.4466V26.7303C74.3377 26.7861 74.0342 26.8113 73.7306 26.8057C72.1222 26.8057 71.4949 26.2015 71.4949 24.6608V20.1071H70.3398V18.8157H71.4949V16.9355H73.1333Z" fill="white"/>
<path d="M75.5186 22.7882C75.5186 20.2885 76.9907 18.7178 79.2863 18.7178C81.5896 18.7178 83.0549 20.2885 83.0549 22.7882C83.0549 25.2947 81.5973 26.8586 79.2863 26.8586C76.9761 26.8586 75.5186 25.2947 75.5186 22.7882ZM81.3934 22.7882C81.3934 21.0735 80.6076 20.0614 79.2863 20.0614C77.965 20.0614 77.1801 21.0812 77.1801 22.7882C77.1801 24.5098 77.965 25.5141 79.2863 25.5141C80.6076 25.5141 81.3934 24.5098 81.3934 22.7882Z" fill="white"/>
<path d="M84.3994 18.8155H85.9547V20.1677H85.9924C86.0976 19.7454 86.345 19.3721 86.693 19.1107C87.041 18.8494 87.4684 18.7157 87.9033 18.7323C88.0912 18.7317 88.2786 18.7521 88.462 18.7932V20.3185C88.2247 20.246 87.9773 20.2127 87.7293 20.22C87.4924 20.2104 87.2562 20.2521 87.037 20.3424C86.8178 20.4327 86.6207 20.5694 86.4593 20.743C86.2978 20.9167 86.1759 21.1232 86.1018 21.3484C86.0277 21.5736 86.0032 21.8122 86.0301 22.0478V26.7601H84.3994L84.3994 18.8155Z" fill="white"/>
<path d="M95.9806 24.4267C95.7613 25.8689 94.3568 26.8586 92.5599 26.8586C90.2489 26.8586 88.8145 25.3102 88.8145 22.8259C88.8145 20.334 90.2566 18.7178 92.4914 18.7178C94.6893 18.7178 96.0715 20.2277 96.0715 22.6365V23.1953H90.4605V23.2938C90.4347 23.5862 90.4713 23.8807 90.5679 24.1579C90.6646 24.435 90.8191 24.6884 91.0213 24.9013C91.2234 25.1141 91.4685 25.2815 91.7403 25.3923C92.0121 25.5032 92.3043 25.5549 92.5976 25.5441C92.983 25.5802 93.3697 25.491 93.7002 25.2896C94.0308 25.0883 94.2875 24.7856 94.4322 24.4267L95.9806 24.4267ZM90.4683 22.0555H94.4399C94.4546 21.7926 94.4147 21.5295 94.3229 21.2828C94.231 21.036 94.0892 20.8109 93.9062 20.6216C93.7232 20.4322 93.5031 20.2828 93.2596 20.1826C93.0162 20.0823 92.7546 20.0335 92.4914 20.0392C92.2258 20.0376 91.9626 20.0886 91.7169 20.1893C91.4711 20.29 91.2478 20.4383 91.0597 20.6258C90.8716 20.8133 90.7225 21.0361 90.621 21.2815C90.5195 21.5269 90.4676 21.79 90.4683 22.0555Z" fill="white"/>
<path d="M33.191 7.66121C33.5328 7.63668 33.8759 7.68833 34.1954 7.81244C34.5149 7.93655 34.8028 8.13002 35.0385 8.3789C35.2742 8.62778 35.4517 8.92586 35.5582 9.25165C35.6647 9.57744 35.6976 9.92282 35.6545 10.2629C35.6545 11.9356 34.7505 12.8971 33.191 12.8971H31.2998V7.66121H33.191ZM32.113 12.1566H33.1001C33.3444 12.1712 33.5889 12.1312 33.8157 12.0394C34.0426 11.9476 34.2461 11.8064 34.4115 11.626C34.5769 11.4456 34.7 11.2306 34.7718 10.9966C34.8437 10.7627 34.8624 10.5157 34.8268 10.2735C34.8598 10.0324 34.8392 9.78687 34.7662 9.55462C34.6933 9.32238 34.5699 9.10915 34.4049 8.9302C34.2399 8.75125 34.0373 8.61102 33.8118 8.51955C33.5862 8.42808 33.3432 8.38764 33.1001 8.40113H32.113V12.1566Z" fill="white"/>
<path d="M36.5733 10.9198C36.5484 10.6601 36.5781 10.3981 36.6605 10.1506C36.7428 9.90311 36.876 9.67553 37.0514 9.4825C37.2269 9.28947 37.4407 9.13523 37.6792 9.02969C37.9178 8.92415 38.1757 8.86963 38.4366 8.86963C38.6974 8.86963 38.9554 8.92415 39.1939 9.02969C39.4325 9.13523 39.6463 9.28947 39.8217 9.4825C39.9972 9.67553 40.1303 9.90311 40.2127 10.1506C40.295 10.3981 40.3247 10.6601 40.2999 10.9198C40.3252 11.1797 40.2958 11.4421 40.2137 11.69C40.1316 11.9379 39.9985 12.1659 39.823 12.3593C39.6476 12.5527 39.4335 12.7073 39.1948 12.8131C38.956 12.9188 38.6977 12.9735 38.4366 12.9735C38.1754 12.9735 37.9172 12.9188 37.6784 12.8131C37.4396 12.7073 37.2256 12.5527 37.0501 12.3593C36.8746 12.1659 36.7416 11.9379 36.6594 11.69C36.5773 11.4421 36.548 11.1797 36.5733 10.9198ZM39.4978 10.9198C39.4978 10.0633 39.1131 9.56242 38.4379 9.56242C37.7601 9.56242 37.3788 10.0633 37.3788 10.9198C37.3788 11.7832 37.7601 12.2802 38.4379 12.2802C39.1131 12.2802 39.4978 11.7797 39.4978 10.9198Z" fill="white"/>
<path d="M45.253 12.8971H44.4441L43.6275 9.98697H43.5658L42.7526 12.8971H41.9514L40.8623 8.9458H41.6532L42.361 11.9609H42.4193L43.2316 8.9458H43.9797L44.792 11.9609H44.8537L45.5581 8.9458H46.3378L45.253 12.8971Z" fill="white"/>
<path d="M47.2539 8.94589H48.0045V9.57359H48.0628C48.1617 9.34814 48.3284 9.15915 48.5397 9.03296C48.7511 8.90677 48.9965 8.84967 49.2419 8.86961C49.4341 8.85516 49.6272 8.88415 49.8067 8.95443C49.9862 9.02471 50.1476 9.13449 50.279 9.27563C50.4103 9.41677 50.5082 9.58566 50.5654 9.76978C50.6227 9.95389 50.6377 10.1485 50.6095 10.3392V12.8972H49.8297V10.5351C49.8297 9.90009 49.5538 9.5843 48.9771 9.5843C48.8466 9.57822 48.7163 9.60044 48.5951 9.64943C48.474 9.69842 48.3649 9.77303 48.2753 9.86813C48.1857 9.96324 48.1177 10.0766 48.076 10.2004C48.0343 10.3243 48.0198 10.4557 48.0337 10.5856V12.8972H47.2539L47.2539 8.94589Z" fill="white"/>
<path d="M51.8525 7.40332H52.6323V12.8971H51.8525V7.40332Z" fill="white"/>
<path d="M53.7158 10.9199C53.691 10.6602 53.7207 10.3982 53.8031 10.1507C53.8854 9.90313 54.0186 9.67555 54.1941 9.48251C54.3695 9.28947 54.5834 9.13524 54.822 9.02969C55.0605 8.92415 55.3185 8.86963 55.5794 8.86963C55.8402 8.86963 56.0982 8.92415 56.3367 9.02969C56.5753 9.13524 56.7892 9.28947 56.9646 9.48251C57.1401 9.67555 57.2732 9.90313 57.3556 10.1507C57.438 10.3982 57.4677 10.6602 57.4429 10.9199C57.4682 11.1798 57.4388 11.4422 57.3566 11.6901C57.2745 11.938 57.1414 12.166 56.9659 12.3594C56.7904 12.5528 56.5763 12.7074 56.3376 12.8131C56.0988 12.9189 55.8405 12.9735 55.5794 12.9735C55.3182 12.9735 55.0599 12.9189 54.8211 12.8131C54.5823 12.7074 54.3683 12.5528 54.1928 12.3594C54.0173 12.166 53.8842 11.938 53.8021 11.6901C53.7199 11.4422 53.6905 11.1798 53.7158 10.9199ZM56.6404 10.9199C56.6404 10.0634 56.2556 9.5625 55.5804 9.5625C54.9026 9.5625 54.5213 10.0634 54.5213 10.9199C54.5213 11.7832 54.9026 12.2803 55.5804 12.2803C56.2556 12.2803 56.6404 11.7798 56.6404 10.9199Z" fill="white"/>
<path d="M58.2637 11.7798C58.2637 11.0685 58.7932 10.6585 59.7332 10.6002L60.8035 10.5385V10.1974C60.8035 9.78011 60.5276 9.54446 59.9946 9.54446C59.5593 9.54446 59.2577 9.70428 59.1711 9.98364H58.4162C58.4959 9.30495 59.1343 8.86963 60.0306 8.86963C61.0212 8.86963 61.5798 9.36278 61.5798 10.1974V12.8972H60.8292V12.3419H60.7675C60.6423 12.5411 60.4664 12.7035 60.2579 12.8125C60.0494 12.9215 59.8157 12.9732 59.5807 12.9623C59.4148 12.9796 59.2472 12.9619 59.0886 12.9104C58.93 12.8589 58.7839 12.7747 58.6598 12.6633C58.5357 12.5518 58.4364 12.4157 58.3682 12.2635C58.2999 12.1113 58.2643 11.9465 58.2637 11.7798ZM60.8035 11.4421V11.1118L59.8386 11.1735C59.2945 11.2099 59.0477 11.395 59.0477 11.7433C59.0477 12.099 59.3562 12.3059 59.7804 12.3059C59.9047 12.3185 60.0302 12.306 60.1496 12.269C60.2689 12.2321 60.3796 12.1715 60.4751 12.0909C60.5705 12.0103 60.6488 11.9114 60.7052 11.7999C60.7616 11.6884 60.7951 11.5668 60.8035 11.4421Z" fill="white"/>
<path d="M62.6055 10.9198C62.6055 9.67121 63.2473 8.88026 64.2456 8.88026C64.4925 8.86888 64.7376 8.92803 64.9521 9.05078C65.1667 9.17354 65.3419 9.35484 65.4572 9.57348H65.5155V7.40332H66.2952V12.8971H65.548V12.2728H65.4863C65.3621 12.49 65.1808 12.6691 64.9621 12.7906C64.7434 12.9121 64.4956 12.9715 64.2456 12.9622C63.2404 12.9623 62.6055 12.1713 62.6055 10.9198ZM63.411 10.9198C63.411 11.7578 63.806 12.2622 64.4667 12.2622C65.1239 12.2622 65.5301 11.7506 65.5301 10.9232C65.5301 10.0997 65.1196 9.5808 64.4667 9.5808C63.8103 9.5808 63.411 10.0885 63.411 10.9198Z" fill="white"/>
<path d="M69.5205 10.9198C69.4957 10.6601 69.5254 10.3981 69.6077 10.1506C69.6901 9.90311 69.8232 9.67553 69.9987 9.4825C70.1741 9.28947 70.388 9.13523 70.6265 9.02969C70.865 8.92415 71.123 8.86963 71.3838 8.86963C71.6447 8.86963 71.9026 8.92415 72.1412 9.02969C72.3797 9.13523 72.5936 9.28947 72.769 9.4825C72.9444 9.67553 73.0776 9.90311 73.1599 10.1506C73.2423 10.3981 73.272 10.6601 73.2472 10.9198C73.2725 11.1797 73.2431 11.4421 73.161 11.69C73.0789 11.9379 72.9458 12.1659 72.7703 12.3593C72.5948 12.5527 72.3808 12.7073 72.142 12.8131C71.9033 12.9188 71.645 12.9735 71.3838 12.9735C71.1227 12.9735 70.8644 12.9188 70.6256 12.8131C70.3869 12.7073 70.1729 12.5527 69.9974 12.3593C69.8219 12.1659 69.6888 11.9379 69.6067 11.69C69.5246 11.4421 69.4952 11.1797 69.5205 10.9198ZM72.4451 10.9198C72.4451 10.0633 72.0603 9.56242 71.3851 9.56242C70.7073 9.56242 70.326 10.0633 70.326 10.9198C70.326 11.7832 70.7074 12.2802 71.3851 12.2802C72.0604 12.2802 72.4451 11.7797 72.4451 10.9198Z" fill="white"/>
<path d="M74.2939 8.94589H75.0446V9.57359H75.1029C75.2017 9.34814 75.3684 9.15915 75.5798 9.03296C75.7911 8.90677 76.0366 8.84967 76.2819 8.86961C76.4742 8.85516 76.6672 8.88415 76.8468 8.95443C77.0263 9.02471 77.1877 9.13449 77.319 9.27563C77.4504 9.41677 77.5483 9.58566 77.6055 9.76978C77.6627 9.95389 77.6777 10.1485 77.6495 10.3392V12.8972H76.8698V10.5351C76.8698 9.90009 76.5939 9.5843 76.0172 9.5843C75.8866 9.57822 75.7563 9.60044 75.6352 9.64943C75.514 9.69842 75.4049 9.77303 75.3153 9.86813C75.2257 9.96324 75.1577 10.0766 75.116 10.2004C75.0743 10.3243 75.0599 10.4557 75.0737 10.5856V12.8972H74.2939V8.94589Z" fill="white"/>
<path d="M82.0553 7.96191V8.96367H82.9114V9.62051H82.0553V11.6523C82.0553 12.0662 82.2259 12.2474 82.614 12.2474C82.7134 12.2471 82.8127 12.2411 82.9114 12.2294V12.879C82.7713 12.904 82.6295 12.9174 82.4872 12.9188C81.62 12.9188 81.2747 12.6138 81.2747 11.852V9.62048H80.6475V8.96363H81.2747V7.96191H82.0553Z" fill="white"/>
<path d="M83.9766 7.40332H84.7495V9.58079H84.8112C84.9148 9.35324 85.0861 9.16318 85.3017 9.03652C85.5173 8.90985 85.7667 8.85274 86.0159 8.87297C86.2072 8.86256 86.3984 8.89449 86.5758 8.96648C86.7533 9.03847 86.9128 9.14875 87.0427 9.28945C87.1727 9.43014 87.27 9.59779 87.3277 9.78043C87.3855 9.96307 87.4022 10.1562 87.3767 10.346V12.8971H86.5961V10.5384C86.5961 9.90728 86.3022 9.58764 85.7512 9.58764C85.6172 9.57665 85.4824 9.59507 85.3562 9.64162C85.2301 9.68818 85.1156 9.76174 85.0209 9.85716C84.9261 9.95257 84.8533 10.0675 84.8076 10.194C84.762 10.3205 84.7445 10.4554 84.7564 10.5894V12.8971H83.9766L83.9766 7.40332Z" fill="white"/>
<path d="M91.9232 11.8304C91.8173 12.1915 91.5878 12.5039 91.2748 12.7129C90.9618 12.9219 90.5853 13.0141 90.2112 12.9735C89.9509 12.9804 89.6922 12.9306 89.4531 12.8274C89.214 12.7243 89.0002 12.5704 88.8265 12.3763C88.6528 12.1823 88.5235 11.9527 88.4474 11.7037C88.3714 11.4546 88.3504 11.192 88.386 10.934C88.3513 10.6753 88.3727 10.4121 88.4485 10.1623C88.5244 9.9125 88.6531 9.68192 88.8259 9.48617C88.9986 9.29042 89.2114 9.13408 89.4498 9.02772C89.6882 8.92136 89.9467 8.86747 90.2077 8.8697C91.3071 8.8697 91.9704 9.62083 91.9704 10.8616V11.1337H89.1803V11.1774C89.1681 11.3224 89.1863 11.4684 89.2338 11.6059C89.2813 11.7435 89.357 11.8696 89.4561 11.9762C89.5552 12.0827 89.6754 12.1674 89.8091 12.2248C89.9429 12.2822 90.0871 12.311 90.2326 12.3094C90.4191 12.3318 90.6081 12.2982 90.7755 12.2129C90.9428 12.1276 91.0811 11.9945 91.1726 11.8304L91.9232 11.8304ZM89.1803 10.557H91.176C91.1858 10.4244 91.1678 10.2912 91.1231 10.1659C91.0784 10.0407 91.008 9.92621 90.9164 9.82981C90.8248 9.73341 90.714 9.65724 90.5913 9.60619C90.4685 9.55514 90.3364 9.53034 90.2034 9.53339C90.0686 9.5317 89.9347 9.55702 89.8098 9.60787C89.6849 9.65871 89.5714 9.73405 89.4761 9.82945C89.3807 9.92485 89.3054 10.0384 89.2546 10.1633C89.2038 10.2883 89.1785 10.4221 89.1803 10.557Z" fill="white"/>
</g>
<defs>
<clipPath id="clip0_761_7006">
<rect width="105" height="35.1" fill="white"/>
</clipPath>
</defs>
</svg>
