<svg width="50" height="50" viewBox="0 0 50 50" fill="none" xmlns="http://www.w3.org/2000/svg">
<path d="M40.7343 0H9.26574C6.80973 0.00462091 4.45564 0.982313 2.71897 2.71897C0.982313 4.45564 0.00462091 6.80973 0 9.26574V40.7343C0.00462091 43.1903 0.982313 45.5444 2.71897 47.281C4.45564 49.0177 6.80973 49.9954 9.26574 50H40.7343C43.1903 49.9954 45.5444 49.0177 47.281 47.281C49.0177 45.5444 49.9954 43.1903 50 40.7343V9.26574C49.9954 6.80973 49.0177 4.45564 47.281 2.71897C45.5444 0.982313 43.1903 0.00462091 40.7343 0ZM34.222 6.40734C36.9517 6.41889 39.5659 7.51015 41.4936 9.44278C43.4213 11.3754 44.5059 13.9924 44.5105 16.722C44.5117 16.7921 44.499 16.8616 44.4733 16.9268C44.4475 16.9919 44.4092 17.0513 44.3605 17.1017C44.3118 17.152 44.2537 17.1922 44.1894 17.2201C44.1252 17.2479 44.056 17.2628 43.986 17.264C43.9176 17.2651 43.8496 17.2527 43.786 17.2273C43.7224 17.2019 43.6645 17.1641 43.6157 17.1161C43.5669 17.0681 43.5281 17.0108 43.5016 16.9477C43.4752 16.8845 43.4615 16.8167 43.4615 16.7483C43.4639 14.2922 42.4929 11.9354 40.7611 10.1938C39.0294 8.45221 36.678 7.46786 34.222 7.4563C34.0829 7.4563 33.9495 7.40104 33.8512 7.30268C33.7528 7.20432 33.6976 7.07092 33.6976 6.93182C33.6998 6.79342 33.7558 6.66132 33.8537 6.56345C33.9515 6.46557 34.0836 6.40959 34.222 6.40734ZM34.222 9.1521C36.2244 9.16133 38.1418 9.96268 39.5553 11.3811C40.9688 12.7995 41.7635 14.7196 41.7657 16.722C41.7669 16.7921 41.7542 16.8616 41.7285 16.9268C41.7028 16.9919 41.6645 17.0513 41.6158 17.1017C41.5671 17.152 41.5089 17.1922 41.4447 17.2201C41.3804 17.2479 41.3113 17.2628 41.2413 17.264C41.1728 17.2651 41.1048 17.2527 41.0412 17.2273C40.9776 17.2019 40.9197 17.1641 40.8709 17.1161C40.8221 17.0681 40.7833 17.0108 40.7569 16.9477C40.7304 16.8845 40.7168 16.8167 40.7168 16.7483C40.7191 15.0187 40.0361 13.3586 38.8172 12.1315C37.5983 10.9044 35.9428 10.2103 34.2133 10.201C34.0742 10.201 33.9408 10.1458 33.8424 10.0474C33.7441 9.94908 33.6888 9.81567 33.6888 9.67657C33.6911 9.53668 33.7483 9.40329 33.848 9.30517C33.9478 9.20706 34.0821 9.15208 34.222 9.1521ZM34.222 11.8969C35.4965 11.9061 36.7157 12.4182 37.6145 13.3219C38.5132 14.2255 39.0187 15.4475 39.021 16.722C39.0221 16.7921 39.0095 16.8616 38.9838 16.9268C38.958 16.9919 38.9197 17.0513 38.871 17.1017C38.8223 17.152 38.7642 17.1922 38.6999 17.2201C38.6356 17.2479 38.5665 17.2628 38.4965 17.264C38.428 17.2651 38.36 17.2527 38.2965 17.2273C38.2329 17.2019 38.175 17.1641 38.1262 17.1161C38.0773 17.0681 38.0386 17.0108 38.0121 16.9477C37.9856 16.8845 37.972 16.8167 37.972 16.7483C37.9744 15.7466 37.5805 14.7847 36.8764 14.0723C36.1722 13.36 35.2149 12.955 34.2133 12.9458C34.0742 12.9458 33.9408 12.8905 33.8424 12.7922C33.7441 12.6938 33.6888 12.5604 33.6888 12.4213C33.6888 12.2799 33.745 12.1443 33.845 12.0443C33.945 11.9443 34.0806 11.8881 34.222 11.8881V11.8969ZM34.222 14.6416C34.6356 14.6399 35.0404 14.7609 35.3851 14.9894C35.7298 15.2179 35.9989 15.5436 36.1584 15.9252C36.3179 16.3068 36.3605 16.7271 36.2808 17.133C36.2012 17.5388 36.0029 17.9119 35.7111 18.2049C35.4193 18.498 35.0471 18.6978 34.6416 18.7791C34.2361 18.8604 33.8156 18.8196 33.4333 18.6617C33.0511 18.5039 32.7243 18.2361 32.4943 17.8924C32.2644 17.5486 32.1416 17.1443 32.1416 16.7308C32.1416 16.1812 32.3581 15.6538 32.7442 15.2627C33.1303 14.8717 33.655 14.6485 34.2045 14.6416H34.222ZM37.2378 42.4825H13.9423C13.8032 42.4825 13.6698 42.4273 13.5714 42.3289C13.4731 42.2305 13.4178 42.0971 13.4178 41.958C13.4178 41.8189 13.4731 41.6855 13.5714 41.5872C13.6698 41.4888 13.8032 41.4336 13.9423 41.4336H37.2378C37.3769 41.4336 37.5103 41.4888 37.6086 41.5872C37.707 41.6855 37.7622 41.8189 37.7622 41.958C37.7622 42.0971 37.707 42.2305 37.6086 42.3289C37.5103 42.4273 37.3769 42.4825 37.2378 42.4825ZM42.9196 25.0699L18.1731 35.9615C18.0899 35.9982 17.9987 36.0127 17.9083 36.0035C17.8179 35.9943 17.7314 35.9618 17.6573 35.9091L6.86189 28.2605C6.79395 28.2058 6.74072 28.135 6.70702 28.0546C6.67333 27.9741 6.66022 27.8865 6.6689 27.7998C6.67758 27.713 6.70777 27.6297 6.75673 27.5575C6.80569 27.4854 6.87188 27.4265 6.9493 27.3864L10 26.0402C10.0689 26.0099 10.1433 25.9942 10.2185 25.9942C10.2938 25.9942 10.3682 26.0099 10.4371 26.0402L18.4353 29.8864L27.8322 25.7518L15.9615 19.6329C15.8705 19.5909 15.7933 19.5238 15.7392 19.4393C15.6852 19.3549 15.6564 19.2567 15.6564 19.1565C15.6564 19.0562 15.6852 18.958 15.7392 18.8736C15.7933 18.7892 15.8705 18.722 15.9615 18.6801L19.6066 17.1329C19.7273 17.0847 19.8619 17.0847 19.9825 17.1329L35.6206 22.3776L40.5769 20.2011C40.921 20.0461 41.2927 19.9618 41.67 19.9534C42.0473 19.945 42.4224 20.0125 42.773 20.1519C43.1237 20.2914 43.4427 20.4999 43.7112 20.7651C43.9796 21.0304 44.192 21.3469 44.3357 21.6958C44.5599 22.3337 44.5391 23.0321 44.2775 23.6556C44.0158 24.2791 43.5319 24.7831 42.9196 25.0699Z" fill="black"/>
</svg>
