<svg width="44" height="42" viewBox="0 0 44 42" fill="none" xmlns="http://www.w3.org/2000/svg">
<path d="M37.4998 0C36.6361 0 35.9373 0.699615 35.9373 1.5625V4.36478H33.1357C32.2721 4.36478 31.5732 5.06439 31.5732 5.92728C31.5732 6.79016 32.2721 7.48978 33.1357 7.48978H35.9373V10.2921C35.9373 11.1549 36.6361 11.8546 37.4998 11.8546C38.3634 11.8546 39.0623 11.1549 39.0623 10.2921V7.48978H41.8638C42.7274 7.48978 43.4263 6.79016 43.4263 5.92728C43.4263 5.06439 42.7274 4.36478 41.8638 4.36478H39.0623V1.5625C39.0623 0.699615 38.3634 0 37.4998 0Z" fill="black"/>
<path d="M37.5 14.9741C35.0156 14.9741 33 13.0366 32.8438 10.5835C30.3906 10.4273 28.4532 8.41157 28.4532 5.92725C28.4532 4.70845 28.9062 3.61468 29.6719 2.80225C28.375 1.81786 26.7344 1.23975 25 1.23975H18.75C14.9844 1.23975 11.8125 3.9272 11.0937 7.48975H7.8125C3.49998 7.48975 0 10.9897 0 15.3022V34.0522C0 38.3648 3.49998 41.8647 7.8125 41.8647H35.9375C40.25 41.8647 43.75 38.3648 43.75 34.0522V15.3022C43.75 13.5366 43.1562 11.896 42.1562 10.5835C42 13.0366 39.9844 14.9741 37.5 14.9741ZM21.875 35.6147C15.8438 35.6147 10.9375 30.7085 10.9375 24.6772C10.9375 18.646 15.8438 13.7397 21.875 13.7397C27.9062 13.7397 32.8125 18.646 32.8125 24.6772C32.8125 30.7085 27.9062 35.6147 21.875 35.6147Z" fill="black"/>
<path d="M21.875 32.4902C26.1897 32.4902 29.6875 28.9925 29.6875 24.6777C29.6875 20.363 26.1897 16.8652 21.875 16.8652C17.5603 16.8652 14.0625 20.363 14.0625 24.6777C14.0625 28.9925 17.5603 32.4902 21.875 32.4902Z" fill="black"/>
</svg>
