<svg width="50" height="58" viewBox="0 0 50 58" fill="none" xmlns="http://www.w3.org/2000/svg">
<path d="M38.913 0H11.087C8.14722 0.00230297 5.32855 1.17113 3.24984 3.24984C1.17113 5.32855 0.00230297 8.14722 0 11.087V38.913C0.00230297 41.8528 1.17113 44.6715 3.24984 46.7502C5.32855 48.8289 8.14722 49.9977 11.087 50H38.913C41.8528 49.9977 44.6715 48.8289 46.7502 46.7502C48.8289 44.6715 49.9977 41.8528 50 38.913V11.087C49.9977 8.14722 48.8289 5.32855 46.7502 3.24984C44.6715 1.17113 41.8528 0.00230297 38.913 0ZM11.2783 11.3043C11.3985 11.2073 11.5425 11.144 11.6953 11.1211C11.8482 11.0982 12.0044 11.1164 12.1478 11.1739L15.0783 12.313C15.1949 12.3586 15.3004 12.4287 15.3875 12.5188C15.4745 12.6088 15.5411 12.7166 15.5826 12.8348L18.3043 20.5739L26.4435 23.7391L22.8261 12.513C22.7759 12.3569 22.7708 12.1898 22.8115 12.0309C22.8522 11.872 22.937 11.7279 23.0561 11.6152C23.1752 11.5024 23.3237 11.4257 23.4846 11.3938C23.6455 11.3618 23.8121 11.3761 23.9652 11.4348L27.4435 12.7913C27.6433 12.8689 27.8074 13.0175 27.9043 13.2087L34.8 27L39.4261 28.8C43.0609 30.1043 41.0435 35.7565 37.4087 34.3739L13.6174 25.1304C13.4834 25.0659 13.3655 24.9724 13.2722 24.8565C13.1789 24.7407 13.1127 24.6055 13.0783 24.4609L10.9739 12.1391C10.9482 11.9881 10.9627 11.833 11.0162 11.6895C11.0696 11.546 11.16 11.4191 11.2783 11.3217V11.3043ZM42.3913 38.913H7.6087C7.37807 38.913 7.1569 38.8214 6.99382 38.6584C6.83075 38.4953 6.73913 38.2741 6.73913 38.0435C6.73913 37.8129 6.83075 37.5917 6.99382 37.4286C7.1569 37.2655 7.37807 37.1739 7.6087 37.1739H42.3913C42.6219 37.1739 42.8431 37.2655 43.0062 37.4286C43.1693 37.5917 43.2609 37.8129 43.2609 38.0435C43.2609 38.2741 43.1693 38.4953 43.0062 38.6584C42.8431 38.8214 42.6219 38.913 42.3913 38.913Z" fill="black"/>
<path d="M40.7207 56.7189C40.7207 56.9034 40.6474 57.0803 40.5169 57.2108C40.3865 57.3412 40.2095 57.4145 40.025 57.4145C39.8405 57.4145 39.6636 57.3412 39.5331 57.2108C39.4027 57.0803 39.3294 56.9034 39.3294 56.7189C39.3294 56.0424 39.0606 55.3936 38.5823 54.9152C38.1039 54.4369 37.4552 54.1682 36.7787 54.1682C36.5942 54.1682 36.4172 54.0949 36.2868 53.9644C36.1563 53.8339 36.083 53.657 36.083 53.4725C36.083 53.288 36.1563 53.1111 36.2868 52.9806C36.4172 52.8501 36.5942 52.7769 36.7787 52.7769C37.2963 52.7769 37.8089 52.8788 38.2872 53.0769C38.7655 53.275 39.2 53.5654 39.5661 53.9314C39.9321 54.2975 40.2225 54.7321 40.4206 55.2103C40.6187 55.6886 40.7207 56.2012 40.7207 56.7189Z" fill="white"/>
<path d="M43.7352 56.7187C43.7352 56.9032 43.6619 57.0802 43.5314 57.2106C43.401 57.3411 43.224 57.4144 43.0395 57.4144C42.855 57.4144 42.6781 57.3411 42.5476 57.2106C42.4172 57.0802 42.3439 56.9032 42.3439 56.7187C42.3439 55.2427 41.7575 53.8272 40.7139 52.7835C39.6702 51.7398 38.2546 51.1535 36.7787 51.1535C36.5942 51.1535 36.4172 51.0802 36.2868 50.9498C36.1563 50.8193 36.083 50.6424 36.083 50.4579C36.083 50.2734 36.1563 50.0964 36.2868 49.966C36.4172 49.8355 36.5942 49.7622 36.7787 49.7622C37.6922 49.7622 38.5968 49.9421 39.4408 50.2917C40.2848 50.6413 41.0517 51.1538 41.6977 51.7997C42.3436 52.4457 42.8561 53.2126 43.2056 54.0566C43.5552 54.9006 43.7352 55.8052 43.7352 56.7187Z" fill="white"/>
<path d="M36.7766 57.8783C37.4169 57.8783 37.936 57.3592 37.936 56.7189C37.936 56.0785 37.4169 55.5594 36.7766 55.5594C36.1363 55.5594 35.6172 56.0785 35.6172 56.7189C35.6172 57.3592 36.1363 57.8783 36.7766 57.8783Z" fill="white"/>
<path d="M46.7497 56.7188C46.7497 56.9033 46.6764 57.0803 46.5459 57.2107C46.4155 57.3412 46.2385 57.4145 46.054 57.4145C45.8695 57.4145 45.6926 57.3412 45.5621 57.2107C45.4317 57.0803 45.3584 56.9033 45.3584 56.7188C45.3584 54.4433 44.4544 52.2611 42.8454 50.652C41.2364 49.043 39.0541 48.1391 36.7787 48.1391C36.5942 48.1391 36.4172 48.0658 36.2868 47.9354C36.1563 47.8049 36.083 47.628 36.083 47.4435C36.083 47.259 36.1563 47.082 36.2868 46.9516C36.4172 46.8211 36.5942 46.7478 36.7787 46.7478C39.4231 46.7478 41.9593 47.7983 43.8292 49.6682C45.6992 51.5382 46.7497 54.0743 46.7497 56.7188Z" fill="white"/>
</svg>
