<svg width="354" height="192" viewBox="0 0 354 192" fill="none" xmlns="http://www.w3.org/2000/svg">
<path d="M34.8202 191.073C34.8202 191.073 26.7912 123.617 85.639 113.159C133.823 104.596 136.406 39.3187 186.998 55.9459C257.491 79.1136 268.507 43.0688 311.595 69.9619C347.68 92.4841 342.259 191.073 342.259 191.073H34.8202Z" fill="#DEF3FF"/>
<path d="M162.176 77.2266L165.093 46.9617H156.343H147.593L150.51 77.2266L144.677 179.683H156.343H168.009L162.176 77.2266Z" fill="#B8DEFF"/>
<path d="M159.399 77.2268L160.927 46.9619H156.343H151.76L153.288 77.2268L150.232 179.683H156.343H162.454L159.399 77.2268Z" fill="#D1E9FF"/>
<path opacity="0.6" d="M164.633 51.7429L165.093 46.9619H156.343H147.594L148.054 51.7429H164.633Z" fill="black"/>
<path d="M159.84 72.7853C159.92 68.6026 160.055 64.4213 160.241 60.2422C160.254 59.9574 159.811 59.958 159.798 60.2422C159.143 74.9801 159.147 89.7448 159.831 104.482C160.025 108.66 160.274 112.837 160.574 117.009C160.595 117.291 161.038 117.294 161.017 117.009C159.959 102.295 159.56 87.5352 159.84 72.7853Z" fill="white"/>
<path d="M158.551 112.543C158.555 112.258 158.112 112.258 158.108 112.543C158.053 116.792 158.258 121.034 158.721 125.258C158.752 125.538 159.195 125.541 159.164 125.258C158.701 121.034 158.496 116.792 158.551 112.543Z" fill="white"/>
<path d="M152.532 87.1453C151.557 100.469 150.583 113.793 149.608 127.116C149.587 127.4 150.03 127.399 150.051 127.116C151.026 113.793 152 100.469 152.975 87.1453C152.996 86.861 152.553 86.8624 152.532 87.1453Z" fill="white"/>
<path d="M156.975 1.62974C156.975 2.07451 156.615 2.43507 156.17 2.43507C155.725 2.43507 155.364 2.07451 155.364 1.62974C155.364 1.18496 155.725 0.824463 156.17 0.824463C156.615 0.824463 156.975 1.18496 156.975 1.62974Z" fill="#ADD8FF"/>
<path d="M156.344 44.5989H142.557L143.941 46.9614H156.344H168.752L170.13 44.5989H156.344Z" fill="#D1E9FF"/>
<path d="M156.343 24.1667H174.783L172.931 21.8042H156.343H139.747L137.903 24.1667H156.343Z" fill="#ADD8FF"/>
<path d="M156.344 21.8041H166.29L165.291 20.6228H156.344H147.392L146.397 21.8041H156.344Z" fill="#E8F4FF"/>
<path d="M137.903 24.1667L142.556 44.599H170.13L174.783 24.1667H137.903Z" fill="#006BCF"/>
<path d="M141.257 24.1667L145.064 44.599H167.623L171.429 24.1667H141.257Z" fill="#0079EB"/>
<path d="M149.121 24.1667L150.943 44.599H161.743L163.565 24.1667H149.121Z" fill="#0083FF"/>
<path d="M156.453 2.01538H155.887L154.998 20.6229H157.342L156.453 2.01538Z" fill="#ADD8FF"/>
<path d="M139.305 30.3237H173.381L173.452 30.0112H139.234L139.305 30.3237Z" fill="#ADD8FF"/>
<path d="M171.576 38.2499L171.647 37.9375H141.039L141.11 38.2499H171.576Z" fill="#ADD8FF"/>
<path d="M168.051 23.7686C160.579 23.9407 153.107 24.1128 145.635 24.2849C145.35 24.2916 145.349 24.7342 145.635 24.7276C153.107 24.5556 160.579 24.3834 168.051 24.2113C168.336 24.2047 168.337 23.7621 168.051 23.7686Z" fill="white"/>
<path d="M163.195 25.292H158.337C158.052 25.292 158.052 25.7346 158.337 25.7346H163.195C163.48 25.7346 163.48 25.292 163.195 25.292Z" fill="white"/>
<path d="M343.005 97.218C297.257 68.4088 140.511 141.921 140.511 141.921V179.683H337.171V149.921C337.171 149.921 370.782 114.711 343.005 97.218Z" fill="#8FC7FF"/>
<path d="M344.116 108.324C311.617 80.0032 160.008 138.017 140.511 145.643V179.683H337.171V149.921C337.171 149.921 361.173 123.189 344.116 108.324Z" fill="#006BCF"/>
<path d="M337.171 179.683V149.921C337.171 149.921 346.463 139.571 349.374 128.17H323.83V143.708H318.782V128.17H289.251V132.332H249.409V153.926H216.936V165.079H209.124V142.068H184.621V151.543H180.062V147.075H168.288V166.329H157.979V157.999H150.233V167.162H140.511V179.683L337.171 179.683Z" fill="#003FB3"/>
<path d="M337.171 149.921V138.45H345.154C345.354 138.086 345.553 137.715 345.749 137.34H337.172V114.433H348.737C348.569 114.059 348.382 113.689 348.182 113.322H337.172V104.191C336.808 104.043 336.437 103.899 336.06 103.761V113.322H303.395V100.978C303.026 101.004 302.655 101.033 302.284 101.061V113.322H269.618V105.864C269.248 105.939 268.878 106.012 268.507 106.088V113.322H238.118C236.748 113.688 235.38 114.059 234.014 114.433H234.73V137.34H202.064V123.924C201.694 124.042 201.322 124.16 200.953 124.278V137.34H168.288V135.317C167.914 135.45 167.545 135.582 167.177 135.713V137.34H162.651C161.606 137.718 160.586 138.089 159.596 138.45H167.177V161.357H140.511V162.468H167.177V179.683H168.288V162.468H200.953V179.683H202.064V162.468H234.73V179.683H235.841V162.468H268.507V179.683H269.618V162.468H302.284V179.683H303.395V162.468H336.06V179.683H337.171V162.468V161.357L337.171 149.921ZM200.953 161.357H168.288V138.45H200.953V161.357ZM234.73 161.357H202.064V138.45H234.73V161.357ZM268.507 161.357H235.841V138.45H268.507V161.357ZM268.507 137.34H235.841V114.433H268.507V137.34ZM302.284 161.357H269.618V138.45H302.284V161.357ZM302.284 137.34H269.618V114.433H302.284V137.34ZM336.06 161.357H303.395V138.45H336.06V161.357ZM336.06 137.34H303.395V114.433H336.06V137.34Z" fill="#4DA9FF"/>
<g opacity="0.6">
<path d="M233.887 114.467C226.586 116.469 219.353 118.58 212.326 120.725L175.496 179.683H193.149L233.887 114.467Z" fill="white"/>
<path d="M189.03 128.17C176.623 132.304 165.622 136.229 157.076 139.374L140.511 165.891V179.683H156.851L189.03 128.17Z" fill="white"/>
<path d="M301.519 101.12C290.002 102.059 277.197 104.19 263.967 107.042L218.59 179.683H252.443L301.519 101.12Z" fill="white"/>
<path d="M345.456 109.608C345.039 109.172 344.596 108.743 344.116 108.324C340.011 104.747 334.004 102.549 326.605 101.451L277.735 179.683H301.681L345.456 109.608Z" fill="white"/>
</g>
<path opacity="0.6" d="M347.506 113.66C348.053 114.136 348.558 114.624 349.027 115.122C348.069 112.695 346.491 110.395 344.116 108.324C311.617 80.0032 160.008 138.017 140.511 145.643V149.8C180.546 134.677 316.182 86.3626 347.506 113.66Z" fill="black"/>
<path d="M320.885 93.8126C302.52 93.4722 284.126 95.6882 266.373 100.409C261.318 101.753 256.319 103.304 251.386 105.043C251.119 105.138 251.234 105.565 251.504 105.47C268.856 99.3514 287.039 95.6612 305.409 94.5651C310.561 94.2577 315.724 94.1596 320.885 94.2552C321.17 94.2606 321.17 93.8179 320.885 93.8126Z" fill="white"/>
<path d="M331.765 96.6771C329.53 96.0313 327.295 95.3855 325.06 94.7397C324.785 94.6605 324.668 95.0876 324.942 95.1666C327.177 95.8124 329.412 96.4581 331.648 97.104C331.922 97.1832 332.039 96.7561 331.765 96.6771Z" fill="white"/>
<path d="M232.435 126.579C225.619 137.104 218.633 147.518 211.478 157.815C211.315 158.049 211.699 158.271 211.86 158.038C219.015 147.741 226.002 137.328 232.817 126.802C232.972 126.562 232.589 126.34 232.435 126.579Z" fill="white"/>
<path d="M229.208 137.875C225.87 142.711 222.733 147.679 219.803 152.772C219.66 153.019 220.043 153.242 220.185 152.995C223.116 147.903 226.253 142.934 229.59 138.099C229.752 137.863 229.369 137.642 229.208 137.875Z" fill="white"/>
<path d="M217.119 157.21C214.938 160.611 212.758 164.013 210.578 167.414C210.424 167.654 210.807 167.877 210.96 167.637L217.501 157.434C217.655 157.193 217.272 156.971 217.119 157.21Z" fill="white"/>
<path d="M280.588 145.973C274.876 155.11 268.961 164.119 262.848 172.993C262.686 173.228 263.069 173.45 263.23 173.216C269.343 164.342 275.258 155.333 280.971 146.197C281.122 145.954 280.739 145.732 280.588 145.973Z" fill="white"/>
<path d="M274.356 160.615L268.77 169.218C268.614 169.458 268.997 169.68 269.152 169.442C271.014 166.574 272.876 163.706 274.738 160.839C274.894 160.599 274.511 160.377 274.356 160.615Z" fill="white"/>
<path d="M340.41 127.689C333.708 137.628 327.285 147.753 321.148 158.051C321.002 158.296 321.384 158.519 321.53 158.274C327.667 147.976 334.091 137.852 340.792 127.912C340.952 127.675 340.569 127.454 340.41 127.689Z" fill="white"/>
<path d="M336.304 139.264C334.057 142.216 332.098 145.36 330.438 148.678C330.31 148.932 330.692 149.157 330.82 148.902C332.48 145.584 334.44 142.439 336.687 139.487C336.859 139.26 336.475 139.04 336.304 139.264Z" fill="white"/>
<path d="M181.398 146.476C177.175 152.958 172.952 159.44 168.729 165.922C168.573 166.162 168.956 166.384 169.111 166.146C173.334 159.664 177.557 153.182 181.78 146.699C181.936 146.46 181.553 146.238 181.398 146.476Z" fill="white"/>
<path d="M188.455 135.237C187 138.074 185.362 140.805 183.544 143.425C183.382 143.66 183.765 143.881 183.927 143.649C185.745 141.028 187.382 138.298 188.837 135.46C188.967 135.207 188.585 134.983 188.455 135.237Z" fill="white"/>
<path d="M185.69 144.11C183.971 146.74 182.251 149.371 180.532 152.001C180.376 152.241 180.759 152.463 180.914 152.225C182.634 149.594 184.353 146.964 186.072 144.333C186.229 144.094 185.845 143.872 185.69 144.11Z" fill="white"/>
<path d="M219.981 115.867C206.173 119.693 192.529 124.1 179.099 129.093C175.243 130.526 171.405 132.009 167.585 133.535C167.324 133.639 167.438 134.068 167.703 133.962C181.008 128.645 194.535 123.891 208.246 119.731C212.182 118.536 216.134 117.392 220.099 116.294C220.373 116.218 220.256 115.791 219.981 115.867Z" fill="white"/>
<path d="M351.483 179.682H32.4307V191.073H351.483V179.682Z" fill="#74797D"/>
<path opacity="0.3" d="M139.85 186.491C195.782 186.491 241.124 185.993 241.124 185.378C241.124 184.763 195.782 184.264 139.85 184.264C83.9181 184.264 38.5762 184.763 38.5762 185.378C38.5762 185.993 83.9181 186.491 139.85 186.491Z" fill="black"/>
<path d="M351.483 179.682H32.4307V180.954H351.483V179.682Z" fill="#D0D9E0"/>
<path d="M209.436 174.336V182.491H210.041V174.336H209.436Z" fill="#353666"/>
<path d="M209.352 179.907V180.262H210.125V179.907H209.352Z" fill="#353666"/>
<path d="M209.174 174.336V179.242H210.302V174.336H209.174Z" fill="#353666"/>
<path d="M212.467 183.151C212.467 184.381 211.47 185.378 210.24 185.378C209.009 185.378 208.012 184.381 208.012 183.151C208.012 181.921 209.009 180.924 210.24 180.924C211.47 180.924 212.467 181.921 212.467 183.151Z" fill="#333333"/>
<path d="M211.306 183.151C211.306 183.74 210.828 184.217 210.24 184.217C209.651 184.217 209.174 183.74 209.174 183.151C209.174 182.563 209.651 182.086 210.24 182.086C210.829 182.086 211.306 182.563 211.306 183.151Z" fill="#A3E4FF"/>
<path d="M121.834 180.474H112.885V181.435H121.834V180.474Z" fill="#353666"/>
<path d="M116.879 169.088V180.791H117.84V169.088H116.879Z" fill="#353666"/>
<path d="M116.612 176.684V178.476H118.108V176.684H116.612Z" fill="#353666"/>
<path d="M116.464 169.088V175.628H118.257V169.088H116.464Z" fill="#353666"/>
<path d="M116.803 181.84C116.803 183.794 115.218 185.378 113.263 185.378C111.308 185.378 109.723 183.794 109.723 181.84C109.723 179.885 111.308 178.301 113.263 178.301C115.218 178.301 116.803 179.885 116.803 181.84Z" fill="#333333"/>
<path d="M114.458 183.036C115.12 182.375 115.12 181.303 114.458 180.641C113.797 179.98 112.724 179.98 112.063 180.641C111.401 181.303 111.401 182.375 112.063 183.036C112.724 183.697 113.797 183.697 114.458 183.036Z" fill="#A3E4FF"/>
<path d="M124.997 181.839C124.997 183.794 123.412 185.378 121.457 185.378C119.502 185.378 117.917 183.794 117.917 181.839C117.917 179.885 119.502 178.301 121.457 178.301C123.412 178.301 124.997 179.885 124.997 181.839Z" fill="#333333"/>
<path d="M123.1 182.247C123.315 181.337 122.751 180.425 121.841 180.21C120.931 179.996 120.018 180.559 119.803 181.469C119.588 182.379 120.152 183.291 121.062 183.506C121.973 183.721 122.885 183.157 123.1 182.247Z" fill="#A3E4FF"/>
<path d="M27.8171 147.385C29.2617 147.34 101.256 143.861 106.426 143.541C115.862 142.957 147.117 136.309 167.533 135.045C187.948 133.781 218.119 132.215 234.379 138.235C250.639 144.255 262.373 155.611 260.379 161.257C258.211 167.398 241.064 175.137 197.704 175.137C154.344 175.137 135.374 175.137 113.965 175.137C92.5561 175.137 31.3702 154.188 27.8171 152.563C24.264 150.937 25.421 147.46 27.8171 147.385Z" fill="black"/>
<path d="M178.351 167.358C153.792 167.358 121.347 153.167 102.521 143.75C86.3754 144.58 29.1039 147.346 27.8171 147.386C25.4211 147.461 24.2639 150.938 27.8171 152.563C31.3702 154.188 92.556 175.137 113.965 175.137C135.374 175.137 154.344 175.137 197.704 175.137C227.14 175.137 244.492 171.57 253.281 167.358C233.666 167.358 201.981 167.358 178.351 167.358Z" fill="#FFE100"/>
<path opacity="0.6" d="M167.532 135.045C147.117 136.309 115.861 142.957 106.425 143.541C101.256 143.861 29.261 147.34 27.8164 147.386C26.7981 147.417 26.0055 148.064 25.7012 148.922C41.8838 148.74 114.539 147.817 129.884 145.728C147.179 143.374 200.826 143.802 227.179 144.323C236.237 144.502 243.375 145.037 248.844 145.663C244.759 142.866 239.824 140.251 234.379 138.235C218.119 132.215 187.947 133.781 167.532 135.045Z" fill="black"/>
<path opacity="0.2" d="M234.471 171.157C216.555 172.794 166.504 169.546 162.598 169.546C158.692 169.546 101.578 169.546 93.4598 169.546C85.8623 169.546 32.5303 152.7 25.7158 150.538C25.9873 151.288 26.6443 152.026 27.8166 152.562C31.3697 154.188 92.5555 175.137 113.965 175.137C135.374 175.137 154.344 175.137 197.704 175.137C229.185 175.137 246.845 171.057 254.99 166.472C249.297 168.492 242.132 170.457 234.471 171.157Z" fill="black"/>
<path d="M7.82283 150.091C7.82283 150.091 26.9481 149.945 28.0321 149.945C29.116 149.945 48.4728 149.458 51.1828 149.458C53.8928 149.458 55.5964 153.433 52.7058 153.433C49.8151 153.433 8.54546 150.723 7.82277 150.723C7.10009 150.723 7.45744 150.091 7.82283 150.091Z" fill="black"/>
<path d="M66.4711 158.133C66.1754 158.133 65.9355 157.893 65.9355 157.598V156.739C65.9355 156.443 66.1753 156.204 66.4711 156.204C66.7669 156.204 67.0067 156.443 67.0067 156.739V157.598C67.0067 157.893 66.7669 158.133 66.4711 158.133Z" fill="#3264C2"/>
<path d="M69.3539 158.133C69.0581 158.133 68.8184 157.894 68.8184 157.598V156.739C68.8184 156.444 69.0581 156.204 69.3539 156.204C69.6497 156.204 69.8895 156.444 69.8895 156.739V157.598C69.8895 157.894 69.6498 158.133 69.3539 158.133Z" fill="#3264C2"/>
<path d="M72.2358 158.133C71.94 158.133 71.7002 157.894 71.7002 157.598V156.739C71.7002 156.444 71.94 156.204 72.2358 156.204C72.5315 156.204 72.7713 156.444 72.7713 156.739V157.598C72.7713 157.894 72.5315 158.133 72.2358 158.133Z" fill="#3264C2"/>
<path d="M75.1186 158.133C74.8228 158.133 74.583 157.894 74.583 157.598V156.739C74.583 156.444 74.8228 156.204 75.1186 156.204C75.4143 156.204 75.6542 156.444 75.6542 156.739V157.598C75.6541 157.894 75.4143 158.133 75.1186 158.133Z" fill="#3264C2"/>
<path d="M78.0014 158.133C77.7056 158.133 77.4658 157.894 77.4658 157.598V156.739C77.4658 156.444 77.7056 156.204 78.0014 156.204C78.2972 156.204 78.537 156.444 78.537 156.739V157.598C78.5369 157.894 78.2972 158.133 78.0014 158.133Z" fill="#3264C2"/>
<path d="M80.8832 158.133C80.5875 158.133 80.3477 157.894 80.3477 157.598V156.739C80.3477 156.444 80.5874 156.204 80.8832 156.204C81.1791 156.204 81.4188 156.444 81.4188 156.739V157.598C81.4187 157.894 81.179 158.133 80.8832 158.133Z" fill="#3264C2"/>
<path d="M83.766 158.133C83.4703 158.133 83.2305 157.894 83.2305 157.598V156.739C83.2305 156.444 83.4703 156.204 83.766 156.204C84.0619 156.204 84.3016 156.444 84.3016 156.739V157.598C84.3016 157.894 84.0618 158.133 83.766 158.133Z" fill="#3264C2"/>
<path d="M86.6479 158.133C86.3521 158.133 86.1123 157.894 86.1123 157.598V156.739C86.1123 156.444 86.3521 156.204 86.6479 156.204C86.9436 156.204 87.1835 156.444 87.1835 156.739V157.598C87.1834 157.894 86.9436 158.133 86.6479 158.133Z" fill="#3264C2"/>
<path d="M89.5307 158.133C89.2349 158.133 88.9951 157.894 88.9951 157.598V156.739C88.9951 156.444 89.2349 156.204 89.5307 156.204C89.8265 156.204 90.0663 156.444 90.0663 156.739V157.598C90.0662 157.894 89.8265 158.133 89.5307 158.133Z" fill="#3264C2"/>
<path d="M92.4135 158.133C92.1177 158.133 91.8779 157.894 91.8779 157.598V156.739C91.8779 156.444 92.1177 156.204 92.4135 156.204C92.7093 156.204 92.9491 156.444 92.9491 156.739V157.598C92.9491 157.894 92.7093 158.133 92.4135 158.133Z" fill="#3264C2"/>
<path d="M95.2953 158.133C94.9995 158.133 94.7598 157.894 94.7598 157.598V156.739C94.7598 156.444 94.9995 156.204 95.2953 156.204C95.5911 156.204 95.8309 156.444 95.8309 156.739V157.598C95.8309 157.894 95.5911 158.133 95.2953 158.133Z" fill="#3264C2"/>
<path d="M101.061 158.133C100.765 158.133 100.525 157.894 100.525 157.598V156.739C100.525 156.444 100.765 156.204 101.061 156.204C101.357 156.204 101.597 156.444 101.597 156.739V157.598C101.597 157.894 101.357 158.133 101.061 158.133Z" fill="#3264C2"/>
<path d="M103.943 158.133C103.647 158.133 103.407 157.894 103.407 157.598V156.739C103.407 156.444 103.647 156.204 103.943 156.204C104.239 156.204 104.478 156.444 104.478 156.739V157.598C104.478 157.894 104.239 158.133 103.943 158.133Z" fill="#3264C2"/>
<path d="M106.826 158.133C106.53 158.133 106.29 157.894 106.29 157.598V156.739C106.29 156.444 106.53 156.204 106.826 156.204C107.121 156.204 107.361 156.444 107.361 156.739V157.598C107.361 157.894 107.121 158.133 106.826 158.133Z" fill="#3264C2"/>
<path d="M109.707 158.133C109.412 158.133 109.172 157.894 109.172 157.598V156.739C109.172 156.444 109.412 156.204 109.707 156.204C110.003 156.204 110.243 156.444 110.243 156.739V157.598C110.243 157.894 110.003 158.133 109.707 158.133Z" fill="#3264C2"/>
<path d="M112.59 158.133C112.294 158.133 112.055 157.894 112.055 157.598V156.739C112.055 156.444 112.294 156.204 112.59 156.204C112.886 156.204 113.126 156.444 113.126 156.739V157.598C113.126 157.894 112.886 158.133 112.59 158.133Z" fill="#3264C2"/>
<path d="M115.473 158.133C115.177 158.133 114.938 157.894 114.938 157.598V156.739C114.938 156.444 115.177 156.204 115.473 156.204C115.769 156.204 116.009 156.444 116.009 156.739V157.598C116.009 157.894 115.769 158.133 115.473 158.133Z" fill="#3264C2"/>
<path d="M118.355 158.133C118.059 158.133 117.819 157.894 117.819 157.598V156.739C117.819 156.444 118.059 156.204 118.355 156.204C118.651 156.204 118.89 156.444 118.89 156.739V157.598C118.89 157.894 118.651 158.133 118.355 158.133Z" fill="#3264C2"/>
<path d="M121.238 158.133C120.942 158.133 120.702 157.894 120.702 157.598V156.739C120.702 156.444 120.942 156.204 121.238 156.204C121.533 156.204 121.773 156.444 121.773 156.739V157.598C121.773 157.894 121.533 158.133 121.238 158.133Z" fill="#3264C2"/>
<path d="M124.121 158.133C123.825 158.133 123.585 157.894 123.585 157.598V156.739C123.585 156.444 123.825 156.204 124.121 156.204C124.416 156.204 124.656 156.444 124.656 156.739V157.598C124.656 157.894 124.416 158.133 124.121 158.133Z" fill="#3264C2"/>
<path d="M127.002 158.133C126.707 158.133 126.467 157.894 126.467 157.598V156.739C126.467 156.444 126.707 156.204 127.002 156.204C127.298 156.204 127.538 156.444 127.538 156.739V157.598C127.538 157.894 127.298 158.133 127.002 158.133Z" fill="#3264C2"/>
<path d="M129.885 158.133C129.589 158.133 129.35 157.894 129.35 157.598V156.739C129.35 156.444 129.589 156.204 129.885 156.204C130.181 156.204 130.421 156.444 130.421 156.739V157.598C130.421 157.894 130.181 158.133 129.885 158.133Z" fill="#3264C2"/>
<path d="M132.767 158.133C132.471 158.133 132.231 157.894 132.231 157.598V156.739C132.231 156.444 132.471 156.204 132.767 156.204C133.063 156.204 133.303 156.444 133.303 156.739V157.598C133.303 157.894 133.063 158.133 132.767 158.133Z" fill="#3264C2"/>
<path d="M138.533 158.133C138.237 158.133 137.997 157.894 137.997 157.598V156.739C137.997 156.444 138.237 156.204 138.533 156.204C138.828 156.204 139.068 156.444 139.068 156.739V157.598C139.068 157.894 138.828 158.133 138.533 158.133Z" fill="#3264C2"/>
<path d="M141.414 158.133C141.119 158.133 140.879 157.894 140.879 157.598V156.739C140.879 156.444 141.119 156.204 141.414 156.204C141.71 156.204 141.95 156.444 141.95 156.739V157.598C141.95 157.894 141.71 158.133 141.414 158.133Z" fill="#3264C2"/>
<path d="M144.297 158.133C144.002 158.133 143.762 157.894 143.762 157.598V156.739C143.762 156.444 144.001 156.204 144.297 156.204C144.593 156.204 144.833 156.444 144.833 156.739V157.598C144.833 157.894 144.593 158.133 144.297 158.133Z" fill="#3264C2"/>
<path d="M147.18 158.133C146.884 158.133 146.645 157.894 146.645 157.598V156.739C146.645 156.444 146.884 156.204 147.18 156.204C147.476 156.204 147.716 156.444 147.716 156.739V157.598C147.716 157.894 147.476 158.133 147.18 158.133Z" fill="#3264C2"/>
<path d="M150.062 158.133C149.766 158.133 149.526 157.894 149.526 157.598V156.739C149.526 156.444 149.766 156.204 150.062 156.204C150.358 156.204 150.598 156.444 150.598 156.739V157.598C150.598 157.894 150.358 158.133 150.062 158.133Z" fill="#3264C2"/>
<path d="M152.945 158.133C152.649 158.133 152.409 157.894 152.409 157.598V156.739C152.409 156.444 152.649 156.204 152.945 156.204C153.241 156.204 153.48 156.444 153.48 156.739V157.598C153.48 157.894 153.241 158.133 152.945 158.133Z" fill="#3264C2"/>
<path d="M155.828 158.133C155.532 158.133 155.292 157.894 155.292 157.598V156.739C155.292 156.444 155.532 156.204 155.828 156.204C156.123 156.204 156.363 156.444 156.363 156.739V157.598C156.363 157.894 156.123 158.133 155.828 158.133Z" fill="#3264C2"/>
<path d="M158.709 158.133C158.414 158.133 158.174 157.894 158.174 157.598V156.739C158.174 156.444 158.414 156.204 158.709 156.204C159.005 156.204 159.245 156.444 159.245 156.739V157.598C159.245 157.894 159.005 158.133 158.709 158.133Z" fill="#3264C2"/>
<path d="M161.592 158.133C161.296 158.133 161.057 157.894 161.057 157.598V156.739C161.057 156.444 161.296 156.204 161.592 156.204C161.888 156.204 162.128 156.444 162.128 156.739V157.598C162.128 157.894 161.888 158.133 161.592 158.133Z" fill="#3264C2"/>
<path d="M164.474 158.133C164.178 158.133 163.938 157.894 163.938 157.598V156.739C163.938 156.444 164.178 156.204 164.474 156.204C164.77 156.204 165.01 156.444 165.01 156.739V157.598C165.01 157.894 164.77 158.133 164.474 158.133Z" fill="#3264C2"/>
<path d="M167.357 158.133C167.061 158.133 166.821 157.894 166.821 157.598V156.739C166.821 156.444 167.061 156.204 167.357 156.204C167.653 156.204 167.892 156.444 167.892 156.739V157.598C167.892 157.894 167.653 158.133 167.357 158.133Z" fill="#3264C2"/>
<path d="M170.24 158.133C169.944 158.133 169.704 157.894 169.704 157.598V156.739C169.704 156.444 169.944 156.204 170.24 156.204C170.535 156.204 170.775 156.444 170.775 156.739V157.598C170.775 157.894 170.536 158.133 170.24 158.133Z" fill="#3264C2"/>
<path d="M173.122 158.133C172.826 158.133 172.586 157.894 172.586 157.598V156.739C172.586 156.444 172.826 156.204 173.122 156.204C173.417 156.204 173.657 156.444 173.657 156.739V157.598C173.657 157.894 173.417 158.133 173.122 158.133Z" fill="#3264C2"/>
<path d="M176.004 158.133C175.709 158.133 175.469 157.894 175.469 157.598V156.739C175.469 156.444 175.709 156.204 176.004 156.204C176.3 156.204 176.54 156.444 176.54 156.739V157.598C176.54 157.894 176.3 158.133 176.004 158.133Z" fill="#3264C2"/>
<path d="M178.887 158.133C178.591 158.133 178.352 157.894 178.352 157.598V156.739C178.352 156.444 178.591 156.204 178.887 156.204C179.183 156.204 179.423 156.444 179.423 156.739V157.598C179.423 157.894 179.183 158.133 178.887 158.133Z" fill="#3264C2"/>
<path d="M181.769 158.133C181.473 158.133 181.233 157.894 181.233 157.598V156.739C181.233 156.444 181.473 156.204 181.769 156.204C182.065 156.204 182.305 156.444 182.305 156.739V157.598C182.305 157.894 182.065 158.133 181.769 158.133Z" fill="#3264C2"/>
<path d="M184.652 158.133C184.356 158.133 184.116 157.894 184.116 157.598V156.739C184.116 156.444 184.356 156.204 184.652 156.204C184.948 156.204 185.187 156.444 185.187 156.739V157.598C185.187 157.894 184.948 158.133 184.652 158.133Z" fill="#3264C2"/>
<path d="M187.534 158.133C187.238 158.133 186.998 157.894 186.998 157.598V156.739C186.998 156.444 187.238 156.204 187.534 156.204C187.829 156.204 188.069 156.444 188.069 156.739V157.598C188.069 157.894 187.829 158.133 187.534 158.133Z" fill="#3264C2"/>
<path d="M193.299 158.133C193.003 158.133 192.764 157.894 192.764 157.598V156.739C192.764 156.444 193.003 156.204 193.299 156.204C193.595 156.204 193.835 156.444 193.835 156.739V157.598C193.835 157.894 193.595 158.133 193.299 158.133Z" fill="#3264C2"/>
<path d="M196.181 158.133C195.885 158.133 195.646 157.894 195.646 157.598V156.739C195.646 156.444 195.885 156.204 196.181 156.204C196.477 156.204 196.717 156.444 196.717 156.739V157.598C196.717 157.894 196.477 158.133 196.181 158.133Z" fill="#3264C2"/>
<path d="M199.064 158.133C198.768 158.133 198.528 157.894 198.528 157.598V156.739C198.528 156.444 198.768 156.204 199.064 156.204C199.36 156.204 199.599 156.444 199.599 156.739V157.598C199.599 157.894 199.36 158.133 199.064 158.133Z" fill="#3264C2"/>
<path d="M201.947 158.133C201.651 158.133 201.411 157.894 201.411 157.598V156.739C201.411 156.444 201.651 156.204 201.947 156.204C202.242 156.204 202.482 156.444 202.482 156.739V157.598C202.482 157.894 202.242 158.133 201.947 158.133Z" fill="#3264C2"/>
<path d="M204.829 158.133C204.533 158.133 204.293 157.894 204.293 157.598V156.739C204.293 156.444 204.533 156.204 204.829 156.204C205.124 156.204 205.364 156.444 205.364 156.739V157.598C205.364 157.894 205.124 158.133 204.829 158.133Z" fill="#3264C2"/>
<path d="M207.711 158.133C207.416 158.133 207.176 157.894 207.176 157.598V156.739C207.176 156.444 207.416 156.204 207.711 156.204C208.007 156.204 208.247 156.444 208.247 156.739V157.598C208.247 157.894 208.007 158.133 207.711 158.133Z" fill="#3264C2"/>
<path d="M210.593 158.133C210.297 158.133 210.058 157.894 210.058 157.598V156.739C210.058 156.444 210.297 156.204 210.593 156.204C210.889 156.204 211.129 156.444 211.129 156.739V157.598C211.129 157.894 210.889 158.133 210.593 158.133Z" fill="#3264C2"/>
<path d="M213.476 158.133C213.18 158.133 212.94 157.894 212.94 157.598V156.739C212.94 156.444 213.18 156.204 213.476 156.204C213.772 156.204 214.012 156.444 214.012 156.739V157.598C214.012 157.894 213.772 158.133 213.476 158.133Z" fill="#3264C2"/>
<path d="M216.359 158.133C216.063 158.133 215.823 157.894 215.823 157.598V156.739C215.823 156.444 216.063 156.204 216.359 156.204C216.655 156.204 216.894 156.444 216.894 156.739V157.598C216.894 157.894 216.655 158.133 216.359 158.133Z" fill="#3264C2"/>
<path d="M219.241 158.133C218.945 158.133 218.705 157.894 218.705 157.598V156.739C218.705 156.444 218.945 156.204 219.241 156.204C219.536 156.204 219.776 156.444 219.776 156.739V157.598C219.776 157.894 219.536 158.133 219.241 158.133Z" fill="#3264C2"/>
<path d="M222.123 158.133C221.828 158.133 221.588 157.894 221.588 157.598V156.739C221.588 156.444 221.828 156.204 222.123 156.204C222.419 156.204 222.659 156.444 222.659 156.739V157.598C222.659 157.894 222.419 158.133 222.123 158.133Z" fill="#3264C2"/>
<path d="M225.006 158.133C224.711 158.133 224.471 157.894 224.471 157.598V156.739C224.471 156.444 224.71 156.204 225.006 156.204C225.302 156.204 225.542 156.444 225.542 156.739V157.598C225.542 157.894 225.302 158.133 225.006 158.133Z" fill="#3264C2"/>
<path d="M147.179 143.374C146.883 143.374 146.644 143.134 146.644 142.839V141.98C146.644 141.684 146.883 141.445 147.179 141.445C147.475 141.445 147.715 141.684 147.715 141.98V142.839C147.715 143.134 147.475 143.374 147.179 143.374Z" fill="#3264C2"/>
<path d="M150.062 143.374C149.766 143.374 149.526 143.134 149.526 142.838V141.979C149.526 141.684 149.766 141.444 150.062 141.444C150.358 141.444 150.598 141.684 150.598 141.979V142.838C150.598 143.134 150.358 143.374 150.062 143.374Z" fill="#3264C2"/>
<path d="M152.944 143.374C152.648 143.374 152.408 143.134 152.408 142.838V141.979C152.408 141.684 152.648 141.444 152.944 141.444C153.24 141.444 153.479 141.684 153.479 141.979V142.838C153.479 143.134 153.24 143.374 152.944 143.374Z" fill="#3264C2"/>
<path d="M155.827 143.374C155.531 143.374 155.291 143.134 155.291 142.838V141.979C155.291 141.684 155.531 141.444 155.827 141.444C156.122 141.444 156.362 141.684 156.362 141.979V142.838C156.362 143.134 156.122 143.374 155.827 143.374Z" fill="#3264C2"/>
<path d="M158.709 143.374C158.414 143.374 158.174 143.134 158.174 142.838V141.979C158.174 141.684 158.414 141.444 158.709 141.444C159.005 141.444 159.245 141.684 159.245 141.979V142.838C159.245 143.134 159.005 143.374 158.709 143.374Z" fill="#3264C2"/>
<path d="M161.591 143.374C161.295 143.374 161.056 143.134 161.056 142.838V141.979C161.056 141.684 161.295 141.444 161.591 141.444C161.887 141.444 162.127 141.684 162.127 141.979V142.838C162.127 143.134 161.887 143.374 161.591 143.374Z" fill="#3264C2"/>
<path d="M164.474 143.374C164.178 143.374 163.938 143.134 163.938 142.838V141.979C163.938 141.684 164.178 141.444 164.474 141.444C164.77 141.444 165.01 141.684 165.01 141.979V142.838C165.01 143.134 164.77 143.374 164.474 143.374Z" fill="#3264C2"/>
<path d="M167.356 143.374C167.06 143.374 166.82 143.134 166.82 142.838V141.979C166.82 141.684 167.06 141.444 167.356 141.444C167.652 141.444 167.891 141.684 167.891 141.979V142.838C167.891 143.134 167.652 143.374 167.356 143.374Z" fill="#3264C2"/>
<path d="M170.239 143.374C169.943 143.374 169.703 143.134 169.703 142.838V141.979C169.703 141.684 169.943 141.444 170.239 141.444C170.534 141.444 170.774 141.684 170.774 141.979V142.838C170.774 143.134 170.535 143.374 170.239 143.374Z" fill="#3264C2"/>
<path d="M173.122 143.374C172.826 143.374 172.586 143.134 172.586 142.838V141.979C172.586 141.684 172.826 141.444 173.122 141.444C173.417 141.444 173.657 141.684 173.657 141.979V142.838C173.657 143.134 173.417 143.374 173.122 143.374Z" fill="#3264C2"/>
<path d="M176.003 143.374C175.708 143.374 175.468 143.134 175.468 142.838V141.979C175.468 141.684 175.708 141.444 176.003 141.444C176.299 141.444 176.539 141.684 176.539 141.979V142.838C176.539 143.134 176.299 143.374 176.003 143.374Z" fill="#3264C2"/>
<path d="M178.886 143.374C178.59 143.374 178.351 143.134 178.351 142.838V141.979C178.351 141.684 178.59 141.444 178.886 141.444C179.182 141.444 179.422 141.684 179.422 141.979V142.838C179.422 143.134 179.182 143.374 178.886 143.374Z" fill="#3264C2"/>
<path d="M181.769 143.374C181.473 143.374 181.233 143.134 181.233 142.838V141.979C181.233 141.684 181.473 141.444 181.769 141.444C182.065 141.444 182.305 141.684 182.305 141.979V142.838C182.305 143.134 182.065 143.374 181.769 143.374Z" fill="#3264C2"/>
<path d="M184.651 143.374C184.355 143.374 184.115 143.134 184.115 142.838V141.979C184.115 141.684 184.355 141.444 184.651 141.444C184.947 141.444 185.186 141.684 185.186 141.979V142.838C185.186 143.134 184.947 143.374 184.651 143.374Z" fill="#3264C2"/>
<path d="M187.534 143.374C187.238 143.374 186.998 143.134 186.998 142.838V141.979C186.998 141.684 187.238 141.444 187.534 141.444C187.829 141.444 188.069 141.684 188.069 141.979V142.838C188.069 143.134 187.829 143.374 187.534 143.374Z" fill="#3264C2"/>
<path d="M190.415 143.374C190.12 143.374 189.88 143.134 189.88 142.838V141.979C189.88 141.684 190.12 141.444 190.415 141.444C190.711 141.444 190.951 141.684 190.951 141.979V142.838C190.951 143.134 190.711 143.374 190.415 143.374Z" fill="#3264C2"/>
<path d="M193.298 143.374C193.003 143.374 192.763 143.134 192.763 142.838V141.979C192.763 141.684 193.003 141.444 193.298 141.444C193.594 141.444 193.834 141.684 193.834 141.979V142.838C193.834 143.134 193.594 143.374 193.298 143.374Z" fill="#3264C2"/>
<path d="M196.181 143.374C195.885 143.374 195.646 143.134 195.646 142.838V141.979C195.646 141.684 195.885 141.444 196.181 141.444C196.477 141.444 196.717 141.684 196.717 141.979V142.838C196.717 143.134 196.477 143.374 196.181 143.374Z" fill="#3264C2"/>
<path d="M199.063 143.374C198.767 143.374 198.527 143.134 198.527 142.838V141.979C198.527 141.684 198.767 141.444 199.063 141.444C199.359 141.444 199.598 141.684 199.598 141.979V142.838C199.598 143.134 199.359 143.374 199.063 143.374Z" fill="#3264C2"/>
<path d="M201.946 143.374C201.65 143.374 201.41 143.134 201.41 142.838V141.979C201.41 141.684 201.65 141.444 201.946 141.444C202.241 141.444 202.481 141.684 202.481 141.979V142.838C202.481 143.134 202.241 143.374 201.946 143.374Z" fill="#3264C2"/>
<path d="M204.829 143.374C204.533 143.374 204.293 143.134 204.293 142.838V141.979C204.293 141.684 204.533 141.444 204.829 141.444C205.124 141.444 205.364 141.684 205.364 141.979V142.838C205.364 143.134 205.124 143.374 204.829 143.374Z" fill="#3264C2"/>
<path d="M207.71 143.374C207.415 143.374 207.175 143.134 207.175 142.838V141.979C207.175 141.684 207.415 141.444 207.71 141.444C208.006 141.444 208.246 141.684 208.246 141.979V142.838C208.246 143.134 208.006 143.374 207.71 143.374Z" fill="#3264C2"/>
<path d="M210.593 143.374C210.297 143.374 210.058 143.134 210.058 142.838V141.979C210.058 141.684 210.297 141.444 210.593 141.444C210.889 141.444 211.129 141.684 211.129 141.979V142.838C211.129 143.134 210.889 143.374 210.593 143.374Z" fill="#3264C2"/>
<path d="M213.475 143.374C213.179 143.374 212.939 143.134 212.939 142.838V141.979C212.939 141.684 213.179 141.444 213.475 141.444C213.771 141.444 214.011 141.684 214.011 141.979V142.838C214.011 143.134 213.771 143.374 213.475 143.374Z" fill="#3264C2"/>
<path d="M216.358 143.374C216.062 143.374 215.822 143.134 215.822 142.838V141.979C215.822 141.684 216.062 141.444 216.358 141.444C216.654 141.444 216.893 141.684 216.893 141.979V142.838C216.893 143.134 216.654 143.374 216.358 143.374Z" fill="#3264C2"/>
<path d="M239.428 144.499H247.077C245.19 143.302 243.151 142.152 240.986 141.082H237.775C237.354 141.082 237.09 141.539 237.301 141.904L238.486 143.955C238.68 144.292 239.039 144.499 239.428 144.499Z" fill="#3264C2"/>
<path d="M235.113 141.082H231.11C230.627 141.082 230.38 141.662 230.715 142.01L232.896 144.279C233.031 144.42 233.218 144.499 233.414 144.499H236.828C237.25 144.499 237.514 144.043 237.303 143.677L236.15 141.681C235.936 141.31 235.54 141.082 235.113 141.082Z" fill="#3264C2"/>
<path d="M27.8168 147.385L19.7185 114.425C19.5602 113.781 20.048 113.159 20.7115 113.159H25.2726C26.4284 113.159 27.5261 113.665 28.276 114.544L55.1748 146.078L27.8168 147.385Z" fill="#FFE100"/>
<path d="M46.2763 141.305C41.0344 134.224 35.6855 127.224 30.2318 120.305C30.0555 120.081 29.7441 120.396 29.9186 120.618C35.349 127.507 40.6745 134.478 45.8939 141.528C46.0616 141.754 46.4462 141.534 46.2763 141.305Z" fill="white"/>
<path d="M134.824 146.076C119.83 146.892 104.836 147.707 89.8412 148.523C85.5257 148.757 81.2103 148.992 76.895 149.227C76.6114 149.242 76.6096 149.685 76.895 149.669C91.8893 148.854 106.884 148.038 121.878 147.223C126.193 146.988 130.509 146.753 134.824 146.519C135.108 146.503 135.109 146.061 134.824 146.076Z" fill="white"/>
<path d="M196.078 145.099C177.761 144.838 159.437 145.249 141.15 146.332C140.866 146.349 140.865 146.792 141.15 146.775C159.437 145.692 177.761 145.281 196.078 145.541C196.363 145.545 196.363 145.103 196.078 145.099Z" fill="white"/>
<path d="M224.101 145.564H218.496C218.211 145.564 218.211 146.007 218.496 146.007H224.101C224.386 146.007 224.387 145.564 224.101 145.564Z" fill="white"/>
<path d="M253.889 152.62C252.312 150.987 250.511 149.639 248.5 148.586C248.247 148.454 248.023 148.836 248.276 148.968C250.255 150.003 252.025 151.327 253.576 152.933C253.774 153.139 254.087 152.825 253.889 152.62Z" fill="white"/>
<path d="M217.379 137.195C202.184 136.909 186.989 136.623 171.794 136.337C171.509 136.332 171.509 136.775 171.794 136.78C186.989 137.066 202.184 137.352 217.379 137.638C217.664 137.643 217.664 137.2 217.379 137.195Z" fill="white"/>
<path d="M223.727 154.206C212.273 153.809 200.808 153.839 189.357 154.298C189.073 154.309 189.072 154.752 189.357 154.74C200.808 154.282 212.273 154.252 223.727 154.648C224.012 154.658 224.011 154.216 223.727 154.206Z" fill="white"/>
<path d="M212.892 152.287H208.034C207.749 152.287 207.749 152.73 208.034 152.73H212.892C213.177 152.73 213.177 152.287 212.892 152.287Z" fill="white"/>
<path d="M80.1258 182.255C82.8405 183.446 90.1963 182.989 92.2032 182.248C95.1319 181.167 93.7902 172.936 92.1127 172.51C88.345 171.552 82.2127 171.821 80.0916 172.54C76.5523 173.742 76.3167 180.584 80.1258 182.255Z" fill="#8FC9FF"/>
<path d="M91.4798 182.361C93.3687 182.361 94.9 180.136 94.9 177.393C94.9 174.649 93.3687 172.425 91.4798 172.425C89.5908 172.425 88.0596 174.649 88.0596 177.393C88.0596 180.136 89.5908 182.361 91.4798 182.361Z" fill="#C4E3FF"/>
<path d="M94.3663 177.392C94.3663 179.836 93.0743 181.817 91.4805 181.817C89.8868 181.817 88.5947 179.836 88.5947 177.392C88.5947 174.949 89.8867 172.968 91.4805 172.968C93.0742 172.968 94.3663 174.949 94.3663 177.392Z" fill="#42A6FF"/>
<path d="M90.0493 173.906C89.9162 173.906 89.7866 173.927 89.6598 173.961C89.0102 174.772 88.5947 176.007 88.5947 177.392C88.5947 178.777 89.0102 180.012 89.6598 180.823C89.7866 180.857 89.9162 180.878 90.0493 180.878C91.305 180.878 92.323 179.317 92.323 177.392C92.323 175.467 91.305 173.906 90.0493 173.906Z" fill="#1C629E"/>
<path d="M82.5821 172.424C82.306 172.424 77.6299 167.358 77.6299 167.358H85.5035C87.6188 171.543 88.8079 172.424 87.9261 172.424C86.5901 172.424 84.016 172.424 82.5821 172.424Z" fill="#80C2FF"/>
<path d="M83.6036 174.325H80.6143C80.3293 174.325 80.3289 174.768 80.6143 174.768H83.6036C83.8885 174.768 83.889 174.325 83.6036 174.325Z" fill="white"/>
<path d="M119.856 183.522C122.571 184.713 129.927 184.255 131.934 183.515C134.862 182.433 133.521 174.203 131.843 173.776C128.075 172.818 121.943 173.087 119.822 173.807C116.283 175.008 116.047 181.85 119.856 183.522Z" fill="#8FC9FF"/>
<path d="M131.21 183.626C133.099 183.626 134.631 181.402 134.631 178.658C134.631 175.915 133.099 173.69 131.21 173.69C129.321 173.69 127.79 175.915 127.79 178.658C127.79 181.402 129.321 183.626 131.21 183.626Z" fill="#C4E3FF"/>
<path d="M134.097 178.658C134.097 181.102 132.805 183.083 131.211 183.083C129.617 183.083 128.325 181.102 128.325 178.658C128.325 176.215 129.617 174.234 131.211 174.234C132.805 174.234 134.097 176.215 134.097 178.658Z" fill="#42A6FF"/>
<path d="M129.78 175.172C129.647 175.172 129.517 175.193 129.39 175.227C128.741 176.038 128.325 177.273 128.325 178.658C128.325 180.043 128.741 181.278 129.39 182.09C129.517 182.123 129.647 182.144 129.78 182.144C131.035 182.144 132.053 180.583 132.053 178.658C132.053 176.733 131.035 175.172 129.78 175.172Z" fill="#1C629E"/>
<path d="M122.313 173.691C122.036 173.691 117.36 168.624 117.36 168.624H125.234C127.349 172.809 128.538 173.691 127.657 173.691C126.321 173.691 123.747 173.691 122.313 173.691Z" fill="#80C2FF"/>
<path d="M124.334 174.698H121.345C121.06 174.698 121.059 175.141 121.345 175.141H124.334C124.619 175.141 124.619 174.698 124.334 174.698Z" fill="white"/>
<path d="M1.19839 164.749C2.04729 165.262 2.57843 167.381 4.17988 167.366C16.7319 167.254 72.3987 166.757 75.9428 166.757C79.939 166.757 151.539 166.757 161.53 166.757C171.52 166.757 170.753 172.581 160.096 172.581C149.439 172.581 4.34292 168.021 1.6788 168.021C-0.985373 168.021 0.0457475 164.052 1.19839 164.749Z" fill="#B0D9FF"/>
<path d="M147.502 167.471C128.943 167.622 110.384 167.772 91.8243 167.922C91.5394 167.924 91.5387 168.367 91.8243 168.365C110.384 168.215 128.943 168.064 147.502 167.914C147.787 167.912 147.788 167.469 147.502 167.471Z" fill="white"/>
<path d="M157.216 167.229H151.611C151.326 167.229 151.326 167.671 151.611 167.671H157.216C157.501 167.671 157.502 167.229 157.216 167.229Z" fill="white"/>
</svg>
