<svg width="40" height="40" viewBox="0 0 40 40" fill="none" xmlns="http://www.w3.org/2000/svg">
<mask id="mask0_761_3955" style="mask-type:luminance" maskUnits="userSpaceOnUse" x="0" y="1" width="40" height="39">
<path d="M0.651367 1.56323H39.0514V39.9632H0.651367V1.56323Z" fill="white"/>
</mask>
<g mask="url(#mask0_761_3955)">
<path d="M5.45137 13.5625C5.45137 13.1209 5.09297 12.7625 4.65137 12.7625C2.44497 12.7625 0.651367 14.5577 0.651367 16.7625V18.3625C0.651367 19.6857 1.72817 20.7625 3.05137 20.7625H4.65137C5.09297 20.7625 5.45137 20.4041 5.45137 19.9625C5.45137 19.5209 5.09297 19.1625 4.65137 19.1625V14.3625C5.09297 14.3625 5.45137 14.0041 5.45137 13.5625Z" fill="white"/>
<path d="M35.051 12.7625C34.6094 12.7625 34.251 13.1209 34.251 13.5625C34.251 14.0041 34.6094 14.3625 35.051 14.3625V19.1625C34.6094 19.1625 34.251 19.5209 34.251 19.9625C34.251 20.4041 34.6094 20.7625 35.051 20.7625H36.651C37.9742 20.7625 39.051 19.6857 39.051 18.3625V16.7625C39.051 14.5577 37.2574 12.7625 35.051 12.7625Z" fill="white"/>
<path d="M14.2518 35.1626C13.8102 35.1626 13.4518 35.521 13.4518 35.9626H8.65176C8.65176 35.521 8.29336 35.1626 7.85176 35.1626C7.41016 35.1626 7.05176 35.521 7.05176 35.9626V37.5626C7.05176 38.8858 8.12856 39.9626 9.45176 39.9626H12.6518C13.975 39.9626 15.0518 38.8858 15.0518 37.5626V35.9626C15.0518 35.521 14.6934 35.1626 14.2518 35.1626Z" fill="white"/>
<path d="M31.8514 35.1626C31.4098 35.1626 31.0514 35.521 31.0514 35.9626H26.2514C26.2514 35.521 25.893 35.1626 25.4514 35.1626C25.0098 35.1626 24.6514 35.521 24.6514 35.9626V37.5626C24.6514 38.8858 25.7282 39.9626 27.0514 39.9626H30.2514C31.5746 39.9626 32.6514 38.8858 32.6514 37.5626V35.9626C32.6514 35.521 32.293 35.1626 31.8514 35.1626Z" fill="white"/>
<path d="M31.8515 1.5625H7.85156C5.64516 1.5625 3.85156 3.3577 3.85156 5.5625V32.7626C3.85156 34.9674 5.64516 36.7626 7.85156 36.7626H31.8515C34.0579 36.7626 35.8515 34.9674 35.8515 32.7626V5.5625C35.8515 3.3577 34.0579 1.5625 31.8515 1.5625ZM11.0516 4.7625H28.6515C29.9747 4.7625 31.0515 5.8393 31.0515 7.1625C31.0515 8.4857 29.9747 9.5625 28.6515 9.5625H11.0516C9.72836 9.5625 8.65156 8.4857 8.65156 7.1625C8.65156 5.8393 9.72836 4.7625 11.0516 4.7625ZM11.0516 31.9626C9.72836 31.9626 8.65156 30.8858 8.65156 29.5626C8.65156 28.2394 9.72836 27.1626 11.0516 27.1626C12.3748 27.1626 13.4516 28.2394 13.4516 29.5626C13.4516 30.8858 12.3748 31.9626 11.0516 31.9626ZM28.6515 31.9626C27.3283 31.9626 26.2515 30.8858 26.2515 29.5626C26.2515 28.2394 27.3283 27.1626 28.6515 27.1626C29.9747 27.1626 31.0515 28.2394 31.0515 29.5626C31.0515 30.8858 29.9747 31.9626 28.6515 31.9626ZM32.6515 21.5626C32.6515 22.8858 31.5747 23.9626 30.2515 23.9626H9.45156C8.12836 23.9626 7.05156 22.8858 7.05156 21.5626V13.5625C7.05156 12.2393 8.12836 11.1625 9.45156 11.1625H30.2515C31.5747 11.1625 32.6515 12.2393 32.6515 13.5625V21.5626Z" fill="white"/>
</g>
</svg>
