<svg width="13" height="12" viewBox="0 0 13 12" fill="none" xmlns="http://www.w3.org/2000/svg">
<path d="M2.80239 8.92043C2.62712 8.92043 2.48501 8.78925 2.48501 8.62747C2.48501 8.46568 2.62712 8.3345 2.80239 8.3345H2.82143C2.9967 8.3345 3.13881 8.46568 3.13881 8.62747C3.13881 8.78925 2.9967 8.92043 2.82143 8.92043H2.80239ZM11.4282 8.3345H4.05201C3.87674 8.3345 3.73463 8.46568 3.73463 8.62747C3.73463 8.78925 3.87674 8.92043 4.05201 8.92043H11.4282C11.8259 8.92043 12.1494 9.21907 12.1494 9.58618C12.1494 9.95328 11.8259 10.2519 11.4282 10.2519H1.57181C1.17411 10.2519 0.850586 9.95328 0.850586 9.58618C0.850586 9.21907 1.17411 8.92043 1.57181 8.92043C1.74708 8.92043 1.88919 8.78925 1.88919 8.62747C1.88919 8.46568 1.74708 8.3345 1.57181 8.3345C0.824129 8.3345 0.21582 8.89601 0.21582 9.58618C0.21582 10.2764 0.824129 10.8379 1.57181 10.8379H11.4282C12.1758 10.8379 12.7842 10.2764 12.7842 9.58618C12.7842 8.89601 12.1759 8.3345 11.4282 8.3345ZM12.7842 6.00024C12.7842 6.69045 12.1759 7.25197 11.4282 7.25197H1.57181C0.824129 7.25194 0.21582 6.69043 0.21582 6.00024C0.21582 5.31005 0.824129 4.74854 1.57181 4.74854H11.4282C12.1759 4.74854 12.7842 5.31005 12.7842 6.00024ZM12.1494 6.00024C12.1494 5.63314 11.8259 5.33447 11.4282 5.33447H1.57181C1.17411 5.33447 0.850586 5.63314 0.850586 6.00024C0.850586 6.36736 1.17411 6.66603 1.57181 6.66603H11.4282C11.8259 6.666 12.1494 6.36734 12.1494 6.00024ZM10.1786 1.74854H10.1976C10.3729 1.74854 10.515 1.61738 10.515 1.45557C10.515 1.29378 10.3729 1.1626 10.1976 1.1626H10.1786C10.0033 1.1626 9.86119 1.29378 9.86119 1.45557C9.86119 1.61738 10.0033 1.74854 10.1786 1.74854ZM1.57181 3.666H11.4282C12.1758 3.666 12.7842 3.10449 12.7842 2.4143C12.7842 1.72411 12.1758 1.1626 11.4282 1.1626C11.2529 1.1626 11.1108 1.29378 11.1108 1.45557C11.1108 1.61738 11.2529 1.74854 11.4282 1.74854C11.8259 1.74854 12.1494 2.0472 12.1494 2.4143C12.1494 2.7814 11.8259 3.08007 11.4282 3.08007H1.57181C1.17411 3.08007 0.850586 2.7814 0.850586 2.4143C0.850586 2.0472 1.17411 1.74854 1.57181 1.74854H8.94799C9.12326 1.74854 9.26537 1.61738 9.26537 1.45557C9.26537 1.29378 9.12326 1.1626 8.94799 1.1626H1.57181C0.824129 1.1626 0.21582 1.72409 0.21582 2.4143C0.21582 3.10451 0.824129 3.666 1.57181 3.666Z" fill="black"/>
</svg>
