<svg width="29" height="28" viewBox="0 0 29 28" fill="none" xmlns="http://www.w3.org/2000/svg">
<path d="M7.7668 0.6C7.7668 0.44087 7.70358 0.288258 7.59106 0.175736C7.47854 0.0632141 7.32593 0 7.1668 0C6.79028 0.000106586 6.41879 0.0864078 6.08078 0.25229C5.74278 0.418173 5.44723 0.659234 5.2168 0.957H7.6498C7.72601 0.853593 7.76702 0.728456 7.7668 0.6Z" fill="#2B2B6E"/>
<path d="M15.6359 0.6C15.6355 0.441016 15.5721 0.28868 15.4597 0.17626C15.3473 0.0638414 15.1949 0.000474818 15.0359 0C14.6594 0.000106586 14.2879 0.0864078 13.9499 0.25229C13.6119 0.418173 13.3164 0.659234 13.0859 0.957H15.5189C15.5951 0.853593 15.6362 0.728456 15.6359 0.6Z" fill="#2B2B6E"/>
<path d="M23.5021 0.6C23.5021 0.44087 23.4389 0.288258 23.3264 0.175736C23.2139 0.0632141 23.0613 0 22.9021 0C22.5256 0.000106586 22.1541 0.0864078 21.8161 0.25229C21.4781 0.418173 21.1826 0.659234 20.9521 0.957H23.3851C23.4614 0.853593 23.5024 0.728456 23.5021 0.6Z" fill="#2B2B6E"/>
<path d="M25.683 0.957031H23.385C23.3291 1.03251 23.2563 1.09382 23.1724 1.13602C23.0885 1.17823 22.9959 1.20015 22.902 1.20003C22.565 1.20003 22.2419 1.33389 22.0036 1.57215C21.7654 1.81042 21.6315 2.13357 21.6315 2.47053C21.6315 2.80749 21.7654 3.13065 22.0036 3.36891C22.2419 3.60718 22.565 3.74103 22.902 3.74103C23.0611 3.74103 23.2137 3.80425 23.3263 3.91677C23.4388 4.02929 23.502 4.1819 23.502 4.34103C23.502 4.50016 23.4388 4.65277 23.3263 4.7653C23.2137 4.87782 23.0611 4.94103 22.902 4.94103C22.4399 4.941 21.9871 4.8113 21.595 4.56668C21.203 4.32207 20.8874 3.97235 20.6843 3.55729C20.4811 3.14224 20.3985 2.6785 20.4458 2.21883C20.4932 1.75916 20.6685 1.32198 20.952 0.957031H15.519C15.4629 1.0323 15.3901 1.09345 15.3062 1.13564C15.2224 1.17782 15.1299 1.19987 15.036 1.20003C14.8692 1.20003 14.7039 1.23289 14.5498 1.29674C14.3957 1.36059 14.2556 1.45418 14.1376 1.57215C14.0196 1.69013 13.9261 1.83019 13.8622 1.98433C13.7984 2.13848 13.7655 2.30369 13.7655 2.47053C13.7655 2.63738 13.7984 2.80259 13.8622 2.95673C13.9261 3.11087 14.0196 3.25093 14.1376 3.36891C14.2556 3.48689 14.3957 3.58047 14.5498 3.64432C14.7039 3.70817 14.8692 3.74103 15.036 3.74103C15.1951 3.74103 15.3477 3.80425 15.4603 3.91677C15.5728 4.02929 15.636 4.1819 15.636 4.34103C15.636 4.50016 15.5728 4.65277 15.4603 4.7653C15.3477 4.87782 15.1951 4.94103 15.036 4.94103C14.3812 4.94008 13.7534 4.67975 13.2901 4.21701C12.8268 3.75427 12.5657 3.12683 12.564 2.47203C12.5633 1.92281 12.7472 1.38927 13.086 0.957031H7.65C7.59412 1.03251 7.52131 1.09382 7.43742 1.13602C7.35353 1.17823 7.26091 1.20015 7.167 1.20003C6.83004 1.20003 6.50689 1.33389 6.26862 1.57215C6.03036 1.81042 5.8965 2.13357 5.8965 2.47053C5.8965 2.80749 6.03036 3.13065 6.26862 3.36891C6.50689 3.60718 6.83004 3.74103 7.167 3.74103C7.32613 3.74103 7.47874 3.80425 7.59126 3.91677C7.70379 4.02929 7.767 4.1819 7.767 4.34103C7.767 4.50016 7.70379 4.65277 7.59126 4.7653C7.47874 4.87782 7.32613 4.94103 7.167 4.94103C6.7049 4.941 6.25207 4.8113 5.86002 4.56668C5.46797 4.32207 5.15243 3.97235 4.94928 3.55729C4.74613 3.14224 4.66352 2.6785 4.71085 2.21883C4.75817 1.75916 4.93354 1.32198 5.217 0.957031H2.517C1.84969 0.957825 1.20995 1.22326 0.738089 1.69512C0.266232 2.16698 0.00079394 2.80672 0 3.47403V6.72903H28.2V3.47403C28.1992 2.80672 27.9338 2.16698 27.4619 1.69512C26.9901 1.22326 26.3503 0.957825 25.683 0.957031Z" fill="#2B2B6E"/>
<path d="M14.0399 18.3817C14.0597 18.3786 14.0798 18.3765 14.0999 18.3754C14.1226 18.3764 14.1452 18.3787 14.1677 18.3823C15.1026 18.3557 15.9911 17.9687 16.6475 17.3024C17.3038 16.6361 17.6773 15.7419 17.69 14.8066V12.769H10.5098V14.8066C10.5141 15.7457 10.886 16.6458 11.5458 17.314C12.2056 17.9822 13.1009 18.3655 14.0399 18.3817Z" fill="#2B2B6E"/>
<path d="M0 24.9092C0.00079394 25.5765 0.266232 26.2163 0.738089 26.6881C1.20995 27.16 1.84969 27.4254 2.517 27.4262H25.683C26.3503 27.4254 26.9901 27.16 27.4619 26.6881C27.9338 26.2163 28.1992 25.5765 28.2 24.9092V7.9292H0V24.9092ZM7.77 14.1542C7.76972 14.0753 7.78505 13.9972 7.81511 13.9243C7.84516 13.8513 7.88935 13.7851 7.94512 13.7293C8.00089 13.6735 8.06714 13.6294 8.14006 13.5993C8.21298 13.5693 8.29113 13.5539 8.37 13.5542H9.309V12.1682C9.30947 12.0092 9.37284 11.8569 9.48526 11.7445C9.59768 11.632 9.75002 11.5687 9.909 11.5682H18.291C18.45 11.5687 18.6023 11.632 18.7147 11.7445C18.8272 11.8569 18.8905 12.0092 18.891 12.1682V13.5542H19.83C19.9089 13.5539 19.987 13.5693 20.0599 13.5993C20.1329 13.6294 20.1991 13.6735 20.2549 13.7293C20.3107 13.7851 20.3548 13.8513 20.3849 13.9243C20.4149 13.9972 20.4303 14.0753 20.43 14.1542V16.2542C20.43 16.4133 20.3668 16.5659 20.2543 16.6785C20.1417 16.791 19.9891 16.8542 19.83 16.8542C19.6709 16.8542 19.5183 16.791 19.4057 16.6785C19.2932 16.5659 19.23 16.4133 19.23 16.2542V14.7542H18.891V14.8082C18.8886 15.9726 18.4617 17.0961 17.6901 17.9682C16.9186 18.8403 15.8554 19.401 14.7 19.5452V20.9072H15.786C15.9451 20.9072 16.0977 20.9704 16.2103 21.0829C16.3228 21.1955 16.386 21.3481 16.386 21.5072C16.386 21.6663 16.3228 21.8189 16.2103 21.9315C16.0977 22.044 15.9451 22.1072 15.786 22.1072H12.417C12.2579 22.1072 12.1053 22.044 11.9927 21.9315C11.8802 21.8189 11.817 21.6663 11.817 21.5072C11.817 21.3481 11.8802 21.1955 11.9927 21.0829C12.1053 20.9704 12.2579 20.9072 12.417 20.9072H13.5V19.5422C12.3458 19.3964 11.284 18.8356 10.5129 17.9645C9.74172 17.0935 9.31381 15.9716 9.309 14.8082V14.7542H8.97V16.2542C8.97 16.4133 8.90679 16.5659 8.79426 16.6785C8.68174 16.791 8.52913 16.8542 8.37 16.8542C8.21087 16.8542 8.05826 16.791 7.94574 16.6785C7.83321 16.5659 7.77 16.4133 7.77 16.2542V14.1542Z" fill="#2B2B6E"/>
</svg>
