<svg width="15" height="15" viewBox="0 0 15 15" fill="none" xmlns="http://www.w3.org/2000/svg">
<mask id="mask0_761_1821" style="mask-type:luminance" maskUnits="userSpaceOnUse" x="0" y="0" width="15" height="15">
<path d="M0 0H15V15H0V0Z" fill="white"/>
</mask>
<g mask="url(#mask0_761_1821)">
<path d="M12.1875 13.7495H2.8125C1.95063 13.7495 1.25 13.0483 1.25 12.187V1.56201C1.25 0.70076 1.95063 -0.000488281 2.8125 -0.000488281H12.1875C13.0494 -0.000488281 13.75 0.70076 13.75 1.56201V12.187C13.75 13.0483 13.0494 13.7495 12.1875 13.7495ZM2.8125 0.62451C2.29562 0.62451 1.875 1.04514 1.875 1.56201V12.187C1.875 12.7039 2.29562 13.1245 2.8125 13.1245H12.1875C12.7044 13.1245 13.125 12.7039 13.125 12.187V1.56201C13.125 1.04514 12.7044 0.62451 12.1875 0.62451H2.8125Z" fill="black"/>
<path d="M1.5625 7.49954H0.937502C0.420627 7.49954 0 7.07891 0 6.56204V5.93704C0 5.07576 0.700627 4.37451 1.5625 4.37451C1.735 4.37451 1.875 4.51451 1.875 4.68701C1.875 4.85951 1.735 4.99951 1.5625 4.99951C1.04563 4.99951 0.625002 5.42014 0.625002 5.93704V6.56204C0.625002 6.73454 0.765627 6.87454 0.937502 6.87454H1.5625C1.735 6.87454 1.875 7.01454 1.875 7.18704C1.875 7.35954 1.735 7.49954 1.5625 7.49954Z" fill="black"/>
<path d="M14.0625 7.49954H13.4375C13.265 7.49954 13.125 7.35954 13.125 7.18704C13.125 7.01454 13.265 6.87454 13.4375 6.87454H14.0625C14.2344 6.87454 14.375 6.73454 14.375 6.56204V5.93704C14.375 5.42014 13.9544 4.99951 13.4375 4.99951C13.265 4.99951 13.125 4.85951 13.125 4.68701C13.125 4.51451 13.265 4.37451 13.4375 4.37451C14.2994 4.37451 15 5.07576 15 5.93704V6.56204C15 7.07891 14.5794 7.49954 14.0625 7.49954Z" fill="black"/>
<path d="M4.0625 11.8745C3.54562 11.8745 3.125 11.4539 3.125 10.937C3.125 10.4201 3.54562 9.99951 4.0625 9.99951C4.57938 9.99951 5 10.4201 5 10.937C5 11.4539 4.57938 11.8745 4.0625 11.8745ZM4.0625 10.6245C3.89062 10.6245 3.75 10.7645 3.75 10.937C3.75 11.1095 3.89062 11.2495 4.0625 11.2495C4.23438 11.2495 4.375 11.1095 4.375 10.937C4.375 10.7645 4.23438 10.6245 4.0625 10.6245Z" fill="black"/>
<path d="M10.9375 11.8745C10.4206 11.8745 10 11.4539 10 10.937C10 10.4201 10.4206 9.99951 10.9375 9.99951C11.4544 9.99951 11.875 10.4201 11.875 10.937C11.875 11.4539 11.4544 11.8745 10.9375 11.8745ZM10.9375 10.6245C10.7656 10.6245 10.625 10.7645 10.625 10.937C10.625 11.1095 10.7656 11.2495 10.9375 11.2495C11.1094 11.2495 11.25 11.1095 11.25 10.937C11.25 10.7645 11.1094 10.6245 10.9375 10.6245Z" fill="black"/>
<path d="M4.6875 14.9995H3.4375C2.92062 14.9995 2.5 14.5789 2.5 14.062V13.437C2.5 13.2645 2.64 13.1245 2.8125 13.1245C2.985 13.1245 3.125 13.2645 3.125 13.437V14.062C3.125 14.2345 3.26562 14.3745 3.4375 14.3745H4.6875C4.85938 14.3745 5 14.2345 5 14.062V13.437C5 13.2645 5.14 13.1245 5.3125 13.1245C5.485 13.1245 5.625 13.2645 5.625 13.437V14.062C5.625 14.5789 5.20438 14.9995 4.6875 14.9995Z" fill="black"/>
<path d="M11.5625 14.9995H10.3125C9.79562 14.9995 9.375 14.5789 9.375 14.062V13.437C9.375 13.2645 9.515 13.1245 9.6875 13.1245C9.86 13.1245 10 13.2645 10 13.437V14.062C10 14.2345 10.1406 14.3745 10.3125 14.3745H11.5625C11.7344 14.3745 11.875 14.2345 11.875 14.062V13.437C11.875 13.2645 12.015 13.1245 12.1875 13.1245C12.36 13.1245 12.5 13.2645 12.5 13.437V14.062C12.5 14.5789 12.0794 14.9995 11.5625 14.9995Z" fill="black"/>
<path d="M10.9375 3.12451H4.0625C3.54562 3.12451 3.125 2.70389 3.125 2.18701C3.125 1.67014 3.54562 1.24951 4.0625 1.24951H10.9375C11.4544 1.24951 11.875 1.67014 11.875 2.18701C11.875 2.70389 11.4544 3.12451 10.9375 3.12451ZM4.0625 1.87451C3.89062 1.87451 3.75 2.01451 3.75 2.18701C3.75 2.35951 3.89062 2.49951 4.0625 2.49951H10.9375C11.1094 2.49951 11.25 2.35951 11.25 2.18701C11.25 2.01451 11.1094 1.87451 10.9375 1.87451H4.0625Z" fill="black"/>
<path d="M11.5625 8.74954H3.4375C2.92062 8.74954 2.5 8.32891 2.5 7.81204V4.68701C2.5 4.17014 2.92062 3.74951 3.4375 3.74951H11.5625C12.0794 3.74951 12.5 4.17014 12.5 4.68701V7.81204C12.5 8.32891 12.0794 8.74954 11.5625 8.74954ZM3.4375 4.37451C3.26562 4.37451 3.125 4.51451 3.125 4.68701V7.81204C3.125 7.98454 3.26562 8.12454 3.4375 8.12454H11.5625C11.7344 8.12454 11.875 7.98454 11.875 7.81204V4.68701C11.875 4.51451 11.7344 4.37451 11.5625 4.37451H3.4375Z" fill="black"/>
</g>
</svg>
