<svg width="12" height="15" viewBox="0 0 12 15" fill="none" xmlns="http://www.w3.org/2000/svg">
<path d="M10.2492 11.5827H9.33431C9.23414 11.5824 9.13677 11.5503 9.05681 11.4911C8.97685 11.4319 8.91861 11.3489 8.89083 11.2545L7.3201 5.86195C7.29632 5.75914 7.24521 5.66433 7.17198 5.58716L10.1469 2.86985C10.1982 2.821 10.2279 2.75439 10.2297 2.68431C10.2314 2.61423 10.2052 2.54625 10.1564 2.49495C10.1077 2.44365 10.0405 2.41311 9.96907 2.40988C9.89767 2.40664 9.82782 2.43097 9.7745 2.47765L6.62825 5.35144C6.49009 5.38826 6.30376 5.37232 6.13459 5.41347C5.63464 5.55177 4.98249 5.39394 4.8149 4.90934C4.78516 4.81484 4.77903 4.71471 4.79702 4.61739C4.87578 4.40166 4.88308 4.16705 4.81787 3.94701C4.75267 3.72697 4.6183 3.53274 4.43392 3.39202L7.54645 0.457074C7.59689 0.407448 7.6255 0.340415 7.62615 0.270344C7.6268 0.200273 7.59943 0.132743 7.54991 0.0822299C7.50039 0.0317166 7.43267 0.00224117 7.36126 0.000122608C7.28985 -0.00199596 7.22043 0.0234108 7.16789 0.0708964L3.8123 3.2351C3.58316 3.24724 3.36622 3.34022 3.20147 3.49689L0.635094 6.01415C0.631722 6.01584 0.628978 6.01854 0.627253 6.02184L0.293189 6.34952C0.10537 6.53544 0 6.78658 0 7.04831C0 7.31004 0.10537 7.56118 0.293189 7.7471L7.17778 14.4995C7.33914 14.6586 7.53111 14.7849 7.74255 14.8708C7.95399 14.9567 8.1807 15.0006 8.40957 15H10.4941C12.7136 14.907 12.3507 11.5528 10.2492 11.5827ZM6.2214 5.94253C6.37581 5.90682 6.53505 5.8956 6.69307 5.9093C6.74756 5.92595 6.78487 5.93831 6.79696 6.01738L6.22035 6.56286C6.16975 6.61252 6.14103 6.67966 6.14037 6.74986C6.13971 6.82007 6.16716 6.88772 6.21683 6.93828C6.26649 6.98883 6.3344 7.01826 6.40595 7.02023C6.4775 7.02219 6.54698 6.99654 6.59945 6.94879L6.96701 6.60104L7.16396 7.2771L6.62102 7.80964C6.57138 7.8602 6.54396 7.92785 6.54464 7.99803C6.54532 8.06822 6.57405 8.13534 6.62465 8.18497C6.67526 8.2346 6.7437 8.26277 6.81526 8.26343C6.88682 8.26409 6.95578 8.23718 7.00733 8.18849L7.33564 7.86647L7.54884 8.59825L7.0253 9.11174C6.99994 9.13661 6.97981 9.16614 6.96608 9.19865C6.95235 9.23115 6.94529 9.26599 6.94529 9.30117C6.94529 9.33635 6.95235 9.37118 6.96608 9.40369C6.97981 9.43619 6.99994 9.46572 7.0253 9.49059C7.29864 9.74084 7.53768 9.34226 7.72053 9.1876L7.93375 9.91945L7.42961 10.4138C7.38005 10.4644 7.35269 10.532 7.3534 10.6022C7.35412 10.6723 7.38284 10.7394 7.43342 10.789C7.484 10.8386 7.55238 10.8667 7.6239 10.8674C7.69542 10.8681 7.76436 10.8413 7.81592 10.7927L8.10543 10.5088L8.36558 11.4017C8.37245 11.4253 8.38321 11.447 8.39178 11.4697C8.29137 11.5091 8.18375 11.5276 8.07569 11.5242C7.96762 11.5208 7.86144 11.4955 7.76384 11.4498C7.66624 11.4042 7.57932 11.3393 7.50856 11.2591C7.43779 11.1789 7.38472 11.0852 7.35266 10.9839L5.70008 5.99755C5.87502 5.99204 6.04928 5.97364 6.2214 5.94253ZM2.87488 4.57498C3.18166 5.12092 3.37099 5.72278 3.43114 6.34335C3.4913 6.96392 3.421 7.59 3.2246 8.18286L1.21055 6.20743L2.87488 4.57498ZM10.4941 14.4641H8.40957C8.25247 14.4646 8.09686 14.4344 7.95172 14.3754C7.80659 14.3165 7.67482 14.2298 7.56404 14.1206L0.679442 7.36825C0.593487 7.28311 0.545269 7.16814 0.545269 7.04832C0.545269 6.92851 0.593487 6.81353 0.679442 6.72839L0.824303 6.58631L7.85869 13.4857C7.95994 13.5856 8.08038 13.6647 8.21304 13.7186C8.34569 13.7725 8.48794 13.8001 8.63152 13.7997H11.4001C11.3418 13.9911 11.2222 14.1591 11.0591 14.2788C10.8959 14.3984 10.6978 14.4634 10.4941 14.4641ZM8.63152 13.2638C8.55973 13.264 8.48861 13.2503 8.42228 13.2233C8.35595 13.1964 8.29574 13.1568 8.24512 13.1068L3.65209 8.60205C4.16916 7.50684 4.14934 5.44577 3.27297 4.18441C3.42453 4.05556 3.65262 3.72981 3.8848 3.75541C4.28881 3.75381 4.38215 4.22562 4.27254 4.46605C4.22289 4.66733 4.23083 4.87814 4.29549 5.07528C4.36362 5.25431 4.46885 5.41754 4.60455 5.55467C4.74025 5.69179 4.90347 5.79983 5.08389 5.87195L6.83312 11.1498C6.89268 11.3314 6.99188 11.4981 7.12382 11.6382C7.25577 11.7784 7.41728 11.8886 7.5971 11.9613C7.77692 12.034 7.97074 12.0673 8.16504 12.059C8.35934 12.0507 8.54946 12.0009 8.72215 11.9132C9.05747 12.22 9.83467 12.0953 10.2492 12.1186C10.5611 12.1192 10.8604 12.2392 11.0832 12.4532C11.3061 12.6672 11.4349 12.958 11.4421 13.2638H8.63152Z" fill="black"/>
</svg>
