<svg width="30" height="30" viewBox="0 0 30 30" fill="none" xmlns="http://www.w3.org/2000/svg">
<rect width="30" height="30" rx="7" fill="#2B2B6E"/>
<path d="M5.02414 20.1546C6.03231 20.9606 6.85475 21.9746 7.38537 23.1446L8.20782 25.0686C8.42006 25.5366 9.10986 25.5366 9.3221 25.0686L10.118 23.2226C10.6486 22.0266 11.4976 20.9866 12.5323 20.1546C13.8323 19.0886 14.6548 17.5026 14.6548 15.7086C14.6548 12.4066 11.8425 9.75457 8.42006 9.93657C5.31598 10.0926 2.84863 12.6666 2.84863 15.7086C2.87516 17.5026 3.72414 19.1146 5.02414 20.1546ZM8.76496 11.9126C10.7813 11.9126 12.4527 13.5246 12.4527 15.5266C12.4527 17.5026 10.8078 19.1406 8.76496 19.1406C6.74863 19.1406 5.0772 17.5286 5.0772 15.5266C5.10373 13.5246 6.74863 11.9126 8.76496 11.9126Z" fill="white"/>
<path d="M17.7322 14.2528C18.7403 15.0588 19.5893 16.0728 20.0934 17.2428L20.9158 19.1668C21.1281 19.6348 21.8179 19.6348 22.0301 19.1668L22.826 17.3208C23.3566 16.1248 24.2056 15.0848 25.2403 14.2528C26.5403 13.1868 27.3628 11.6008 27.3628 9.80684C27.3628 6.47884 24.5505 3.82684 21.1281 4.00884C18.024 4.16484 15.5566 6.73884 15.5566 9.78084C15.5566 11.5748 16.4056 13.1868 17.7322 14.2528ZM21.473 6.01084C23.5158 6.01084 25.1607 7.62284 25.1607 9.62484C25.1607 11.6008 23.5158 13.2388 21.473 13.2388C19.4566 13.2388 17.8117 11.6268 17.8117 9.62484C17.8117 7.62284 19.4566 6.01084 21.473 6.01084Z" fill="white"/>
<path d="M24.9755 26.3165H23.2245C24.2061 26.1865 24.949 25.3545 24.949 24.3665C24.949 23.2745 24.0469 22.3905 22.9327 22.3905H16.1143C15.5041 22.3905 15 21.8965 15 21.2985C15 20.7005 15.5041 20.2065 16.1143 20.2065H19.1122C19.6694 20.4665 20.4388 20.5965 21.3143 20.5965C23.0388 20.5965 24.4184 19.9725 24.4184 19.2185C24.4184 18.7505 23.8878 18.3345 23.0388 18.0745L22.4816 19.3485C22.2959 19.7645 21.898 20.0245 21.4469 20.0245C20.9959 20.0245 20.598 19.7645 20.4122 19.3485L19.8551 18.0225C19.2714 18.1525 18.7939 18.3865 18.502 18.6465H16.1408C14.6551 18.6465 13.4612 19.8425 13.4612 21.2985C13.4612 22.7545 14.6551 23.9245 16.1408 23.9245H22.9592C23.198 23.9245 23.4102 24.1065 23.4102 24.3665C23.4102 24.6005 23.2245 24.8085 22.9592 24.8085H11.7367C11.498 24.4965 10.9939 24.2105 10.3571 24.0545L9.82653 25.3025C9.64082 25.7185 9.24286 25.9785 8.79184 25.9785C8.34082 25.9785 7.91633 25.7185 7.75714 25.3025L7.22653 24.0545C6.29796 24.2885 5.68775 24.7305 5.68775 25.2245C5.68775 25.6925 6.19184 26.0825 6.98775 26.3425H2.26531C2.10612 26.3425 2 26.4465 2 26.6025C2 26.7585 2.10612 26.8625 2.26531 26.8625H24.9755C25.1347 26.8625 25.2408 26.7585 25.2408 26.6025C25.2408 26.4465 25.1082 26.3165 24.9755 26.3165Z" fill="white"/>
<path d="M27.7344 26.3164H25.9303C25.7712 26.3164 25.665 26.4204 25.665 26.5764C25.665 26.7324 25.7712 26.8364 25.9303 26.8364H27.7344C27.8936 26.8364 27.9997 26.7324 27.9997 26.5764C27.9997 26.4204 27.8936 26.3164 27.7344 26.3164Z" fill="white"/>
<path d="M7.80976 16.1765H9.7465L10.1445 17.0865H10.8608L9.0567 13.1865H8.47303L6.66895 17.0865H7.38527L7.80976 16.1765ZM8.76486 13.9405L9.50772 15.6045H8.04854L8.76486 13.9405Z" fill="white"/>
<path d="M22.6939 11.2888C22.9327 11.1068 23.0653 10.8468 23.0653 10.5088C23.0653 10.2748 23.0123 10.0668 22.8796 9.9108C22.747 9.7548 22.5878 9.6248 22.349 9.5728C22.5347 9.4948 22.6939 9.3908 22.8 9.2348C22.9062 9.0788 22.9592 8.8968 22.9592 8.6888C22.9592 8.3768 22.8531 8.1168 22.6143 7.9348C22.3755 7.7528 22.0572 7.6748 21.6592 7.6748H19.9082V11.5748H21.7123C22.1368 11.5748 22.4551 11.4708 22.6939 11.2888ZM20.598 8.2208H21.5266C21.7919 8.2208 21.9776 8.2728 22.0837 8.3508C22.2164 8.4548 22.2694 8.5848 22.2694 8.7668C22.2694 9.1308 22.0307 9.3128 21.5266 9.3128H20.598V8.2208ZM20.598 11.0028V9.8588H21.6327C21.898 9.8588 22.0837 9.9108 22.2164 9.9888C22.349 10.0928 22.4021 10.2228 22.4021 10.4308C22.4021 10.6388 22.349 10.7688 22.2164 10.8728C22.0837 10.9768 21.898 11.0028 21.6327 11.0028H20.598Z" fill="white"/>
</svg>
