<svg width="15" height="15" viewBox="0 0 15 15" fill="none" xmlns="http://www.w3.org/2000/svg">
<path d="M7.5 0C5.51088 0 3.60322 0.790176 2.1967 2.1967C0.790176 3.60322 0 5.51088 0 7.5C0.36875 17.4406 14.635 17.4313 15 7.5C15 5.51088 14.2098 3.60322 12.8033 2.1967C11.3968 0.790176 9.48912 0 7.5 0ZM7.5 1.25C8.6452 1.25083 9.7682 1.56598 10.7466 2.1611C11.725 2.75622 12.5213 3.60848 13.0487 4.625L8.64313 5.50625C7.8593 5.66383 7.05195 5.66383 6.26813 5.50625L1.9425 4.6425C2.46821 3.62139 3.26486 2.7647 4.24514 2.1663C5.22542 1.5679 6.35151 1.25089 7.5 1.25ZM5.625 13.4625C4.47344 13.0982 3.45171 12.4088 2.68274 11.4774C1.91377 10.546 1.43034 9.41221 1.29062 8.2125L3.72813 8.7C3.99821 8.75382 4.25308 8.8666 4.47455 9.03027C4.69603 9.19395 4.87865 9.40449 5.00938 9.64688L5.39937 10.3675C5.54738 10.6413 5.62492 10.9475 5.625 11.2588V13.4625ZM9.375 13.4625V11.2588C9.37506 10.9471 9.45283 10.6403 9.60125 10.3663L9.99125 9.645C10.1223 9.40289 10.305 9.1926 10.5264 9.02906C10.7478 8.86552 11.0026 8.75275 11.2725 8.69875L13.71 8.21125C13.5705 9.41126 13.087 10.5454 12.3179 11.477C11.5488 12.4087 10.5268 13.0982 9.375 13.4625ZM11.0275 7.47312C10.5776 7.56256 10.1529 7.7502 9.78386 8.02267C9.41481 8.29514 9.11045 8.64572 8.8925 9.04938L8.5 9.77063C8.25347 10.2279 8.1246 10.7393 8.125 11.2588V13.7188C7.70935 13.76 7.29065 13.76 6.875 13.7188V11.2588C6.8754 10.7393 6.74653 10.2279 6.5 9.77063L6.1075 9.05C5.88969 8.64617 5.58538 8.29543 5.21631 8.02284C4.84724 7.75025 4.42252 7.56254 3.9725 7.47312L1.27625 6.93375C1.30956 6.55853 1.37735 6.18717 1.47875 5.82438L6.02375 6.73312C6.96909 6.92313 7.94279 6.92313 8.88812 6.73312L13.5169 5.8075C13.6206 6.17526 13.6899 6.55189 13.7237 6.9325L11.0275 7.47312Z" fill="black"/>
</svg>
