<svg width="19" height="14" viewBox="0 0 19 14" fill="none" xmlns="http://www.w3.org/2000/svg">
<path d="M0.0255852 10.2544L0.421211 8.75125C0.493399 8.47688 0.594336 8.21656 0.71496 7.96875C0.718086 7.96281 0.720274 7.95687 0.723711 7.95125C1.21621 6.95187 2.07746 6.18906 3.11246 5.81656C2.97621 5.6475 2.8909 5.43531 2.8909 5.20156C2.8909 4.65781 3.3334 4.21531 3.87715 4.21531H9.3934C9.93715 4.21531 10.3796 4.65781 10.3796 5.20156C10.3796 5.64937 10.0778 6.02406 9.66809 6.14406V6.70406C9.66809 6.87688 9.52809 7.01656 9.35559 7.01656H8.72246C8.57152 7.1275 8.20652 7.45187 8.20371 7.99062C8.20652 8.52094 8.6659 8.95281 9.22746 8.95281H9.77184C10.0709 8.95281 10.354 8.82281 10.5487 8.59594L12.2918 6.56875C12.63 6.17594 12.7381 5.62594 12.574 5.13375L11.7284 2.59687H10.5303C10.1028 2.59687 9.75527 2.24937 9.75527 1.82187C9.75527 1.39437 10.1031 1.04656 10.5303 1.04656H12.1706C12.2337 1.04656 12.2943 1.05625 12.3531 1.07062C12.4859 0.459375 13.03 0 13.6803 0H14.4103C14.865 0 15.235 0.37 15.235 0.824687V1.89438C15.235 2.34906 14.865 2.71906 14.4103 2.71906H14.0475L15.6725 7.04688C15.7084 7.14313 15.6953 7.25031 15.6368 7.33469C15.5871 7.40625 15.5096 7.45125 15.4246 7.46375H16.7971C17.8003 7.46375 18.6162 8.27969 18.6162 9.28281C18.6162 9.45562 18.4762 9.59531 18.3037 9.59531C18.0106 9.59531 17.7228 9.63188 17.4409 9.69688C17.6528 10.0603 17.7681 10.4766 17.7681 10.9013C17.7681 12.2181 16.6968 13.2897 15.3796 13.2897C14.1621 13.2897 13.1643 12.3966 13.0115 11.2156C12.925 11.1809 12.8421 11.1356 12.7671 11.0753C12.4931 10.8544 12.3643 10.5025 12.4309 10.1569C12.4634 9.98969 12.54 9.83437 12.6525 9.70719L13.6412 8.59062L13.6109 8.50625L11.2706 11.1103C11.2115 11.1766 11.1268 11.2141 11.0381 11.2141H5.94277C5.78902 12.3834 4.78809 13.29 3.57715 13.29C2.36621 13.29 1.36559 12.3834 1.21184 11.2141H0.764336C0.525585 11.2141 0.30496 11.1056 0.159336 10.9166C0.01371 10.7259 -0.0350399 10.4853 0.0255852 10.2544ZM9.3934 4.84031H3.87715C3.67777 4.84031 3.5159 5.0025 3.5159 5.20156C3.5159 5.40063 3.67809 5.56281 3.87715 5.56281H4.55777H9.3559H9.39371C9.59309 5.56281 9.75496 5.40063 9.75496 5.20156C9.75496 5.0025 9.59277 4.84031 9.3934 4.84031ZM12.1703 1.67125H10.53C10.4471 1.67125 10.38 1.73875 10.38 1.82156C10.38 1.90438 10.4471 1.97156 10.53 1.97156H12.1703C12.2531 1.97156 12.3203 1.90406 12.3203 1.82156C12.3206 1.73875 12.2531 1.67125 12.1703 1.67125ZM14.6096 1.89375V0.824063C14.6096 0.71375 14.52 0.624375 14.41 0.624375H13.68C13.275 0.624375 12.9453 0.95375 12.9453 1.35875C12.9453 1.76375 13.275 2.09344 13.68 2.09344H14.41C14.5203 2.09344 14.6096 2.00375 14.6096 1.89375ZM15.38 12.6638C16.3521 12.6638 17.1434 11.8728 17.1434 10.9003C17.1434 10.5391 17.0259 10.1891 16.8203 9.89437C16.8131 9.8975 16.8056 9.89937 16.7984 9.9025L16.0612 10.2169C16.2365 10.3919 16.3456 10.6334 16.3456 10.9003C16.3456 11.4325 15.9125 11.8656 15.3803 11.8656C14.854 11.8656 14.4268 11.4422 14.4168 10.9188L13.7365 11.2091C13.7096 11.2206 13.6815 11.2259 13.6537 11.2347C13.8087 12.0544 14.5168 12.6638 15.38 12.6638ZM15.0393 10.9003C15.0393 11.0881 15.1921 11.2406 15.3796 11.2406C15.5671 11.2406 15.72 11.0881 15.72 10.9003C15.72 10.7125 15.5671 10.5597 15.3796 10.5597C15.1921 10.5597 15.0393 10.7128 15.0393 10.9003ZM13.045 10.2741C13.0218 10.3941 13.065 10.5112 13.16 10.5881C13.2053 10.6247 13.2575 10.6466 13.3115 10.6556C13.3159 10.6556 13.3196 10.6575 13.3237 10.6578C13.379 10.6647 13.4362 10.6575 13.4909 10.6341L16.5531 9.3275C17.0018 9.13625 17.4715 9.02094 17.9537 8.98312C17.8206 8.46875 17.3528 8.08781 16.7975 8.08781H15.0668C14.974 8.08781 14.8853 8.12781 14.824 8.19719L13.1209 10.1203C13.0821 10.1638 13.0559 10.2172 13.045 10.2741ZM14.1137 8.05594L14.3559 7.78219C14.4271 7.70219 14.5131 7.63969 14.6046 7.58844L14.57 7.46813H14.5425L14.0853 7.97687L14.1137 8.05594ZM14.1709 6.94719C14.23 6.88094 14.3146 6.84344 14.4034 6.84344H14.9287L13.3646 2.67781C13.1271 2.62094 12.9143 2.50312 12.7434 2.33969C12.6462 2.44719 12.5203 2.52594 12.3768 2.56562L13.1671 4.93625C13.4003 5.63594 13.2465 6.41781 12.7659 6.97656L11.0228 9.00375C10.709 9.36844 10.2531 9.57781 9.77184 9.57781H9.22746C8.32277 9.57781 7.58309 8.86719 7.57871 7.97437C7.58434 6.9625 8.43402 6.45531 8.47027 6.43375C8.51809 6.40594 8.57246 6.39125 8.62777 6.39125H9.04371V6.18781H4.5584C3.38559 6.18781 2.31777 6.74969 1.64246 7.64531L3.27965 7.26188C4.07496 7.07594 4.90715 7.2975 5.50496 7.85438C6.21934 8.52063 6.46871 9.545 6.14059 10.465L6.09684 10.5881H10.899L14.1709 6.94719ZM3.57746 12.6638C4.44309 12.6638 5.1634 12.0366 5.31152 11.2128H4.56496C4.43121 11.6334 4.04184 11.9409 3.57746 11.9409C3.11309 11.9409 2.72371 11.6334 2.58996 11.2128H1.8434C1.99152 12.0362 2.71184 12.6638 3.57746 12.6638ZM3.8434 11.2128H3.31121C3.38371 11.2747 3.47465 11.3159 3.57715 11.3159C3.67996 11.3159 3.7709 11.2747 3.8434 11.2128ZM0.654648 10.5338C0.670273 10.5538 0.705273 10.5878 0.764648 10.5878H5.43309L5.55184 10.255C5.79621 9.57031 5.61059 8.8075 5.07871 8.31156C4.63371 7.89656 4.01465 7.73187 3.42215 7.87031L1.20871 8.38875C1.13621 8.55625 1.07371 8.73 1.02621 8.91062L0.926836 9.2875H1.67184C1.84434 9.2875 1.98434 9.42719 1.98434 9.6C1.98434 9.77281 1.84434 9.9125 1.67184 9.9125H0.762148L0.630274 10.4137C0.614962 10.4709 0.639023 10.5134 0.654648 10.5338Z" fill="black"/>
</svg>
