<svg width="21" height="11" viewBox="0 0 21 11" fill="none" xmlns="http://www.w3.org/2000/svg">
<path d="M7.53624 3.18848H5.04464C4.84793 3.18848 4.7168 3.31961 4.7168 3.51632C4.7168 3.71302 4.84793 3.84416 5.04464 3.84416H5.9626V6.17184C5.9626 6.36854 6.09373 6.49968 6.29044 6.49968C6.48714 6.49968 6.61828 6.36854 6.61828 6.17184V3.84416H7.53624C7.73294 3.84416 7.86408 3.71302 7.86408 3.51632C7.86408 3.31961 7.73294 3.18848 7.53624 3.18848Z" fill="black"/>
<path d="M15.9294 3.18848C15.7327 3.18848 15.6016 3.31961 15.6016 3.51632V6.17184C15.6016 6.36854 15.7327 6.49968 15.9294 6.49968C16.1261 6.49968 16.2572 6.36854 16.2572 6.17184V3.51632C16.2572 3.3524 16.0933 3.18848 15.9294 3.18848Z" fill="black"/>
<path d="M13.6015 4.85976L14.5522 3.7451C14.6833 3.61396 14.6506 3.38447 14.5194 3.28612C14.3883 3.15498 14.1588 3.18777 14.0604 3.3189L13.208 4.33521L12.3557 3.3189C12.2245 3.18777 12.0278 3.15498 11.8967 3.28612C11.7655 3.41726 11.7328 3.61396 11.8639 3.7451L12.8146 4.85976L11.7983 5.97442C11.6672 6.10556 11.7 6.33505 11.8311 6.4334C11.9622 6.56454 12.1917 6.53176 12.2901 6.40062L13.1425 5.38431L13.9949 6.40062C14.126 6.53176 14.3227 6.56454 14.4538 6.4334C14.585 6.30227 14.6178 6.10556 14.4866 5.97442L13.6015 4.85976Z" fill="black"/>
<path d="M9.66741 3.4179C9.56905 3.15562 9.17564 3.15562 9.04451 3.4179L8.29047 5.2866L7.96263 6.04063C7.89706 6.20456 7.96263 6.40126 8.12655 6.46683C8.29047 6.5324 8.48717 6.46683 8.55274 6.30291L8.78223 5.74558H9.8969L10.1264 6.30291C10.192 6.46683 10.3887 6.56518 10.5526 6.46683C10.7165 6.40126 10.8149 6.20456 10.7165 6.04063L9.66741 3.4179ZM9.07729 5.08989L9.37235 4.40142L9.66741 5.08989H9.07729Z" fill="black"/>
<path d="M20.9454 10.073L20.3881 8.76158C20.2898 8.53209 20.0603 8.36817 19.798 8.36817H19.3718L18.2899 2.53258C18.0932 1.48349 17.2736 0.66388 16.2245 0.467175C12.4871 -0.155725 8.61858 -0.155725 4.75004 0.467175C3.70095 0.631096 2.84856 1.4507 2.65186 2.53258L1.60276 8.36817H1.17657C0.914292 8.36817 0.684802 8.53209 0.58645 8.76158L0.0291182 10.073C-0.0692345 10.3024 0.0946866 10.5319 0.324176 10.5319H20.6504C20.8799 10.5319 21.0438 10.2697 20.9454 10.073ZM3.30754 2.63093C3.43868 1.84411 4.06158 1.22121 4.8484 1.09008C8.65137 0.467175 12.4543 0.467175 16.1262 1.09008C16.913 1.22121 17.5359 1.84411 17.667 2.63093L18.7161 8.36817H2.25844L3.30754 2.63093ZM0.815939 9.87624L1.17657 9.02386H19.798L20.1586 9.87624H0.815939Z" fill="black"/>
</svg>
