<svg width="18" height="12" viewBox="0 0 18 12" fill="none" xmlns="http://www.w3.org/2000/svg">
<path d="M14.0131 11.4503C13.5586 11.4503 13.1888 11.0804 13.1888 10.626H12.6392C12.6392 11.0804 12.2694 11.4503 11.8149 11.4503C11.3605 11.4503 10.9906 11.0804 10.9906 10.626H10.4411C10.4411 11.0804 10.0712 11.4503 9.61676 11.4503C9.16229 11.4503 8.79245 11.0804 8.79245 10.626H8.24291C8.24291 11.0804 7.87307 11.4503 7.4186 11.4503C6.96413 11.4503 6.59429 11.0804 6.59429 10.626H6.04475C6.04475 11.0804 5.67491 11.4503 5.22045 11.4503C4.76598 11.4503 4.39614 11.0804 4.39614 10.626H3.8466C3.8466 11.0804 3.47676 11.4503 3.02229 11.4503C2.56782 11.4503 2.19798 11.0804 2.19798 10.626H1.64844C1.64844 11.3835 2.26475 11.9998 3.02229 11.9998C3.47318 11.9998 3.87078 11.7784 4.12137 11.4418C4.37196 11.7784 4.76955 11.9998 5.22045 11.9998C5.67134 11.9998 6.06893 11.7784 6.31952 11.4418C6.57012 11.7784 6.96771 11.9998 7.4186 11.9998C7.8695 11.9998 8.26709 11.7784 8.51768 11.4418C8.76827 11.7784 9.16587 11.9998 9.61676 11.9998C10.0677 11.9998 10.4653 11.7784 10.7158 11.4418C10.9664 11.7784 11.364 11.9998 11.8149 11.9998C12.2658 11.9998 12.6634 11.7784 12.914 11.4418C13.1646 11.7784 13.5622 11.9998 14.0131 11.9998C14.7706 11.9998 15.3869 11.3835 15.3869 10.626H14.8374C14.8374 11.0804 14.4675 11.4503 14.0131 11.4503Z" fill="black"/>
<path d="M15.6619 9.52695C15.2074 9.52695 14.8375 9.15711 14.8375 8.70264H14.288C14.288 9.15711 13.9182 9.52695 13.4637 9.52695C13.0092 9.52695 12.6394 9.15711 12.6394 8.70264H12.0898C12.0898 9.46018 12.7062 10.0765 13.4637 10.0765C13.9146 10.0765 14.3122 9.85502 14.5628 9.51843C14.8134 9.85502 15.211 10.0765 15.6619 10.0765C16.4194 10.0765 17.0357 9.46018 17.0357 8.70264H16.4862C16.4862 9.15711 16.1163 9.52695 15.6619 9.52695Z" fill="black"/>
<path d="M8.51785 9.51843C8.76844 9.85502 9.16603 10.0765 9.61693 10.0765C10.3745 10.0765 10.9908 9.46018 10.9908 8.70264H10.4412C10.4412 9.15711 10.0714 9.52695 9.61693 9.52695C9.16246 9.52695 8.79262 9.15711 8.79262 8.70264H8.24308C8.24308 9.15711 7.87324 9.52695 7.41877 9.52695C6.9643 9.52695 6.59446 9.15711 6.59446 8.70264H6.04492C6.04492 9.46018 6.66123 10.0765 7.41877 10.0765C7.86967 10.0765 8.26726 9.85502 8.51785 9.51843Z" fill="black"/>
<path d="M2.47293 9.51843C2.72352 9.85502 3.12111 10.0765 3.57201 10.0765C4.32955 10.0765 4.94586 9.46018 4.94586 8.70264H4.39632C4.39632 9.15711 4.02648 9.52695 3.57201 9.52695C3.11754 9.52695 2.7477 9.15711 2.7477 8.70264H2.19816C2.19816 9.15711 1.82832 9.52695 1.37385 9.52695C0.91938 9.52695 0.54954 9.15711 0.54954 8.70264H0C0 9.46018 0.616309 10.0765 1.37385 10.0765C1.82475 10.0765 2.22234 9.85502 2.47293 9.51843Z" fill="black"/>
<path d="M16.761 2.93262H15.8031L14.5114 1.12436C14.46 1.05209 14.3768 1.00923 14.288 1.00923H12.6394V1.55877H14.1465L15.128 2.93262H9.34217V1.00923C9.34217 0.55476 8.97233 0.18492 8.51787 0.18492C8.0634 0.18492 7.69356 0.55476 7.69356 1.00923V2.93262H7.14402V2.10831C7.14402 1.95664 7.02119 1.83354 6.86925 1.83354H5.19233L6.52304 0.36984L6.11638 0L3.45028 2.93262H2.47293C1.10925 2.93262 0 4.04214 0 5.40555V6.50463C0 6.9591 0.36984 7.32894 0.82431 7.32894H1.19525C1.13425 7.50122 1.09908 7.68559 1.09908 7.87848H1.64862C1.64862 7.27233 2.14156 6.7794 2.7477 6.7794C3.35384 6.7794 3.84678 7.27233 3.84678 7.87848H4.39632C4.39632 7.68559 4.36115 7.50122 4.30015 7.32894H12.7356C12.6746 7.50122 12.6394 7.68559 12.6394 7.87848H13.189C13.189 7.27233 13.6819 6.7794 14.288 6.7794C14.8942 6.7794 15.3871 7.27233 15.3871 7.87848H15.9367C15.9367 7.68559 15.9015 7.50122 15.8405 7.32894H16.2114C16.6659 7.32894 17.0357 6.9591 17.0357 6.50463V3.20739C17.0357 3.05572 16.9129 2.93262 16.761 2.93262ZM16.4862 4.0317H3.84678V3.48216H16.4862V4.0317ZM8.2431 1.00923C8.2431 0.857832 8.36619 0.73446 8.51787 0.73446C8.66954 0.73446 8.79263 0.857832 8.79263 1.00923V2.93262H8.2431V1.00923ZM4.69279 2.38308H6.59448V2.93262H4.19326L4.69279 2.38308ZM2.19816 3.50414V4.58124H0.737757C1.0095 4.01191 1.5519 3.59729 2.19816 3.50414ZM16.2114 6.7794H15.5135C15.2115 6.44308 14.7749 6.22986 14.288 6.22986C13.8011 6.22986 13.3648 6.44308 13.0626 6.7794H3.97317C3.6712 6.44308 3.23459 6.22986 2.7477 6.22986C2.26081 6.22986 1.82447 6.44308 1.52222 6.7794H0.82431C0.672637 6.7794 0.54954 6.65602 0.54954 6.50463V5.40555C0.54954 5.31213 0.558607 5.2209 0.571521 5.13078H2.47293C2.62488 5.13078 2.7477 5.00768 2.7477 4.85601V3.48216H3.29724V4.30647C3.29724 4.45814 3.42006 4.58124 3.57201 4.58124H16.4862V6.50463C16.4862 6.65602 16.3631 6.7794 16.2114 6.7794Z" fill="black"/>
<path d="M14.0137 7.3291H14.5632V7.87864H14.0137V7.3291Z" fill="black"/>
<path d="M2.47266 7.3291H3.0222V7.87864H2.47266V7.3291Z" fill="black"/>
</svg>
