<svg width="45" height="45" viewBox="0 0 45 45" fill="none" xmlns="http://www.w3.org/2000/svg">
<path fill-rule="evenodd" clip-rule="evenodd" d="M33.0843 1.31114C32.2384 0.468999 31.0927 -0.0026293 29.8991 1.10266e-05L15.0015 0.0329701C13.8079 0.0356104 12.6642 0.512309 11.822 1.35819L1.31114 11.9157C0.468999 12.7616 -0.0026293 13.9073 1.10266e-05 15.101L0.0329701 29.9985C0.0356104 31.1921 0.512309 32.3359 1.35819 33.178L11.9157 43.6889C12.7616 44.531 13.9073 45.0027 15.101 45L29.9985 44.9671C31.1921 44.9644 32.3359 44.4877 33.178 43.6418L43.6889 33.0843C44.531 32.2384 45.0027 31.0927 45 29.8991L44.9671 15.0015C44.9644 13.8079 44.4877 12.6642 43.6418 11.822L33.0843 1.31114ZM22.5 13.4989C21.6715 13.4989 20.9998 12.8273 20.9998 11.9987C20.9998 11.1702 21.6715 10.4985 22.5 10.4985C23.3286 10.4985 24.0002 11.1702 24.0002 11.9987C24.0002 12.8273 23.3286 13.4989 22.5 13.4989ZM24.0002 32.2512C24.0002 32.6655 24.336 33.0013 24.7503 33.0013H25.5004C26.3289 33.0013 27.0006 33.6729 27.0006 34.5015C27.0006 35.33 26.3289 36.0017 25.5004 36.0017H24.7503C22.679 36.0017 20.9998 34.3225 20.9998 32.2512V18.7495C20.9998 18.3353 20.664 17.9995 20.2497 17.9995H19.4996C18.6711 17.9995 17.9995 17.3278 17.9995 16.4993C17.9995 15.6707 18.6711 14.9991 19.4996 14.9991H20.2497C22.321 14.9991 24.0002 16.6782 24.0002 18.7495V32.2512Z" fill="black"/>
</svg>
