<svg width="22" height="20" viewBox="0 0 22 20" fill="none" xmlns="http://www.w3.org/2000/svg">
<path d="M0 0.387695V1.6166C0 2.84798 0.830841 3.88806 1.96114 4.20792V17.3066C1.96114 18.7919 3.16963 20.0002 4.65488 20.0002H16.4225C17.9079 20.0002 19.1162 18.7919 19.1162 17.3066V4.20792C20.2465 3.88806 21.0773 2.84798 21.0773 1.6166V0.387695H0ZM11.0565 16.6478C10.9203 16.784 10.7313 16.8622 10.5385 16.8622C10.3462 16.8622 10.1572 16.784 10.0208 16.6478C9.88464 16.5117 9.80606 16.3226 9.80606 16.1298C9.80606 15.937 9.88464 15.748 10.0208 15.6118C10.1572 15.4756 10.346 15.3974 10.5385 15.3974C10.7313 15.3974 10.9203 15.4756 11.0565 15.6118C11.1927 15.7485 11.2713 15.937 11.2713 16.1298C11.2713 16.3226 11.1929 16.5111 11.0565 16.6478ZM17.6514 12.2594H3.42598V4.30997H17.6514V12.2594Z" fill="black"/>
</svg>
