<svg width="48" height="48" viewBox="0 0 48 48" fill="none" xmlns="http://www.w3.org/2000/svg">
<path d="M42.4479 27.0833H28.046C28.0917 27.3379 28.125 27.597 28.125 27.8646C28.125 30.306 26.1393 32.2916 23.6979 32.2916C21.257 32.2916 19.2708 30.306 19.2708 27.8646C19.2708 27.597 19.3041 27.3379 19.3498 27.0833H4.94792C2.21965 27.0833 0 29.303 0 32.0312V42.4479C0 45.1762 2.21965 47.3958 4.94792 47.3958H42.4479C45.1762 47.3958 47.3958 45.1762 47.3958 42.4479V32.0312C47.3958 29.303 45.1762 27.0833 42.4479 27.0833ZM14.3229 43.2291H10.1563C9.72494 43.2291 9.375 42.8792 9.375 42.4479V34.1146C9.375 33.6833 9.72494 33.3333 10.1563 33.3333C10.5876 33.3333 10.9375 33.6833 10.9375 34.1146V41.6666H14.3229C14.7542 41.6666 15.1042 42.0166 15.1042 42.4479C15.1042 42.8792 14.7542 43.2291 14.3229 43.2291ZM19.2708 42.4479C19.2708 42.8792 18.9209 43.2291 18.4896 43.2291C18.0583 43.2291 17.7083 42.8792 17.7083 42.4479V34.1146C17.7083 33.6833 18.0583 33.3333 18.4896 33.3333C18.9209 33.3333 19.2708 33.6833 19.2708 34.1146V42.4479ZM29.6377 34.3892L26.5127 42.7226C26.3982 43.0267 26.1068 43.2291 25.7813 43.2291C25.4557 43.2291 25.1643 43.0267 25.0498 42.7226L21.9248 34.3892C21.7733 33.9854 21.9777 33.5347 22.3821 33.3832C22.7864 33.2357 23.2366 33.4361 23.3876 33.8399L25.7813 40.2232L28.1748 33.8399C28.3259 33.4361 28.7776 33.2316 29.1804 33.3832C29.5848 33.5347 29.7892 33.9854 29.6377 34.3892ZM37.2396 37.5C37.6709 37.5 38.0208 37.8499 38.0208 38.2812C38.0208 38.7125 37.6709 39.0625 37.2396 39.0625H33.8542V41.6666H37.2396C37.6709 41.6666 38.0208 42.0166 38.0208 42.4479C38.0208 42.8792 37.6709 43.2291 37.2396 43.2291H33.0729C32.6416 43.2291 32.2917 42.8792 32.2917 42.4479V34.1146C32.2917 33.6833 32.6416 33.3333 33.0729 33.3333H37.2396C37.6709 33.3333 38.0208 33.6833 38.0208 34.1146C38.0208 34.5459 37.6709 34.8958 37.2396 34.8958H33.8542V37.5H37.2396Z" fill="black"/>
<path d="M23.6976 30.7292C25.2797 30.7292 26.5622 29.4466 26.5622 27.8646C26.5622 26.2825 25.2797 25 23.6976 25C22.1155 25 20.833 26.2825 20.833 27.8646C20.833 29.4466 22.1155 30.7292 23.6976 30.7292Z" fill="black"/>
<path d="M10.6025 10.0143C14.411 7.21079 18.9393 5.72917 23.698 5.72917C28.4567 5.72917 32.985 7.21079 36.7936 10.0143C38.0566 10.9446 39.7966 10.7188 40.7548 9.50064C41.7361 8.25342 41.4998 6.38135 40.2207 5.4341C35.4198 1.8788 29.7064 0 23.698 0C17.6896 0 11.9762 1.87886 7.1753 5.43366C5.90037 6.37754 5.66157 8.25405 6.64131 9.50019C7.55664 10.6644 9.38859 10.9079 10.6025 10.0143Z" fill="black"/>
<path d="M35.6 16.0593C36.58 14.8145 36.3613 12.9212 35.0624 11.9877C31.7349 9.59674 27.8048 8.33331 23.6976 8.33331C19.5905 8.33331 15.6603 9.59674 12.3329 11.9878C11.0374 12.9177 10.8163 14.8145 11.7953 16.0593C12.7126 17.2257 14.4657 17.5068 15.6786 16.6366C18.028 14.9526 20.801 14.0625 23.6976 14.0625C26.5942 14.0625 29.3673 14.9526 31.7166 16.6366C32.9475 17.5206 34.6529 17.2648 35.6 16.0593Z" fill="black"/>
<path d="M30.4489 22.6211C31.4567 21.3338 31.1797 19.3712 29.7947 18.4707C26.1652 16.1107 21.2305 16.1107 17.601 18.4708C16.2179 19.3709 15.9376 21.3327 16.947 22.6212C17.8554 23.7808 19.5068 24.0753 20.7046 23.2895C22.4848 22.1207 24.911 22.1207 26.6912 23.2895C27.8629 24.0588 29.5721 23.7411 30.4489 22.6211Z" fill="black"/>
</svg>
