<svg width="25" height="20" viewBox="0 0 25 20" fill="none" xmlns="http://www.w3.org/2000/svg">
<path d="M21.9141 8.33639H21.8618V6.71533C21.8618 5.66267 21.0054 4.80608 19.9526 4.80608H17.1547V3.91744H18.7759C19.1807 3.91744 19.5084 3.58995 19.5084 3.18502V0.831543C19.5084 0.427185 19.1807 0.0991211 18.7759 0.0991211H14.8535C14.4493 0.0991211 14.1211 0.427185 14.1211 0.831543V3.18502C14.1211 3.58995 14.4493 3.91744 14.8535 3.91744H15.6898V4.83736C14.7993 4.99815 14.1211 5.77882 14.1211 6.71533V8.33639H11.6636V5.1206C11.6636 2.98627 9.92718 1.17181 7.79305 1.17181C5.65872 1.17181 3.92227 2.98627 3.92227 5.1206V8.33639H3.0859C1.38435 8.33639 0 9.72074 0 11.4223V16.9141C0 18.6157 1.38435 20 3.0859 20H21.9141C23.6156 20 25 18.6157 25 16.9141V11.4223C25 9.72074 23.6156 8.33639 21.9141 8.33639ZM16.4227 16.0777H8.57735C8.17318 16.0777 7.84492 15.7495 7.84492 15.3453C7.84492 14.9404 8.17318 14.6129 8.57735 14.6129H16.4227C16.8268 14.6129 17.1551 14.9404 17.1551 15.3453C17.1551 15.7495 16.8268 16.0777 16.4227 16.0777ZM19.953 12.9394H5.04704C4.64287 12.9394 4.31461 12.6113 4.31461 12.207C4.31461 11.8028 4.64287 11.4745 5.04704 11.4745H19.953C20.3571 11.4745 20.6854 11.8028 20.6854 12.207C20.6854 12.6113 20.3571 12.9394 19.953 12.9394Z" fill="black"/>
</svg>
