<svg width="25" height="25" viewBox="0 0 25 25" fill="none" xmlns="http://www.w3.org/2000/svg">
<path d="M17.6758 0H7.32422C3.2793 0 0 3.2793 0 7.32422V17.6758C0 21.7207 3.2793 25 7.32422 25H17.6758C21.7207 25 25 21.7207 25 17.6758V7.32422C25 3.2793 21.7207 0 17.6758 0ZM17.022 4.27441C18.2061 4.27441 19.166 5.23438 19.166 6.41846C19.166 7.60254 18.2061 8.5625 17.022 8.5625C15.8379 8.5625 14.8779 7.60254 14.8779 6.41846C14.8779 5.23438 15.8379 4.27441 17.022 4.27441ZM6.41846 4.27441C7.60254 4.27441 8.5625 5.23438 8.5625 6.41846C8.5625 7.60254 7.60254 8.5625 6.41846 8.5625C5.23438 8.5625 4.27441 7.60254 4.27441 6.41846C4.27441 5.23438 5.23438 4.27441 6.41846 4.27441ZM9.3667 15.4258H8.5625V20.7261H4.27441V15.4258H3.47021V9.06787H9.3667V15.4258ZM11.3813 21.5298H10.4995V3.47021H11.3813V21.5298ZM19.166 16.7109V20.7256H14.8779V16.7109H12.5142L14.4634 9.06787H19.5801L21.5293 16.7109H19.1655H19.166Z" fill="black"/>
</svg>
