<svg width="25" height="25" viewBox="0 0 25 25" fill="none" xmlns="http://www.w3.org/2000/svg">
<path d="M17.6758 0H7.32422C3.2793 0 0 3.2793 0 7.32422V17.6758C0 21.7207 3.2793 25 7.32422 25H17.6758C21.7207 25 25 21.7207 25 17.6758V7.32422C25 3.2793 21.7207 0 17.6758 0ZM12.5 20.0688C11.4214 20.0688 10.5469 19.1943 10.5469 18.1157C10.5469 17.0371 11.4214 16.1626 12.5 16.1626C13.5786 16.1626 14.4531 17.0371 14.4531 18.1157C14.4531 19.1943 13.5786 20.0688 12.5 20.0688ZM16.9287 15.6406C16.5596 16.0098 15.9644 16.0254 15.5801 15.6724C14.9346 15.0791 13.8413 14.3135 12.5 14.3135C11.1587 14.3135 10.0732 15.0742 9.42627 15.667C9.03955 16.022 8.44287 16.0122 8.07178 15.6411C7.67871 15.248 7.69189 14.6069 8.10107 14.231C8.99854 13.4072 10.5269 12.3604 12.5 12.3604C14.4731 12.3604 16.002 13.4072 16.8989 14.231C17.3081 14.6069 17.3213 15.248 16.9287 15.6406ZM19.6055 12.9639C19.2417 13.3276 18.6567 13.3496 18.2705 13.0093C18.083 12.8438 17.8784 12.6743 17.6582 12.5049C15.9985 11.229 14.2632 10.582 12.5 10.582C10.7368 10.582 9.00146 11.229 7.3418 12.5049C7.12158 12.6743 6.91748 12.8438 6.72998 13.0093C6.34375 13.3496 5.75879 13.3281 5.39453 12.9644C4.99561 12.5654 5.01514 11.9126 5.43799 11.5396C6.9502 10.2065 9.39502 8.62939 12.4995 8.62939C15.604 8.62939 18.0493 10.207 19.561 11.54C19.9839 11.9131 20.0034 12.5659 19.6045 12.9648L19.6055 12.9639ZM22.1719 10.3975C21.792 10.7773 21.1782 10.7778 20.7949 10.4019C20.3984 10.0127 19.8628 9.53906 19.1978 9.06934C17.147 7.61963 14.8936 6.88477 12.5 6.88477C8.38281 6.88477 5.51758 9.1123 4.20264 10.4038C3.82031 10.7793 3.20703 10.7764 2.82812 10.3975C2.44531 10.0146 2.4458 9.39209 2.83203 9.0127C3.28125 8.5708 3.87646 8.04492 4.61084 7.52002C6.97949 5.82666 9.70801 4.93164 12.5 4.93164C15.292 4.93164 18.0205 5.82666 20.3892 7.52002C21.123 8.04492 21.7183 8.5708 22.1675 9.0127C22.5537 9.39258 22.5547 10.0146 22.1714 10.3979L22.1719 10.3975Z" fill="black"/>
</svg>
